<svg width="77" height="77" viewBox="0 0 77 77" fill="none" xmlns="http://www.w3.org/2000/svg">
<path d="M70.5852 11.55H68.0185V16.6833C68.0185 18.1014 66.8699 19.25 65.4518 19.25H62.8852C61.4671 19.25 60.3185 18.1014 60.3185 16.6833V11.55H16.6852V16.6833C16.6852 18.1014 15.5366 19.25 14.1185 19.25H11.5518C10.1337 19.25 8.98516 18.1014 8.98516 16.6833V11.55H6.41849C3.58361 11.55 1.28516 13.8484 1.28516 16.6833V32.0833H75.7185V16.6833C75.7185 13.8484 73.42 11.55 70.5852 11.55ZM52.6185 25.6667H24.3852V17.9667H52.6185V25.6667Z" fill="#A9CB73"/>
<path d="M1.28516 70.5833C1.28516 73.4182 3.58361 75.7167 6.41849 75.7167H70.5852C73.42 75.7167 75.7185 73.4182 75.7185 70.5833V32.0833H1.28516V70.5833Z" fill="#EAEAEA"/>
<path d="M11.5471 19.25H14.1138C15.5319 19.25 16.6805 18.1014 16.6805 16.6833V11.55V3.84999C16.6805 2.43191 15.5319 1.28333 14.1138 1.28333H11.5471C10.1291 1.28333 8.98047 2.43191 8.98047 3.84999V11.55V16.6833C8.98047 18.1014 10.1291 19.25 11.5471 19.25Z" fill="#F4CD57"/>
<path d="M62.8792 19.25H65.4458C66.8639 19.25 68.0125 18.1014 68.0125 16.6833V11.55V3.84999C68.0125 2.43191 66.8639 1.28333 65.4458 1.28333H62.8792C61.4611 1.28333 60.3125 2.43191 60.3125 3.84999V11.55V16.6833C60.3125 18.1014 61.4611 19.25 62.8792 19.25Z" fill="#F4CD57"/>
<path d="M52.6161 17.9667H24.3828V25.6667H52.6161V17.9667Z" fill="#EAEAEA"/>
<path d="M70.5833 10.2667H69.3V3.85C69.3 1.72737 67.5726 0 65.45 0H62.8833C60.7607 0 59.0333 1.72737 59.0333 3.85V10.2667H17.9667V3.85C17.9667 1.72737 16.2393 0 14.1167 0H11.55C9.42737 0 7.7 1.72737 7.7 3.85V10.2667H6.41667C2.87852 10.2667 0 13.1452 0 16.6833V70.5833C0 74.1215 2.87852 77 6.41667 77H70.5833C74.1215 77 77 74.1215 77 70.5833V16.6833C77 13.1452 74.1215 10.2667 70.5833 10.2667ZM61.6 3.85C61.6 3.1416 62.1749 2.56667 62.8833 2.56667H65.45C66.1584 2.56667 66.7333 3.1416 66.7333 3.85V11.55V16.6833C66.7333 17.3917 66.1584 17.9667 65.45 17.9667H62.8833C62.1749 17.9667 61.6 17.3917 61.6 16.6833V11.55V3.85ZM10.2667 3.85C10.2667 3.1416 10.8416 2.56667 11.55 2.56667H14.1167C14.8251 2.56667 15.4 3.1416 15.4 3.85V11.55V16.6833C15.4 17.3917 14.8251 17.9667 14.1167 17.9667H11.55C10.8416 17.9667 10.2667 17.3917 10.2667 16.6833V11.55V3.85ZM6.41667 12.8333H7.7V16.6833C7.7 18.806 9.42737 20.5333 11.55 20.5333H14.1167C16.2393 20.5333 17.9667 18.806 17.9667 16.6833V12.8333H59.0333V16.6833C59.0333 18.806 60.7607 20.5333 62.8833 20.5333H65.45C67.5726 20.5333 69.3 18.806 69.3 16.6833V12.8333H70.5833C72.706 12.8333 74.4333 14.5607 74.4333 16.6833V30.8H2.56667V16.6833C2.56667 14.5607 4.29403 12.8333 6.41667 12.8333ZM70.5833 74.4333H6.41667C4.29403 74.4333 2.56667 72.706 2.56667 70.5833V33.3667H74.4333V70.5833C74.4333 72.706 72.706 74.4333 70.5833 74.4333Z" fill="black"/>
<path d="M24.3849 26.95H52.6182C53.3279 26.95 53.9016 26.3764 53.9016 25.6667V17.9667C53.9016 17.257 53.3279 16.6833 52.6182 16.6833H24.3849C23.6752 16.6833 23.1016 17.257 23.1016 17.9667V25.6667C23.1016 26.3764 23.6752 26.95 24.3849 26.95ZM25.6682 19.25H51.3349V24.3833H25.6682V19.25Z" fill="black"/>
<path d="M16.6826 37.2167H8.98255C8.27287 37.2167 7.69922 37.7903 7.69922 38.5V44.9167C7.69922 45.6264 8.27287 46.2 8.98255 46.2H16.6826C17.3922 46.2 17.9659 45.6264 17.9659 44.9167V38.5C17.9659 37.7903 17.3922 37.2167 16.6826 37.2167ZM15.3992 43.6333H10.2659V39.7833H15.3992V43.6333Z" fill="black"/>
<path d="M33.3661 37.2167H25.6661C24.9565 37.2167 24.3828 37.7903 24.3828 38.5V44.9167C24.3828 45.6264 24.9565 46.2 25.6661 46.2H33.3661C34.0758 46.2 34.6495 45.6264 34.6495 44.9167V38.5C34.6495 37.7903 34.0758 37.2167 33.3661 37.2167ZM32.0828 43.6333H26.9495V39.7833H32.0828V43.6333Z" fill="black"/>
<path d="M43.6349 46.2H51.3349C52.0446 46.2 52.6182 45.6264 52.6182 44.9167V38.5C52.6182 37.7903 52.0446 37.2167 51.3349 37.2167H43.6349C42.9252 37.2167 42.3516 37.7903 42.3516 38.5V44.9167C42.3516 45.6264 42.9252 46.2 43.6349 46.2ZM44.9182 39.7833H50.0516V43.6333H44.9182V39.7833Z" fill="black"/>
<path d="M68.0185 37.2167H60.3185C59.6088 37.2167 59.0352 37.7903 59.0352 38.5V44.9167C59.0352 45.6264 59.6088 46.2 60.3185 46.2H68.0185C68.7282 46.2 69.3018 45.6264 69.3018 44.9167V38.5C69.3018 37.7903 68.7282 37.2167 68.0185 37.2167ZM66.7352 43.6333H61.6018V39.7833H66.7352V43.6333Z" fill="black"/>
<path d="M16.6826 50.05H8.98255C8.27287 50.05 7.69922 50.6236 7.69922 51.3333V57.75C7.69922 58.4597 8.27287 59.0333 8.98255 59.0333H16.6826C17.3922 59.0333 17.9659 58.4597 17.9659 57.75V51.3333C17.9659 50.6236 17.3922 50.05 16.6826 50.05ZM15.3992 56.4667H10.2659V52.6167H15.3992V56.4667Z" fill="black"/>
<path d="M33.3661 50.05H25.6661C24.9565 50.05 24.3828 50.6236 24.3828 51.3333V57.75C24.3828 58.4597 24.9565 59.0333 25.6661 59.0333H33.3661C34.0758 59.0333 34.6495 58.4597 34.6495 57.75V51.3333C34.6495 50.6236 34.0758 50.05 33.3661 50.05ZM32.0828 56.4667H26.9495V52.6167H32.0828V56.4667Z" fill="black"/>
<path d="M43.6349 59.0333H51.3349C52.0446 59.0333 52.6182 58.4597 52.6182 57.75V51.3333C52.6182 50.6236 52.0446 50.05 51.3349 50.05H43.6349C42.9252 50.05 42.3516 50.6236 42.3516 51.3333V57.75C42.3516 58.4597 42.9252 59.0333 43.6349 59.0333ZM44.9182 52.6167H50.0516V56.4667H44.9182V52.6167Z" fill="black"/>
<path d="M68.0185 50.05H60.3185C59.6088 50.05 59.0352 50.6236 59.0352 51.3333V57.75C59.0352 58.4597 59.6088 59.0333 60.3185 59.0333H68.0185C68.7282 59.0333 69.3018 58.4597 69.3018 57.75V51.3333C69.3018 50.6236 68.7282 50.05 68.0185 50.05ZM66.7352 56.4667H61.6018V52.6167H66.7352V56.4667Z" fill="black"/>
<path d="M16.6826 62.8833H8.98255C8.27287 62.8833 7.69922 63.457 7.69922 64.1667V70.5833C7.69922 71.293 8.27287 71.8667 8.98255 71.8667H16.6826C17.3922 71.8667 17.9659 71.293 17.9659 70.5833V64.1667C17.9659 63.457 17.3922 62.8833 16.6826 62.8833ZM15.3992 69.3H10.2659V65.45H15.3992V69.3Z" fill="black"/>
<path d="M33.3661 62.8833H25.6661C24.9565 62.8833 24.3828 63.457 24.3828 64.1667V70.5833C24.3828 71.293 24.9565 71.8667 25.6661 71.8667H33.3661C34.0758 71.8667 34.6495 71.293 34.6495 70.5833V64.1667C34.6495 63.457 34.0758 62.8833 33.3661 62.8833ZM32.0828 69.3H26.9495V65.45H32.0828V69.3Z" fill="black"/>
<path d="M46.1127 68.6827L43.256 65.826L41.4414 67.6407L45.2914 71.4907C45.5314 71.7332 45.8586 71.8667 46.1987 71.8667C46.218 71.8667 46.2372 71.8667 46.2565 71.8654C46.6171 71.8487 46.9533 71.6819 47.1856 71.4059L53.6023 63.7059L51.6298 62.062L46.1127 68.6827Z" fill="black"/>
<path d="M61.5151 68.6827L58.6584 65.826L56.8438 67.6407L60.6937 71.4907C60.9337 71.7332 61.261 71.8667 61.6011 71.8667C61.6203 71.8667 61.6396 71.8667 61.6588 71.8654C62.0194 71.8487 62.3557 71.6819 62.588 71.4059L69.0046 63.7059L67.0321 62.062L61.5151 68.6827Z" fill="black"/>
</svg>
