<svg width="79" height="68" viewBox="0 0 79 68" fill="none" xmlns="http://www.w3.org/2000/svg">
<path d="M7.45439 1.74792H72.1255C73.4976 1.74792 74.8136 2.29301 75.7838 3.26326C76.7541 4.23352 77.2992 5.54946 77.2992 6.92161V45.7243H2.2807V6.92161C2.2807 5.54946 2.82578 4.23352 3.79604 3.26326C4.76629 2.29301 6.08224 1.74792 7.45439 1.74792Z" fill="#00DBE6"/>
<path d="M78.5913 47.0177H0.985962V6.92158C0.988016 5.20702 1.67003 3.56328 2.8824 2.35091C4.09478 1.13854 5.73852 0.456522 7.45307 0.454468H72.1242C73.8387 0.456522 75.4824 1.13854 76.6948 2.35091C77.9072 3.56328 78.5892 5.20702 78.5913 6.92158V47.0177ZM3.57281 44.4308H76.0044V6.92158C76.0044 5.89247 75.5956 4.90551 74.8679 4.17781C74.1402 3.45012 73.1533 3.04131 72.1242 3.04131H7.45307C6.42396 3.04131 5.437 3.45012 4.70931 4.17781C3.98162 4.90551 3.57281 5.89247 3.57281 6.92158V44.4308Z" fill="#231F20"/>
<path d="M58.6959 67.7122H20.8814L28.6419 52.1912H50.9354L58.6959 67.7122ZM25.0669 65.1254H54.5104L49.3367 54.778H30.2406L25.0669 65.1254Z" fill="#231F20"/>
<path d="M61.7768 67.7122H17.8005C17.4575 67.7122 17.1285 67.5759 16.8859 67.3334C16.6433 67.0908 16.5071 66.7618 16.5071 66.4188C16.5071 66.0758 16.6433 65.7468 16.8859 65.5042C17.1285 65.2616 17.4575 65.1254 17.8005 65.1254H61.7768C62.1199 65.1254 62.4489 65.2616 62.6914 65.5042C62.934 65.7468 63.0703 66.0758 63.0703 66.4188C63.0703 66.7618 62.934 67.0908 62.6914 67.3334C62.4489 67.5759 62.1199 67.7122 61.7768 67.7122Z" fill="#231F20"/>
<path d="M2.2807 45.7241H77.2992V48.311C77.2992 49.6831 76.7541 50.9991 75.7838 51.9693C74.8136 52.9396 73.4976 53.4847 72.1255 53.4847H7.45439C6.08224 53.4847 4.76629 52.9396 3.79604 51.9693C2.82578 50.9991 2.2807 49.6831 2.2807 48.311V45.7241Z" fill="#0081A7"/>
<path d="M72.1242 54.7782H7.45313C5.73858 54.7761 4.09484 54.0941 2.88246 52.8817C1.67009 51.6693 0.988077 50.0256 0.986023 48.3111V44.4308H78.5913V48.3111C78.5893 50.0256 77.9072 51.6693 76.6949 52.8817C75.4825 54.0941 73.8388 54.7761 72.1242 54.7782ZM3.57287 47.0176V48.3111C3.57287 49.3402 3.98168 50.3271 4.70937 51.0548C5.43706 51.7825 6.42402 52.1913 7.45313 52.1913H72.1242C73.1533 52.1913 74.1403 51.7825 74.868 51.0548C75.5957 50.3271 76.0045 49.3402 76.0045 48.3111V47.0176H3.57287Z" fill="#231F20"/>
<path d="M17.8574 14.6819H51.4864V36.6701C51.4864 37.3561 51.2139 38.0141 50.7287 38.4992C50.2436 38.9844 49.5856 39.2569 48.8995 39.2569H20.4443C19.7582 39.2569 19.1002 38.9844 18.6151 38.4992C18.13 38.0141 17.8574 37.3561 17.8574 36.6701V14.6819Z" fill="#FDFCDC"/>
<path d="M48.8995 40.5504H20.4442C19.4151 40.5504 18.4282 40.1416 17.7005 39.4139C16.9728 38.6862 16.564 37.6993 16.564 36.6701V13.3885H52.7798V36.6701C52.7798 37.6993 52.371 38.6862 51.6433 39.4139C50.9156 40.1416 49.9286 40.5504 48.8995 40.5504ZM19.1508 15.9754V36.6701C19.1508 37.0132 19.2871 37.3422 19.5296 37.5847C19.7722 37.8273 20.1012 37.9636 20.4442 37.9636H48.8995C49.2425 37.9636 49.5715 37.8273 49.8141 37.5847C50.0567 37.3422 50.1929 37.0132 50.1929 36.6701V15.9754H19.1508Z" fill="#231F20"/>
<path d="M26.9114 19.8557H24.3245C23.6102 19.8557 23.0311 20.4348 23.0311 21.1491V23.736C23.0311 24.4503 23.6102 25.0294 24.3245 25.0294H26.9114C27.6257 25.0294 28.2048 24.4503 28.2048 23.736V21.1491C28.2048 20.4348 27.6257 19.8557 26.9114 19.8557Z" fill="#FED9B7"/>
<path d="M26.9114 26.3229H24.3246C23.6385 26.3229 22.9805 26.0504 22.4954 25.5652C22.0103 25.0801 21.7377 24.4221 21.7377 23.7361V21.1492C21.7377 20.4631 22.0103 19.8052 22.4954 19.32C22.9805 18.8349 23.6385 18.5624 24.3246 18.5624H26.9114C27.5975 18.5624 28.2555 18.8349 28.7406 19.32C29.2257 19.8052 29.4983 20.4631 29.4983 21.1492V23.7361C29.4983 24.4221 29.2257 25.0801 28.7406 25.5652C28.2555 26.0504 27.5975 26.3229 26.9114 26.3229ZM24.3246 21.1492V23.7361H26.9114V21.1492H24.3246Z" fill="#231F20"/>
<path d="M35.9653 19.8557H33.3785C32.6642 19.8557 32.0851 20.4348 32.0851 21.1491V23.736C32.0851 24.4503 32.6642 25.0294 33.3785 25.0294H35.9653C36.6797 25.0294 37.2588 24.4503 37.2588 23.736V21.1491C37.2588 20.4348 36.6797 19.8557 35.9653 19.8557Z" fill="#FED9B7"/>
<path d="M35.9653 26.3229H33.3785C32.6924 26.3229 32.0344 26.0504 31.5493 25.5652C31.0642 25.0801 30.7916 24.4221 30.7916 23.7361V21.1492C30.7916 20.4631 31.0642 19.8052 31.5493 19.32C32.0344 18.8349 32.6924 18.5624 33.3785 18.5624H35.9653C36.6514 18.5624 37.3094 18.8349 37.7945 19.32C38.2796 19.8052 38.5522 20.4631 38.5522 21.1492V23.7361C38.5522 24.4221 38.2796 25.0801 37.7945 25.5652C37.3094 26.0504 36.6514 26.3229 35.9653 26.3229ZM33.3785 21.1492V23.7361H35.9653V21.1492H33.3785Z" fill="#231F20"/>
<path d="M45.0193 19.8557H42.4325C41.7181 19.8557 41.139 20.4348 41.139 21.1491V23.736C41.139 24.4503 41.7181 25.0294 42.4325 25.0294H45.0193C45.7336 25.0294 46.3127 24.4503 46.3127 23.736V21.1491C46.3127 20.4348 45.7336 19.8557 45.0193 19.8557Z" fill="#FED9B7"/>
<path d="M45.0193 26.3229H42.4324C41.7464 26.3229 41.0884 26.0504 40.6032 25.5652C40.1181 25.0801 39.8456 24.4221 39.8456 23.7361V21.1492C39.8456 20.4631 40.1181 19.8052 40.6032 19.32C41.0884 18.8349 41.7464 18.5624 42.4324 18.5624H45.0193C45.7053 18.5624 46.3633 18.8349 46.8484 19.32C47.3336 19.8052 47.6061 20.4631 47.6061 21.1492V23.7361C47.6061 24.4221 47.3336 25.0801 46.8484 25.5652C46.3633 26.0504 45.7053 26.3229 45.0193 26.3229ZM42.4324 21.1492V23.7361H45.0193V21.1492H42.4324Z" fill="#231F20"/>
<path d="M26.9114 28.9097H24.3245C23.6102 28.9097 23.0311 29.4888 23.0311 30.2031V32.7899C23.0311 33.5043 23.6102 34.0834 24.3245 34.0834H26.9114C27.6257 34.0834 28.2048 33.5043 28.2048 32.7899V30.2031C28.2048 29.4888 27.6257 28.9097 26.9114 28.9097Z" fill="#FED9B7"/>
<path d="M26.9114 35.3769H24.3246C23.6385 35.3769 22.9805 35.1043 22.4954 34.6192C22.0103 34.1341 21.7377 33.4761 21.7377 32.79V30.2032C21.7377 29.5171 22.0103 28.8591 22.4954 28.374C22.9805 27.8889 23.6385 27.6163 24.3246 27.6163H26.9114C27.5975 27.6163 28.2555 27.8889 28.7406 28.374C29.2257 28.8591 29.4983 29.5171 29.4983 30.2032V32.79C29.4983 33.4761 29.2257 34.1341 28.7406 34.6192C28.2555 35.1043 27.5975 35.3769 26.9114 35.3769ZM24.3246 30.2032V32.79H26.9114V30.2032H24.3246Z" fill="#231F20"/>
<path d="M35.9653 28.9097H33.3785C32.6642 28.9097 32.0851 29.4888 32.0851 30.2031V32.7899C32.0851 33.5043 32.6642 34.0834 33.3785 34.0834H35.9653C36.6797 34.0834 37.2588 33.5043 37.2588 32.7899V30.2031C37.2588 29.4888 36.6797 28.9097 35.9653 28.9097Z" fill="#FED9B7"/>
<path d="M35.9653 35.3769H33.3785C32.6924 35.3769 32.0344 35.1043 31.5493 34.6192C31.0642 34.1341 30.7916 33.4761 30.7916 32.79V30.2032C30.7916 29.5171 31.0642 28.8591 31.5493 28.374C32.0344 27.8889 32.6924 27.6163 33.3785 27.6163H35.9653C36.6514 27.6163 37.3094 27.8889 37.7945 28.374C38.2796 28.8591 38.5522 29.5171 38.5522 30.2032V32.79C38.5522 33.4761 38.2796 34.1341 37.7945 34.6192C37.3094 35.1043 36.6514 35.3769 35.9653 35.3769ZM33.3785 30.2032V32.79H35.9653V30.2032H33.3785Z" fill="#231F20"/>
<path d="M45.0193 28.9097H42.4325C41.7181 28.9097 41.139 29.4888 41.139 30.2031V32.7899C41.139 33.5043 41.7181 34.0834 42.4325 34.0834H45.0193C45.7336 34.0834 46.3127 33.5043 46.3127 32.7899V30.2031C46.3127 29.4888 45.7336 28.9097 45.0193 28.9097Z" fill="#FED9B7"/>
<path d="M45.0193 35.3769H42.4324C41.7464 35.3769 41.0884 35.1043 40.6032 34.6192C40.1181 34.1341 39.8456 33.4761 39.8456 32.79V30.2032C39.8456 29.5171 40.1181 28.8591 40.6032 28.374C41.0884 27.8889 41.7464 27.6163 42.4324 27.6163H45.0193C45.7053 27.6163 46.3633 27.8889 46.8484 28.374C47.3336 28.8591 47.6061 29.5171 47.6061 30.2032V32.79C47.6061 33.4761 47.3336 34.1341 46.8484 34.6192C46.3633 35.1043 45.7053 35.3769 45.0193 35.3769ZM42.4324 30.2032V32.79H45.0193V30.2032H42.4324Z" fill="#231F20"/>
<path d="M20.4443 9.50806H48.8995C49.5856 9.50806 50.2436 9.7806 50.7287 10.2657C51.2139 10.7509 51.4864 11.4088 51.4864 12.0949V14.6817H17.8574V12.0949C17.8574 11.4088 18.13 10.7509 18.6151 10.2657C19.1002 9.7806 19.7582 9.50806 20.4443 9.50806Z" fill="#FED9B7"/>
<path d="M52.7798 15.9754H16.564V12.0951C16.564 11.066 16.9728 10.079 17.7005 9.35135C18.4282 8.62366 19.4151 8.21484 20.4442 8.21484H48.8995C49.9286 8.21484 50.9156 8.62366 51.6433 9.35135C52.371 10.079 52.7798 11.066 52.7798 12.0951V15.9754ZM19.1508 13.3885H50.1929V12.0951C50.1929 11.7521 50.0567 11.4231 49.8141 11.1805C49.5715 10.938 49.2425 10.8017 48.8995 10.8017H20.4442C20.1012 10.8017 19.7722 10.938 19.5296 11.1805C19.2871 11.4231 19.1508 11.7521 19.1508 12.0951V13.3885Z" fill="#231F20"/>
<path d="M26.9114 5.62817H25.6179C24.9036 5.62817 24.3245 6.20726 24.3245 6.9216V9.50844C24.3245 10.2228 24.9036 10.8019 25.6179 10.8019H26.9114C27.6257 10.8019 28.2048 10.2228 28.2048 9.50844V6.9216C28.2048 6.20726 27.6257 5.62817 26.9114 5.62817Z" fill="#FED9B7"/>
<path d="M26.9114 12.0951H25.618C24.9319 12.0951 24.2739 11.8226 23.7888 11.3375C23.3037 10.8523 23.0311 10.1944 23.0311 9.50828V6.92144C23.0311 6.23536 23.3037 5.57739 23.7888 5.09226C24.2739 4.60714 24.9319 4.33459 25.618 4.33459H26.9114C27.5975 4.33459 28.2554 4.60714 28.7406 5.09226C29.2257 5.57739 29.4982 6.23536 29.4982 6.92144V9.50828C29.4982 10.1944 29.2257 10.8523 28.7406 11.3375C28.2554 11.8226 27.5975 12.0951 26.9114 12.0951ZM25.618 6.92144V9.50828H26.9114V6.92144H25.618Z" fill="#231F20"/>
<path d="M43.7259 5.62817H42.4325C41.7181 5.62817 41.139 6.20726 41.139 6.9216V9.50844C41.139 10.2228 41.7181 10.8019 42.4325 10.8019H43.7259C44.4402 10.8019 45.0193 10.2228 45.0193 9.50844V6.9216C45.0193 6.20726 44.4402 5.62817 43.7259 5.62817Z" fill="#FED9B7"/>
<path d="M43.7258 12.0951H42.4324C41.7464 12.0951 41.0884 11.8226 40.6032 11.3375C40.1181 10.8523 39.8456 10.1944 39.8456 9.50828V6.92144C39.8456 6.23536 40.1181 5.57739 40.6032 5.09226C41.0884 4.60714 41.7464 4.33459 42.4324 4.33459H43.7258C44.4119 4.33459 45.0699 4.60714 45.555 5.09226C46.0402 5.57739 46.3127 6.23536 46.3127 6.92144V9.50828C46.3127 10.1944 46.0402 10.8523 45.555 11.3375C45.0699 11.8226 44.4119 12.0951 43.7258 12.0951ZM42.4324 6.92144V9.50828H43.7258V6.92144H42.4324Z" fill="#231F20"/>
<path d="M52.7798 41.8437C57.7801 41.8437 61.8337 37.7902 61.8337 32.7898C61.8337 27.7894 57.7801 23.7358 52.7798 23.7358C47.7794 23.7358 43.7258 27.7894 43.7258 32.7898C43.7258 37.7902 47.7794 41.8437 52.7798 41.8437Z" fill="#F07167"/>
<path d="M52.7798 43.1373C50.7333 43.1373 48.7327 42.5304 47.0311 41.3934C45.3295 40.2564 44.0033 38.6404 43.2201 36.7497C42.4369 34.8589 42.232 32.7784 42.6313 30.7712C43.0305 28.764 44.016 26.9203 45.4631 25.4732C46.9102 24.0261 48.7539 23.0406 50.7611 22.6413C52.7683 22.2421 54.8488 22.447 56.7396 23.2302C58.6303 24.0133 60.2464 25.3396 61.3833 27.0412C62.5203 28.7428 63.1272 30.7434 63.1272 32.7899C63.1241 35.5332 62.033 38.1633 60.0931 40.1032C58.1533 42.043 55.5232 43.1342 52.7798 43.1373ZM52.7798 25.0294C51.2449 25.0294 49.7445 25.4845 48.4683 26.3372C47.1921 27.19 46.1974 28.402 45.61 29.8201C45.0226 31.2381 44.869 32.7985 45.1684 34.3039C45.4678 35.8093 46.207 37.1921 47.2923 38.2774C48.3776 39.3627 49.7604 40.1019 51.2658 40.4013C52.7712 40.7007 54.3316 40.5471 55.7496 39.9597C57.1677 39.3723 58.3797 38.3776 59.2325 37.1014C60.0852 35.8252 60.5403 34.3248 60.5403 32.7899C60.5383 30.7323 59.72 28.7596 58.2651 27.3046C56.8101 25.8497 54.8374 25.0314 52.7798 25.0294Z" fill="#231F20"/>
<path d="M56.5618 34.0833H52.7798C52.439 34.0833 52.112 33.9488 51.8698 33.709C51.6276 33.4692 51.4898 33.1436 51.4864 32.8028L51.4295 26.9824C51.4278 26.8125 51.4596 26.644 51.523 26.4864C51.5864 26.3288 51.6803 26.1853 51.7992 26.064C51.9181 25.9427 52.0597 25.846 52.216 25.7794C52.3723 25.7128 52.5401 25.6777 52.71 25.676H52.7229C53.0637 25.676 53.3908 25.8105 53.633 26.0503C53.8752 26.29 54.0129 26.6157 54.0164 26.9565L54.0603 31.4964H56.5618C56.9048 31.4964 57.2338 31.6327 57.4764 31.8753C57.719 32.1178 57.8552 32.4468 57.8552 32.7898C57.8552 33.1329 57.719 33.4619 57.4764 33.7044C57.2338 33.947 56.9048 34.0833 56.5618 34.0833Z" fill="#231F20"/>
</svg>
