<svg width="95" height="82" viewBox="0 0 95 82" fill="none" xmlns="http://www.w3.org/2000/svg">
<path d="M27.347 55.6284L36.7413 58.7603C38.5561 59.3653 40.1345 60.526 41.2531 62.0779C42.3716 63.6297 42.9736 65.4942 42.9738 67.4071V80.3709H1.30225V67.4071C1.30242 65.4942 1.90442 63.6297 3.02298 62.0779C4.14154 60.526 5.71998 59.3653 7.53475 58.7603L16.9291 55.6284H27.347Z" fill="#E0E0E0"/>
<path d="M28.6492 75.162C29.6853 75.162 30.679 74.7504 31.4117 74.0177C32.1443 73.2851 32.5559 72.2914 32.5559 71.2553V57.3643L27.347 55.6284H16.9291L7.53475 58.7603C5.71998 59.3653 4.14154 60.526 3.02298 62.0779C1.90442 63.6297 1.30242 65.4942 1.30225 67.4071V75.162H28.6492Z" fill="#F5F5F5"/>
<path d="M78.0447 79.0685C77.7294 76.5516 76.506 74.2366 74.6042 72.5582C72.7024 70.8798 70.2532 69.9536 67.7167 69.9536C65.1802 69.9536 62.731 70.8798 60.8292 72.5582C58.9275 74.2366 57.704 76.5516 57.3887 79.0685H78.0447Z" fill="#F7C244"/>
<path d="M74.2279 79.0691V72.2454C72.784 71.086 71.0568 70.333 69.2247 70.064C67.3926 69.795 65.5219 70.0198 63.8057 70.7153C62.0894 71.4107 60.5899 72.5516 59.4619 74.0201C58.3338 75.4887 57.6181 77.2316 57.3887 79.0691H74.2279Z" fill="#F9CE69"/>
<path d="M57.2987 67.349C63.0524 67.349 67.7166 62.6847 67.7166 56.9311C67.7166 51.1774 63.0524 46.5132 57.2987 46.5132C51.5451 46.5132 46.8809 51.1774 46.8809 56.9311C46.8809 62.6847 51.5451 67.349 57.2987 67.349Z" fill="#F7C244"/>
<path d="M57.299 46.5132C55.5926 46.5117 53.9121 46.9296 52.4053 47.7304C50.8984 48.5311 49.6116 49.69 48.658 51.105C47.7044 52.52 47.1133 54.1478 46.9367 55.845C46.7602 57.5422 47.0036 59.2568 47.6455 60.8378H59.9035C60.9396 60.8378 61.9333 60.4262 62.6659 59.6935C63.3986 58.9609 63.8102 57.9672 63.8102 56.9311V48.8051C61.9652 47.32 59.6674 46.5112 57.299 46.5132Z" fill="#F9CE69"/>
<path d="M32.556 36.0957V41.6171C32.556 44.2973 31.4913 46.8676 29.5962 48.7627C27.7011 50.6578 25.1307 51.7225 22.4506 51.7225H22.1902C20.8182 51.7275 19.4588 51.4618 18.1897 50.9406C16.9205 50.4195 15.7667 49.6531 14.7941 48.6854C13.8216 47.7177 13.0495 46.5677 12.522 45.3012C11.9946 44.0347 11.7221 42.6766 11.7202 41.3046V36.0957H19.5336C20.7075 36.0955 21.8582 35.7686 22.8569 35.1515C23.8555 34.5344 24.6626 33.6516 25.1879 32.6018L26.0448 30.8867L26.9017 32.6018C27.427 33.6516 28.2341 34.5344 29.2328 35.1515C30.2314 35.7686 31.3821 36.0955 32.556 36.0957Z" fill="#FDDFB1"/>
<path d="M35.1608 37.3975H32.5563V41.6167C32.5563 41.9514 32.5381 42.2808 32.5068 42.6064H35.1608C35.8515 42.6064 36.514 42.332 37.0024 41.8436C37.4909 41.3551 37.7653 40.6927 37.7653 40.0019C37.7653 39.3112 37.4909 38.6487 37.0024 38.1603C36.514 37.6719 35.8515 37.3975 35.1608 37.3975Z" fill="#FDDFB1"/>
<path d="M11.7202 41.3042V37.3975H9.1157C8.42495 37.3975 7.7625 37.6719 7.27406 38.1603C6.78563 38.6487 6.51123 39.3112 6.51123 40.0019C6.51123 40.6927 6.78563 41.3551 7.27406 41.8436C7.7625 42.332 8.42495 42.6064 9.1157 42.6064H11.8113C11.7534 42.1747 11.7229 41.7397 11.7202 41.3042Z" fill="#FDDFB1"/>
<path d="M26.4258 20.4678H17.8518C16.4241 20.4674 15.018 20.8171 13.7568 21.4862C12.4955 22.1553 11.4175 23.1234 10.6171 24.3057C9.81678 25.488 9.31845 26.8485 9.16579 28.268C9.01314 29.6876 9.21081 31.1229 9.7415 32.4483L11.7209 37.3968V36.0946H19.5343C20.7082 36.0944 21.8589 35.7675 22.8575 35.1505C23.8562 34.5334 24.6633 33.6505 25.1886 32.6007L26.0455 30.8857L26.9024 32.6007C27.4277 33.6505 28.2348 34.5334 29.2335 35.1505C30.2321 35.7675 31.3828 36.0944 32.5567 36.0946V37.3968L34.5361 32.4483C35.0668 31.1229 35.2644 29.6876 35.1118 28.268C34.9591 26.8485 34.4608 25.488 33.6604 24.3057C32.8601 23.1234 31.7821 22.1553 30.5208 21.4862C29.2595 20.8171 27.8535 20.4674 26.4258 20.4678Z" fill="#7D909B"/>
<path d="M22.4502 51.7217H22.1897C20.3418 51.7232 18.5264 51.2347 16.9287 50.3062V55.6284L22.1377 60.8373L27.3466 55.6284V50.4533C25.8493 51.2867 24.1638 51.7233 22.4502 51.7217Z" fill="#FDDFB1"/>
<path d="M27.3476 63.4418L30.1058 56.5478L27.3476 55.6284L22.1387 60.8374L27.3476 63.4418Z" fill="#CCCCCC"/>
<path d="M80.5777 2.11475L69.9568 5.65508L62.8761 19.8164V31.6175C62.8703 32.1831 63.0684 32.7319 63.4342 33.1633C63.7999 33.5948 64.3089 33.8801 64.8678 33.9669C65.4267 34.0538 65.9983 33.9364 66.4777 33.6363C66.9571 33.3361 67.3124 32.8733 67.4785 32.3326C67.5187 32.361 67.56 32.3857 67.5965 32.4117V33.9777C67.5965 34.6037 67.8452 35.204 68.2878 35.6466C68.7305 36.0893 69.3308 36.3379 69.9568 36.3379C70.5827 36.3379 71.1831 36.0893 71.6257 35.6466C72.0683 35.204 72.317 34.6037 72.317 33.9777V35.1578C72.317 35.7838 72.5656 36.3841 73.0083 36.8267C73.4509 37.2694 74.0512 37.518 74.6772 37.518C75.3032 37.518 75.9035 37.2694 76.3461 36.8267C76.7888 36.3841 77.0374 35.7838 77.0374 35.1578V30.4374C77.0374 31.0633 77.2861 31.6637 77.7287 32.1063C78.1713 32.5489 78.7717 32.7976 79.3976 32.7976C80.0236 32.7976 80.6239 32.5489 81.0666 32.1063C81.5092 31.6637 81.7579 31.0633 81.7579 30.4374V22.3454L87.6584 19.8164L90.0186 16.2761H94.7391V2.11475H80.5777Z" fill="#FDDFB1"/>
<path d="M26.9017 32.6018L26.0448 30.8867L25.1879 32.6018C24.6626 33.6516 23.8555 34.5344 22.8569 35.1515C21.8582 35.7686 20.7075 36.0955 19.5336 36.0957H11.7202V41.3046C11.7212 42.644 11.9812 43.9706 12.4859 45.2113H24.7426C25.7787 45.2113 26.7724 44.7997 27.505 44.0671C28.2377 43.3344 28.6493 42.3407 28.6493 41.3046V34.7335C27.9169 34.1603 27.3202 33.4324 26.9017 32.6018Z" fill="#FDE5C1"/>
<path d="M70.7933 6.62083L80.7688 3.29528H94.7389V0.935059H80.5776C80.4508 0.934967 80.3249 0.955289 80.2047 0.995244L69.5837 4.53557C69.2871 4.6346 69.0416 4.84664 68.9004 5.12563L61.8197 19.2869C61.7377 19.4515 61.6953 19.6329 61.6958 19.8168V31.6179C61.6939 32.1972 61.8346 32.7681 62.1055 33.2802C62.3765 33.7922 62.7693 34.2297 63.2494 34.5539C63.7295 34.8782 64.282 35.0792 64.8582 35.1393C65.4344 35.1995 66.0165 35.1168 66.5532 34.8986C66.688 35.4211 66.942 35.9052 67.2952 36.313C67.6485 36.7209 68.0914 37.0414 68.5892 37.2494C69.087 37.4575 69.6263 37.5474 70.1647 37.5122C70.7031 37.477 71.226 37.3176 71.6925 37.0464C72.1007 37.696 72.7092 38.195 73.4261 38.4682C74.143 38.7413 74.9293 38.7737 75.6663 38.5604C76.4032 38.3472 77.0507 37.8999 77.5109 37.2861C77.9712 36.6723 78.2191 35.9254 78.2174 35.1582V33.761C78.5953 33.9008 78.9945 33.9742 79.3975 33.9781C80.3364 33.9781 81.2369 33.6051 81.9009 32.9412C82.5648 32.2773 82.9378 31.3768 82.9378 30.4378V23.1211L88.1232 20.899C88.3335 20.8089 88.5131 20.6597 88.6401 20.4694L90.6498 17.4566H94.7389V15.0964H90.0185C89.8242 15.0963 89.633 15.1443 89.4617 15.2359C89.2904 15.3275 89.1444 15.4599 89.0366 15.6215L86.8711 18.8727L78.9325 22.275C78.7946 22.3341 78.6692 22.419 78.5631 22.5252L69.8551 31.2332C69.597 31.4603 69.2624 31.5812 68.9187 31.5715C68.575 31.5618 68.2478 31.4222 68.0029 31.1809C67.758 30.9396 67.6136 30.6145 67.5988 30.271C67.5841 29.9275 67.7 29.5911 67.9233 29.3297L75.5656 20.5969C75.7295 20.4082 75.8292 20.1723 75.8504 19.9234C75.8716 19.6744 75.8132 19.4251 75.6837 19.2114L72.3168 13.5894V11.556H69.9566V13.9163C69.9567 14.1304 70.015 14.3405 70.1253 14.524L71.0175 16.011L66.6747 21.4395C66.5073 21.6488 66.4161 21.909 66.4163 22.177V27.4651L66.146 27.7731C65.5426 28.4731 65.2187 29.371 65.2361 30.295C65.2396 31.0945 65.5049 31.8709 65.9914 32.5054C65.7828 32.6902 65.5148 32.7941 65.2361 32.798C64.9232 32.798 64.623 32.6737 64.4017 32.4524C64.1804 32.2311 64.056 31.9309 64.056 31.6179V20.0953L70.7933 6.62083ZM75.8571 35.1582C75.8571 35.4712 75.7328 35.7714 75.5115 35.9927C75.2902 36.214 74.99 36.3383 74.677 36.3383C74.364 36.3383 74.0639 36.214 73.8426 35.9927C73.6212 35.7714 73.4969 35.4712 73.4969 35.1582V30.9264L75.8571 28.5661V35.1582ZM80.0713 24.352L80.5776 24.1348V30.4378C80.5776 30.7508 80.4532 31.0509 80.2319 31.2723C80.0106 31.4936 79.7104 31.6179 79.3975 31.6179C79.0845 31.6179 78.7843 31.4936 78.563 31.2723C78.3417 31.0509 78.2174 30.7508 78.2174 30.4378V26.2059L80.0713 24.352ZM71.1367 33.2158V33.9781C71.1367 34.2911 71.0124 34.5913 70.7911 34.8126C70.5697 35.0339 70.2696 35.1582 69.9566 35.1582C69.6436 35.1582 69.3434 35.0339 69.1221 34.8126C68.9008 34.5913 68.7765 34.2911 68.7765 33.9781V33.964C68.8249 33.964 68.8709 33.9781 68.9193 33.9781C69.7216 33.9717 70.5 33.7041 71.1367 33.2158ZM68.7765 22.5948L72.3168 18.1741L73.2267 19.6905L68.7765 24.7733V22.5948Z" fill="black"/>
<path d="M69.0189 56.9306C69.0189 54.6126 68.3315 52.3466 67.0437 50.4192C65.7559 48.4919 63.9254 46.9897 61.7838 46.1026C59.6423 45.2155 57.2857 44.9834 55.0123 45.4357C52.7388 45.8879 50.6505 47.0041 49.0114 48.6432C47.3723 50.2823 46.256 52.3706 45.8038 54.6441C45.3516 56.9176 45.5837 59.2741 46.4708 61.4157C47.3578 63.5573 48.86 65.3877 50.7874 66.6755C52.7148 67.9633 54.9807 68.6507 57.2987 68.6507C60.4061 68.6473 63.3851 67.4114 65.5823 65.2142C67.7795 63.017 69.0154 60.0379 69.0189 56.9306ZM48.1831 56.9306C48.1831 55.1277 48.7177 53.3653 49.7194 51.8662C50.721 50.3671 52.1447 49.1988 53.8103 48.5088C55.476 47.8189 57.3089 47.6384 59.0771 47.9901C60.8454 48.3418 62.4696 49.21 63.7445 50.4848C65.0193 51.7597 65.8875 53.3839 66.2392 55.1522C66.591 56.9205 66.4105 58.7533 65.7205 60.419C65.0306 62.0847 63.8622 63.5083 62.3631 64.51C60.8641 65.5116 59.1017 66.0462 57.2987 66.0462C54.882 66.0435 52.565 65.0822 50.856 63.3733C49.1471 61.6644 48.1858 59.3474 48.1831 56.9306Z" fill="black"/>
<path d="M58.6015 64.744V63.2022C59.4697 62.8964 60.2016 62.2932 60.6677 61.4995C61.1338 60.7057 61.3039 59.7726 61.1479 58.8655C60.9919 57.9584 60.5199 57.1357 59.8155 56.5432C59.1111 55.9507 58.2197 55.6266 57.2993 55.6284C57.0417 55.6284 56.79 55.552 56.5758 55.4089C56.3617 55.2658 56.1947 55.0624 56.0962 54.8245C55.9976 54.5865 55.9718 54.3247 56.0221 54.0721C56.0723 53.8195 56.1963 53.5874 56.3785 53.4053C56.5606 53.2232 56.7926 53.0992 57.0452 53.0489C57.2978 52.9987 57.5597 53.0245 57.7976 53.123C58.0356 53.2216 58.239 53.3885 58.3821 53.6027C58.5251 53.8168 58.6015 54.0686 58.6015 54.3261H61.206C61.2027 53.521 60.9506 52.7366 60.4844 52.0802C60.0182 51.4237 59.3606 50.9274 58.6015 50.659V49.1172H55.9971V50.659C55.1289 50.9648 54.3969 51.568 53.9309 52.3618C53.4648 53.1555 53.2947 54.0886 53.4507 54.9957C53.6066 55.9029 54.0786 56.7255 54.783 57.318C55.4875 57.9105 56.3788 58.2346 57.2993 58.2328C57.5568 58.2328 57.8086 58.3092 58.0228 58.4523C58.2369 58.5954 58.4038 58.7988 58.5024 59.0367C58.601 59.2747 58.6267 59.5365 58.5765 59.7891C58.5263 60.0417 58.4022 60.2738 58.2201 60.4559C58.038 60.638 57.806 60.762 57.5533 60.8123C57.3007 60.8625 57.0389 60.8367 56.8009 60.7382C56.563 60.6396 56.3596 60.4727 56.2165 60.2586C56.0734 60.0444 55.9971 59.7926 55.9971 59.5351H53.3926C53.3959 60.3402 53.6479 61.1246 54.1141 61.781C54.5803 62.4375 55.238 62.9338 55.9971 63.2022V64.744H58.6015Z" fill="black"/>
<path d="M67.7163 68.6505C64.835 68.6544 62.0558 69.7184 59.9085 71.6397C57.7612 73.561 56.396 76.2052 56.073 79.0684H44.276V67.4069C44.2781 65.2199 43.591 63.088 42.3122 61.3139C41.0335 59.5398 39.2282 58.2138 37.1528 57.5242L28.6492 54.6892V51.1797C29.9186 50.3572 31.0122 49.2909 31.8665 48.0427C32.7209 46.7944 33.3191 45.3891 33.6264 43.908H35.1604C36.1965 43.908 37.1902 43.4964 37.9229 42.7638C38.6555 42.0311 39.0671 41.0374 39.0671 40.0013C39.0671 38.9652 38.6555 37.9715 37.9229 37.2388C37.1902 36.5062 36.1965 36.0946 35.1604 36.0946H34.4806L35.7451 32.9302C36.3541 31.4072 36.5807 29.7581 36.4048 28.1273C36.229 26.4965 35.6562 24.9336 34.7366 23.5754C33.8169 22.2172 32.5785 21.105 31.1295 20.3363C29.6805 19.5675 28.0653 19.1655 26.425 19.1655H17.8511C16.2107 19.1658 14.5955 19.5679 13.1465 20.3368C11.6976 21.1058 10.4592 22.218 9.53954 23.5763C8.61992 24.9346 8.04715 26.4975 7.87132 28.1284C7.6955 29.7593 7.92198 31.4084 8.53096 32.9315L9.79543 36.0946H9.11566C8.07954 36.0946 7.08585 36.5062 6.3532 37.2388C5.62055 37.9715 5.20895 38.9652 5.20895 40.0013C5.20895 41.0374 5.62055 42.0311 6.3532 42.7638C7.08585 43.4964 8.07954 43.908 9.11566 43.908H10.7213C11.3921 46.8184 13.1462 49.364 15.6268 51.0273V54.6892L7.12324 57.5242C5.04787 58.2138 3.24258 59.5398 1.96384 61.3139C0.685098 63.088 -0.00205502 65.2199 4.6166e-06 67.4069V80.3706C4.6166e-06 80.716 0.137204 81.0472 0.381421 81.2915C0.625637 81.5357 0.956867 81.6729 1.30224 81.6729H80.7387V79.0684H79.3596C79.0366 76.2052 77.6714 73.561 75.5241 71.6397C73.3768 69.7184 70.5976 68.6544 67.7163 68.6505ZM41.6716 67.4069V79.0684H36.4626V69.9527H33.8582V79.0684H27.1308L24.7868 66.1411L25.5095 63.9755L26.7714 64.6071C26.9502 64.6962 27.1472 64.743 27.347 64.7438C27.5049 64.7441 27.6616 64.7154 27.8093 64.6592C27.9776 64.5949 28.1308 64.4966 28.2594 64.3705C28.388 64.2443 28.4893 64.093 28.5567 63.926L30.863 58.1714L36.3324 59.9945C37.8883 60.5123 39.2416 61.5071 40.2001 62.8377C41.1585 64.1683 41.6734 65.767 41.6716 67.4069ZM16.5775 57.1192L19.9398 60.4816L17.6115 61.6458L15.8938 57.3484L16.5775 57.1192ZM27.6986 57.1192L28.3822 57.3471L26.6646 61.6445L24.3362 60.4803L27.6986 57.1192ZM22.138 62.293L23.1499 62.7996L22.5013 64.7438H21.7747L21.1236 62.7996L22.138 62.293ZM21.9219 67.3483H22.3542L24.482 79.0684H19.794L21.9219 67.3483ZM35.1604 38.6991C35.5058 38.6991 35.837 38.8363 36.0812 39.0805C36.3254 39.3247 36.4626 39.6559 36.4626 40.0013C36.4626 40.3467 36.3254 40.6779 36.0812 40.9221C35.837 41.1663 35.5058 41.3035 35.1604 41.3035H33.8582V38.6991H35.1604ZM17.8511 21.77H26.425C27.6396 21.7703 28.8357 22.0681 29.9087 22.6375C30.9816 23.207 31.8986 24.0306 32.5796 25.0364C33.2606 26.0422 33.6848 27.1995 33.815 28.4072C33.9453 29.6148 33.7777 30.836 33.3268 31.9639L32.2043 34.7676C31.3344 34.7117 30.4944 34.4284 29.7684 33.946C29.0423 33.4635 28.4557 32.7989 28.0671 32.0186L27.2167 30.3036C27.0964 30.1017 26.9258 29.9346 26.7215 29.8186C26.5171 29.7025 26.2862 29.6415 26.0512 29.6415C25.8163 29.6415 25.5853 29.7025 25.381 29.8186C25.1767 29.9346 25.0061 30.1017 24.8857 30.3036L24.0289 32.0186C23.6141 32.8552 22.973 33.5587 22.1783 34.049C21.3836 34.5394 20.4673 34.7969 19.5336 34.7924H12.0809L10.9492 31.9652C10.4981 30.8373 10.3303 29.6159 10.4604 28.4081C10.5905 27.2003 11.0146 26.0427 11.6957 25.0368C12.3767 24.0308 13.2938 23.207 14.3669 22.6375C15.44 22.068 16.6362 21.7702 17.8511 21.77ZM9.11566 41.3035C8.77028 41.3035 8.43906 41.1663 8.19484 40.9221C7.95062 40.6779 7.81342 40.3467 7.81342 40.0013C7.81342 39.6559 7.95062 39.3247 8.19484 39.0805C8.43906 38.8363 8.77028 38.6991 9.11566 38.6991H10.4179V41.3035H9.11566ZM13.0224 41.3035V37.3968H19.5336C20.8422 37.4013 22.1297 37.0669 23.2708 36.4261C24.4118 35.7853 25.3675 34.8599 26.0447 33.7402C26.6074 34.6708 27.3638 35.4693 28.2627 36.0814C29.1615 36.6935 30.1816 37.1049 31.2537 37.2874V41.6161C31.2509 43.95 30.3226 46.1875 28.6723 47.8378C27.022 49.4881 24.7844 50.4164 22.4506 50.4192H22.1901C19.7665 50.423 17.4403 49.4655 15.7217 47.7566C14.0031 46.0478 13.0324 43.7271 13.0224 41.3035ZM22.1888 53.0237H22.4493C23.6716 53.0222 24.8857 52.8234 26.0447 52.4351V55.089L22.138 58.9957L18.2313 55.089V52.327C19.5006 52.7851 20.8394 53.0208 22.1888 53.0237ZM2.60448 67.4069C2.60269 65.767 3.11757 64.1683 4.076 62.8377C5.03443 61.5071 6.3877 60.5123 7.94365 59.9945L13.413 58.1714L15.7141 63.926C15.7816 64.093 15.8828 64.2443 16.0114 64.3705C16.14 64.4966 16.2933 64.5949 16.4616 64.6592C16.6108 64.7161 16.7693 64.7448 16.9291 64.7438C17.1305 64.7453 17.3296 64.7008 17.5112 64.6136L18.773 63.982L19.4958 66.1476L17.1453 79.0684H10.4179V69.9527H7.81342V79.0684H2.60448V67.4069ZM66.4141 77.7662C66.4141 77.4208 66.5513 77.0896 66.7955 76.8453C67.0397 76.6011 67.3709 76.4639 67.7163 76.4639C68.0617 76.4639 68.3929 76.6011 68.6371 76.8453C68.8813 77.0896 69.0185 77.4208 69.0185 77.7662H71.623C71.6197 76.961 71.3677 76.1766 70.9015 75.5202C70.4352 74.8638 69.7776 74.3674 69.0185 74.0991V72.5572H66.4141V74.0991C65.9282 74.2639 65.4803 74.5245 65.0969 74.8655C64.7135 75.2065 64.4023 75.6208 64.1819 76.0841C63.9614 76.5474 63.836 77.0503 63.8133 77.5628C63.7905 78.0754 63.8707 78.5874 64.0492 79.0684H58.71C59.0214 76.9004 60.104 74.9172 61.7592 73.4828C63.4143 72.0483 65.5312 71.2587 67.7215 71.2587C69.9118 71.2587 72.0287 72.0483 73.6839 73.4828C75.3391 74.9172 76.4216 76.9004 76.733 79.0684H67.7163C67.3709 79.0684 67.0397 78.9312 66.7955 78.687C66.5513 78.4428 66.4141 78.1115 66.4141 77.7662Z" fill="black"/>
<path d="M70.3213 41.3042H72.9258V50.4199H70.3213V41.3042Z" fill="black"/>
<path d="M70.3213 53.0244H72.9258V55.6289H70.3213V53.0244Z" fill="black"/>
<path d="M75.5303 46.5132H78.1347V60.8378H75.5303V46.5132Z" fill="black"/>
<path d="M41.6719 38.6997H44.2763V47.8154H41.6719V38.6997Z" fill="black"/>
<path d="M41.6719 50.4194H44.2763V53.0239H41.6719V50.4194Z" fill="black"/>
<path d="M36.4629 46.5132H39.0674V55.6288H36.4629V46.5132Z" fill="black"/>
</svg>
