<svg width="77" height="92" viewBox="0 0 77 92" fill="none" xmlns="http://www.w3.org/2000/svg">
<path d="M43.8793 8.37972V25.9578C41.4682 26.0169 39.5318 27.9927 39.5318 30.4181V47.2277H5.48989C3.44602 47.2277 1.78906 45.5725 1.78906 43.5286V8.37972C1.78906 6.33584 3.44602 4.68068 5.48989 4.68068H40.1802C42.2241 4.68068 43.8793 6.33584 43.8793 8.37972Z" fill="#F9F6F4"/>
<path d="M43.8826 8.3797V16.3352H1.79297V8.39153C1.79297 6.34174 3.45476 4.67995 5.50455 4.67995H40.1834C42.1591 4.67995 43.8826 6.24716 43.8826 8.3797Z" fill="#FF7B7B"/>
<path d="M39.5352 71.1406V85.4605C39.5352 87.9253 41.5332 89.9233 43.998 89.9233H70.7466C73.2115 89.9233 75.2095 87.9253 75.2095 85.4605V30.4176C75.2095 27.9527 73.2115 25.9547 70.7466 25.9547H43.998C41.5332 25.9547 39.5352 27.9527 39.5352 30.4176V55.3836V71.1406Z" fill="#868EAF"/>
<path d="M39.5352 71.1406V77.8845C39.5352 80.3494 41.5332 82.3474 43.998 82.3474H70.7466C73.2115 82.3474 75.2095 80.3494 75.2095 77.8845V30.4176C75.2095 27.9527 73.2115 25.9547 70.7466 25.9547H43.998C41.5332 25.9547 39.5352 27.9527 39.5352 30.4176V55.3836V71.1406Z" fill="#A0C8FF"/>
<path d="M64.1336 25.9547C63.2356 25.9547 62.3937 26.3921 61.8778 27.1271L58.9458 31.303C57.8481 32.8663 55.5323 32.8672 54.4346 31.3039C53.4076 29.8413 52.256 28.201 51.5019 27.1269C50.9858 26.392 50.1441 25.9545 49.2461 25.9545L64.1336 25.9547Z" fill="#868EAF"/>
<path d="M30.8524 22.4867H27.7601C26.7709 22.4867 25.9688 23.2889 25.9688 24.278C25.9688 25.2672 26.7709 26.0693 27.7601 26.0693H29.0611V38.7457C29.0611 39.7348 29.8632 40.537 30.8524 40.537C31.8415 40.537 32.6437 39.7348 32.6437 38.7457V24.278C32.6437 23.2889 31.8415 22.4867 30.8524 22.4867Z" fill="black"/>
<path d="M17.5206 22.3166C14.9015 22.3166 12.6346 24.1797 12.1303 26.7468C11.9397 27.7177 12.5721 28.6592 13.5428 28.8498C14.5139 29.0408 15.4552 28.4081 15.6458 27.4374C15.821 26.5458 16.6093 25.899 17.5206 25.899C18.5742 25.899 19.4313 26.7561 19.4313 27.8096C19.4313 28.8632 18.5742 29.7204 17.5206 29.7204C16.5314 29.7204 15.7292 30.5225 15.7292 31.5117C15.7292 32.5008 16.5314 33.303 17.5206 33.303C18.5742 33.303 19.4313 34.1601 19.4313 35.2136C19.4313 36.2672 18.5742 37.1244 17.5206 37.1244C16.5724 37.1244 15.759 36.4186 15.6286 35.4837C15.6162 35.3945 15.6099 35.3035 15.6099 35.2136C15.6099 34.2244 14.8078 33.4223 13.8186 33.4223C12.8295 33.4223 12.0273 34.2244 12.0273 35.2136C12.0273 35.4678 12.0451 35.7246 12.0802 35.9776C12.4565 38.6738 14.7953 40.707 17.5206 40.707C20.5496 40.707 23.0139 38.2427 23.0139 35.2136C23.0139 33.7888 22.4685 32.4888 21.5757 31.5117C22.4685 30.5345 23.0139 29.2344 23.0139 27.8096C23.0139 24.7809 20.5496 22.3166 17.5206 22.3166Z" fill="black"/>
<path d="M31.225 71.3961C26.312 71.3961 22.3151 67.3992 22.3147 62.4862L22.3145 60.2162L24.7048 62.2751C25.4543 62.9205 26.5853 62.8365 27.2311 62.0869C27.8769 61.3372 27.7927 60.2062 27.043 59.5606L21.692 54.9514C21.0325 54.3855 20.0319 54.3782 19.3671 54.9401L13.909 59.5493C13.1531 60.1876 13.058 61.3177 13.6962 62.0736C14.3253 62.8184 15.4755 62.9157 16.2205 62.2864L18.7317 60.1657L18.7319 62.4865C18.7323 69.3748 24.3367 74.9787 31.225 74.9787C32.2142 74.9787 33.0163 74.1765 33.0163 73.1874C33.0163 72.1982 32.2143 71.3961 31.225 71.3961Z" fill="black"/>
<path d="M52.0058 6.6545C51.5499 7.31711 51.6015 8.22763 52.1249 8.8372L56.7341 14.1882C57.3704 14.9269 58.5213 15.0129 59.2604 14.3763C60.01 13.7307 60.094 12.5997 59.4486 11.85L57.3897 9.45986L59.6598 9.46004C64.5728 9.4604 68.5696 13.4575 68.5696 18.3705C68.5696 19.3597 69.3717 20.1618 70.3609 20.1618C71.35 20.1618 72.1522 19.3597 72.1522 18.3705C72.1522 11.4822 66.5483 5.8778 59.6602 5.87744L57.3392 5.87726L59.4599 3.36603C60.0982 2.6101 60.003 1.48015 59.2471 0.841731C58.491 0.20349 57.3611 0.298608 56.7228 1.05454L52.1136 6.51228C52.0762 6.55688 52.0382 6.60739 52.0058 6.6545Z" fill="black"/>
<path d="M50.712 52.1731C50.7273 52.1509 52.2836 49.942 54.5771 49.2667C55.5262 48.9873 56.0689 47.9915 55.7897 47.0424C55.5102 46.0936 54.5148 45.5508 53.5654 45.8299C50.1179 46.8449 47.9631 49.8507 47.7636 50.138C45.676 53.0947 45.0642 56.7791 46.0855 60.2483C47.894 66.3921 54.5306 70.0222 60.6889 68.2092C66.9099 66.3778 70.481 59.8266 68.6498 53.6056C68.0769 51.6601 67.0301 49.9331 65.6284 48.552L66.4617 48.3623C67.4265 48.1427 68.0305 47.1827 67.8109 46.2181C67.5913 45.2535 66.6306 44.6491 65.6667 44.8689L60.8017 45.9761C60.3322 46.083 59.9188 46.3822 59.67 46.7938C59.4574 47.1456 59.4169 47.5017 59.4169 47.9046L59.8133 52.7735C59.8896 53.7102 60.6733 54.4196 61.5967 54.4196C61.6453 54.4196 61.6945 54.4174 61.744 54.4135C62.7301 54.3332 63.4643 53.4689 63.3839 52.4828L63.2863 51.2828C64.173 52.212 64.8391 53.3469 65.213 54.6171C66.4862 58.943 64.0028 63.4988 59.677 64.7722C55.3961 66.0317 50.7796 63.5092 49.5221 59.2362C48.8113 56.8217 49.2385 54.2564 50.6941 52.1983C50.7002 52.1903 50.7063 52.1817 50.712 52.1731Z" fill="black"/>
<path d="M37.8821 63.8026C38.2568 64.7029 39.3187 65.1468 40.2215 64.7717C41.1225 64.3973 41.5637 63.3342 41.1906 62.4322C40.8175 61.5303 39.7526 61.0902 38.8512 61.4631C37.9464 61.8375 37.512 62.8992 37.8821 63.8026Z" fill="black"/>
<path d="M70.746 24.1634H45.673V8.54111C45.6879 5.36513 43.1852 2.88865 40.0204 2.88865H34.8929V1.7913C34.8929 0.802145 34.0908 0 33.1016 0C32.1125 0 31.3103 0.802145 31.3103 1.7913V2.88865H24.6284V1.7913C24.6284 0.802145 23.8263 0 22.8371 0C21.848 0 21.0458 0.802145 21.0458 1.7913V2.88865H14.3641V1.7913C14.3641 0.802145 13.5619 0 12.5728 0C11.5836 0 10.7815 0.802145 10.7815 1.7913V2.88865H5.50359C2.51051 2.88865 0 5.38232 0 8.37971V43.5286C0 46.5559 2.46376 49.019 5.49213 49.019H37.7431V55.3835C37.7431 56.3726 38.5452 57.1748 39.5344 57.1748C40.5235 57.1748 41.3257 56.3726 41.3257 55.3835V30.4176C41.3257 28.9716 42.5506 27.746 43.9972 27.746H49.2461C49.5603 27.746 49.8555 27.8993 50.0361 28.1566L52.9686 32.3332C53.8188 33.5443 55.2099 34.2672 56.6893 34.2672C58.1697 34.2672 59.561 33.5439 60.4115 32.3323L63.3437 28.1564C63.5242 27.8992 63.8192 27.7458 64.1334 27.7458H70.7457C72.2188 27.7458 73.4172 28.9442 73.4172 30.4174V77.8844C73.4172 79.3575 72.2188 80.5559 70.7457 80.5559H43.9972C42.5241 80.5559 41.3257 79.3575 41.3257 77.8844V71.1405C41.3257 70.1513 40.5235 69.3492 39.5344 69.3492C38.5452 69.3492 37.7431 70.1513 37.7431 71.1405V85.4603C37.7431 88.9089 40.5486 91.7145 43.9972 91.7145H70.7458C74.1945 91.7145 77 88.9089 77 85.4603V30.4176C77.0002 26.9689 74.1946 24.1634 70.746 24.1634ZM3.58332 8.39153C3.58332 7.35383 4.45031 6.47197 5.49213 6.47197H10.7813V7.66695C10.7813 8.65611 11.5835 9.45825 12.5726 9.45825C13.5618 9.45825 14.3639 8.65611 14.3639 7.66695V6.47197H21.0458V7.66695C21.0458 8.65611 21.848 9.45825 22.8371 9.45825C23.8263 9.45825 24.6284 8.65611 24.6284 7.66695V6.47197H31.3103V7.66695C31.3103 8.65611 32.1125 9.45825 33.1016 9.45825C34.0908 9.45825 34.8929 8.65611 34.8929 7.66695V6.47197H40.0342C41.1691 6.4795 42.0904 7.40452 42.0904 8.54111V14.5439H3.58332V8.39153ZM37.7427 45.4364H5.49213C4.4392 45.4364 3.5826 44.5807 3.5826 43.5286V18.1264H42.0904V24.4617C39.5349 25.2819 37.7427 27.7329 37.7427 30.4181V45.4364ZM57.4796 30.2737C57.2287 30.6313 56.8769 30.6846 56.6895 30.6846C56.5025 30.6846 56.1514 30.6314 55.9008 30.2744L54.1254 27.746H59.2547L57.4796 30.2737ZM70.746 88.132H43.9972C42.5241 88.132 41.3257 86.9337 41.3257 85.4605V83.5381C42.1364 83.9227 43.0419 84.1387 43.9972 84.1387H70.7458C71.7011 84.1387 72.6067 83.9227 73.4174 83.5381V85.4605C73.4176 86.9337 72.219 88.132 70.746 88.132Z" fill="black"/>
</svg>
