<svg width="79" height="78" viewBox="0 0 79 78" fill="none" xmlns="http://www.w3.org/2000/svg">
<path d="M52.1765 30.1935C52.1765 26.4193 51.1952 22.859 49.4717 19.7893L50.1133 19.4119C50.2894 19.739 50.5159 20.0283 50.7675 20.2799C51.4468 20.9593 52.3904 21.387 53.4346 21.387H55.1204C55.4978 22.4564 56.1143 23.4125 56.9068 24.2051C57.3597 24.658 57.863 25.0606 58.4291 25.3751L58.4165 25.3877L57.2088 28.9354L52.8559 30.0173C52.6168 30.0803 52.3904 30.1432 52.1765 30.2312C52.1765 30.2186 52.1765 30.2061 52.1765 30.1935Z" fill="#FCD770"/>
<path d="M20.4477 50.3097C19.8313 50.9765 19.4664 51.8572 19.4664 52.8385C19.4664 53.3039 19.5545 53.7568 19.718 54.172H19.7055C18.3342 53.5304 17.0258 52.7881 15.7929 51.9326L13 53.3165L7.66577 47.9823L9.04964 45.1894C6.96126 42.1701 5.5019 38.7104 4.82255 34.9739L1.85352 33.9675V26.4191L4.82255 25.4127C5.5019 21.6762 6.96126 18.2165 9.04964 15.1972L7.66577 12.4043L13 7.07007L15.7929 8.45394C18.8122 6.36555 22.2719 4.9062 26.0084 4.22685L27.0148 1.25781H34.5632L35.5696 4.22685C39.3061 4.9062 42.7658 6.36555 45.7851 8.45394L48.578 7.07007L49.7229 8.20233L49.8235 8.21491C49.7229 8.76846 49.66 9.33459 49.66 9.9133C49.66 10.8443 49.8109 11.7752 50.1003 12.6559L50.8425 14.8701C50.1129 15.562 49.66 16.5307 49.66 17.6127C49.66 18.2668 49.8235 18.8833 50.1129 19.4117L49.4713 19.7891C45.8229 13.2346 38.828 8.8062 30.789 8.8062C18.9758 8.8062 9.4019 18.3801 9.4019 30.1933C9.4019 37.9807 13.5535 44.7868 19.7684 48.5233L20.3848 50.2468L20.4477 50.3097Z" fill="#FCD770"/>
<path d="M65.1595 36.4839H59.3221C55.1705 36.4839 51.6353 39.1007 50.264 42.7743H47.144V37.3394C47.144 34.1188 49.1821 31.2755 52.1763 30.2314C52.3902 30.1433 52.6166 30.0804 52.8557 30.0175L57.2086 28.9355L57.284 29.1494C57.9886 31.2755 59.9763 32.7097 62.2157 32.7097C63.3479 32.7097 64.4173 32.3449 65.2853 31.7159C66.1534 31.0743 66.8202 30.1684 67.1724 29.0991L67.2227 28.9355L71.6134 30.0301C74.9724 30.8604 77.3376 33.8797 77.3376 37.352V42.7743H74.2176C73.7269 41.4659 72.9595 40.2833 71.9908 39.3146C70.2421 37.5659 67.8266 36.4839 65.1595 36.4839Z" fill="#4FC1E9"/>
<path d="M47.1442 76.7418H16.9507V73.8231C16.9507 70.3634 19.3033 67.344 22.6623 66.5011L27.0152 65.4192L28.1475 67.105C29.0155 68.4008 30.4749 69.1934 32.0349 69.1934C33.6075 69.1934 35.0794 68.3882 35.9475 67.0673L37.0294 65.4192L41.42 66.5011C44.7791 67.344 47.1442 70.3634 47.1442 73.8231V76.7418Z" fill="#FF826E"/>
<path d="M77.3376 76.7419H47.144V73.8232C47.144 70.3635 49.4966 67.3441 52.8557 66.5012L56.3153 65.6458L58.4666 74.2258L62.2408 69.1935L66.015 74.2258L68.1537 65.6458L71.6134 66.5138C74.9724 67.3441 77.3376 70.3635 77.3376 73.8357V76.7419Z" fill="#B4DD7F"/>
<path d="M68.1536 65.6458L66.0149 74.2258L62.2407 69.1935L67.2604 65.4319L68.1536 65.6458Z" fill="#A0D468"/>
<path d="M62.2409 69.1934L58.4667 74.2256L56.3154 65.6456L57.2087 65.4192L62.2409 69.1934Z" fill="#A0D468"/>
<path d="M20.3849 50.2471L19.7685 48.5236C19.5672 47.7561 19.4666 46.951 19.4666 46.1332C19.4666 40.799 23.7943 36.4839 29.1285 36.4839H34.9659C37.633 36.4839 40.0485 37.5658 41.7972 39.302C43.5459 41.0507 44.6278 43.4661 44.6278 46.1332C44.6278 47.5926 44.3007 49.0268 43.6717 50.3226L43.6591 50.3352L43.5207 50.1716C42.8414 49.4923 41.8978 49.0645 40.8536 49.0645H39.5956H35.3307C33.9091 49.0645 32.5378 48.7123 31.3301 48.0581C30.1098 47.4039 29.053 46.4729 28.273 45.2903C26.1846 45.2903 24.4988 46.9761 24.4988 49.0645H23.2407C22.1336 49.0645 21.1272 49.5426 20.4478 50.31L20.3849 50.2471Z" fill="#656D78"/>
<path d="M62.354 47.8065C60.7311 47.8065 59.2089 47.19 58.064 46.1207L57.4727 46.41C56.3531 46.9761 55.4976 47.9323 55.0573 49.0645H53.4343C52.3273 49.0645 51.3208 49.5426 50.6414 50.31L50.5785 50.2597L50.2766 49.53C49.874 48.4481 49.6602 47.3032 49.6602 46.1458C49.6602 44.9632 49.874 43.8184 50.264 42.7742C51.6353 39.1007 55.1705 36.4839 59.3221 36.4839H65.1595C67.8266 36.4839 70.2421 37.5658 71.9908 39.3145C72.9595 40.2832 73.7269 41.4658 74.2176 42.7742C74.6076 43.8184 74.8214 44.9632 74.8214 46.1458C74.8214 47.5926 74.4944 49.0268 73.8653 50.3226L73.8527 50.3352C73.815 50.2723 73.7647 50.222 73.7143 50.1716C73.035 49.4923 72.0914 49.0645 71.0473 49.0645H69.7892V46.5484C69.7892 48.6368 68.1034 50.3226 66.015 50.3226C64.3669 50.3226 62.9705 49.2784 62.4673 47.8065H62.4547H62.354Z" fill="#656D78"/>
<path d="M74.8213 5.03223V7.34707C74.8213 9.90094 74.4187 12.4422 73.6387 14.8703C72.972 14.2413 72.0536 13.8387 71.0471 13.8387H69.7891V11.1967C72.6574 10.618 74.8213 8.07674 74.8213 5.03223Z" fill="#B27946"/>
<path d="M59.7247 8.8062L58.5043 9.10813C56.3153 9.66168 54.7679 11.5991 54.6924 13.8385H53.4343C52.4279 13.8385 51.5095 14.241 50.8427 14.8701L50.1005 12.6559C49.8111 11.7752 49.6602 10.8443 49.6602 9.9133C49.6602 9.33459 49.7231 8.76846 49.8237 8.21491C50.6163 4.25201 54.1137 1.25781 58.3156 1.25781H72.3053C73.6892 1.25781 74.8214 2.39007 74.8214 3.77394V5.03201C74.8214 8.07652 72.6576 10.6178 69.7892 11.1965C69.3866 11.2846 68.9589 11.3223 68.5311 11.3223H62.2408C61.5489 11.3223 60.9198 11.0456 60.4669 10.5801C60.0014 10.1272 59.7247 9.49813 59.7247 8.8062Z" fill="#B27946"/>
<path d="M71.0476 49.0642C72.0918 49.0642 73.0353 49.492 73.7147 50.1713C73.765 50.2216 73.8153 50.2719 73.853 50.3349C74.4569 51.0016 74.8218 51.8697 74.8218 52.8384C74.8218 54.9268 73.1359 56.6126 71.0476 56.6126H69.6763C69.7518 56.21 69.7895 55.7823 69.7895 55.3545V49.0642H71.0476Z" fill="#F0D0B4"/>
<path d="M58.4291 61.8589L62.241 62.9031C63.6249 62.9031 64.9081 62.5382 66.0152 61.884L67.2229 65.4192L67.2607 65.4318L62.241 69.1934L57.2087 65.4192L58.4165 61.8715L58.4291 61.8589Z" fill="#F0D0B4"/>
<path d="M66.0152 61.8839C64.9081 62.5381 63.6249 62.9029 62.241 62.9029L58.4291 61.8587C57.863 61.5442 57.3597 61.1417 56.9068 60.6888C55.8123 59.6068 55.0575 58.1978 54.8059 56.6126C54.7304 56.21 54.6926 55.7823 54.6926 55.3546V50.9136C54.6926 50.272 54.8184 49.6429 55.0575 49.0642C55.4978 47.932 56.3533 46.9758 57.4729 46.4097L58.0642 46.1204C59.2091 47.1897 60.7313 47.8062 62.3542 47.8062H62.4549H62.4675C62.9707 49.2781 64.3671 50.3223 66.0152 50.3223C68.1036 50.3223 69.7894 48.6365 69.7894 46.5481V49.0642V55.3546C69.7894 55.7823 69.7517 56.21 69.6762 56.6126C69.2988 58.8646 67.9275 60.7894 66.0152 61.8839Z" fill="#F0D0B4"/>
<path d="M53.4343 49.0642H55.0573C54.8182 49.6429 54.6924 50.272 54.6924 50.9136V55.3545C54.6924 55.7823 54.7302 56.21 54.8056 56.6126H53.4343C52.3902 56.6126 51.4466 56.1849 50.7673 55.5055C50.0879 54.8261 49.6602 53.8826 49.6602 52.8384C49.6602 51.8571 50.0376 50.9765 50.6414 50.3097C51.3208 49.5423 52.3273 49.0642 53.4343 49.0642Z" fill="#F0D0B4"/>
<path d="M43.6844 50.36C44.2756 51.0142 44.6279 51.8823 44.6279 52.8384C44.6279 54.9142 42.9421 56.6126 40.8537 56.6126H39.4824C39.5579 56.21 39.5956 55.7823 39.5956 55.3545V49.0642H40.8537C41.8979 49.0642 42.8415 49.492 43.5208 50.1713L43.6592 50.3349C43.6844 50.3474 43.6844 50.3474 43.6844 50.36Z" fill="#F0D0B4"/>
<path d="M28.2231 61.8589C32.0099 62.9031 32.0225 62.9031 32.0476 62.9031C33.4315 62.9031 34.7273 62.5382 35.8344 61.884L37.0296 65.4192L35.9476 67.0673C35.0796 68.3882 33.6076 69.1934 32.0351 69.1934C30.4751 69.1934 29.0157 68.4008 28.1476 67.105L27.0154 65.4192L28.2231 61.8589Z" fill="#F0D0B4"/>
<path d="M35.8339 61.8842C34.7268 62.5383 33.431 62.9032 32.0472 62.9032C32.022 62.9032 32.0094 62.9032 28.2226 61.859C27.6691 61.5319 27.1659 61.1419 26.713 60.689C25.6185 59.6071 24.8636 58.198 24.612 56.6129C24.5365 56.2103 24.4988 55.7825 24.4988 55.3548V49.0645C24.4988 46.9761 26.1846 45.2903 28.273 45.2903C29.053 46.4729 30.1097 47.4038 31.3301 48.058C32.5378 48.7122 33.9091 49.0645 35.3307 49.0645H39.5956V55.3548C39.5956 55.7825 39.5578 56.2103 39.4823 56.6129C39.1175 58.8648 37.7336 60.7771 35.8339 61.8842Z" fill="#F0D0B4"/>
<path d="M24.612 56.6126H23.2407C22.1966 56.6126 21.253 56.1849 20.5736 55.5055C20.1962 55.1281 19.9069 54.6752 19.7182 54.172C19.5546 53.7568 19.4666 53.3039 19.4666 52.8384C19.4666 51.8571 19.8314 50.9765 20.4478 50.3097C21.1272 49.5423 22.1336 49.0642 23.2407 49.0642H24.4988V55.3545C24.4988 55.7823 24.5366 56.21 24.612 56.6126Z" fill="#F0D0B4"/>
<path d="M73.7145 20.2799C73.0351 20.9593 72.0916 21.387 71.0474 21.387H69.3616C69.6383 20.5944 69.7893 19.7515 69.7893 18.8709V13.8386H71.0474C72.0538 13.8386 72.9722 14.2412 73.639 14.8702C74.3687 15.5622 74.8216 16.5309 74.8216 17.6128C74.8216 18.657 74.3938 19.6006 73.7145 20.2799Z" fill="#F0D0B4"/>
<path d="M58.4291 25.375L62.241 26.4192C63.6249 26.4192 64.9081 26.0544 66.0152 25.4002L67.2229 28.9353L67.1726 29.0989C66.8204 30.1682 66.1536 31.074 65.2855 31.7156C64.4174 32.3447 63.3481 32.7095 62.2158 32.7095C59.9765 32.7095 57.9887 31.2753 57.2842 29.1492L57.2087 28.9353L58.4165 25.3876L58.4291 25.375Z" fill="#F0D0B4"/>
<path d="M66.0152 25.4003C64.9081 26.0545 63.6249 26.4193 62.241 26.4193L58.4291 25.3751C57.863 25.0606 57.3597 24.658 56.9068 24.2051C56.1142 23.4125 55.4978 22.4564 55.1204 21.387C54.8436 20.5945 54.6926 19.7516 54.6926 18.8709V13.9896C54.6926 13.9393 54.6926 13.889 54.6926 13.8387C54.7681 11.5993 56.3155 9.66188 58.5046 9.10833L59.7249 8.8064C59.7249 9.49833 60.0017 10.1274 60.4671 10.5803C60.92 11.0458 61.5491 11.3225 62.241 11.3225H68.5313C68.9591 11.3225 69.3868 11.2848 69.7894 11.1967V13.8387V18.8709C69.7894 19.7516 69.6384 20.5945 69.3617 21.387C68.7578 23.0854 67.5626 24.507 66.0152 25.4003Z" fill="#F0D0B4"/>
<path d="M54.6924 18.8709C54.6924 19.7515 54.8434 20.5944 55.1202 21.387H53.4344C52.3902 21.387 51.4466 20.9593 50.7673 20.2799C50.5156 20.0283 50.2892 19.7389 50.1131 19.4118C49.8237 18.8835 49.6602 18.267 49.6602 17.6128C49.6602 16.5309 50.1131 15.5622 50.8427 14.8702C51.5095 14.2412 52.4279 13.8386 53.4344 13.8386H54.6924V13.9896V18.8709Z" fill="#F0D0B4"/>
<path d="M78.5957 37.3507C78.5957 33.2985 75.8493 29.7834 71.9166 28.8059L68.1978 27.88L67.5222 25.901C68.6532 25.0493 69.5703 23.9347 70.1855 22.6439H71.0473C73.8226 22.6439 76.0796 20.3869 76.0796 17.6116C76.0796 16.463 75.6783 15.4163 75.0278 14.5684C75.7147 12.2208 76.0796 9.79529 76.0796 7.34458V5.03226V3.77419C76.0796 1.69335 74.3862 0 72.3054 0H58.3195C54.2647 0 50.7749 2.44945 49.2388 5.9431L48.8312 5.53548L45.876 6.99987C43.0189 5.13668 39.8788 3.83835 36.5223 3.13258L35.4667 0H26.1105L25.0537 3.13384C21.6985 3.83961 18.5583 5.13794 15.7 7.00113L12.7473 5.53548L6.13119 12.1516L7.59557 15.1068C5.73238 17.9639 4.43406 21.104 3.72828 24.4605L0.595703 25.5161V34.8723L3.72954 35.9291C4.43532 39.2843 5.73364 42.4244 7.59683 45.2828L6.13119 48.2355L12.7461 54.8504L15.7013 53.386C16.6851 54.0263 17.7192 54.5937 18.7747 55.1032C19.6076 56.7337 21.2871 57.8647 23.2396 57.8647H23.6107C24.1517 59.675 25.2613 61.2363 26.7307 62.3535L26.0451 64.3588L22.3627 65.2797C18.4351 66.261 15.6925 69.7748 15.6925 73.8232V77.9937H45.886V78H78.5957V73.8345C78.5957 69.7823 75.8493 66.2673 71.9166 65.2898L68.1978 64.3638L67.5222 62.3849C69.008 61.2665 70.1314 59.6939 70.6774 57.8697H71.0473C73.8226 57.8697 76.0796 55.6127 76.0796 52.8375C76.0796 51.8524 75.7839 50.939 75.2933 50.1628C75.799 48.8846 76.0796 47.5121 76.0796 46.1408C76.0796 45.4199 76.0053 44.7154 75.8707 44.0323H78.5957V37.3507ZM65.893 28.9179C65.308 30.4389 63.865 31.4516 62.2195 31.4516C60.579 31.4516 59.1297 30.4376 58.5434 28.9179L59.1611 27.11C60.1223 27.4711 61.1564 27.6774 62.2409 27.6774C63.3102 27.6774 64.3318 27.4761 65.2803 27.1251L65.893 28.9179ZM48.611 44.0323C48.4764 44.7154 48.4022 45.4186 48.4022 46.1408C48.4022 47.5133 48.6827 48.8859 49.1884 50.1641C48.6978 50.9403 48.4022 51.8536 48.4022 52.8387C48.4022 55.614 50.6591 57.871 53.4344 57.871H53.8055C54.3465 59.6813 55.4561 61.2426 56.9255 62.3597L56.2399 64.3651L52.5575 65.286C50.2175 65.871 48.3153 67.3668 47.1453 69.3269C45.9741 67.3643 44.0694 65.8672 41.7243 65.2835L38.0055 64.3575L37.3299 62.3786C38.8157 61.2602 39.9392 59.6876 40.4852 57.8634H40.8538C43.6291 57.8634 45.886 55.6064 45.886 52.8312C45.886 51.8461 45.5904 50.9327 45.0997 50.1565C45.6055 48.8783 45.886 47.507 45.886 46.1345C45.886 40.1159 40.9896 35.2195 34.9711 35.2195H29.1236C23.1767 35.2195 18.3344 40.0027 18.2199 45.9219C13.4443 42.1238 10.6602 36.4159 10.6602 30.1935C10.6602 19.0949 19.6906 10.0645 30.7893 10.0645C41.6187 10.0645 50.4541 18.6684 50.878 29.4286C47.875 30.8716 45.886 33.9074 45.886 37.3456V44.0323H48.611ZM50.9183 46.1408C50.9183 41.5098 54.6862 37.7419 59.3171 37.7419H65.1646C69.7955 37.7419 73.5634 41.5098 73.5634 46.1408C73.5634 46.8818 73.4515 47.6228 73.2565 48.3399C72.5872 48.009 71.8437 47.8064 71.0473 47.8064V46.5484C71.0473 43.7731 68.7903 41.5161 66.0151 41.5161V44.0323C67.4027 44.0323 68.5312 45.1607 68.5312 46.5484C68.5312 47.936 67.4027 49.0645 66.0151 49.0645C64.6274 49.0645 63.4989 47.936 63.4989 46.5484V44.0323H60.9828V46.3597C59.6392 45.9835 58.4994 45.0601 57.854 43.7668L57.0765 42.2118L54.8258 43.3378L55.6033 44.8915C55.7568 45.1972 55.9304 45.4878 56.1179 45.7646C55.3429 46.3043 54.7189 47.0063 54.2635 47.8064H53.4344C52.6381 47.8064 51.8945 48.009 51.2253 48.3399C51.0303 47.6215 50.9183 46.8818 50.9183 46.1408ZM53.4344 50.9164V55.3548C52.0468 55.3548 50.9183 54.2264 50.9183 52.8387C50.9183 51.4511 52.0468 50.3226 53.4344 50.3226H53.4759C53.4571 50.5201 53.4344 50.7164 53.4344 50.9164ZM62.2409 71.2907L65.386 75.4839H59.0957L62.2409 71.2907ZM66.3547 67.6801L65.4363 71.3562L64.0022 69.4452L66.3547 67.6801ZM59.0454 71.3562L58.127 67.6801L60.4796 69.4452L59.0454 71.3562ZM23.4195 47.8002H23.2409C22.4445 47.8002 21.701 48.0027 21.0317 48.3336C20.8367 47.6165 20.7247 46.8755 20.7247 46.1345C20.7247 41.5036 24.4926 37.7356 29.1236 37.7356H34.9711C39.602 37.7356 43.3699 41.5036 43.3699 46.1345C43.3699 46.8755 43.2579 47.6165 43.0629 48.3336C42.3936 48.0027 41.6501 47.8002 40.8538 47.8002H39.5957H35.3246C32.9053 47.8002 30.6609 46.5987 29.3198 44.5858L28.9462 44.026H28.2731C25.9356 44.026 23.9819 45.6363 23.4195 47.8002ZM40.8538 50.3163C42.2414 50.3163 43.3699 51.4448 43.3699 52.8324C43.3699 54.2201 42.2414 55.3485 40.8538 55.3485V50.3163ZM53.5351 20.129H53.4344C52.0468 20.129 50.9183 19.0005 50.9183 17.6129C50.9183 16.2253 52.0468 15.0968 53.4344 15.0968V18.871C53.4344 19.2987 53.4759 19.7164 53.5351 20.129ZM53.3539 28.6021C53.2029 26.4433 52.7475 24.3725 52.0317 22.4212C52.4795 22.5533 52.9438 22.6452 53.4344 22.6452H54.2962C54.9051 23.9221 55.8096 25.0267 56.9243 25.8759L56.2386 27.8812L53.3539 28.6021ZM68.5312 18.871C68.5312 22.3395 65.7094 25.1613 62.2409 25.1613C58.7724 25.1613 55.9505 22.3395 55.9505 18.871V13.9935C55.9505 12.2624 57.1205 10.7602 58.7975 10.3363C59.3863 11.656 60.7048 12.5806 62.2409 12.5806H68.5312V18.871ZM71.0473 12.5806V12.1403C71.8688 11.8485 72.6274 11.4245 73.2904 10.8848C73.1848 11.5742 73.0426 12.2586 72.874 12.9367C72.3066 12.714 71.6927 12.5806 71.0473 12.5806ZM71.0473 20.129H70.9467C71.0058 19.7164 71.0473 19.2987 71.0473 18.871V15.0968C72.435 15.0968 73.5634 16.2253 73.5634 17.6129C73.5634 19.0005 72.435 20.129 71.0473 20.129ZM58.3195 2.51613H72.3054C72.9986 2.51613 73.5634 3.081 73.5634 3.77419V5.03226C73.5634 7.80755 71.3065 10.0645 68.5312 10.0645H62.2409C61.5477 10.0645 60.9828 9.49965 60.9828 8.80645C60.9828 8.11326 61.5477 7.54839 62.2409 7.54839H63.4989V5.03226H62.2409C60.5161 5.03226 59.0743 6.20226 58.6252 7.7849L58.2 7.89184C55.8662 8.47432 54.1364 10.3161 53.6143 12.5819H53.4344C52.7613 12.5819 52.1197 12.7203 51.5322 12.9606L51.2982 12.2586C51.0466 11.5025 50.9183 10.7149 50.9183 9.91732C50.9183 5.83616 54.2383 2.51613 58.3195 2.51613ZM15.9026 50.4798L13.2493 51.7945L9.18828 47.7347L10.503 45.0802L10.0815 44.4713C8.05728 41.5413 6.70486 38.2691 6.05948 34.7427L5.92612 34.0143L3.11183 33.0644V27.3239L5.92612 26.3741L6.05948 25.6456C6.70486 22.1193 8.05728 18.8458 10.0815 15.917L10.503 15.3081L9.18828 12.6536L13.2481 8.59384L15.9026 9.90852L16.5115 9.48707C19.4415 7.46284 22.7137 6.11042 26.2401 5.46503L26.9685 5.33168L27.9183 2.51613H33.6589L34.6087 5.33042L35.3372 5.46377C38.8635 6.10916 42.1357 7.46158 45.0658 9.48581L45.6747 9.90726L48.3292 8.59258L48.4776 8.74103C48.4324 9.12726 48.4022 9.51852 48.4022 9.91732C48.4022 10.9854 48.5732 12.0409 48.9104 13.0537L49.4275 14.6024C49.0551 15.0955 48.7796 15.6566 48.6085 16.2668C44.4594 10.9703 38.0231 7.54839 30.7893 7.54839C18.303 7.54839 8.14409 17.7073 8.14409 30.1935C8.14409 38.0426 12.0856 45.1557 18.7043 49.3337C18.7898 49.613 18.888 49.886 18.9949 50.1565C18.6426 50.7138 18.4023 51.3429 18.2904 52.0172C17.6827 51.6687 17.0877 51.2963 16.5115 50.8988L15.9026 50.4798ZM20.7247 52.8324C20.7247 51.4448 21.8532 50.3163 23.2409 50.3163V55.3485C21.8532 55.3485 20.7247 54.2201 20.7247 52.8324ZM25.757 55.3485V49.0582C25.757 47.8744 26.5798 46.878 27.6831 46.6125C29.5211 48.945 32.3241 50.3163 35.3246 50.3163H38.3376V55.3485C38.3376 58.817 35.5158 61.6389 32.0473 61.6389C28.5788 61.6389 25.757 58.817 25.757 55.3485ZM32.0473 64.155C33.1167 64.155 34.1382 63.9537 35.0868 63.6027L35.6454 65.2382L34.8956 66.383C34.2615 67.3517 33.1922 67.9292 32.0347 67.9292C30.8886 67.9292 29.8243 67.3593 29.189 66.4069L28.4065 65.2332L28.9676 63.5889C29.9287 63.9487 30.9629 64.155 32.0473 64.155ZM18.2086 75.4776V73.8232C18.2086 70.9322 20.1687 68.4224 22.9742 67.7204L26.4603 66.8485L27.0956 67.8021C28.1989 69.4565 30.0457 70.4453 32.0347 70.4453C34.0439 70.4453 35.8995 69.4426 37.0003 67.7619L37.5979 66.8498L41.1142 67.7254C43.9234 68.4249 45.886 70.9347 45.886 73.8295V75.4776H18.2086ZM48.4022 73.8295C48.4022 70.9372 50.3622 68.4286 53.1677 67.7266L55.4058 67.1668L57.4841 75.4839H48.4022V73.8295ZM76.0796 73.8345V75.4839H66.9976L69.0747 67.1756L71.3077 67.7317C74.117 68.4312 76.0796 70.941 76.0796 73.8345ZM65.7521 64.9878L62.2409 67.621L58.6944 64.9614L59.1611 63.5952C60.1223 63.955 61.1564 64.1613 62.2409 64.1613C63.3102 64.1613 64.3318 63.96 65.2803 63.609L65.7521 64.9878ZM62.2409 61.6452C58.7724 61.6452 55.9505 58.8233 55.9505 55.3548V50.9164C55.9505 49.5237 56.7041 48.2732 57.9182 47.6102C59.0001 48.399 60.2808 48.8896 61.6559 49.0154C62.5227 50.539 64.1418 51.5806 66.0151 51.5806C66.936 51.5806 67.7877 51.3139 68.5312 50.8812V55.3548C68.5312 58.8233 65.7094 61.6452 62.2409 61.6452ZM71.0473 55.3548V50.3226C72.435 50.3226 73.5634 51.4511 73.5634 52.8387C73.5634 54.2264 72.435 55.3548 71.0473 55.3548ZM76.0796 41.5161H75.0366C73.2917 37.8061 69.5288 35.2258 65.1646 35.2258H59.3171C54.9529 35.2258 51.19 37.8061 49.4451 41.5161H48.4022V37.3456C48.4022 34.4546 50.3622 31.9448 53.1677 31.2428L56.4575 30.42C57.5458 32.5725 59.7549 33.9677 62.2207 33.9677C64.6966 33.9677 66.9033 32.5751 67.989 30.4213L71.309 31.2478C74.117 31.9473 76.0796 34.4571 76.0796 37.3507V41.5161Z" fill="black"/>
<path d="M28.4642 15.2743C29.2279 15.1561 30.0104 15.0969 30.7891 15.0969V12.5808C29.8821 12.5808 28.9712 12.65 28.0818 12.7884L28.4642 15.2743Z" fill="black"/>
<path d="M13.176 30.1934H15.6922C15.6922 23.6175 19.8916 17.8442 26.1442 15.825L25.3704 13.4309C18.0762 15.786 13.176 22.5229 13.176 30.1934Z" fill="black"/>
</svg>
