<svg width="77" height="77" viewBox="0 0 77 77" fill="none" xmlns="http://www.w3.org/2000/svg">
<path d="M66.1889 70.5718H10.7651V40.7962H66.1889V70.5718Z" fill="#FFF6F0"/>
<path d="M61.7668 70.5718H66.1889V40.7962H61.7668V70.5718Z" fill="#F0E7DD"/>
<path d="M57.4183 70.5718H19.3882V48.1664H57.4183V70.5718Z" fill="#29CEF6"/>
<path d="M26.7584 70.5718H19.3882V48.1664H26.7584V70.5718Z" fill="#8CF2FF"/>
<path d="M57.4184 70.5718H50.0482V48.1664H57.4184V70.5718Z" fill="#8CF2FF"/>
<path d="M70.0214 40.7964H6.93262L11.7947 22.3709H65.1593L70.0214 40.7964Z" fill="#F74F68"/>
<path d="M65.1592 22.3709H60.7371L65.5992 40.7964H70.0213L65.1592 22.3709Z" fill="#E83A53"/>
<mask id="mask0_179_347" style="mask-type:luminance" maskUnits="userSpaceOnUse" x="0" y="0" width="77" height="77">
<path d="M0.741638 0.628906H76.2123V76.0996H0.741638V0.628906Z" fill="white"/>
</mask>
<g mask="url(#mask0_179_347)">
<path d="M72.8957 74.9937H4.05816C2.83707 74.9937 1.84711 74.0037 1.84711 72.7826C1.84711 71.5615 2.83707 70.5715 4.05816 70.5715H72.8957C74.1168 70.5715 75.1068 71.5615 75.1068 72.7826C75.1068 74.0037 74.1168 74.9937 72.8957 74.9937Z" fill="#FFD54F"/>
<path d="M72.8957 70.5715H68.4736C69.6947 70.5715 70.6847 71.5615 70.6847 72.7826C70.6847 74.0037 69.6947 74.9937 68.4736 74.9937H72.8957C74.1168 74.9937 75.1068 74.0037 75.1068 72.7826C75.1068 71.5615 74.1168 70.5715 72.8957 70.5715Z" fill="#FFC328"/>
<path d="M53.6596 32.689H23.2944C22.9688 32.689 22.7048 32.425 22.7048 32.0993V2.3238C22.7048 1.99818 22.9688 1.73418 23.2944 1.73418H53.6596C53.9852 1.73418 54.2492 1.99818 54.2492 2.3238V32.0993C54.2492 32.425 53.9852 32.689 53.6596 32.689Z" fill="#FFF6F0"/>
<path d="M53.6596 1.73418H49.2375C49.5631 1.73418 49.8271 1.99818 49.8271 2.3238V32.0993C49.8271 32.425 49.5631 32.689 49.2375 32.689H53.6596C53.9852 32.689 54.2492 32.425 54.2492 32.0993V2.3238C54.2492 1.99818 53.9852 1.73418 53.6596 1.73418Z" fill="#F0E7DD"/>
<path d="M45.4259 14.0009H41.7408C41.5082 14.0009 41.3199 13.8123 41.3199 13.5797V9.89463C41.3199 9.66202 41.1312 9.47349 40.8986 9.47349H36.0553C35.8227 9.47349 35.634 9.66202 35.634 9.89463V13.5797C35.634 13.8123 35.4457 14.0009 35.2131 14.0009H31.528C31.2954 14.0009 31.1067 14.1894 31.1067 14.422V19.2652C31.1067 19.4978 31.2954 19.6864 31.528 19.6864H35.2131C35.4457 19.6864 35.634 19.875 35.634 20.1076V23.7927C35.634 24.0252 35.8227 24.2139 36.0553 24.2139H40.8986C41.1312 24.2139 41.3199 24.0252 41.3199 23.7927V20.1076C41.3199 19.875 41.5082 19.6864 41.7408 19.6864H45.4259C45.6585 19.6864 45.8471 19.4978 45.8471 19.2652V14.422C45.8471 14.1894 45.6585 14.0009 45.4259 14.0009Z" fill="#7BE492"/>
<path d="M57.4183 70.5718H19.3882V48.1664H57.4183V70.5718Z" stroke="black" stroke-width="2" stroke-miterlimit="10" stroke-linecap="round" stroke-linejoin="round"/>
<path d="M26.7584 70.5718H19.3882V48.1664H26.7584V70.5718Z" stroke="black" stroke-width="2" stroke-miterlimit="10" stroke-linecap="round" stroke-linejoin="round"/>
<path d="M57.4184 70.5718H50.0482V48.1664H57.4184V70.5718Z" stroke="black" stroke-width="2" stroke-miterlimit="10" stroke-linecap="round" stroke-linejoin="round"/>
<path d="M10.7651 43.0172V40.7967H66.1889V70.5723H10.7651V47.7643" stroke="black" stroke-width="2" stroke-miterlimit="10" stroke-linecap="round" stroke-linejoin="round"/>
<path d="M54.2492 22.3709H65.1586L70.0214 40.7964H6.93262L11.7955 22.3709H22.7048" stroke="black" stroke-width="2" stroke-miterlimit="10" stroke-linecap="round" stroke-linejoin="round"/>
<path d="M57.4183 74.9937H4.05816C2.83707 74.9937 1.84711 74.0037 1.84711 72.7826C1.84711 71.5615 2.83707 70.5715 4.05816 70.5715H72.8957C74.1168 70.5715 75.1067 71.5615 75.1067 72.7826C75.1067 74.0037 74.1168 74.9937 72.8957 74.9937H62.0729" stroke="black" stroke-width="2" stroke-miterlimit="10" stroke-linecap="round" stroke-linejoin="round"/>
<path d="M48.1036 1.73418H53.6595C53.9851 1.73418 54.2491 1.99818 54.2491 2.3238V32.0993C54.2491 32.425 53.9851 32.689 53.6595 32.689H23.2943C22.9687 32.689 22.7047 32.425 22.7047 32.0993V2.3238C22.7047 1.99818 22.9687 1.73418 23.2943 1.73418H43.1599" stroke="black" stroke-width="2" stroke-miterlimit="10" stroke-linecap="round" stroke-linejoin="round"/>
<path d="M45.4259 14.0009H41.7408C41.5082 14.0009 41.3199 13.8123 41.3199 13.5797V9.89463C41.3199 9.66202 41.1312 9.47349 40.8986 9.47349H36.0553C35.8227 9.47349 35.634 9.66202 35.634 9.89463V13.5797C35.634 13.8123 35.4457 14.0009 35.2131 14.0009H31.528C31.2954 14.0009 31.1067 14.1894 31.1067 14.422V19.2652C31.1067 19.4978 31.2954 19.6864 31.528 19.6864H35.2131C35.4457 19.6864 35.634 19.875 35.634 20.1076V23.7927C35.634 24.0252 35.8227 24.2139 36.0553 24.2139H40.8986C41.1312 24.2139 41.3199 24.0252 41.3199 23.7927V20.1076C41.3199 19.875 41.5082 19.6864 41.7408 19.6864H45.4259C45.6585 19.6864 45.8471 19.4978 45.8471 19.2652V14.422C45.8471 14.1894 45.6585 14.0009 45.4259 14.0009Z" stroke="black" stroke-width="2" stroke-miterlimit="10" stroke-linecap="round" stroke-linejoin="round"/>
</g>
</svg>
