<svg width="80" height="81" viewBox="0 0 80 81" fill="none" xmlns="http://www.w3.org/2000/svg">
<path d="M38.75 42.6255L32.25 47.6255H12.5V27.6255H40H67.5V47.6255H47.75L41.25 42.6255H38.75Z" fill="#ECC19C"/>
<path d="M27.5 15.1255C27.5 22.0255 33.1 27.6255 40 27.6255H12.5H7.5V26.3755L27.65 13.188C27.55 13.813 27.5 14.463 27.5 15.1255Z" fill="#CF9E76"/>
<path d="M72.5 26.3755V27.6255H67.5H40C46.9 27.6255 52.5 22.0255 52.5 15.1255C52.5 14.463 52.45 13.813 52.35 13.188L72.5 26.3755Z" fill="#CF9E76"/>
<path d="M32.25 47.6255L22.5 55.1255H5H3.75C3.0625 55.1255 2.5 54.563 2.5 53.8755V48.8755C2.5 48.188 3.0625 47.6255 3.75 47.6255H12.5H32.25Z" fill="#CCD1D9"/>
<path d="M77.5 48.8755V53.8755C77.5 54.563 76.9375 55.1255 76.25 55.1255H75H57.5L47.75 47.6255H67.5H76.25C76.9375 47.6255 77.5 48.188 77.5 48.8755Z" fill="#CCD1D9"/>
<path d="M22.5 57.6255H25V77.6255H5V55.1255H22.5V57.6255Z" fill="#E6E9ED"/>
<path d="M57.5 57.6255V55.1255H75V77.6255H55V57.6255H57.5Z" fill="#E6E9ED"/>
<path d="M10 60.1255H20V72.6255H10V60.1255Z" fill="#AAB2BD"/>
<path d="M60 60.1255H70V72.6255H60V60.1255Z" fill="#AAB2BD"/>
<path d="M57.5 55.1255V57.6255H55H51.25L40 48.138L28.75 57.6255H25H22.5V55.1255L32.25 47.6255L38.75 42.6255H41.25L47.75 47.6255L57.5 55.1255Z" fill="#A0D468"/>
<path d="M51.25 57.6257H50H30H28.75L40 48.1382L51.25 57.6257Z" fill="#B4DD7F"/>
<path d="M30 57.6255V77.6255H25V57.6255H28.75H30Z" fill="#CCD1D9"/>
<path d="M51.25 57.6255H55V77.6255H50V57.6255H51.25Z" fill="#CCD1D9"/>
<path d="M30 57.6255H50V77.6255H30V57.6255Z" fill="#E6E9ED"/>
<path d="M45 67.6255V77.6255H35V67.6255C35 64.863 37.2375 62.6255 40 62.6255C41.375 62.6255 42.625 63.188 43.5375 64.088C44.4375 65.0005 45 66.2505 45 67.6255Z" fill="#AAB2BD"/>
<path d="M17.5 32.6255H25V42.6255H17.5V32.6255Z" fill="#69D6F4"/>
<path d="M30 32.6255H37.5V42.6255H30V32.6255Z" fill="#69D6F4"/>
<path d="M42.5 32.6255H50V42.6255H42.5V32.6255Z" fill="#69D6F4"/>
<path d="M55 32.6255H62.5V42.6255H55V32.6255Z" fill="#69D6F4"/>
<path d="M52.35 13.188C52.45 13.813 52.5 14.463 52.5 15.1255C52.5 22.0255 46.9 27.6255 40 27.6255C33.1 27.6255 27.5 22.0255 27.5 15.1255C27.5 14.463 27.55 13.813 27.65 13.188H27.6625C28.5875 7.20049 33.7625 2.62549 40 2.62549C46.2375 2.62549 51.4125 7.20049 52.3375 13.188H52.35Z" fill="#FCD770"/>
<path d="M38.75 23.8755H41.25V21.3755C43.3175 21.3755 45 19.693 45 17.6255C45 15.558 43.3175 13.8755 41.25 13.8755H38.75C38.06 13.8755 37.5 13.3142 37.5 12.6255C37.5 11.9367 38.06 11.3755 38.75 11.3755H42.5V12.6255H45V8.87549H41.25V6.37549H38.75V8.87549C36.6825 8.87549 35 10.558 35 12.6255C35 14.693 36.6825 16.3755 38.75 16.3755H41.25C41.94 16.3755 42.5 16.9367 42.5 17.6255C42.5 18.3142 41.94 18.8755 41.25 18.8755H37.5V17.6255H35V21.3755H38.75V23.8755Z" fill="black"/>
<path d="M76.25 46.3755H68.75V28.8755H73.75V25.6992L53.4837 12.4492C52.235 6.14424 46.6663 1.37549 40 1.37549C33.3337 1.37549 27.765 6.14424 26.5162 12.4492L6.25 25.6992V28.8755H11.25V46.3755H3.75C2.37125 46.3755 1.25 47.4967 1.25 48.8755V53.8755C1.25 55.2542 2.37125 56.3755 3.75 56.3755V78.8755H76.25V56.3755C77.6288 56.3755 78.75 55.2542 78.75 53.8755V48.8755C78.75 47.4967 77.6288 46.3755 76.25 46.3755ZM47.8812 26.3755C51.3037 23.9705 53.575 20.0492 53.7262 15.593L70.2162 26.3755H47.8812ZM40 3.87549C46.2038 3.87549 51.25 8.92299 51.25 15.1255C51.25 21.328 46.2038 26.3755 40 26.3755C33.7962 26.3755 28.75 21.328 28.75 15.1255C28.75 8.92299 33.7962 3.87549 40 3.87549ZM26.2737 15.593C26.425 20.0492 28.6962 23.9705 32.1187 26.3755H9.78375L26.2737 15.593ZM13.75 28.8755H66.25V46.3755H48.175L44.925 43.8755H51.25V31.3755H41.25V41.3755H38.75V31.3755H28.75V43.8755H35.075L31.825 46.3755H13.75V28.8755ZM43.75 76.3755H36.25V67.6255C36.25 65.558 37.9325 63.8755 40 63.8755C42.0675 63.8755 43.75 65.558 43.75 67.6255V76.3755ZM40 61.3755C36.5537 61.3755 33.75 64.1792 33.75 67.6255V76.3755H31.25V58.8755H48.75V76.3755H46.25V67.6255C46.25 64.1792 43.4463 61.3755 40 61.3755ZM28.75 58.8755V76.3755H26.25V58.8755H28.75ZM32.1712 56.3755L40 49.7742L47.8288 56.3755H32.1712ZM51.25 58.8755H53.75V76.3755H51.25V58.8755ZM51.7063 56.3755L40 46.5042L28.2938 56.3755H23.75V55.7405L39.175 43.8755H40.825L56.25 55.7405V56.3755H51.7063ZM36.25 41.3755H31.25V33.8755H36.25V41.3755ZM43.75 41.3755V33.8755H48.75V41.3755H43.75ZM3.75 48.8755H28.575L22.075 53.8755H3.75V48.8755ZM6.25 56.3755H21.25V58.8755H23.75V76.3755H6.25V56.3755ZM73.75 76.3755H56.25V58.8755H58.75V56.3755H73.75V76.3755ZM76.25 53.8755H57.925L51.425 48.8755H76.25V53.8755Z" fill="black"/>
<path d="M63.75 31.3755H53.75V43.8755H63.75V31.3755ZM61.25 41.3755H56.25V33.8755H61.25V41.3755Z" fill="black"/>
<path d="M16.25 43.8755H26.25V31.3755H16.25V43.8755ZM18.75 33.8755H23.75V41.3755H18.75V33.8755Z" fill="black"/>
<path d="M71.25 73.8755V58.8755H58.75V73.8755H71.25ZM61.25 61.3755H68.75V71.3755H61.25V61.3755Z" fill="black"/>
<path d="M8.75 73.8755H21.25V58.8755H8.75V73.8755ZM11.25 61.3755H18.75V71.3755H11.25V61.3755Z" fill="black"/>
</svg>
