<svg width="84" height="58" viewBox="0 0 84 58" fill="none" xmlns="http://www.w3.org/2000/svg">
<path fill-rule="evenodd" clip-rule="evenodd" d="M65.9481 58.0001C57.0251 58.0001 49.4257 51.4794 48.2 42.8015C48.0039 41.5268 49.965 41.2326 50.1612 42.5073C51.1907 50.2047 58.0056 56.039 65.9481 56.039C74.7241 56.039 81.8822 49.028 81.8822 40.3501C81.8822 29.3188 70.5568 21.8175 60.2609 25.6908C59.0352 26.181 58.3488 24.318 59.5745 23.8767C71.1451 19.5132 83.8433 27.946 83.8433 40.3501C83.8433 50.1066 75.8028 58.0001 65.9481 58.0001Z" fill="black"/>
<path fill-rule="evenodd" clip-rule="evenodd" d="M65.9481 49.028C60.6531 49.028 56.927 44.6645 58.8391 43.684C59.3293 43.4388 59.9177 43.635 60.1628 44.1252C62.1239 47.9494 69.6742 48.1455 71.6844 44.1252C72.2727 42.9486 73.9887 43.8311 73.4494 45.0077C72.1747 47.4591 69.331 49.028 65.9481 49.028Z" fill="black"/>
<path fill-rule="evenodd" clip-rule="evenodd" d="M76.342 34.6628C75.4595 34.6628 75.3125 33.339 73.4004 33.339C71.2431 33.339 70.949 35.4472 69.7723 34.4177C68.0073 32.8488 73.7926 29.3678 77.0775 33.0449C77.6658 33.6822 77.2245 34.6628 76.342 34.6628Z" fill="black"/>
<path fill-rule="evenodd" clip-rule="evenodd" d="M31.2365 43.6346C27.5594 43.5856 26.2847 38.4377 28.3439 38.3887C28.8832 38.3887 29.3244 38.8299 29.3734 39.3692C29.4225 41.4774 30.9914 41.6735 31.2855 41.6735H58.0057C60.8003 41.6735 60.7513 37.4571 58.0057 37.4571H45.7978C44.474 37.4571 44.474 35.496 45.7978 35.496H58.0057C60.7513 35.496 60.7513 31.2796 58.0057 31.2796H45.7978C44.474 31.2796 44.474 29.3185 45.7978 29.3185H58.0057C60.8003 29.3185 60.7513 25.1021 58.0057 25.1021H45.7978C44.474 25.1021 44.474 23.141 45.7978 23.141H58.0057C60.7513 23.141 60.7513 18.9246 58.0057 18.9246H45.7978C45.0624 18.9246 44.5721 18.1401 44.9153 17.5028C51.436 5.09871 45.6017 1.9119 44.5231 6.07927C41.9736 15.7868 37.1199 17.7969 28.6871 20.5425C27.4614 20.9347 26.824 19.0717 28.0987 18.6794C36.0903 16.081 40.3557 14.316 42.611 5.58899C44.2289 -0.784632 54.5738 2.00996 47.3667 16.9635H58.0057C61.7809 16.9635 63.4969 21.6701 60.6532 24.1215C62.5653 25.7395 62.5653 28.6811 60.6532 30.2991C62.5653 31.917 62.5653 34.8586 60.6532 36.4766C63.4969 38.928 61.7809 43.6346 58.0057 43.6346H31.2365Z" fill="black"/>
<path fill-rule="evenodd" clip-rule="evenodd" d="M26.7261 44.3213H21.3331C19.8622 44.3213 18.6855 43.1446 18.6855 41.7228V18.9249C18.6855 17.454 19.8622 16.2773 21.3331 16.2773H26.7261C28.197 16.2773 29.3736 17.454 29.3736 18.9249V41.7228C29.3736 43.1446 28.197 44.3213 26.7261 44.3213ZM21.3331 18.2385C20.9899 18.2385 20.6467 18.5817 20.6467 18.9249V41.7228C20.6467 42.066 20.9899 42.3602 21.3331 42.3602H26.7261C27.1183 42.3602 27.4125 42.066 27.4125 41.7228V18.9249C27.4125 18.5817 27.1183 18.2385 26.7261 18.2385H21.3331Z" fill="black"/>
<path fill-rule="evenodd" clip-rule="evenodd" d="M4.27117 32.7506C3.63381 32.7506 3.14353 32.1133 3.33965 31.5249L5.34979 23.8766H3.97701C1.86881 23.8766 0.152832 22.1606 0.152832 20.0524V3.82418C0.152832 1.71598 1.86881 0 3.97701 0H32.4132C34.5214 0 36.2374 1.71598 36.2374 3.82418V16.9637C36.2374 18.2874 34.2762 18.2874 34.2762 16.9637V3.82418C34.2762 2.79459 33.4428 1.96112 32.4132 1.96112H3.97701C2.94742 1.96112 2.11395 2.79459 2.11395 3.82418V20.0524C2.11395 22.3567 4.85951 21.9155 6.62451 21.9155C7.3109 21.9155 7.75216 22.5528 7.60507 23.1412L5.84007 29.7109C7.35993 28.8284 18.9795 21.9155 19.6169 21.9155C20.6465 21.9155 21.1368 23.3373 19.9601 23.8276C17.9009 24.8571 5.05562 32.7506 4.27117 32.7506Z" fill="black"/>
<path fill-rule="evenodd" clip-rule="evenodd" d="M7.99728 15.3456C3.53574 15.3456 3.53574 8.53076 7.99728 8.53076C12.5078 8.53076 12.5078 15.3456 7.99728 15.3456ZM7.99728 10.4919C6.08519 10.4919 6.08519 13.3845 7.99728 13.3845C9.90937 13.3845 9.90937 10.4919 7.99728 10.4919Z" fill="black"/>
<path fill-rule="evenodd" clip-rule="evenodd" d="M18.1953 15.3456C13.7337 15.3456 13.7337 8.53076 18.1953 8.53076C22.7058 8.53076 22.7058 15.3456 18.1953 15.3456ZM18.1953 10.4919C16.2832 10.4919 16.2832 13.3845 18.1953 13.3845C20.1074 13.3845 20.1074 10.4919 18.1953 10.4919Z" fill="black"/>
<path fill-rule="evenodd" clip-rule="evenodd" d="M28.3928 15.3456C23.9312 15.3456 23.9312 8.53076 28.3928 8.53076C32.9034 8.53076 32.9034 15.3456 28.3928 15.3456ZM28.3928 10.4919C26.4807 10.4919 26.4807 13.3845 28.3928 13.3845C30.3049 13.3845 30.3049 10.4919 28.3928 10.4919Z" fill="black"/>
<path fill-rule="evenodd" clip-rule="evenodd" d="M25.2552 39.6637C23.6863 39.6637 21.8232 40.0069 21.8232 38.6832C21.8232 37.3594 23.6863 37.7026 25.2552 37.7026C26.5299 37.7026 26.5299 39.6637 25.2552 39.6637Z" fill="black"/>
<path fill-rule="evenodd" clip-rule="evenodd" d="M5.83989 29.7107C7.16364 28.9753 15.7926 23.8274 18.6852 22.3075V18.9246C18.6852 17.4538 19.8619 16.2771 21.3327 16.2771H26.7258C27.9515 16.2771 28.9811 17.1596 29.2752 18.2872C31.1873 17.6499 32.8543 17.0615 34.2761 16.3751V3.824C34.2761 2.79441 33.4426 1.96094 32.413 1.96094H3.97683C2.94724 1.96094 2.11377 2.79441 2.11377 3.824V20.0522C2.11377 22.3565 4.85933 21.9153 6.62434 21.9153C7.31073 21.9153 7.75198 22.5527 7.60489 23.141L5.83989 29.7107ZM28.3927 15.3456C23.9312 15.3456 23.9312 8.53068 28.3927 8.53068C32.9033 8.53068 32.9033 15.3456 28.3927 15.3456ZM18.1949 15.3456C13.7334 15.3456 13.7334 8.53068 18.1949 8.53068C22.7055 8.53068 22.7055 15.3456 18.1949 15.3456ZM7.99712 15.3456C3.53558 15.3456 3.53558 8.53068 7.99712 8.53068C12.5077 8.53068 12.5077 15.3456 7.99712 15.3456Z" fill="#D62966"/>
<path fill-rule="evenodd" clip-rule="evenodd" d="M7.99705 13.3846C9.90914 13.3846 9.90914 10.4919 7.99705 10.4919C6.08497 10.4919 6.08497 13.3846 7.99705 13.3846Z" fill="white"/>
<path fill-rule="evenodd" clip-rule="evenodd" d="M18.1953 10.4919C16.2832 10.4919 16.2832 13.3846 18.1953 13.3846C20.1074 13.3846 20.1074 10.4919 18.1953 10.4919Z" fill="white"/>
<path fill-rule="evenodd" clip-rule="evenodd" d="M28.3928 10.4919C26.4807 10.4919 26.4807 13.3846 28.3928 13.3846C30.3049 13.3846 30.3049 10.4919 28.3928 10.4919Z" fill="white"/>
<path fill-rule="evenodd" clip-rule="evenodd" d="M26.7259 18.2383H21.3329C20.9897 18.2383 20.6465 18.5815 20.6465 18.9247V41.7226C20.6465 42.0658 20.9897 42.36 21.3329 42.36H26.7259C27.8046 42.36 27.2653 40.644 27.4123 39.3203V18.9247C27.4123 18.5815 27.1182 18.2383 26.7259 18.2383ZM21.8232 38.6829C21.8232 37.3592 23.6862 37.7024 25.2551 37.7024C26.5298 37.7024 26.5298 39.6635 25.2551 39.6635C23.6862 39.6635 21.8232 40.0067 21.8232 38.6829Z" fill="#2882B0"/>
<path fill-rule="evenodd" clip-rule="evenodd" d="M29.3735 20.3466V39.3695C29.3735 41.4777 30.9915 41.6738 31.2856 41.6738H58.0058C60.8004 41.6738 60.7514 37.4574 58.0058 37.4574H45.7979C44.4741 37.4574 44.4741 35.4963 45.7979 35.4963H58.0058C60.7514 35.4963 60.7514 31.2799 58.0058 31.2799H45.7979C44.4741 31.2799 44.4741 29.3187 45.7979 29.3187H58.0058C60.8494 29.3187 60.7024 25.1023 58.0058 25.1023H45.7979C44.4741 25.1023 44.4741 23.1412 45.7979 23.1412H58.0058C60.7514 23.1412 60.7514 18.9248 58.0058 18.9248H45.7979C45.0625 18.9248 44.5722 18.1404 44.9154 17.503C51.4361 5.09896 45.6018 1.91215 44.5232 6.07952C42.0718 15.5419 37.3651 17.6991 29.3735 20.3466Z" fill="#FFC3A1"/>
<path fill-rule="evenodd" clip-rule="evenodd" d="M60.6533 30.2991C62.5654 31.917 62.5654 34.8587 60.6533 36.4766C63.4969 38.928 61.7809 43.6347 58.0058 43.6347H50.3574C51.8773 50.7928 58.398 56.0388 65.9483 56.0388C74.7243 56.0388 81.8824 49.0278 81.8824 40.3498C81.8824 29.8088 71.5375 22.5037 61.5848 25.2983C62.4673 26.9162 62.1731 29.0244 60.6533 30.2991ZM60.163 44.125C62.1241 47.9492 69.6744 48.1453 71.6846 44.125C72.2729 42.9483 73.9889 43.8308 73.4496 45.0075C72.1748 47.4589 69.3312 49.0278 65.9483 49.0278C60.6533 49.0278 56.9272 44.6643 58.8392 43.6837C59.3295 43.4386 59.9179 43.6347 60.163 44.125ZM73.4005 33.3388C71.2433 33.3388 70.9491 35.447 69.7725 34.4175C68.0075 32.8486 73.7928 29.3676 77.0776 33.0447C77.666 33.682 77.2247 34.6626 76.3422 34.6626C75.4597 34.6626 75.3126 33.3388 73.4005 33.3388Z" fill="#FFB800"/>
</svg>
