<svg width="81" height="81" viewBox="0 0 81 81" fill="none" xmlns="http://www.w3.org/2000/svg">
<path d="M79.9598 37.1094V43.6942C79.9598 44.3953 79.4825 45.0061 78.8022 45.1756L73.9605 46.3816C73.3971 46.522 72.974 46.974 72.8482 47.5409C72.0137 51.3003 70.5373 54.8179 68.5339 57.9709C68.2231 58.4601 68.2036 59.0764 68.5014 59.5737L71.0694 63.8592C71.429 64.4594 71.3346 65.2272 70.8403 65.7224L66.1881 70.3834C65.6925 70.88 64.9223 70.9748 64.3209 70.6134L60.039 68.0391C59.5414 67.7399 58.924 67.7591 58.4339 68.0704C55.2824 70.0735 51.7741 71.5496 48.0163 72.3839C47.4502 72.5097 46.9984 72.9319 46.8575 73.4944L45.641 78.3519C45.4709 79.0312 44.8604 79.5077 44.1602 79.5077H37.5724C36.8722 79.5077 36.2617 79.0312 36.0915 78.3519L34.875 73.4944C34.7342 72.9319 34.2824 72.5097 33.7163 72.3839C29.9593 71.5497 26.4524 70.0742 23.3104 68.0717C22.8205 67.7595 22.203 67.7396 21.7049 68.0386L17.4111 70.6148C16.81 70.9756 16.0404 70.8804 15.5451 70.3842L10.8921 65.7224C10.3979 65.2272 10.3035 64.4594 10.6631 63.8592L13.2056 59.6161C13.5166 59.097 13.4785 58.4532 13.1369 57.9537C11.0717 54.9334 9.69892 51.305 8.88337 47.5486C8.75921 46.9765 8.33093 46.5209 7.7629 46.3794L2.93008 45.1754C2.24979 45.0059 1.77246 44.3951 1.77246 43.6941V37.1092C1.77246 36.4082 2.24979 35.7974 2.93008 35.6279L7.76659 34.423C8.3327 34.2819 8.75744 33.8271 8.88289 33.2575C9.70969 29.5012 11.1931 25.9867 13.1959 22.836C13.5081 22.3449 13.5274 21.7254 13.2279 21.2266L10.6644 16.9566C10.3039 16.3564 10.398 15.5879 10.8927 15.0924L15.5441 10.4321C16.0398 9.93548 16.81 9.84075 17.4113 10.2021L21.6904 12.7747C22.1896 13.0748 22.8088 13.0544 23.2993 12.7404C26.4428 10.7293 29.9591 9.25325 33.7263 8.41921C34.2935 8.29361 34.7459 7.87048 34.8863 7.30678L36.0923 2.46561C36.2618 1.78531 36.8727 1.30798 37.5737 1.30798H44.1584C44.8594 1.30798 45.4702 1.78531 45.6398 2.46561L46.8447 7.30228C46.9857 7.86838 47.4405 8.29313 48.0102 8.41857C51.7667 9.24554 55.2816 10.7292 58.4325 12.7321C58.9232 13.0439 59.542 13.0635 60.0407 12.7647L64.3214 10.1997C64.9226 9.83946 65.6917 9.93483 66.1867 10.4308L70.8394 15.0925C71.3339 15.588 71.4282 16.3566 71.0677 16.9568L68.5042 21.2267C68.2047 21.7256 68.224 22.3449 68.5362 22.8361C70.5389 25.9868 72.0224 29.5014 72.8492 33.2576C72.9747 33.8273 73.3996 34.2822 73.9655 34.4231L78.802 35.628C79.4823 35.7974 79.9598 36.4083 79.9598 37.1094Z" fill="#94C1FF"/>
<path d="M65.1879 40.401C65.1879 53.8346 54.295 64.7275 40.8704 64.7275C27.4368 64.7275 16.5439 53.8346 16.5439 40.401C16.5439 26.9674 27.4368 16.0835 40.8704 16.0835C54.295 16.0835 65.1879 26.9674 65.1879 40.401Z" fill="white"/>
<path d="M29.894 48.0462C32.3474 48.0462 34.3363 46.0573 34.3363 43.6038C34.3363 41.1504 32.3474 39.1615 29.894 39.1615C27.4406 39.1615 25.4517 41.1504 25.4517 43.6038C25.4517 46.0573 27.4406 48.0462 29.894 48.0462Z" fill="white"/>
<path d="M40.8666 41.6538C43.3201 41.6538 45.309 39.6649 45.309 37.2115C45.309 34.7581 43.3201 32.7692 40.8666 32.7692C38.4132 32.7692 36.4243 34.7581 36.4243 37.2115C36.4243 39.6649 38.4132 41.6538 40.8666 41.6538Z" fill="white"/>
<path d="M51.8388 46.9706C54.2922 46.9706 56.2811 44.9817 56.2811 42.5283C56.2811 40.0748 54.2922 38.0859 51.8388 38.0859C49.3854 38.0859 47.3965 40.0748 47.3965 42.5283C47.3965 44.9817 49.3854 46.9706 51.8388 46.9706Z" fill="white"/>
<path d="M2.72849 45.9826L7.56146 47.1865C7.81734 47.2504 8.01242 47.4567 8.06999 47.7256C8.97657 51.8998 10.4504 55.4991 12.4498 58.4239C12.6146 58.6643 12.63 58.9572 12.4921 59.1883L9.94844 63.432C9.39279 64.3606 9.53817 65.5443 10.3026 66.3105L14.9561 70.9717C15.7214 71.7398 16.9059 71.8881 17.8385 71.3284L22.1329 68.7523C22.3547 68.6199 22.6334 68.628 22.8632 68.7738C26.1437 70.8646 29.7339 72.3525 33.5351 73.1962C33.8008 73.2556 34.0055 73.4476 34.0681 73.6967L35.2843 78.5549C35.5483 79.6058 36.489 80.3398 37.572 80.3398H44.1599C45.2429 80.3398 46.1836 79.6058 46.4477 78.5541L47.6638 73.6962C47.7264 73.4473 47.9303 73.2556 48.196 73.1962C51.9941 72.3533 55.589 70.8651 58.88 68.773C59.1091 68.6272 59.3893 68.6199 59.6095 68.7523L63.8918 71.3265C64.8228 71.8853 66.0089 71.7407 66.7767 70.9714L71.4294 66.3101C72.1938 65.5445 72.3393 64.3608 71.7827 63.4317L69.2146 59.1462C69.0823 58.9252 69.0903 58.6462 69.2357 58.417C71.3261 55.1271 72.8152 51.5285 73.6602 47.7211C73.7187 47.4551 73.9112 47.2515 74.1615 47.1889L79.0034 45.9826C80.0564 45.7201 80.7915 44.7794 80.7915 43.6944V37.1093C80.7915 36.0239 80.0562 35.0833 79.0034 34.8208L74.1663 33.6161C73.9144 33.5532 73.7211 33.3475 73.6618 33.0791C72.8282 29.2924 71.3399 25.6959 69.2381 22.3893C69.0911 22.1593 69.0837 21.8775 69.217 21.6548L71.7811 17.3847C72.3383 16.4553 72.1938 15.2711 71.4286 14.5047L66.7751 9.84264C66.0081 9.07566 64.8244 8.92867 63.8942 9.48593L59.6137 12.0511C59.3903 12.1839 59.11 12.1757 58.8784 12.03C55.5726 9.92836 51.976 8.43992 48.1886 7.60604C47.9205 7.54669 47.715 7.35386 47.6524 7.10104L46.4469 2.26469C46.1852 1.21145 45.2437 0.47583 44.1583 0.47583H37.5736C36.4882 0.47583 35.5475 1.21113 35.2843 2.26437L34.0787 7.10555C34.017 7.35579 33.8122 7.54798 33.5466 7.60684C29.7242 8.45294 26.1259 9.9446 22.8512 12.0398C22.6204 12.1873 22.3402 12.1942 22.1192 12.0617L17.8403 9.48914C16.9093 8.93027 15.724 9.07486 14.9554 9.84425L10.3034 14.5047C9.53801 15.272 9.39262 16.4564 9.95085 17.3847L12.5149 21.6543C12.6481 21.8774 12.6408 22.1593 12.4938 22.3896C10.3922 25.6957 8.90371 29.2923 8.07015 33.0794C8.01081 33.3475 7.8175 33.553 7.56484 33.6161L2.72849 34.8208C1.67556 35.0833 0.94043 36.0239 0.94043 37.1093V43.6944C0.94043 44.7793 1.67556 45.7201 2.72849 45.9826ZM2.60417 37.1093C2.60417 36.7896 2.82113 36.5127 3.13136 36.435L7.9669 35.2303C8.83778 35.0138 9.49909 34.3264 9.69498 33.4364C10.487 29.8402 11.9007 26.4241 13.8977 23.2828C14.3843 22.518 14.4014 21.5662 13.9416 20.7984L11.3775 16.528C11.2127 16.2546 11.2556 15.9061 11.4816 15.6803L16.1335 11.0199C16.3593 10.7941 16.7086 10.7502 16.9825 10.915L21.2614 13.4876C22.03 13.949 22.9813 13.932 23.7482 13.4413C26.8581 11.4517 30.2752 10.0353 33.9058 9.23182C34.7921 9.03562 35.4779 8.3751 35.6939 7.50793L36.8994 2.66724C36.9766 2.35685 37.2536 2.14005 37.5738 2.14005H44.1585C44.4777 2.14005 44.7548 2.35653 44.832 2.66692L46.0376 7.50327C46.2537 8.37301 46.9409 9.03513 47.8314 9.23134C51.4288 10.0234 54.845 11.4374 57.9866 13.4344C58.752 13.9205 59.7032 13.9373 60.4684 13.4791L64.749 10.9139C65.0219 10.7499 65.3722 10.7925 65.598 11.0191L70.2507 15.6808C70.4765 15.9062 70.5188 16.2551 70.3547 16.529L67.7907 20.7994C67.3309 21.5667 67.3479 22.5184 67.8346 23.2828C69.8316 26.4244 71.2451 29.8407 72.0373 33.4364C72.233 34.3267 72.8943 35.0141 73.7645 35.2306L78.6009 36.4353C78.9113 36.5128 79.1281 36.7899 79.1281 37.1097V43.6947C79.1281 44.0139 78.9111 44.2913 78.6009 44.3685L73.7597 45.5749C72.8937 45.7902 72.2332 46.4747 72.0358 47.3605C71.2332 50.9786 69.8187 54.3984 67.8323 57.5247C67.3465 58.2883 67.3302 59.2377 67.7884 60.0018L70.3557 64.2868C70.5197 64.5605 70.4768 64.9095 70.2516 65.135L65.5989 69.7962C65.374 70.022 65.0246 70.0656 64.75 69.9006L60.4675 67.3267C59.7021 66.8656 58.7516 66.8824 57.988 67.3685C54.8595 69.3565 51.444 70.7705 47.8345 71.572C46.9498 71.7691 46.2658 72.4288 46.0504 73.2927L44.8343 78.1493C44.7563 78.4592 44.4792 78.6757 44.1599 78.6757H37.572C37.2528 78.6757 36.9757 78.4592 36.8977 78.1501L35.6815 73.2919C35.4646 72.4275 34.7806 71.7686 33.8959 71.572C30.2847 70.7702 26.8734 69.3565 23.7577 67.3706C22.9869 66.88 22.0383 66.8687 21.2767 67.3256L16.9823 69.9017C16.7078 70.0654 16.3591 70.0228 16.1341 69.7965L11.4806 65.1353C11.2556 64.9095 11.2125 64.5605 11.3758 64.2871L13.9186 60.0439C14.3882 59.2604 14.3507 58.2554 13.8227 57.4844C11.9452 54.7379 10.5568 51.336 9.69642 47.3723C9.50231 46.4802 8.83858 45.7906 7.96433 45.5723L3.13136 44.3684C2.82096 44.2912 2.60417 44.0138 2.60417 43.6945V37.1093Z" fill="black"/>
<path d="M40.8702 65.5593C54.7372 65.5593 66.0193 54.2732 66.0193 40.4008C66.0193 26.5338 54.7374 15.2517 40.8702 15.2517C26.9974 15.2517 15.7114 26.5336 15.7114 40.4008C15.7113 54.2732 26.9974 65.5593 40.8702 65.5593ZM40.8702 16.9156C53.82 16.9156 64.3554 27.451 64.3554 40.4008C64.3554 53.356 53.82 63.8954 40.8702 63.8954C27.9146 63.8954 17.3752 53.356 17.3752 40.4008C17.3752 27.451 27.9146 16.9156 40.8702 16.9156Z" fill="black"/>
<path d="M29.062 48.8062V55.6152C29.062 56.0747 29.4341 56.4471 29.8939 56.4471C30.3537 56.4471 30.7259 56.0747 30.7259 55.6152V48.8062C33.2394 48.4052 35.1682 46.2284 35.1682 43.6041C35.1682 40.9794 33.2394 38.8025 30.7259 38.4015V25.2005C30.7259 24.741 30.3537 24.3685 29.8939 24.3685C29.4341 24.3685 29.062 24.741 29.062 25.2005V38.4015C26.5484 38.8025 24.6196 40.9792 24.6196 43.6041C24.6196 46.2284 26.5484 48.4052 29.062 48.8062ZM29.8939 39.9934C31.8843 39.9934 33.5043 41.6134 33.5043 43.6041C33.5043 45.5949 31.8843 47.2145 29.8939 47.2145C27.9035 47.2145 26.2835 45.5949 26.2835 43.6041C26.2835 41.6132 27.9034 39.9934 29.8939 39.9934Z" fill="black"/>
<path d="M40.0336 42.4137V55.6152C40.0336 56.0747 40.4058 56.4471 40.8656 56.4471C41.3254 56.4471 41.6975 56.0747 41.6975 55.6152V42.4137C44.2112 42.0127 46.1407 39.8359 46.1407 37.2116C46.1407 34.5872 44.2112 32.4105 41.6975 32.0095V25.2005C41.6975 24.741 41.3254 24.3685 40.8656 24.3685C40.4058 24.3685 40.0336 24.741 40.0336 25.2005V32.0095C37.5201 32.4105 35.5913 34.5872 35.5913 37.2116C35.5913 39.8359 37.5201 42.0129 40.0336 42.4137ZM40.8654 33.6012C42.8566 33.6012 44.4766 35.2207 44.4766 37.2116C44.4766 39.2024 42.8566 40.822 40.8654 40.822C38.875 40.822 37.2551 39.2024 37.2551 37.2116C37.2552 35.2209 38.875 33.6012 40.8654 33.6012Z" fill="black"/>
<path d="M51.0063 47.7305V55.6152C51.0063 56.0747 51.3784 56.4471 51.8382 56.4471C52.298 56.4471 52.6702 56.0747 52.6702 55.6152V47.7305C55.1837 47.3296 57.1125 45.1528 57.1125 42.5285C57.1125 39.9038 55.1837 37.7269 52.6702 37.3259V25.2005C52.6702 24.741 52.298 24.3685 51.8382 24.3685C51.3784 24.3685 51.0063 24.741 51.0063 25.2005V37.3259C48.4927 37.7269 46.564 39.9036 46.564 42.5285C46.564 45.1528 48.4927 47.3296 51.0063 47.7305ZM51.8381 38.9178C53.8285 38.9178 55.4485 40.5378 55.4485 42.5285C55.4485 44.5193 53.8285 46.1389 51.8381 46.1389C49.8477 46.1389 48.2277 44.5193 48.2277 42.5285C48.2277 40.5376 49.8477 38.9178 51.8381 38.9178Z" fill="black"/>
</svg>
