<svg width="74" height="82" viewBox="0 0 74 82" fill="none" xmlns="http://www.w3.org/2000/svg">
<path d="M8.45392 47.0615L1.67252 5.01685H64.7395C65.6388 5.01685 66.5012 5.37408 67.1371 6.00996C67.773 6.64584 68.1302 7.50828 68.1302 8.40755V22.6485L61.3488 48.4178H8.45392V47.0615Z" fill="#E3E4E2"/>
<path d="M68.1302 15.1889V5.01685C68.1302 5.91612 67.773 6.77855 67.1371 7.41443C66.5012 8.05031 65.6388 8.40755 64.7395 8.40755H52.533C51.6337 8.40755 50.7713 8.76478 50.1354 9.40066C49.4995 10.0365 49.1423 10.899 49.1423 11.7982C49.1423 12.6975 49.4995 13.56 50.1354 14.1958C50.7713 14.8317 51.6337 15.1889 52.533 15.1889H68.1302Z" fill="#B2B1B4"/>
<path d="M49.1423 45.027V11.7981C49.1423 12.6974 49.4995 13.5598 50.1354 14.1957C50.7713 14.8316 51.6337 15.1888 52.533 15.1888H72.1991L65.0956 45.027H49.1423Z" fill="#C9C9C7"/>
<path d="M65.4177 46.3833V53.1647L41.0046 68.0838V77.5777L32.867 80.2903V68.0838L8.45391 53.1647V46.3833H65.4177Z" fill="#0093B9"/>
<path d="M65.4177 43.6704H8.45392C6.95581 43.6704 5.74136 44.8849 5.74136 46.383C5.74136 47.8811 6.95581 49.0955 8.45392 49.0955H65.4177C66.9158 49.0955 68.1302 47.8811 68.1302 46.383C68.1302 44.8849 66.9158 43.6704 65.4177 43.6704Z" fill="#0093B9"/>
<path d="M30.1544 17.9014C30.1544 19.7792 29.5976 21.6147 28.5544 23.176C27.5112 24.7373 26.0284 25.9541 24.2936 26.6727C22.5588 27.3913 20.6499 27.5793 18.8083 27.213C16.9666 26.8466 15.2749 25.9424 13.9472 24.6147C12.6194 23.2869 11.7152 21.5953 11.3489 19.7536C10.9826 17.912 11.1706 16.003 11.8892 14.2682C12.6077 12.5335 13.8246 11.0507 15.3859 10.0075C16.9471 8.96428 18.7827 8.40747 20.6604 8.40747C23.1784 8.40747 25.5932 9.40772 27.3737 11.1882C29.1541 12.9686 30.1544 15.3835 30.1544 17.9014Z" fill="#EB5849"/>
<path d="M20.6604 17.9011V27.395C18.7826 27.3952 16.9469 26.8384 15.3855 25.7952C13.8241 24.752 12.6071 23.2692 11.8885 21.5344C11.1699 19.7995 10.9819 17.8905 11.3483 16.0487C11.7146 14.207 12.619 12.5153 13.9469 11.1875L20.6604 17.9011Z" fill="#0093B9"/>
<path d="M8.45391 49.0957H65.4177V51.8083H8.45391V49.0957Z" fill="#0884A9"/>
<path d="M30.1544 17.9014C30.1544 20.4194 29.1541 22.8342 27.3737 24.6147C25.5932 26.3951 23.1784 27.3954 20.6604 27.3954V8.40747C23.1784 8.40747 25.5932 9.40772 27.3737 11.1882C29.1541 12.9686 30.1544 15.3835 30.1544 17.9014Z" fill="#F6BC1B"/>
<path d="M73.2634 14.3481C73.1364 14.1873 72.9747 14.0574 72.7904 13.9681C72.606 13.8787 72.4039 13.8323 72.199 13.8323H69.4865V5.01651C69.485 3.75797 68.9845 2.5514 68.0945 1.66148C67.2046 0.771555 65.998 0.270967 64.7395 0.269531H1.67248C1.47608 0.26948 1.282 0.312088 1.10367 0.394408C0.925348 0.476729 0.76703 0.596798 0.639666 0.746314C0.512303 0.895829 0.418932 1.07122 0.36601 1.26037C0.313089 1.44951 0.30188 1.6479 0.333158 1.8418L6.91112 42.6194C6.14848 42.9319 5.49877 43.4687 5.04801 44.1587C4.59726 44.8487 4.36672 45.6593 4.38694 46.4832C4.40716 47.3072 4.67718 48.1055 5.16124 48.7726C5.6453 49.4396 6.32056 49.9439 7.0976 50.2186V53.1644C7.09762 53.3968 7.15733 53.6252 7.271 53.8279C7.38467 54.0305 7.54849 54.2006 7.74675 54.3217L31.5106 68.8442V80.29C31.5107 80.5049 31.5617 80.7168 31.6597 80.9081C31.7576 81.0993 31.8996 81.2646 32.0739 81.3903C32.2483 81.5159 32.45 81.5983 32.6624 81.6308C32.8749 81.6632 33.092 81.6446 33.2958 81.5766L41.4335 78.8641C41.7036 78.7741 41.9384 78.6014 42.1049 78.3705C42.2713 78.1395 42.3609 77.8621 42.3609 77.5775V68.8442L66.1248 54.3217C66.323 54.2006 66.4869 54.0305 66.6005 53.8279C66.7142 53.6252 66.7739 53.3968 66.7739 53.1644V50.2186C67.543 49.9468 68.2127 49.4501 68.6959 48.7929C69.1791 48.1357 69.4535 47.3484 69.4836 46.5333C69.5137 45.7181 69.298 44.9128 68.8645 44.2218C68.431 43.5308 67.7998 42.9861 67.0528 42.6584L73.5184 15.5028C73.5658 15.3035 73.5675 15.0961 73.5233 14.8962C73.4792 14.6962 73.3903 14.5088 73.2634 14.3481ZM52.533 13.8323C51.9934 13.8323 51.476 13.618 51.0944 13.2365C50.7129 12.8549 50.4986 12.3375 50.4986 11.7979C50.4986 11.2583 50.7129 10.7409 51.0944 10.3594C51.476 9.97783 51.9934 9.76349 52.533 9.76349H64.7395C65.4434 9.76414 66.1385 9.60733 66.7739 9.30456V13.8323H52.533ZM64.7395 2.98209C65.2791 2.98209 65.7965 3.19643 66.1781 3.57796C66.5596 3.95949 66.7739 4.47695 66.7739 5.01651C66.7739 5.55607 66.5596 6.07354 66.1781 6.45506C65.7965 6.83659 65.2791 7.05093 64.7395 7.05093H52.533C51.2744 7.05237 50.0679 7.55295 49.1779 8.44287C48.288 9.3328 47.7874 10.5394 47.786 11.7979V42.3142H9.60893L3.2651 2.98209H64.7395ZM40.2975 66.9263C40.0992 67.0474 39.9354 67.2175 39.8217 67.4201C39.708 67.6227 39.6483 67.8512 39.6483 68.0835V76.5999L34.2232 78.4082V68.0835C34.2232 67.8512 34.1635 67.6227 34.0498 67.4201C33.9361 67.2175 33.7723 67.0474 33.5741 66.9263L9.81016 52.4037V50.4519H64.0614V52.4037L40.2975 66.9263ZM65.4176 47.7393H8.45388C8.09418 47.7393 7.7492 47.5964 7.49485 47.3421C7.2405 47.0877 7.0976 46.7428 7.0976 46.383C7.0976 46.0233 7.2405 45.6784 7.49485 45.424C7.7492 45.1697 8.09418 45.0268 8.45388 45.0268H65.4176C65.7773 45.0268 66.1223 45.1697 66.3767 45.424C66.631 45.6784 66.7739 46.0233 66.7739 46.383C66.7739 46.7428 66.631 47.0877 66.3767 47.3421C66.1223 47.5964 65.7773 47.7393 65.4176 47.7393ZM64.3463 42.3142H50.4986V16.086C51.134 16.3887 51.8291 16.5455 52.533 16.5449H70.482L64.3463 42.3142Z" fill="black"/>
<path d="M20.6604 28.7513C22.6082 28.7529 24.5204 28.2298 26.196 27.2369C27.8717 26.2439 29.2489 24.8179 30.1829 23.1087C31.1169 21.3996 31.5732 19.4703 31.5039 17.5238C31.4345 15.5773 30.842 13.6854 29.7887 12.0471L33.4288 8.40714H43.7172V5.69458H32.867C32.6888 5.69457 32.5125 5.72965 32.3479 5.7978C32.1834 5.86596 32.0338 5.96586 31.9079 6.0918L28.0415 9.95822C26.747 8.75527 25.1782 7.8868 23.4715 7.42835C21.7649 6.9699 19.9721 6.93535 18.2491 7.32771C16.526 7.72008 14.9249 8.52746 13.5851 9.67965C12.2452 10.8318 11.2071 12.2939 10.5611 13.9388C9.91506 15.5836 9.68069 17.3614 9.87835 19.1174C10.076 20.8735 10.6997 22.5546 11.6952 24.0147C12.6907 25.4748 14.0278 26.6695 15.5903 27.495C17.1528 28.3206 18.8933 28.7518 20.6604 28.7513ZM12.5228 17.9011C12.5215 16.2117 13.0492 14.5644 14.0316 13.1901L19.3042 18.4626V25.9235C17.4092 25.6008 15.6894 24.6187 14.4484 23.1507C13.2075 21.6827 12.5255 19.8233 12.5228 17.9011ZM19.3042 14.6269L15.9494 11.2723C16.9476 10.5595 18.0947 10.0829 19.3042 9.87853V14.6269ZM25.6883 16.1476L27.8129 14.0228C28.4305 15.1607 28.7676 16.4295 28.7961 17.7238C28.8246 19.0182 28.5437 20.3006 27.9769 21.4646C27.41 22.6285 26.5734 23.6403 25.5368 24.4159C24.5001 25.1915 23.2933 25.7084 22.0167 25.9237V9.87853C23.5488 10.1374 24.9744 10.8305 26.1242 11.8757L23.7702 14.2295L25.6883 16.1476Z" fill="black"/>
<path d="M15.2353 31.4641H17.9479V34.1767H15.2353V31.4641Z" fill="black"/>
<path d="M20.6604 31.4641H43.7172V34.1767H20.6604V31.4641Z" fill="black"/>
<path d="M12.5228 36.8892H41.0046V39.6017H12.5228V36.8892Z" fill="black"/>
<path d="M35.5795 11.1199H43.7172V13.8324H35.5795V11.1199Z" fill="black"/>
<path d="M35.5795 16.5452H43.7172V19.2577H35.5795V16.5452Z" fill="black"/>
<path d="M35.5795 21.97H43.7172V24.6825H35.5795V21.97Z" fill="black"/>
</svg>
