<svg width="77" height="77" viewBox="0 0 77 77" fill="none" xmlns="http://www.w3.org/2000/svg">
<path d="M60.7176 40.9839C59.7613 49.6278 53.887 56.7813 45.951 59.5881C43.6161 60.4078 41.1074 60.8549 38.4994 60.8549C26.999 60.8549 17.5231 52.1613 16.2811 40.9839C16.1942 40.1642 16.1445 39.3445 16.1445 38.5C16.1445 37.6555 16.1942 36.8358 16.2811 36.0161C17.5231 24.8387 26.999 16.1452 38.4994 16.1452C44.3613 16.1452 49.6892 18.3931 53.6758 22.094C57.5134 25.6336 60.109 30.5268 60.7176 36.0161C60.8045 36.8358 60.8542 37.6555 60.8542 38.5C60.8542 39.3445 60.8045 40.1642 60.7176 40.9839Z" fill="#FCD770"/>
<path d="M38.5004 21.1129C48.1005 21.1129 55.8875 28.8999 55.8875 38.5C55.8875 48.1002 48.1005 55.8871 38.5004 55.8871C28.9002 55.8871 21.1133 48.1002 21.1133 38.5C21.1133 28.8999 28.9002 21.1129 38.5004 21.1129Z" fill="#FFEAA7"/>
<path d="M18.6293 53.4032V73.2742C18.6293 74.6403 17.5115 75.7581 16.1454 75.7581H3.72606C2.35993 75.7581 1.24219 74.6403 1.24219 73.2742V53.4032C1.24219 52.0371 2.35993 50.9194 3.72606 50.9194H11.1777H16.1454C17.5115 50.9194 18.6293 52.0371 18.6293 53.4032Z" fill="#969FAA"/>
<path d="M75.7582 53.4032V55.8871H58.3711V53.4032C58.3711 52.0371 59.4888 50.9194 60.855 50.9194H65.8227H73.2743C74.6404 50.9194 75.7582 52.0371 75.7582 53.4032Z" fill="#969FAA"/>
<path d="M75.7582 70.7903V73.2742C75.7582 74.6403 74.6404 75.7581 73.2743 75.7581H60.855C59.4888 75.7581 58.3711 74.6403 58.3711 73.2742V70.7903H75.7582Z" fill="#969FAA"/>
<path d="M75.3885 19.3742C75.6245 19.6971 75.7611 20.0945 75.7611 20.4919C75.7611 21.5228 74.929 22.3548 73.8982 22.3548H65.8256H64.5837H55.2692L53.9527 21.8084C53.6174 21.4731 53.4062 21.0136 53.4062 20.4919C53.4062 20.0945 53.5429 19.6971 53.7788 19.3742L56.2006 16.1452H72.9667L75.3885 19.3742Z" fill="#969FAA"/>
<path d="M73.2738 3.72581V16.1452H72.9633H56.1972H55.8867V3.72581C55.8867 2.35969 57.0045 1.24194 58.3706 1.24194H70.7899C72.1561 1.24194 73.2738 2.35969 73.2738 3.72581Z" fill="#CCD1D9"/>
<path d="M17.0042 22.0568C17.203 22.8392 16.6068 23.5968 15.7996 23.5968H11.1796H6.55957C5.75231 23.5968 5.15618 22.8392 5.35489 22.0568L6.21183 18.629H16.1473L17.0042 22.0568Z" fill="#AAB2BD"/>
<path d="M21.1132 13.6613V16.1452C21.1132 17.5113 19.9954 18.6291 18.6293 18.6291H16.1454H6.20993H3.72606C2.35993 18.6291 1.24219 17.5113 1.24219 16.1452V13.6613H21.1132Z" fill="#CCD1D9"/>
<path d="M21.1132 3.72581V13.6613H1.24219V3.72581C1.24219 2.35969 2.35993 1.24194 3.72606 1.24194H18.6293C19.9954 1.24194 21.1132 2.35969 21.1132 3.72581Z" fill="#69D6F4"/>
<path d="M60.8555 6.20969H68.3071V11.1774H60.8555V6.20969Z" fill="#69D6F4"/>
<path d="M58.3711 55.8871H75.7582V70.7903H58.3711V55.8871Z" fill="#69D6F4"/>
<path d="M6.20703 55.8871H13.6586V65.8226H6.20703V55.8871Z" fill="#69D6F4"/>
<path d="M33.5347 33.5323H43.4701H44.7121C45.3951 33.5323 45.954 34.0911 45.954 34.7742V47.1935C45.954 47.8766 45.3951 48.4355 44.7121 48.4355H32.2927C31.6097 48.4355 31.0508 47.8766 31.0508 47.1935V34.7742C31.0508 34.0911 31.6097 33.5323 32.2927 33.5323H33.5347Z" fill="#AAB2BD"/>
<path d="M38.4995 42.2258C39.8713 42.2258 40.9834 41.1138 40.9834 39.742C40.9834 38.3702 39.8713 37.2581 38.4995 37.2581C37.1277 37.2581 36.0156 38.3702 36.0156 39.742C36.0156 41.1138 37.1277 42.2258 38.4995 42.2258Z" fill="#B4DD7F"/>
<path d="M45.9526 68.3065C47.3244 68.3065 48.4365 67.1944 48.4365 65.8226C48.4365 64.4508 47.3244 63.3387 45.9526 63.3387C44.5808 63.3387 43.4688 64.4508 43.4688 65.8226C43.4688 67.1944 44.5808 68.3065 45.9526 68.3065Z" fill="#FF826E"/>
<path d="M38.4995 75.7581C39.8713 75.7581 40.9834 74.646 40.9834 73.2742C40.9834 71.9024 39.8713 70.7903 38.4995 70.7903C37.1277 70.7903 36.0156 71.9024 36.0156 73.2742C36.0156 74.646 37.1277 75.7581 38.4995 75.7581Z" fill="#FF826E"/>
<path d="M28.562 70.7903C29.9338 70.7903 31.0459 69.6783 31.0459 68.3065C31.0459 66.9347 29.9338 65.8226 28.562 65.8226C27.1902 65.8226 26.0781 66.9347 26.0781 68.3065C26.0781 69.6783 27.1902 70.7903 28.562 70.7903Z" fill="#FF826E"/>
<path d="M45.9526 13.6613C47.3244 13.6613 48.4365 12.5492 48.4365 11.1774C48.4365 9.80564 47.3244 8.69357 45.9526 8.69357C44.5808 8.69357 43.4688 9.80564 43.4688 11.1774C43.4688 12.5492 44.5808 13.6613 45.9526 13.6613Z" fill="#FF826E"/>
<path d="M38.4995 6.20969C39.8713 6.20969 40.9834 5.09762 40.9834 3.72581C40.9834 2.35401 39.8713 1.24194 38.4995 1.24194C37.1277 1.24194 36.0156 2.35401 36.0156 3.72581C36.0156 5.09762 37.1277 6.20969 38.4995 6.20969Z" fill="#FF826E"/>
<path d="M28.562 11.1774C29.9338 11.1774 31.0459 10.0654 31.0459 8.69356C31.0459 7.32175 29.9338 6.20969 28.562 6.20969C27.1902 6.20969 26.0781 7.32175 26.0781 8.69356C26.0781 10.0654 27.1902 11.1774 28.562 11.1774Z" fill="#FF826E"/>
<path d="M38.5001 19.871C28.2281 19.871 19.8711 28.228 19.8711 38.5C19.8711 48.7721 28.2281 57.129 38.5001 57.129C48.7722 57.129 57.1292 48.7721 57.1292 38.5C57.1292 28.228 48.7722 19.871 38.5001 19.871ZM38.5001 54.6452C29.5979 54.6452 22.355 47.4022 22.355 38.5C22.355 29.5978 29.5979 22.3548 38.5001 22.3548C47.4023 22.3548 54.6453 29.5978 54.6453 38.5C54.6453 47.4022 47.4023 54.6452 38.5001 54.6452Z" fill="black"/>
<path d="M44.7079 32.2903V31.0484C44.7079 27.6244 41.9223 24.8387 38.4982 24.8387C35.0742 24.8387 32.2886 27.6244 32.2886 31.0484V32.2903C30.9187 32.2903 29.8047 33.4043 29.8047 34.7742V47.1936C29.8047 48.5634 30.9187 49.6774 32.2886 49.6774H44.7079C46.0778 49.6774 47.1918 48.5634 47.1918 47.1936V34.7742C47.1918 33.4043 46.0778 32.2903 44.7079 32.2903ZM34.7724 31.0484C34.7724 28.9942 36.4441 27.3226 38.4982 27.3226C40.5524 27.3226 42.224 28.9942 42.224 31.0484V32.2903H34.7724V31.0484ZM32.2886 47.1936V34.7742H44.7079L44.7092 47.1936H32.2886Z" fill="black"/>
<path d="M38.4992 36.0161C36.4451 36.0161 34.7734 37.6878 34.7734 39.7419C34.7734 41.3589 35.8154 42.7251 37.2573 43.2392V45.9516H39.7412V43.2392C41.1831 42.7251 42.2251 41.3589 42.2251 39.7419C42.2251 37.6878 40.5534 36.0161 38.4992 36.0161ZM38.4992 40.9839C37.8137 40.9839 37.2573 40.4262 37.2573 39.7419C37.2573 39.0576 37.8137 38.5 38.4992 38.5C39.1848 38.5 39.7412 39.0576 39.7412 39.7419C39.7412 40.4262 39.1848 40.9839 38.4992 40.9839Z" fill="black"/>
<path d="M59.6133 12.4194H69.5488V4.96774H59.6133V12.4194ZM62.0972 7.45161H67.0649V9.93548H62.0972V7.45161Z" fill="black"/>
<path d="M4.96875 67.0645H14.9042V54.6452H4.96875V67.0645ZM7.45262 57.129H12.4204V64.5807H7.45262V57.129Z" fill="black"/>
<path d="M7.45312 69.5484H12.4209V72.0323H7.45312V69.5484Z" fill="black"/>
<path d="M73.2742 49.6774H67.0645V39.7419H62.0334C62.0558 39.3284 62.0968 38.9198 62.0968 38.5C62.0968 38.0802 62.0558 37.6716 62.0334 37.2581H67.0645V23.5968H73.8952C75.6078 23.5968 77 22.2033 77 20.4919C77 19.825 76.7802 19.1643 76.379 18.629L74.5161 16.1452V3.72581C74.5161 1.67165 72.8445 0 70.7903 0H58.371C56.3168 0 54.6452 1.67165 54.6452 3.72581V16.1452L52.781 18.6303C52.5972 18.8762 52.4556 19.1506 52.3525 19.4388C50.7678 18.2838 49.0415 17.32 47.1936 16.5836V14.6747C48.6354 14.1605 49.6774 12.7944 49.6774 11.1774C49.6774 9.12326 48.0058 7.45161 45.9516 7.45161C43.8975 7.45161 42.2258 9.12326 42.2258 11.1774C42.2258 12.7944 43.2678 14.1605 44.7097 14.6747V15.7602C43.1138 15.323 41.4533 15.056 39.7419 14.9666V7.2231C41.1838 6.70894 42.2258 5.34281 42.2258 3.72581C42.2258 1.67165 40.5542 0 38.5 0C36.4458 0 34.7742 1.67165 34.7742 3.72581C34.7742 5.34281 35.8162 6.70894 37.2581 7.2231V14.9666C34.6388 15.1044 32.1326 15.6583 29.8065 16.5836V12.1908C31.2483 11.6767 32.2903 10.3105 32.2903 8.69355C32.2903 6.63939 30.6187 4.96774 28.5645 4.96774C26.5104 4.96774 24.8387 6.63939 24.8387 8.69355C24.8387 10.3105 25.8807 11.6767 27.3226 12.1908V17.7261C20.9813 21.1514 16.4047 27.4021 15.2274 34.7742H12.4194V24.8387H15.7962C16.5662 24.8387 17.279 24.491 17.7535 23.8837C18.2279 23.2764 18.3931 22.5001 18.2055 21.7513L17.7348 19.871H18.629C20.6832 19.871 22.3548 18.1993 22.3548 16.1452V3.72581C22.3548 1.67165 20.6832 0 18.629 0H3.72581C1.67165 0 0 1.67165 0 3.72581V16.1452C0 18.1993 1.67165 19.871 3.72581 19.871H4.61876L4.14806 21.7537C3.96302 22.5014 4.12695 23.2788 4.60137 23.8849C5.07579 24.491 5.78866 24.8387 6.55866 24.8387H9.93548V37.2581H14.9666C14.9442 37.6716 14.9032 38.0802 14.9032 38.5C14.9032 38.9198 14.9442 39.3284 14.9666 39.7419H9.93548V49.6774H3.72581C1.67165 49.6774 0 51.3491 0 53.4032V73.2742C0 75.3284 1.67165 77 3.72581 77H16.1452C18.1993 77 19.871 75.3284 19.871 73.2742V53.4032C19.871 53.2157 19.8424 53.0356 19.8151 52.8555C21.8394 55.4835 24.3854 57.6867 27.3226 59.2739V64.8092C25.8807 65.3233 24.8387 66.6895 24.8387 68.3064C24.8387 70.3606 26.5104 72.0323 28.5645 72.0323C30.6187 72.0323 32.2903 70.3606 32.2903 68.3064C32.2903 66.6895 31.2483 65.3233 29.8065 64.8092V60.4164C32.1326 61.3429 34.6388 61.8968 37.2581 62.0334V69.7769C35.8162 70.2911 34.7742 71.6572 34.7742 73.2742C34.7742 75.3284 36.4458 77 38.5 77C40.5542 77 42.2258 75.3284 42.2258 73.2742C42.2258 71.6572 41.1838 70.2911 39.7419 69.7769V62.0334C41.4533 61.944 43.1138 61.6758 44.7097 61.2398V62.3253C43.2678 62.8395 42.2258 64.2056 42.2258 65.8226C42.2258 67.8767 43.8975 69.5484 45.9516 69.5484C48.0058 69.5484 49.6774 67.8767 49.6774 65.8226C49.6774 64.2056 48.6354 62.8395 47.1936 62.3253V60.4164C51.1715 58.833 54.6104 56.1988 57.1849 52.8555C57.1576 53.0356 57.129 53.2157 57.129 53.4032V73.2742C57.129 75.3284 58.8007 77 60.8548 77H73.2742C75.3284 77 77 75.3284 77 73.2742V53.4032C77 51.3491 75.3284 49.6774 73.2742 49.6774ZM45.9516 9.93548C46.6372 9.93548 47.1936 10.4931 47.1936 11.1774C47.1936 11.8617 46.6372 12.4194 45.9516 12.4194C45.2661 12.4194 44.7097 11.8617 44.7097 11.1774C44.7097 10.4931 45.2661 9.93548 45.9516 9.93548ZM28.5645 7.45161C29.2501 7.45161 29.8065 8.00924 29.8065 8.69355C29.8065 9.37786 29.2501 9.93548 28.5645 9.93548C27.879 9.93548 27.3226 9.37786 27.3226 8.69355C27.3226 8.00924 27.879 7.45161 28.5645 7.45161ZM3.72581 2.48387H18.629C19.3146 2.48387 19.871 3.0415 19.871 3.72581V12.4194H2.48387V3.72581C2.48387 3.0415 3.04026 2.48387 3.72581 2.48387ZM2.48387 16.1452V14.9032H19.871V16.1452C19.871 16.8295 19.3146 17.3871 18.629 17.3871H3.72581C3.04026 17.3871 2.48387 16.8295 2.48387 16.1452ZM6.55742 22.3548L7.17839 19.871H15.1752L15.7949 22.3548H6.55742ZM28.5645 69.5484C27.879 69.5484 27.3226 68.9908 27.3226 68.3064C27.3226 67.6221 27.879 67.0645 28.5645 67.0645C29.2501 67.0645 29.8065 67.6221 29.8065 68.3064C29.8065 68.9908 29.2501 69.5484 28.5645 69.5484ZM45.9516 67.0645C45.2661 67.0645 44.7097 66.5069 44.7097 65.8226C44.7097 65.1383 45.2661 64.5806 45.9516 64.5806C46.6372 64.5806 47.1936 65.1383 47.1936 65.8226C47.1936 66.5069 46.6372 67.0645 45.9516 67.0645ZM74.5161 53.4032V54.6452H59.6129V53.4032C59.6129 52.7189 60.1693 52.1613 60.8548 52.1613H73.2742C73.9597 52.1613 74.5161 52.7189 74.5161 53.4032ZM59.6129 57.129H74.5161V69.5484H59.6129V57.129ZM64.5806 34.7742H61.7726C61.1032 30.5814 59.3496 26.7488 56.7738 23.5968H64.5806V34.7742ZM57.129 3.72581C57.129 3.0415 57.6854 2.48387 58.371 2.48387H70.7903C71.4759 2.48387 72.0323 3.0415 72.0323 3.72581V14.9032H57.129V3.72581ZM54.7694 20.1194L56.8186 17.3871H72.3427L74.3907 20.1181C74.4727 20.2274 74.5161 20.3566 74.5161 20.4919C74.5161 20.8347 74.2367 21.1129 73.8952 21.1129H64.5806H55.2661C54.9246 21.1129 54.6452 20.8347 54.6452 20.4919C54.6452 20.3566 54.6886 20.2274 54.7694 20.1194ZM38.5 2.48387C39.1855 2.48387 39.7419 3.0415 39.7419 3.72581C39.7419 4.41011 39.1855 4.96774 38.5 4.96774C37.8145 4.96774 37.2581 4.41011 37.2581 3.72581C37.2581 3.0415 37.8145 2.48387 38.5 2.48387ZM17.3871 73.2742C17.3871 73.9585 16.8307 74.5161 16.1452 74.5161H3.72581C3.04026 74.5161 2.48387 73.9585 2.48387 73.2742V53.4032C2.48387 52.7189 3.04026 52.1613 3.72581 52.1613H16.1452C16.8307 52.1613 17.3871 52.7189 17.3871 53.4032V73.2742ZM16.1452 49.6774H12.4194V42.2258H15.2274C15.6856 45.0934 16.6506 47.7897 18.0466 50.2164C17.4877 49.8823 16.8419 49.6774 16.1452 49.6774ZM38.5 74.5161C37.8145 74.5161 37.2581 73.9585 37.2581 73.2742C37.2581 72.5899 37.8145 72.0323 38.5 72.0323C39.1855 72.0323 39.7419 72.5899 39.7419 73.2742C39.7419 73.9585 39.1855 74.5161 38.5 74.5161ZM38.5 59.6129C26.8581 59.6129 17.3871 50.1419 17.3871 38.5C17.3871 26.8581 26.8581 17.3871 38.5 17.3871C50.1419 17.3871 59.6129 26.8581 59.6129 38.5C59.6129 50.1419 50.1419 59.6129 38.5 59.6129ZM61.7726 42.2258H64.5806V49.6774H60.8548C60.1581 49.6774 59.5123 49.8823 58.9534 50.2164C60.3494 47.7897 61.3156 45.0934 61.7726 42.2258ZM73.2742 74.5161H60.8548C60.1693 74.5161 59.6129 73.9585 59.6129 73.2742V72.0323H74.5161V73.2742C74.5161 73.9585 73.9597 74.5161 73.2742 74.5161Z" fill="black"/>
</svg>
