<svg width="84" height="83" viewBox="0 0 84 83" fill="none" xmlns="http://www.w3.org/2000/svg">
<path d="M40.4942 12.3972H54.2569C55.7823 12.3972 57.0103 13.6253 57.0103 15.1507V20.6576C57.0103 22.1831 55.7823 23.4111 54.2569 23.4111H40.4942C38.9688 23.4111 37.7407 22.1831 37.7407 20.6576V15.1507C37.7407 13.6253 38.9688 12.3972 40.4942 12.3972Z" fill="#FFCA28"/>
<path d="M29.4805 12.397H34.9875C36.5129 12.397 37.741 13.625 37.741 15.1504V20.6574C37.741 22.1828 36.5129 23.4109 34.9875 23.4109H29.4805C27.9551 23.4109 26.7271 22.1828 26.7271 20.6574V15.1504C26.7271 13.625 27.9551 12.397 29.4805 12.397Z" fill="#FF5151"/>
<path d="M55.5962 12.7549C54.1839 21.0275 44.977 22.9197 39.8281 23.3224C40.0425 23.3755 40.2642 23.4111 40.495 23.4111H54.257C55.7824 23.4111 57.0105 22.1831 57.0105 20.6577V15.1507C57.0105 14.1149 56.4372 13.2251 55.5962 12.7549Z" fill="#ECB200"/>
<path d="M29.481 12.3972C27.9556 12.3972 26.7275 13.6253 26.7275 15.1507V20.6576C26.7275 22.1831 27.9556 23.4111 29.481 23.4111H32.2291C30.7037 23.4111 29.4756 22.1831 29.4756 20.6576V15.1507C29.4756 13.6253 30.7037 12.3972 32.2291 12.3972H29.481Z" fill="#F5F9FB"/>
<path d="M35.434 12.4431C36.6453 21.6384 30.9523 22.6952 27.4531 22.5132C27.9558 23.0625 28.6739 23.4113 29.4807 23.4113H34.9876C36.5131 23.4113 37.7411 22.1832 37.7411 20.6578V15.1509C37.7411 13.7784 36.7445 12.6562 35.434 12.4431Z" fill="#FF2929"/>
<path d="M40.4947 12.3972C38.9693 12.3972 37.7412 13.6253 37.7412 15.1507V20.6576C37.7412 22.1831 38.9693 23.4111 40.4947 23.4111H43.2428C41.7174 23.4111 40.4893 22.1831 40.4893 20.6576V15.1507C40.4893 13.6253 41.7174 12.3972 43.2428 12.3972H40.4947Z" fill="#F5F9FB"/>
<path d="M29.4805 1.3833H34.9875C36.5129 1.3833 37.741 2.61135 37.741 4.13677V9.64371C37.741 11.1691 36.5129 12.3972 34.9875 12.3972H29.4805C27.9551 12.3972 26.7271 11.1691 26.7271 9.64371V4.13677C26.7271 2.61135 27.9551 1.3833 29.4805 1.3833Z" fill="#FF5151"/>
<path d="M40.4942 1.3833H54.2569C55.7823 1.3833 57.0103 2.61135 57.0103 4.13677V9.64371C57.0103 11.1691 55.7823 12.3972 54.2569 12.3972H40.4942C38.9688 12.3972 37.7407 11.1691 37.7407 9.64371V4.13677C37.7407 2.61135 38.9688 1.3833 40.4942 1.3833Z" fill="#FFCA28"/>
<path d="M55.5962 1.74104C54.1839 10.0137 44.977 11.9059 39.8281 12.3086C40.0423 12.3617 40.264 12.3972 40.495 12.3972H54.257C55.7825 12.3972 57.0105 11.1692 57.0105 9.64374V4.1368C57.0105 3.101 56.4372 2.21123 55.5962 1.74104Z" fill="#ECB200"/>
<path d="M32.2292 61.9595H11.5781V59.2061C11.5781 55.0759 1.94092 46.8155 1.94092 42.6853V9.64363C1.94092 7.35549 3.78298 5.51343 6.07114 5.51343C8.35929 5.51343 10.2014 7.35549 10.2014 9.64363V26.7425L10.2534 26.8877C10.4183 25.8485 10.9783 24.8712 11.899 24.1988C13.7469 22.8493 16.3206 23.2506 17.6722 25.0968L28.0999 39.3429C32.6667 45.5808 32.2292 49.5689 32.2292 61.9595Z" fill="#FFD1B5"/>
<path d="M31.401 45.9312C25.32 55.3729 16.8764 59.6031 11.5781 61.043C11.5787 61.3893 11.5781 61.5996 11.5781 61.9599H32.2292V59.2064C32.2485 53.2628 32.2623 49.1935 31.401 45.9312Z" fill="#FFB98D"/>
<path d="M7.44824 67.4668V81.2342H36.3598V67.4668H7.44824Z" fill="#38668C"/>
<path d="M7.44775 67.4668V81.2341H10.2012V67.4668H7.44775Z" fill="#F5F9FB"/>
<path d="M33.0546 67.4668C29.9845 78.0624 15.5306 80.5459 7.44775 81.097V81.2342H36.3593V67.4668L33.0546 67.4668Z" fill="#2C5170"/>
<path d="M8.82471 67.4667V61.9597H34.9827V67.4667H8.82471Z" fill="#E4EFF8"/>
<path d="M8.82471 67.4666H34.9827V64.7131H8.82471V67.4666Z" fill="#C4DCF0"/>
<path d="M47.373 67.4668V81.2342H76.2846V67.4668H47.373Z" fill="#38668C"/>
<path d="M47.373 67.4668V81.2341H50.1265V67.4668H47.373Z" fill="#F5F9FB"/>
<path d="M72.9799 67.4668C69.9097 78.0624 55.4559 80.546 47.373 81.097V81.2342H76.2846V67.4668L72.9799 67.4668Z" fill="#2C5170"/>
<path d="M48.75 67.4667V61.9597H74.908V67.4667H48.75Z" fill="#E4EFF8"/>
<path d="M48.75 67.4666H74.908V64.7131H48.75V67.4666Z" fill="#C4DCF0"/>
<path d="M51.5034 61.9595H72.1545V59.2061C72.1545 55.0759 81.7917 46.8155 81.7917 42.6853V9.64363C81.7917 7.35549 79.9496 5.51343 77.6615 5.51343C75.3733 5.51343 73.5313 7.35549 73.5313 9.64363V26.7425L73.4792 26.8877C73.3143 25.8485 72.7543 24.8712 71.8336 24.1988C69.9857 22.8493 67.412 23.2506 66.0604 25.0968L55.6327 39.3429C51.0659 45.5808 51.5034 49.5689 51.5034 61.9595Z" fill="#FFD1B5"/>
<path d="M29.9448 48.9284C31.4492 52.6346 28.2658 51.8468 31.0796 54.6975C33.8934 57.5482 33.1569 54.3647 36.8519 55.926C40.5469 57.4873 37.7366 59.172 41.7502 59.2062C45.7638 59.2405 42.9828 57.508 46.704 56.0098C50.4252 54.5116 49.6342 57.6821 52.4965 54.8796C55.3588 52.0772 52.1624 52.8107 53.73 49.1307C55.2976 45.4507 56.9893 48.2496 57.0235 44.0624C56.9871 39.8753 55.2976 42.6742 53.73 38.9942C52.1624 35.3142 55.3588 36.0477 52.4965 33.2453C49.6342 30.4428 50.4252 33.6133 46.704 32.1151C42.9828 30.6169 45.7638 28.8846 41.7502 28.9187C37.7366 28.9531 40.5469 30.6376 36.8519 32.1989C33.1569 33.7602 33.8934 30.5767 31.0796 33.4274C28.2658 36.2781 31.4491 35.4903 29.9448 39.1965C28.4406 42.9026 26.7011 40.1329 26.7354 44.0624C26.699 47.992 28.4406 45.2223 29.9448 48.9284Z" fill="#A0BF05"/>
<path d="M39.7046 29.3159C40.5126 29.9057 39.9448 31.0622 42.5602 32.1151C45.2475 33.197 45.5912 31.8655 46.6475 32.0855C43.0315 30.594 45.739 28.8841 41.7508 28.918C40.6132 28.9276 40.0493 29.0814 39.7046 29.3159Z" fill="#809804"/>
<path d="M36.8516 32.1983C36.6791 32.2713 36.5593 32.2875 36.4053 32.3409C37.0289 32.586 37.771 32.9677 39.5917 32.1983C42.7493 30.8641 41.1853 29.449 43.16 29.0415C42.8121 28.9661 42.3873 28.9124 41.7509 28.9179C37.7373 28.9521 40.5466 30.6371 36.8516 32.1983Z" fill="#F5F9FB"/>
<path d="M50.3878 32.0506C49.6229 32.1595 49.0422 32.9584 46.9243 32.1823C47.2874 32.334 47.7225 32.628 48.3521 33.2445C51.2145 36.0469 48.0188 35.3134 49.5864 38.9934C51.1539 42.6734 52.8439 39.8749 52.8804 44.062C52.846 48.2492 51.1539 45.4507 49.5864 49.1307C48.0188 52.8107 51.2145 52.0772 48.3521 54.8796C47.7225 55.4961 47.2874 55.7901 46.9243 55.9418C50.3615 54.6823 49.6994 57.6176 52.4958 54.8796C55.3581 52.0772 52.1625 52.8107 53.7301 49.1307C55.2976 45.4507 56.9898 48.2492 57.024 44.062C56.9875 39.8749 55.2976 42.6734 53.7301 38.9934C52.1624 35.3134 55.3581 36.0469 52.4958 33.2445C51.4225 32.1935 50.8641 31.9828 50.3878 32.0506Z" fill="#809804"/>
<path d="M42.5602 56.0088C39.9448 57.0618 40.5126 58.2183 39.7046 58.808C40.0491 59.0429 40.612 59.1963 41.7508 59.2059C45.739 59.2403 43.0315 57.5299 46.6475 56.0384C45.9569 56.1823 45.5661 55.6754 44.6335 55.5947C44.1395 55.552 43.4905 55.6343 42.5602 56.0088Z" fill="#809804"/>
<path d="M33.1678 32.1984C32.6903 32.1388 32.1337 32.3582 31.0786 33.4272C28.2647 36.278 31.448 35.4889 29.9437 39.195C28.4395 42.9012 26.7015 40.1324 26.7359 44.062C26.6988 47.9916 28.4395 45.2228 29.9437 48.929C31.4481 52.6351 28.2647 51.846 31.0786 54.6967C33.1475 56.7929 33.3082 55.6363 34.7112 55.4927C34.4575 55.3045 34.168 55.048 33.8212 54.6967C31.0074 51.846 34.1908 52.6351 32.6865 48.929C31.1823 45.2228 29.4394 47.9916 29.4759 44.062C29.4415 40.1324 31.1823 42.9012 32.6865 39.195C34.1907 35.4889 31.0074 36.278 33.8212 33.4272C34.168 33.076 34.4575 32.8195 34.7112 32.6313C34.0237 32.561 33.6267 32.2557 33.1678 32.1984Z" fill="#F5F9FB"/>
<path d="M77.9174 5.53784C83.1689 45.439 61.608 58.2969 51.5039 61.0429C51.5045 61.3892 51.5039 61.5995 51.5039 61.9598H72.155V59.2063C72.155 55.0761 81.7922 46.8157 81.7922 42.6855V12.7012C81.5442 10.8122 81.3093 9.07802 81.0715 7.31254C80.3748 6.29284 79.2298 5.61885 77.9174 5.53784Z" fill="#FFB98D"/>
<path d="M51.5039 61.9597H72.155V59.2063H51.5039C51.5069 60.1671 51.5039 60.8779 51.5039 61.9597Z" fill="#FFB98D"/>
<path d="M36.4053 55.7833C36.5593 55.8366 36.6791 55.853 36.8516 55.9258C40.5466 57.4871 37.7373 59.1722 41.7509 59.2063C42.3857 59.212 42.8097 59.1579 43.1572 59.0827C41.1872 58.6744 42.7476 57.2594 39.5917 55.9259C38.6679 55.5356 38.0212 55.4425 37.5266 55.4768C37.0464 55.5101 36.7126 55.6625 36.4053 55.7833Z" fill="#F5F9FB"/>
<path d="M47.3843 44.0623C47.3843 47.1037 44.9187 49.5694 41.8772 49.5694C38.8357 49.5694 36.3701 47.1037 36.3701 44.0623C36.3701 41.0208 38.8357 38.5552 41.8772 38.5552C44.9187 38.5552 47.3843 41.0208 47.3843 44.0623Z" fill="#E4EFF8"/>
<path d="M41.8771 38.5552C38.8357 38.5553 36.3702 41.0207 36.3701 44.0621C36.3721 46.2278 37.6432 48.1914 39.6184 49.0797C39.2947 48.3686 39.1261 47.5968 39.1236 46.8156C39.1237 43.7742 41.5892 41.3087 44.6306 41.3087C45.4096 41.3102 46.1794 41.477 46.8892 41.798C46.0001 39.8268 44.0396 38.5583 41.8771 38.5552Z" fill="#C4DCF0"/>
<path d="M29.481 1.3833C27.9556 1.3833 26.7275 2.61135 26.7275 4.13677V9.64371C26.7275 11.1691 27.9556 12.3972 29.481 12.3972H32.2291C30.7037 12.3972 29.4756 11.1691 29.4756 9.64371V4.13677C29.4756 2.61135 30.7037 1.3833 32.2291 1.3833H29.481Z" fill="#F5F9FB"/>
<path d="M35.4344 1.42896C36.6458 10.6243 30.9527 11.681 27.4536 11.499C27.9564 12.0483 28.6744 12.3971 29.4811 12.3971H34.9881C36.5135 12.3971 37.7416 11.1691 37.7416 9.64366V4.13672C37.7416 2.76422 36.7449 1.64209 35.4344 1.42896Z" fill="#FF2929"/>
<path d="M40.4947 1.3833C38.9693 1.3833 37.7412 2.61135 37.7412 4.13677V9.64371C37.7412 11.1691 38.9693 12.3972 40.4947 12.3972H43.2428C41.7174 12.3972 40.4893 11.1691 40.4893 9.64371V4.13677C40.4893 2.61135 41.7174 1.3833 43.2428 1.3833H40.4947Z" fill="#F5F9FB"/>
<path d="M29.4755 0.0065918C27.2112 0.0065918 25.348 1.82945 25.348 4.13142V9.64374C25.348 10.7089 25.7614 11.6637 26.4182 12.3918C25.7609 13.1196 25.348 14.0763 25.348 15.1453V20.6576C25.348 22.9524 27.2125 24.7807 29.4755 24.7825C34.9859 24.7823 30.0054 24.7827 34.9824 24.7825C36.04 24.7816 37.002 24.3721 37.7359 23.7123C38.4696 24.3713 39.4299 24.7816 40.4867 24.7825C45.9971 24.7823 49.2824 24.7827 54.2595 24.7825C56.5225 24.7807 58.387 22.9524 58.387 20.6576V15.1453C58.387 14.0763 57.974 13.1196 57.3168 12.3918C57.9736 11.6637 58.387 10.7089 58.387 9.64374V4.13142C58.387 1.82945 56.5238 0.0065918 54.2595 0.0065918H40.4867C39.4293 0.0065918 38.4695 0.415841 37.7359 1.0741C37.0022 0.415028 36.0406 0.0065918 34.9824 0.0065918H29.4755ZM29.4755 2.76006H34.9824C35.769 2.76006 36.3538 3.37717 36.3538 4.13142V9.64374C36.3538 10.4303 35.7273 11.0145 34.9824 11.0151C29.4465 11.015 34.4655 11.0153 29.4755 11.0151C28.7307 11.0145 28.1041 10.4303 28.1041 9.64374V4.13142C28.1041 3.37717 28.6889 2.76006 29.4755 2.76006ZM40.4867 2.76006H54.2595C55.046 2.76006 55.6308 3.37717 55.6308 4.13142V9.64374C55.6308 10.4303 55.0043 11.0145 54.2595 11.0151C48.7236 11.015 45.4767 11.0153 40.4867 11.0151C39.7419 11.0145 39.1153 10.4303 39.1153 9.64374V4.13142C39.1153 3.37717 39.7002 2.76006 40.4867 2.76006ZM0.563965 9.64105V42.6908C0.563965 44.1081 1.32192 45.6684 2.27951 47.1732C3.2371 48.678 4.471 50.2467 5.67565 51.7955C6.88029 53.3443 8.05838 54.8733 8.90776 56.208C9.75715 57.5428 10.1984 58.5391 10.1984 59.2035V60.583H8.81095C8.04587 60.5845 7.42861 61.2037 7.43153 61.9651V66.0899C6.6677 66.0929 6.05189 66.7115 6.05479 67.472V81.2286C6.05187 81.99 6.66912 82.6092 7.43421 82.6107H36.3726C37.1377 82.6092 37.755 81.99 37.7521 81.2286V67.472C37.7549 66.7115 37.1391 66.0929 36.3753 66.0899V61.9651C36.3782 61.2037 35.761 60.5845 34.9959 60.583H33.603C33.6065 59.3074 33.6093 58.3197 33.6058 57.2567C33.7966 57.2089 33.9914 57.1273 34.1221 57.0766C34.5067 56.9273 34.6253 56.8593 34.8642 56.8427C35.1031 56.826 35.5239 56.8583 36.3082 57.1895C37.0925 57.5209 37.3949 57.7988 37.5478 57.9801C37.7006 58.1614 37.7429 58.2913 37.9027 58.6711C38.1348 59.2229 38.4676 59.7518 39.1638 60.1151C39.86 60.4784 40.6226 60.5736 41.7237 60.583C42.8247 60.5923 43.5947 60.5067 44.297 60.1554C45.1004 59.7535 45.4214 59.1101 45.5877 58.733C45.7539 58.3559 45.7974 58.2314 45.9534 58.0527C46.1094 57.874 46.4138 57.599 47.2037 57.2809C47.9937 56.9629 48.4064 56.9428 48.645 56.9636C48.8836 56.9844 49.0051 57.0525 49.3872 57.2084C49.6104 57.2994 49.8531 57.3775 50.1239 57.4207C50.1203 58.4243 50.1262 59.3799 50.1296 60.5829H48.7367C47.9717 60.5845 47.3544 61.2037 47.3573 61.9651V66.0899C46.5935 66.0929 45.9777 66.7115 45.9806 67.472V81.2286C45.9775 81.99 46.5948 82.6092 47.3599 82.6107H76.2983C77.0634 82.6092 77.6806 81.99 77.6777 81.2286V67.472C77.6806 66.7115 77.0648 66.0929 76.301 66.0899V61.965C76.3038 61.2037 75.6866 60.5844 74.9215 60.5829H73.534V59.2035C73.534 58.539 73.9753 57.5428 74.8247 56.208C75.6741 54.8733 76.8522 53.3443 78.0568 51.7955C79.2615 50.2467 80.4954 48.678 81.453 47.1732C82.4106 45.6684 83.1685 44.1081 83.1685 42.6908V9.64104C83.1685 6.614 80.7418 4.13141 77.6616 4.13141C74.5813 4.13141 72.1519 6.614 72.1519 9.64104V22.7577C69.7396 21.3512 66.6221 21.9985 64.9482 24.285L54.862 38.0685C54.6903 37.5683 54.6285 37.2162 54.6415 37.0305C54.6582 36.7957 54.7145 36.6721 54.8647 36.2884C55.0819 35.7335 55.2151 35.1254 54.9669 34.3793C54.7187 33.6332 54.2279 33.0323 53.4423 32.2631C52.6566 31.4939 52.0569 31.0147 51.3073 30.7815C50.5576 30.5482 49.9045 30.7023 49.3874 30.9132C49.0053 31.0691 48.8838 31.1373 48.6452 31.1579C48.4066 31.1787 47.9938 31.1587 47.2039 30.8406C46.414 30.5226 46.1096 30.2476 45.9536 30.0689C45.7976 29.8902 45.7541 29.7657 45.5879 29.3886C45.4216 29.0115 45.1006 28.3681 44.2972 27.9662C43.5949 27.6148 42.8249 27.5293 41.7239 27.5386C40.6228 27.548 39.8602 27.6432 39.164 28.0065C38.4678 28.3697 38.1349 28.8986 37.9029 29.4504C37.7431 29.8303 37.7008 29.9602 37.5479 30.1415C37.3951 30.3227 37.0927 30.6006 36.3083 30.932C35.524 31.2634 35.1033 31.2955 34.8644 31.2789C34.6254 31.2623 34.5069 31.1943 34.1222 31.045C33.7375 30.8956 33.0868 30.651 32.2023 30.9428C31.4567 31.1888 30.8612 31.6742 30.0888 32.4566C29.3165 33.2391 28.8399 33.8521 28.6045 34.6024C28.3152 35.5245 28.5795 36.1304 28.7363 36.5116C28.893 36.8927 28.9605 37.0191 28.981 37.2537C28.9945 37.4078 28.9513 37.6869 28.8546 38.0469L18.7846 24.285C17.1107 21.9985 13.9931 21.3512 11.5808 22.7576V9.64101C11.5808 6.61396 9.15146 4.13138 6.07106 4.1314C2.99065 4.13142 0.563965 6.61401 0.563965 9.64105ZM32.2343 5.51354C31.474 5.51354 30.8576 6.12992 30.8576 6.89027C30.8576 7.65062 31.474 8.267 32.2343 8.267C32.9947 8.267 33.6111 7.65062 33.6111 6.89027C33.6111 6.12992 32.9947 5.51354 32.2343 5.51354ZM43.2429 5.51354C41.4068 5.51354 41.4068 8.267 43.2429 8.267H51.5033C53.3394 8.267 53.3394 5.51354 51.5033 5.51354H43.2429ZM8.82709 9.64105V26.9981C8.78442 28.8705 9.18831 29.7693 9.89729 30.7895L15.9904 38.7972C17.0756 40.4256 19.4602 38.6071 18.1765 37.1301L12.1076 29.1439C11.2023 27.8939 11.5188 26.1801 12.7072 25.3122C13.8957 24.4442 15.6442 24.6602 16.5605 25.9118C20.0631 30.7146 23.6211 35.5289 27.0985 40.3272C26.6198 40.5459 26.1137 40.8842 25.7782 41.5318C25.4196 42.2241 25.3347 42.9804 25.3426 44.0594C25.3348 45.1385 25.4196 45.8975 25.7782 46.5897C26.1399 47.288 26.7014 47.6321 27.2114 47.8481C27.5841 48.006 27.7139 48.0416 27.8917 48.195C28.0694 48.3485 28.3365 48.6599 28.6554 49.4454C28.9742 50.2308 29.0012 50.6332 28.9807 50.8678C28.9604 51.1024 28.8928 51.2288 28.736 51.61C28.5793 51.9911 28.315 52.597 28.6043 53.5191C28.8397 54.2694 29.3162 54.8824 30.0886 55.6649C30.3609 55.9408 30.6068 56.189 30.8495 56.3936C30.8546 57.7296 30.853 58.9543 30.8496 60.5829H12.952V59.2035C12.952 57.742 12.1913 56.2285 11.2337 54.7237C10.2761 53.219 9.05564 51.6476 7.85099 50.0988C6.64634 48.5499 5.4575 47.0237 4.60813 45.6889C3.75874 44.3542 3.31743 43.3277 3.31743 42.6908V9.64104C3.31743 8.09178 4.59696 6.88487 6.07092 6.88488C7.54488 6.88489 8.82709 8.0918 8.82709 9.64105ZM80.4148 9.64105V42.6908C80.4148 43.3278 79.9735 44.3542 79.1241 45.6889C78.2748 47.0237 77.0862 48.55 75.8813 50.0988C74.6766 51.6476 73.4562 53.219 72.4986 54.7238C71.541 56.2285 70.7803 57.7421 70.7803 59.2035V60.583H52.8827C52.8796 58.9543 52.8749 57.7189 52.88 56.3828C53.0619 56.2236 53.2415 56.0549 53.442 55.8585C54.2277 55.0893 54.7185 54.4883 54.9667 53.7423C55.2149 52.9962 55.0816 52.388 54.8645 51.8332C54.7143 51.4494 54.6579 51.3259 54.6413 51.091C54.6246 50.8561 54.6559 50.4485 54.9881 49.6686C55.3204 48.8885 55.5908 48.5877 55.7787 48.429C55.9666 48.2702 56.1178 48.2109 56.5128 48.031C56.9078 47.8511 57.5248 47.5489 57.9352 46.7107C58.2813 46.0041 58.3825 45.2068 58.3923 44.0594C58.3825 42.912 58.2813 42.1175 57.9352 41.4108C57.5899 40.7058 57.105 40.3882 56.7225 40.1954C60.1979 35.4354 63.6885 30.6714 67.1718 25.9118C68.088 24.6602 69.8365 24.4442 71.025 25.3122C72.2135 26.1801 72.5299 27.8939 71.6246 29.1439L65.5557 37.1301C64.2721 38.6071 66.6568 40.4256 67.7418 38.7972L73.835 30.7895C74.5439 29.7694 74.9478 28.8705 74.9052 26.9981V9.64106C74.9052 8.09181 76.1874 6.8849 77.6613 6.88489C79.1353 6.88489 80.4148 8.0918 80.4148 9.64105ZM17.0848 8.26683V11.8243L16.7111 11.4505C16.3859 11.1253 16.0214 11.0027 15.6758 11.023C14.6392 11.0839 13.7859 12.4243 14.7616 13.4L17.5151 16.1535C17.7689 16.4084 18.099 16.5128 18.4616 16.5272C18.8242 16.5126 19.1542 16.4084 19.4081 16.1535L22.1616 13.4C23.4624 12.0991 21.5129 10.1496 20.2121 11.4505L19.8383 11.8243V8.2668C19.8383 7.34875 19.1501 6.89007 18.4616 6.89008C17.773 6.89009 17.0848 7.34878 17.0848 8.26683ZM63.894 8.26683V11.8243L63.5202 11.4505C63.195 11.1253 62.8305 11.0027 62.485 11.023C61.4483 11.0839 60.5951 12.4243 61.5707 13.4L64.3242 16.1535C64.5781 16.4084 64.9081 16.5128 65.2707 16.5272C65.6333 16.5126 65.9634 16.4084 66.2172 16.1535L68.9707 13.4C70.2715 12.0991 68.3221 10.1496 67.0212 11.4505L66.6474 11.8243V8.2668C66.6474 7.34875 65.9592 6.89007 65.2707 6.89008C64.5822 6.89009 63.894 7.34878 63.894 8.26683ZM29.4755 13.7738H34.9824C35.769 13.7738 36.3538 14.3909 36.3538 15.1451V20.6574C36.3538 21.444 35.7273 22.0282 34.9824 22.0288C29.4465 22.0287 34.4655 22.029 29.4755 22.0288C28.7307 22.0282 28.1041 21.444 28.1041 20.6574V15.1451C28.1041 14.3909 28.6889 13.7738 29.4755 13.7738ZM40.4867 13.7738H54.2595C55.046 13.7738 55.6308 14.3909 55.6308 15.1451V20.6574C55.6308 21.444 55.0043 22.0282 54.2595 22.0288C48.7236 22.0287 45.4767 22.029 40.4867 22.0288C39.7419 22.0282 39.1153 21.444 39.1153 20.6574V15.1451C39.1153 14.3909 39.7002 13.7738 40.4867 13.7738ZM32.2343 16.5272C31.474 16.5272 30.8576 17.1436 30.8576 17.904C30.8576 18.6643 31.474 19.2807 32.2343 19.2807C32.9947 19.2807 33.6111 18.6643 33.6111 17.904C33.6111 17.1436 32.9947 16.5272 32.2343 16.5272ZM43.2429 16.5272C41.4068 16.5272 41.4068 19.2807 43.2429 19.2807H51.5033C53.3394 19.2807 53.3394 16.5272 51.5033 16.5272H43.2429ZM43.0654 30.4962C43.1708 30.7352 43.3856 31.3227 43.8801 31.8891C44.3747 32.4555 45.1058 32.9612 46.1765 33.3922C47.2472 33.8233 48.1298 33.9653 48.8789 33.9004C49.628 33.8356 50.19 33.5613 50.4331 33.4622C50.6069 33.344 51.3136 34.0309 51.5221 34.2258C51.7881 34.5009 52.3899 35.1115 52.3046 35.2933C52.2094 35.5365 51.9404 36.0866 51.8878 36.8368C51.8352 37.5869 51.9955 38.4711 52.4471 39.5311C52.8986 40.591 53.4305 41.3156 54.0013 41.7979C54.5722 42.2801 55.1341 42.4847 55.3619 42.5884C55.6175 42.7042 55.6387 43.7125 55.6389 44.062C55.6387 44.4114 55.6176 45.4169 55.3619 45.5328C55.1341 45.6366 54.5722 45.8411 54.0013 46.3233C53.4305 46.8056 52.8986 47.5302 52.4471 48.5901C51.9955 49.6501 51.8352 50.5343 51.8878 51.2844C51.9404 52.0346 52.2094 52.5847 52.3046 52.8279C52.3899 53.0097 51.788 53.6203 51.5221 53.8954C51.3136 54.0903 50.6069 54.7772 50.4331 54.659C50.19 54.5599 49.628 54.2856 48.8789 54.2208C48.1298 54.1559 47.2472 54.2979 46.1765 54.729C45.1058 55.16 44.3747 55.6657 43.8801 56.2321C43.3856 56.7985 43.1707 57.386 43.0654 57.625C43.0206 57.8272 42.2108 57.8241 41.7451 57.8293C41.2772 57.8054 40.4868 57.7996 40.4329 57.6061C40.3317 57.3654 40.1352 56.7773 39.6504 56.2025C39.1656 55.6277 38.4387 55.1083 37.3756 54.6591C36.3125 54.2098 35.4314 54.0477 34.6813 54.0998C33.9312 54.1518 33.3718 54.4108 33.127 54.5058C32.9472 54.6342 32.3344 54.0089 32.0488 53.7233C31.8533 53.5278 31.1728 52.809 31.2771 52.6558C31.3764 52.4142 31.6581 51.8588 31.7234 51.1096C31.7888 50.3605 31.6404 49.4748 31.2071 48.4073C30.7738 47.3397 30.261 46.6033 29.6906 46.1109C29.1202 45.6185 28.5356 45.4111 28.2896 45.3069C28.1244 45.2908 28.0961 44.4949 28.096 44.0619C28.0961 43.629 28.1246 42.8304 28.2896 42.8143C28.5356 42.7101 29.1202 42.5026 29.6906 42.0103C30.261 41.5179 30.7738 40.7815 31.2071 39.7139C31.6404 38.6464 31.7888 37.7607 31.7234 37.0116C31.658 36.2624 31.3763 35.7069 31.2771 35.4654C31.1728 35.3122 31.8533 34.5934 32.0488 34.3979C32.3344 34.1123 32.9472 33.487 33.127 33.6154C33.3718 33.7104 33.9312 33.9694 34.6813 34.0214C35.4314 34.0735 36.3125 33.9113 37.3756 33.4621C38.4387 33.0129 39.1656 32.4935 39.6504 31.9187C40.1352 31.3439 40.3317 30.7558 40.4329 30.5151C40.4868 30.3213 41.2772 30.3156 41.7451 30.2919C42.2108 30.2972 43.0206 30.2941 43.0654 30.4962ZM41.8661 37.1783C38.0643 37.1783 34.9824 40.2602 34.9824 44.062C34.9824 47.8637 38.0643 50.9456 41.8661 50.9456C45.6679 50.9456 48.7498 47.8637 48.7498 44.062C48.7498 40.2602 45.6679 37.1783 41.8661 37.1783ZM41.8661 39.9317C44.1471 39.9317 45.9963 41.7833 45.9963 44.0673C45.9963 46.3514 44.1471 48.2029 41.8661 48.2029C39.5851 48.2029 37.7359 46.3514 37.7359 44.0673C37.7359 41.7833 39.5851 39.9317 41.8661 39.9317ZM10.2011 63.3362H33.6057V66.0897H10.2011V63.3362ZM50.1265 63.3362H73.5311V66.0897H50.1265V63.3362ZM8.82436 68.8432H34.9824V79.8571H8.82436V68.8432ZM48.7498 68.8432H74.9078V79.8571H48.7498V68.8432ZM12.9546 72.9734C12.1942 72.9734 11.5778 73.5898 11.5778 74.3501C11.5778 75.1105 12.1942 75.7269 12.9546 75.7269C13.7149 75.7269 14.3313 75.1105 14.3313 74.3501C14.3313 73.5898 13.7149 72.9734 12.9546 72.9734ZM70.7776 72.9734C70.0173 72.9734 69.4009 73.5898 69.4009 74.3501C69.4009 75.1105 70.0173 75.7269 70.7776 75.7269C71.538 75.7269 72.1544 75.1105 72.1544 74.3501C72.1544 73.5898 71.538 72.9734 70.7776 72.9734Z" fill="#333333"/>
</svg>
