<svg width="70" height="85" viewBox="0 0 70 85" fill="none" xmlns="http://www.w3.org/2000/svg">
<path d="M47.8296 34.8277V34.8406H36.8642C35.4375 34.8406 34.281 33.6841 34.281 32.2574V21.2791L47.8296 34.8277Z" fill="white"/>
<path d="M47.8295 34.8277V80.6786C47.8295 81.389 47.5325 82.0477 47.0546 82.4997C46.5896 82.9776 45.9567 83.2618 45.2464 83.2618H5.14302C4.43268 83.2618 3.78688 82.9776 3.32185 82.4997C2.8569 82.0348 2.55988 81.389 2.55988 80.6786V23.8622C2.55988 22.4415 3.72225 21.2791 5.14302 21.2791H34.2809L47.8295 34.8277Z" fill="white"/>
<g opacity="0.03">
<path d="M47.8296 34.8274V80.6783C47.8296 81.3887 47.5326 82.0474 47.0547 82.4994C46.5897 82.9773 45.9568 83.2615 45.2464 83.2615H5.14308C4.43274 83.2615 3.78694 82.9773 3.32192 82.4994C2.85696 82.0345 2.55994 81.3887 2.55994 80.6783V77.0102H18.6788C31.3233 77.0102 41.5784 66.7551 41.5784 54.1106V28.5762L47.8296 34.8274Z" fill="black"/>
</g>
<path d="M35.4711 30.3714V33.2064C35.4711 33.5052 35.2195 33.7568 34.9207 33.7568H15.4547C15.1559 33.7568 14.9042 33.5052 14.9042 33.2064V30.3714C14.9042 30.0726 15.1559 29.8367 15.4547 29.8367H34.9207C35.2195 29.8367 35.4711 30.0726 35.4711 30.3714Z" fill="#2FCBFF"/>
<g opacity="0.04">
<path d="M35.477 30.3668V33.2027C35.477 33.5127 35.2136 33.7607 34.9191 33.7607H15.4513C15.1569 33.7607 14.9089 33.5127 14.9089 33.2027V32.2574H30.5955C32.1297 32.2574 33.416 31.2346 33.8343 29.8398H34.9191C35.2136 29.8398 35.477 30.0723 35.477 30.3668Z" fill="black"/>
</g>
<path d="M40.1641 61.3426C39.2642 70.2673 31.3107 76.7638 22.386 75.8639C18.2756 75.4494 14.6757 73.5348 12.0793 70.7156L24.0137 59.7212L24.0144 59.7141L39.6633 55.4087C40.1852 57.2859 40.3713 59.2874 40.1641 61.3426Z" fill="#59DE9B"/>
<g opacity="0.07">
<path d="M40.1633 61.346C39.2636 70.2678 31.3118 76.7629 22.3824 75.8625C18.2788 75.4487 14.676 73.5329 12.08 70.7172L13.7828 69.1501C16.057 70.8465 18.8089 71.9624 21.8288 72.2669C30.7507 73.1666 38.7025 66.6714 39.6029 57.742C39.6804 56.9735 39.7033 56.2073 39.6701 55.4587C40.1889 57.3198 40.3694 59.3019 40.1633 61.346Z" fill="black"/>
</g>
<path d="M25.4229 38.9093L23.7944 55.0591L12.4911 43.4097C15.8108 40.1957 20.4663 38.4095 25.4229 38.9093Z" fill="#F6C560"/>
<path d="M24.0145 59.7139L24.0138 59.721L12.0794 70.7153C9.04258 67.4208 7.38004 62.8927 7.86477 58.0854C8.26417 54.1244 10.06 50.6347 12.7111 48.0645L24.0145 59.7139Z" fill="#8E9AFF"/>
<g opacity="0.07">
<path d="M13.7751 69.1493L12.08 70.7172C9.04322 67.4224 7.38084 62.8922 7.86513 58.0893C8.26497 54.124 10.0607 50.6334 12.7104 48.0671L12.963 48.3333C11.1527 50.6581 9.9661 53.496 9.65072 56.6237C9.17031 61.3881 10.7921 65.8599 13.7751 69.1493Z" fill="black"/>
</g>
<path d="M47.8296 34.8277V34.8406H36.8642C35.4434 34.8406 34.281 33.6782 34.281 32.2574V21.2791L47.8296 34.8277Z" fill="white"/>
<path d="M67.6548 16.0245V16.0374H56.6894C55.2627 16.0374 54.1062 14.8809 54.1062 13.4542V2.47583L67.6548 16.0245Z" fill="white"/>
<path d="M67.6548 16.0245V61.8754C67.6548 62.5858 67.3578 63.2445 66.8799 63.6965C66.4149 64.1744 65.782 64.4585 65.0717 64.4585H24.9683C24.2579 64.4585 23.6121 64.1744 23.1471 63.6965C22.6822 63.2315 22.3851 62.5857 22.3851 61.8754V5.05897C22.3851 3.63827 23.5475 2.47583 24.9683 2.47583H54.1062L67.6548 16.0245Z" fill="#E4F1FF"/>
<g opacity="0.03">
<path d="M67.6548 16.0245V61.8753C67.6548 62.5857 67.3578 63.2444 66.8799 63.6964C66.4149 64.1743 65.782 64.4585 65.0717 64.4585H24.9683C24.2579 64.4585 23.6121 64.1743 23.1471 63.6964C22.6822 63.2315 22.3851 62.5857 22.3851 61.8753V58.2072H38.504C51.1484 58.2072 61.4036 47.9521 61.4036 35.3076V9.77319L67.6548 16.0245Z" fill="black"/>
</g>
<path d="M55.2964 11.5684V14.4035C55.2964 14.7023 55.0448 14.9539 54.746 14.9539H35.2799C34.9811 14.9539 34.7294 14.7023 34.7294 14.4035V11.5684C34.7294 11.2696 34.9811 11.0337 35.2799 11.0337H54.746C55.0448 11.0337 55.2964 11.2696 55.2964 11.5684Z" fill="#828FFF"/>
<g opacity="0.04">
<path d="M55.3019 11.5636V14.3995C55.3019 14.7094 55.0384 14.9575 54.744 14.9575H35.2762C34.9817 14.9575 34.7337 14.7094 34.7337 14.3995V13.4542H50.4203C51.9545 13.4542 53.2408 12.4314 53.6591 11.0366H54.744C55.0384 11.0366 55.3019 11.2691 55.3019 11.5636Z" fill="black"/>
</g>
<path d="M36.5109 41.3389H45.0136V55.4175H36.5109V41.3389Z" fill="#F6C560"/>
<path d="M28.0098 47.2329H36.5125V55.4175H28.0098V47.2329Z" fill="#DD92FF"/>
<path d="M45.0136 44.74H53.5163V55.4172H45.0136V44.74Z" fill="#FF6A83"/>
<path d="M53.5147 37.0137H62.0174V55.4177H53.5147V37.0137Z" fill="#59D5FF"/>
<g opacity="0.07">
<path d="M53.5183 44.7358V55.4165H45.008V53.7035H45.0189C48.2645 53.7035 50.8914 51.0766 50.8914 47.8309V44.7358H53.5183Z" fill="black"/>
</g>
<g opacity="0.07">
<path d="M42.3948 41.3438H45.0108V55.416H36.5111V53.703H36.522C39.7676 53.703 42.3948 51.0761 42.3948 47.8304V41.3438Z" fill="black"/>
</g>
<g opacity="0.07">
<path d="M33.8913 47.2332H36.5076V55.4163H28.0079V53.7033H28.0188C31.2645 53.7033 33.8913 51.0764 33.8913 47.8307L33.8913 47.2332Z" fill="black"/>
</g>
<g opacity="0.07">
<path d="M62.0179 37.0156V55.4161H53.5182V53.7032C55.1356 53.7032 56.612 53.041 57.6758 51.9881C58.7396 50.9242 59.391 49.4588 59.391 47.8305V37.0156H62.0179Z" fill="black"/>
</g>
<path d="M62.0183 35.9197H53.5151C52.9111 35.9197 52.4213 36.4095 52.4213 37.0135V43.647H46.1067V41.3386C46.1067 40.7346 45.6169 40.2448 45.0128 40.2448H36.5105C35.9065 40.2448 35.4167 40.7346 35.4167 41.3386V46.1395H28.0099C27.4059 46.1395 26.9161 46.6293 26.9161 47.2333V55.4176C26.9161 56.0216 27.4059 56.5114 28.0099 56.5114H62.0183C62.6223 56.5114 63.1121 56.0216 63.1121 55.4176V37.0135C63.1121 36.4095 62.6223 35.9197 62.0183 35.9197ZM43.919 42.4324C43.919 42.7452 43.919 54.9897 43.919 54.3238H37.606C37.606 54.1552 37.6042 41.6336 37.6043 42.4324H43.919ZM29.1037 48.3272H35.4167V54.3238H29.1037V48.3272ZM46.1067 45.8347H52.4213V54.3238H46.1067V45.8347ZM60.9245 54.3238H54.609C54.609 53.1146 54.609 37.4466 54.609 38.1073H60.9245V54.3238Z" fill="#293C66"/>
<path d="M39.1785 29.9447C40.821 29.9447 42.1524 28.6132 42.1524 26.9708C42.1524 25.3283 40.821 23.9968 39.1785 23.9968C37.5361 23.9968 36.2046 25.3283 36.2046 26.9708C36.2046 28.6132 37.5361 29.9447 39.1785 29.9447Z" fill="#F6C560"/>
<g opacity="0.07">
<path d="M42.1493 26.9714C42.1493 28.6109 40.823 29.9477 39.1835 29.9477C38.1183 29.9477 37.1889 29.3942 36.6667 28.5588C37.0322 28.7154 37.4395 28.7989 37.8573 28.7989C39.4968 28.7989 40.8335 27.4727 40.8335 25.8332C40.8335 25.2484 40.6664 24.6949 40.3636 24.2354C41.4183 24.6948 42.1493 25.7496 42.1493 26.9714Z" fill="black"/>
</g>
<path d="M56.7123 27.7047C58.3548 27.7047 59.6863 26.3732 59.6863 24.7308C59.6863 23.0883 58.3548 21.7568 56.7123 21.7568C55.0699 21.7568 53.7384 23.0883 53.7384 24.7308C53.7384 26.3732 55.0699 27.7047 56.7123 27.7047Z" fill="#59D5FF"/>
<g opacity="0.07">
<path d="M59.6834 24.7314C59.6834 26.371 58.3571 27.7077 56.7175 27.7077C55.6524 27.7077 54.723 27.1542 54.2008 26.3188C54.5663 26.4754 54.9736 26.5589 55.3913 26.5589C57.0309 26.5589 58.3675 25.2327 58.3676 23.5932C58.3676 23.0084 58.2005 22.4549 57.8976 21.9954C58.9524 22.4548 59.6834 23.5096 59.6834 24.7314Z" fill="black"/>
</g>
<path d="M48.0851 36.0946C49.7276 36.0946 51.0591 34.7631 51.0591 33.1207C51.0591 31.4782 49.7276 30.1467 48.0851 30.1467C46.4427 30.1467 45.1112 31.4782 45.1112 33.1207C45.1112 34.7631 46.4427 36.0946 48.0851 36.0946Z" fill="#FF6A83"/>
<g opacity="0.07">
<path d="M51.0557 33.1218C51.0557 34.7613 49.7294 36.0981 48.0899 36.0981C47.0247 36.0981 46.0953 35.5446 45.5731 34.7091C45.9386 34.8658 46.3459 34.9493 46.7636 34.9493C48.4032 34.9493 49.7399 33.6231 49.7399 31.9836C49.7399 31.3987 49.5728 30.8452 49.2699 30.3857C50.3247 30.8452 51.0557 31.9 51.0557 33.1218Z" fill="black"/>
</g>
<path d="M30.9822 39.0633C32.6246 39.0633 33.9561 37.7319 33.9561 36.0894C33.9561 34.447 32.6246 33.1155 30.9822 33.1155C29.3397 33.1155 28.0082 34.447 28.0082 36.0894C28.0082 37.7319 29.3397 39.0633 30.9822 39.0633Z" fill="#DD92FF"/>
<g opacity="0.07">
<path d="M33.9531 36.0915C33.9531 37.7311 32.6268 39.0678 30.9873 39.0678C29.9221 39.0678 28.9927 38.5143 28.4705 37.6789C28.836 37.8355 29.2433 37.919 29.661 37.919C31.3006 37.919 32.6373 36.5928 32.6373 34.9533C32.6373 34.3685 32.4702 33.815 32.1673 33.3555C33.2221 33.815 33.9531 34.8697 33.9531 36.0915Z" fill="black"/>
</g>
<path d="M56.7127 20.6631C54.4692 20.6631 52.6448 22.4875 52.6448 24.7301C52.6448 25.4343 52.8407 26.087 53.1567 26.6652L50.1195 29.6189C49.5186 29.2683 48.8293 29.0528 48.0846 29.0528C47.0978 29.0528 46.204 29.4202 45.4989 30.007L43.0084 28.2864C43.1516 27.8714 43.2459 27.4335 43.2459 26.9704C43.2459 24.7269 41.4215 22.9025 39.1788 22.9025C36.9353 22.9025 35.1109 24.7269 35.1109 26.9704C35.1109 27.7719 35.3517 28.5149 35.7536 29.1455L32.7768 32.4583C32.2332 32.1885 31.6294 32.0228 30.9822 32.0228C28.7395 32.0228 26.9152 33.8472 26.9152 36.0907C26.9152 38.3333 28.7395 40.1577 30.9822 40.1577C33.2257 40.1577 35.0501 38.3333 35.0501 36.0907C35.0501 35.2894 34.8096 34.5466 34.4082 33.9163L37.3856 30.6026C37.9289 30.8721 38.5323 31.0374 39.1788 31.0374C40.1648 31.0374 41.0577 30.6706 41.7625 30.0849L44.2544 31.8063C44.1117 32.2209 44.0175 32.6582 44.0175 33.1207C44.0175 35.3634 45.8419 37.1877 48.0846 37.1877C50.3281 37.1877 52.1525 35.3634 52.1525 33.1207C52.1525 32.418 51.9573 31.7665 51.6426 31.1893L54.6815 28.2339C55.2816 28.5831 55.9694 28.7981 56.7126 28.7981C58.9553 28.7981 60.7797 26.9737 60.7797 24.7302C60.7797 22.4875 58.9553 20.6631 56.7127 20.6631ZM30.9822 37.9701C29.9459 37.9701 29.1028 37.127 29.1028 36.0907C29.1028 35.0536 29.9459 34.2104 30.9822 34.2104C32.0193 34.2104 32.8625 35.0536 32.8625 36.0907C32.8625 37.127 32.0193 37.9701 30.9822 37.9701ZM39.1788 28.8498C38.1417 28.8498 37.2985 28.0067 37.2985 26.9704C37.2985 25.9333 38.1417 25.0901 39.1788 25.0901C40.2151 25.0901 41.0583 25.9333 41.0583 26.9704C41.0583 28.0067 40.2151 28.8498 39.1788 28.8498ZM48.0846 35.0002C47.0483 35.0002 46.2052 34.157 46.2052 33.1207C46.2052 32.0836 47.0483 31.2404 48.0846 31.2404C50.4357 31.2404 50.654 35.0002 48.0846 35.0002ZM56.7127 26.6104C55.6756 26.6104 54.8324 25.7673 54.8324 24.7301C54.8324 23.6939 55.6756 22.8507 56.7127 22.8507C57.7489 22.8507 58.5921 23.6939 58.5921 24.7301C58.5921 25.7673 57.7489 26.6104 56.7127 26.6104Z" fill="#293C66"/>
<path d="M67.6548 16.0245V16.0374H56.6894C55.2686 16.0374 54.1062 14.875 54.1062 13.4542V2.47583L67.6548 16.0245Z" fill="white"/>
<path d="M68.8449 14.835L55.2959 1.28605C54.9634 0.953009 54.4073 0.792969 54.106 0.792969H24.9684C22.6164 0.792969 20.7024 2.70694 20.7024 5.05892V19.5957H5.14336C2.79056 19.5957 0.876587 21.5096 0.876587 23.8624V80.679C0.876587 81.8114 1.32283 82.8806 2.11586 83.6736C2.91301 84.4937 3.98792 84.9449 5.14336 84.9449H45.2462C46.3918 84.9449 47.4626 84.4937 48.2121 83.7221C49.0388 82.9397 49.513 81.8303 49.513 80.679V66.1414H65.072C67.5312 66.1414 69.338 64.1008 69.338 61.8754V16.025C69.338 15.5787 69.1605 15.1506 68.8449 14.835ZM55.789 6.53896L63.6043 14.3542H56.6897C56.2015 14.3542 55.789 13.9425 55.789 13.4544L55.789 6.53896ZM20.7024 50.3017L14.0656 43.4615C15.9976 41.8384 18.27 40.7554 20.7024 40.2554V50.3017ZM20.7024 61.2842L14.2873 67.1941L12.1714 69.1433C9.72323 66.0665 8.55628 62.1359 8.95238 58.1963C9.2737 55.0126 10.5993 52.0131 12.7154 49.6405L20.7024 57.8724V61.2842ZM16.4195 68.2046L21.1899 63.8101C21.3883 64.1947 21.6288 64.5584 21.9409 64.8701C22.738 65.6902 23.8129 66.1414 24.9684 66.1414H37.7144C35.089 71.7807 29.1556 75.4582 22.4956 74.7752C19.1706 74.4407 16.07 73.0231 13.6539 70.7525L16.4195 68.2046ZM46.1469 80.679C46.1469 80.9066 46.054 81.1301 45.8494 81.3257C45.6859 81.4934 45.4829 81.5788 45.2462 81.5788H5.14336C4.90504 81.5788 4.68726 81.4893 4.51222 81.3101C4.41196 81.209 4.24266 80.9937 4.24266 80.679V23.8624C4.24266 23.3743 4.65521 22.9617 5.14336 22.9617H20.7024V38.0294C17.3436 38.6279 14.2386 40.1955 11.7301 42.624C11.5213 42.8254 11.4014 43.1023 11.3972 43.3924C11.3923 43.6825 11.5041 43.9627 11.7062 44.1715L20.7024 53.4437V54.7303L13.4961 47.3034C13.0745 46.8695 12.3826 46.8612 11.9495 47.2795C9.02305 50.1172 7.18551 53.9155 6.77544 57.9769C6.2799 62.9027 7.91938 67.8162 11.2748 71.4568C14.1461 74.5755 18.0529 76.5273 22.2762 76.9521C22.8678 77.0121 23.4554 77.0417 24.0373 77.0417C31.2964 77.0417 37.5217 72.5882 40.0768 66.1414H46.1469L46.1469 80.679ZM65.9719 61.8754C65.9719 62.3013 65.5887 62.7753 65.072 62.7753H24.9684C24.7301 62.7753 24.5123 62.6857 24.3372 62.5066C24.237 62.4063 24.0685 62.1902 24.0685 61.8754V5.05892C24.0685 4.57077 24.4802 4.15905 24.9684 4.15905H52.4229V13.4544C52.4229 15.8064 54.3369 17.7203 56.6897 17.7203H65.9719L65.9719 61.8754Z" fill="#293C66"/>
</svg>
