<svg width="76" height="77" viewBox="0 0 76 77" fill="none" xmlns="http://www.w3.org/2000/svg">
<path d="M74.2124 73.5854V35.8609C74.2124 35.5159 74.0753 35.185 73.8314 34.9411C73.5874 34.6971 73.2565 34.5601 72.9115 34.5601H2.6659C2.32089 34.5601 1.99002 34.6971 1.74606 34.9411C1.5021 35.185 1.36505 35.5159 1.36505 35.8609V73.5854H74.2124Z" fill="#CAD0D7"/>
<path d="M57.3014 16.3481C57.6464 16.3481 57.9772 16.4852 58.2212 16.7292C58.4651 16.9731 58.6022 17.304 58.6022 17.649V70.9836H16.9752V17.649C16.9752 17.304 17.1122 16.9731 17.3562 16.7292C17.6001 16.4852 17.931 16.3481 18.276 16.3481H57.3014Z" fill="#E4E8EB"/>
<path d="M23.4794 51.4712H52.098V72.2847H23.4794V51.4712Z" fill="#CAD0D7"/>
<path d="M28.6828 52.772H46.8946V70.9838H28.6828V52.772Z" fill="#4FC0E8"/>
<path d="M46.8946 65.7803C40.3904 64.4795 37.7887 55.3735 37.7887 55.3735V70.9837H46.8946V65.7803Z" fill="#66D4F1"/>
<path d="M37.7887 65.7803C31.2845 64.4795 28.6828 55.3735 28.6828 55.3735V70.9837H37.7887V65.7803Z" fill="#66D4F1"/>
<path d="M10.471 39.7637H7.86933C7.15089 39.7637 6.56848 40.3461 6.56848 41.0645V43.6662C6.56848 44.3846 7.15089 44.9671 7.86933 44.9671H10.471C11.1895 44.9671 11.7719 44.3846 11.7719 43.6662V41.0645C11.7719 40.3461 11.1895 39.7637 10.471 39.7637Z" fill="#3AADD9"/>
<path d="M27.382 30.6577H23.4794C22.761 30.6577 22.1786 31.2401 22.1786 31.9586V34.5602C22.1786 35.2787 22.761 35.8611 23.4794 35.8611H27.382C28.1004 35.8611 28.6828 35.2787 28.6828 34.5602V31.9586C28.6828 31.2401 28.1004 30.6577 27.382 30.6577Z" fill="#4FC0E8"/>
<path d="M40.3904 30.6577H35.187C34.4686 30.6577 33.8862 31.2401 33.8862 31.9586V34.5602C33.8862 35.2787 34.4686 35.8611 35.187 35.8611H40.3904C41.1088 35.8611 41.6912 35.2787 41.6912 34.5602V31.9586C41.6912 31.2401 41.1088 30.6577 40.3904 30.6577Z" fill="#4FC0E8"/>
<path d="M52.098 30.6577H48.1955C47.4771 30.6577 46.8947 31.2401 46.8947 31.9586V34.5602C46.8947 35.2787 47.4771 35.8611 48.1955 35.8611H52.098C52.8165 35.8611 53.3989 35.2787 53.3989 34.5602V31.9586C53.3989 31.2401 52.8165 30.6577 52.098 30.6577Z" fill="#4FC0E8"/>
<path d="M10.471 60.5771H7.86933C7.15089 60.5771 6.56848 61.1596 6.56848 61.878V64.4797C6.56848 65.1981 7.15089 65.7805 7.86933 65.7805H10.471C11.1895 65.7805 11.7719 65.1981 11.7719 64.4797V61.878C11.7719 61.1596 11.1895 60.5771 10.471 60.5771Z" fill="#3AADD9"/>
<path d="M10.471 50.1704H7.86933C7.15089 50.1704 6.56848 50.7528 6.56848 51.4713V54.0729C6.56848 54.7914 7.15089 55.3738 7.86933 55.3738H10.471C11.1895 55.3738 11.7719 54.7914 11.7719 54.0729V51.4713C11.7719 50.7528 11.1895 50.1704 10.471 50.1704Z" fill="#3AADD9"/>
<path d="M65.1064 44.9673H67.7081C68.4266 44.9673 69.009 44.3849 69.009 43.6664V41.0648C69.009 40.3463 68.4266 39.7639 67.7081 39.7639H65.1064C64.388 39.7639 63.8056 40.3463 63.8056 41.0648V43.6664C63.8056 44.3849 64.388 44.9673 65.1064 44.9673Z" fill="#3AADD9"/>
<path d="M65.1064 65.7803H67.7081C68.4266 65.7803 69.009 65.1979 69.009 64.4794V61.8777C69.009 61.1593 68.4266 60.5769 67.7081 60.5769H65.1064C64.388 60.5769 63.8056 61.1593 63.8056 61.8777V64.4794C63.8056 65.1979 64.388 65.7803 65.1064 65.7803Z" fill="#3AADD9"/>
<path d="M65.1064 55.3735H67.7081C68.4266 55.3735 69.009 54.7911 69.009 54.0727V51.471C69.009 50.7526 68.4266 50.1702 67.7081 50.1702H65.1064C64.388 50.1702 63.8056 50.7526 63.8056 51.471V54.0727C63.8056 54.7911 64.388 55.3735 65.1064 55.3735Z" fill="#3AADD9"/>
<path d="M50.7972 0.738281H24.7803C23.3434 0.738281 22.1786 1.9031 22.1786 3.33997V21.5518C22.1786 22.9887 23.3434 24.1535 24.7803 24.1535H50.7972C52.2341 24.1535 53.3989 22.9887 53.3989 21.5518V3.33997C53.3989 1.9031 52.2341 0.738281 50.7972 0.738281Z" fill="#F76C82"/>
<path d="M44.293 11.1448V13.7465C44.293 14.0915 44.1559 14.4224 43.912 14.6663C43.668 14.9103 43.3372 15.0473 42.9922 15.0473H40.3905V17.649C40.3905 17.994 40.2534 18.3249 40.0095 18.5688C39.7655 18.8128 39.4346 18.9499 39.0896 18.9499H36.4879C36.1429 18.9499 35.812 18.8128 35.5681 18.5688C35.3241 18.3249 35.1871 17.994 35.1871 17.649V15.0473H32.5854C32.2404 15.0473 31.9095 14.9103 31.6656 14.6663C31.4216 14.4224 31.2845 14.0915 31.2845 13.7465V11.1448C31.2845 10.7998 31.4216 10.4689 31.6656 10.2249C31.9095 9.98099 32.2404 9.84394 32.5854 9.84394H35.1871V7.24225C35.1871 6.89725 35.3241 6.56637 35.5681 6.32242C35.812 6.07846 36.1429 5.94141 36.4879 5.94141H39.0896C39.4346 5.94141 39.7655 6.07846 40.0095 6.32242C40.2534 6.56637 40.3905 6.89725 40.3905 7.24225V9.84394H42.9922C43.3372 9.84394 43.668 9.98099 43.912 10.2249C44.1559 10.4689 44.293 10.7998 44.293 11.1448Z" fill="white"/>
<path d="M52.098 42.3652H23.4794C22.761 42.3652 22.1786 42.9476 22.1786 43.6661V51.4711C22.1786 52.1896 22.761 52.772 23.4794 52.772H52.098C52.8165 52.772 53.3989 52.1896 53.3989 51.4711V43.6661C53.3989 42.9476 52.8165 42.3652 52.098 42.3652Z" fill="#A9B0BB"/>
<path d="M74.2124 70.9844H1.36505C0.646617 70.9844 0.064209 71.5668 0.064209 72.2852V74.8869C0.064209 75.6053 0.646617 76.1878 1.36505 76.1878H74.2124C74.9308 76.1878 75.5132 75.6053 75.5132 74.8869V72.2852C75.5132 71.5668 74.9308 70.9844 74.2124 70.9844Z" fill="#636C77"/>
<path d="M36.4879 52.772H39.0895V70.9838H36.4879V52.772Z" fill="#3AADD9"/>
</svg>
