<svg width="82" height="82" viewBox="0 0 82 82" fill="none" xmlns="http://www.w3.org/2000/svg">
<path d="M9.63552 30.7155L9.84526 30.7942C9.70106 31.1743 9.63552 31.5938 9.63552 32.0264C9.63552 29.8503 7.87889 28.0937 5.70277 28.0937C3.52665 28.0937 1.77002 29.8503 1.77002 32.0264V26.7828C1.77002 22.4305 3.52665 18.4978 6.37134 15.6531C9.21602 12.8084 13.1488 11.0518 17.501 11.0518C17.501 11.0518 9.63552 16.2954 9.63552 30.7155Z" fill="#E6E9ED"/>
<path d="M29.2992 28.0937C27.5557 28.0937 26.0875 29.2211 25.5762 30.7942L25.3665 30.7155C25.3665 16.2954 17.501 11.0518 17.501 11.0518C26.1924 11.0518 33.232 18.0914 33.232 26.7828V32.0264C33.232 29.8503 31.4753 28.0937 29.2992 28.0937Z" fill="#E6E9ED"/>
<path d="M25.3667 30.7155L25.5765 30.7942C25.4323 31.1743 25.3667 31.5938 25.3667 32.0264C25.3667 29.8503 23.6101 28.0937 21.434 28.0937C19.2579 28.0937 17.5012 29.8503 17.5012 32.0264C17.5012 29.8503 15.7446 28.0937 13.5685 28.0937C11.825 28.0937 10.3567 29.2211 9.84549 30.7942L9.63574 30.7155C9.63574 16.2954 17.5012 11.0518 17.5012 11.0518C17.5012 11.0518 25.3667 16.2954 25.3667 30.7155Z" fill="#FF826E"/>
<path d="M35.8538 49.0686V54.3123H4.39185C2.94984 54.3123 1.77002 53.1325 1.77002 51.6904V49.0686C1.77002 47.6266 2.94984 46.4468 4.39185 46.4468H17.501H33.232C33.232 47.8888 34.4118 49.0686 35.8538 49.0686Z" fill="#CF9E76"/>
<path d="M4.39209 54.312H35.8541V80.5303H4.39209V54.312Z" fill="#ECC19C"/>
<path d="M14.8794 70.043H35.8541V80.5303H14.8794V70.043Z" fill="#AAB2BD"/>
<path d="M80.4249 43.8245V46.4463C80.4249 47.8883 79.2451 49.0681 77.8031 49.0681H35.8538C34.4118 49.0681 33.2319 47.8883 33.2319 46.4463V43.8245C33.2319 42.3825 34.4118 41.2026 35.8538 41.2026H56.8284H77.8031C79.2451 41.2026 80.4249 42.3825 80.4249 43.8245Z" fill="#CCD1D9"/>
<path d="M35.854 49.0684H77.8033V80.5303H35.854V49.0684Z" fill="#E6E9ED"/>
<path d="M46.3413 64.7993H67.316V80.5303H46.3413V64.7993Z" fill="#AAB2BD"/>
<path d="M10.9468 59.5557H35.8542V64.7993H10.9468V59.5557Z" fill="#69D6F4"/>
<path d="M42.4087 54.312H71.2488V59.5557H42.4087V54.312Z" fill="#69D6F4"/>
<path d="M72.4808 8.79713C72.9265 11.2879 75.1812 23.8989 75.1812 28.0938C75.1812 32.918 70.7766 36.8245 61.3117 40.3902C59.8828 40.9277 58.3753 41.203 56.8284 41.203C55.2815 41.203 53.774 40.9277 52.3451 40.3902C42.8803 36.8245 38.4756 32.918 38.4756 28.0938C38.4756 23.8989 40.7304 11.2879 41.1761 8.79713L41.9626 4.49732H45.725C49.579 4.49732 53.3807 3.6059 56.8284 1.87549C60.2761 3.6059 64.0778 4.49732 67.9319 4.49732H71.6942L72.4808 8.79713Z" fill="#AAB2BD"/>
<path d="M67.3162 9.74097C67.3162 9.74097 69.938 24.1611 69.938 28.0938C69.938 31.2138 62.5314 34.3207 59.4638 35.4874C58.6117 35.802 57.7334 35.9593 56.8289 35.9593C55.9244 35.9593 55.046 35.802 54.1939 35.4874C51.1264 34.3207 43.7197 31.2138 43.7197 28.0938C43.7197 24.1611 46.3416 9.74097 46.3416 9.74097H48.1637C51.2575 9.74097 54.2595 8.82333 56.8289 7.11914C59.3983 8.82333 62.4003 9.74097 65.494 9.74097H67.3162Z" fill="#FCD770"/>
<path d="M55.5173 30.7156H58.1392V27.9037C59.6533 27.4239 60.761 26.0225 60.761 24.3524C60.761 22.9262 59.9692 21.6441 58.6924 21.0057L56.1374 19.7275C55.7546 19.5374 55.5173 19.1533 55.5173 18.726C55.5173 18.1085 56.0207 17.6065 56.6369 17.6065H57.0183C57.6358 17.6065 58.1392 18.1085 58.1392 18.726V18.9174H60.761V18.726C60.761 17.0559 59.6533 15.6545 58.1392 15.1747V12.3628H55.5173V15.1747C54.0032 15.6545 52.8955 17.0559 52.8955 18.726C52.8955 20.1523 53.6873 21.4343 54.9641 22.0727L57.5191 23.3509C57.9019 23.541 58.1392 23.9251 58.1392 24.3524C58.1392 24.9699 57.6358 25.472 57.0197 25.472H56.6382C56.0207 25.472 55.5173 24.9699 55.5173 24.3524V22.8501H52.8955V24.3524C52.8955 26.0225 54.0032 27.4239 55.5173 27.9037V30.7156Z" fill="black"/>
<path d="M56.8283 37.2698C57.8967 37.2698 58.9362 37.081 59.9194 36.71C67.4375 33.8758 71.2484 30.9774 71.2484 28.0934C71.2484 24.0885 68.7131 10.0997 68.6042 9.50587L68.4102 8.42961H65.4882C62.6553 8.42961 59.9129 7.5998 57.5558 6.02801L56.8283 5.54297L56.1007 6.02801C53.7437 7.5998 51.0026 8.42961 48.1697 8.42961H45.2476L45.0536 9.50587C44.9435 10.0997 42.4082 24.0885 42.4082 28.0934C42.4082 30.9774 46.219 33.8758 53.7358 36.71C54.7203 37.081 55.7599 37.2698 56.8283 37.2698ZM45.03 28.0934C45.03 24.9354 46.8365 14.4546 47.4382 11.0514H48.1697C51.2333 11.0514 54.2091 10.2308 56.8283 8.66819C59.4475 10.2308 62.4233 11.0514 65.4869 11.0514H66.2184C66.8201 14.4546 68.6265 24.9354 68.6265 28.0934C68.6265 29.3125 65.6127 31.7613 58.9939 34.2573C57.6214 34.7764 56.0352 34.7764 54.66 34.2573C48.0438 31.7613 45.03 29.3125 45.03 28.0934Z" fill="black"/>
<path d="M77.803 39.8918H65.8803C73.0864 36.5267 76.4921 32.7264 76.4921 28.0936C76.4921 23.7872 74.2203 11.074 73.7641 8.5675L72.7849 3.18619H67.9345C64.3019 3.18619 60.6641 2.32754 57.4157 0.702002L56.8284 0.409668L56.2424 0.703313C52.9926 2.32754 49.3549 3.18619 45.7223 3.18619H40.8719L39.8927 8.56881C39.4365 11.074 37.1646 23.7872 37.1646 28.0936C37.1646 32.7264 40.5704 36.528 47.7765 39.8918H35.8537C33.6855 39.8918 31.921 41.6563 31.921 43.8246V45.1355H18.8118V32.0263C18.8118 30.5804 19.9877 29.4045 21.4336 29.4045C22.8796 29.4045 24.0555 30.5804 24.0555 32.0263H26.6773C26.6773 30.5804 27.8532 29.4045 29.2991 29.4045C30.7451 29.4045 31.921 30.5804 31.921 32.0263H34.5428V26.7827C34.5428 17.386 26.8975 9.74077 17.5009 9.74077C8.10425 9.74077 0.458984 17.386 0.458984 26.7827V32.0263H3.08082C3.08082 30.5804 4.25671 29.4045 5.70265 29.4045C7.14859 29.4045 8.32448 30.5804 8.32448 32.0263H10.9463C10.9463 30.5804 12.1222 29.4045 13.5681 29.4045C15.0141 29.4045 16.19 30.5804 16.19 32.0263V45.1355H4.39173C2.22348 45.1355 0.458984 46.9 0.458984 49.0683V51.6901C0.458984 53.3969 1.55884 54.8389 3.08082 55.3816V81.8412H79.114V50.138C80.6359 49.5952 81.7358 48.1532 81.7358 46.4464V43.8246C81.7358 41.6563 79.9713 39.8918 77.803 39.8918ZM39.7865 28.0936C39.7865 24.929 41.2337 15.851 42.4712 9.03812L43.0585 5.80802H45.7223C49.5423 5.80802 53.3676 4.9533 56.8284 3.3317C60.2892 4.9533 64.1145 5.80802 67.9345 5.80802H70.5983L71.1855 9.03681C72.423 15.851 73.8703 24.929 73.8703 28.0936C73.8703 32.2977 69.7317 35.8149 60.8424 39.1643C58.2874 40.1291 55.3693 40.1291 52.8091 39.163C43.925 35.8149 39.7865 32.2977 39.7865 28.0936ZM31.921 26.7827V27.4866C31.1488 27.0383 30.2535 26.7827 29.2991 26.7827C28.2845 26.7827 27.3446 27.0855 26.541 27.5863C25.9432 20.236 23.3305 15.5363 21.1833 12.8568C27.3537 14.4915 31.921 20.1062 31.921 26.7827ZM5.70265 26.7827C4.7483 26.7827 3.85295 27.0383 3.08082 27.4866V26.7827C3.08082 20.1062 7.64805 14.4915 13.8185 12.8568C11.6713 15.535 9.0586 20.236 8.46082 27.5863C7.65723 27.0855 6.7173 26.7827 5.70265 26.7827ZM13.5681 26.7827C12.6754 26.7827 11.8482 27.0278 11.1115 27.4224C11.9269 18.6117 15.8439 14.2097 17.5009 12.7323C19.1579 14.211 23.0749 18.6117 23.8903 27.4224C23.1536 27.0278 22.3264 26.7827 21.4336 26.7827C19.8592 26.7827 18.4631 27.4932 17.5009 28.5944C16.5387 27.4932 15.1426 26.7827 13.5681 26.7827ZM26.6773 71.3538H34.5428V79.2193H26.6773V71.3538ZM24.0555 79.2193H16.19V71.3538H24.0555V79.2193ZM34.5428 63.4883H12.2572V60.8665H34.5428V63.4883ZM3.08082 49.0683C3.08082 48.3459 3.66811 47.7573 4.39173 47.7573H32.1622C32.5581 48.8677 33.4325 49.7421 34.5428 50.138V53.001H4.39173C3.66811 53.001 3.08082 52.4124 3.08082 51.6901V49.0683ZM5.70265 55.6228H34.5428V58.2447H9.6354V66.1102H34.5428V68.732H13.5681V79.2193H5.70265V55.6228ZM66.0048 79.2193H58.1393V66.1102H66.0048V79.2193ZM55.5175 79.2193H47.652V66.1102H55.5175V79.2193ZM68.6266 79.2193V63.4883H45.0301V79.2193H37.1646V50.3792H76.4921V79.2193H68.6266ZM79.114 46.4464C79.114 47.1687 78.5267 47.7573 77.803 47.7573H35.8537C35.1301 47.7573 34.5428 47.1687 34.5428 46.4464V43.8246C34.5428 43.1023 35.1301 42.5137 35.8537 42.5137H77.803C78.5267 42.5137 79.114 43.1023 79.114 43.8246V46.4464Z" fill="black"/>
<path d="M41.0972 60.8665H72.5592V53.001H41.0972V60.8665ZM43.719 55.6228H69.9373V58.2446H43.719V55.6228Z" fill="black"/>
</svg>
