<svg width="77" height="74" viewBox="0 0 77 74" fill="none" xmlns="http://www.w3.org/2000/svg">
<path d="M30.6328 63.4022H46.3605V72.5766H30.6328V63.4022Z" fill="#6D74F2"/>
<path d="M73.2296 9.66599H3.76581C2.31812 9.66599 1.14453 10.8396 1.14453 12.2873V60.7809C1.14453 62.2286 2.31812 63.4022 3.76581 63.4022H73.2296C74.6773 63.4022 75.8509 62.2286 75.8509 60.7809V12.2873C75.8509 10.8396 74.6773 9.66599 73.2296 9.66599Z" fill="#808CFF"/>
<path d="M5.07812 13.5979H71.9207V54.2277H5.07812V13.5979Z" fill="#E9F4FF"/>
<path d="M20.8047 1.14682H56.1919V22.117H20.8047V1.14682Z" fill="#FC9F02"/>
<path d="M38.4993 44.3979C40.3089 44.3979 41.7758 42.9309 41.7758 41.1213C41.7758 39.3117 40.3089 37.8447 38.4993 37.8447C36.6896 37.8447 35.2227 39.3117 35.2227 41.1213C35.2227 42.9309 36.6896 44.3979 38.4993 44.3979Z" fill="#FFD92E"/>
<path d="M56.1907 44.3979C58.0003 44.3979 59.4673 42.9309 59.4673 41.1213C59.4673 39.3117 58.0003 37.8447 56.1907 37.8447C54.381 37.8447 52.9141 39.3117 52.9141 41.1213C52.9141 42.9309 54.381 44.3979 56.1907 44.3979Z" fill="#FFD92E"/>
<path d="M20.8039 44.3979C22.6136 44.3979 24.0805 42.9309 24.0805 41.1213C24.0805 39.3117 22.6136 37.8447 20.8039 37.8447C18.9943 37.8447 17.5273 39.3117 17.5273 41.1213C17.5273 42.9309 18.9943 44.3979 20.8039 44.3979Z" fill="#FFD92E"/>
<path d="M1.14681 49.4012C1.29743 49.4013 1.4466 49.3717 1.58578 49.3141C1.72495 49.2565 1.85141 49.172 1.95792 49.0655C2.06442 48.959 2.1489 48.8326 2.2065 48.6934C2.2641 48.5542 2.2937 48.4051 2.29362 48.2544V44.9968C2.29362 44.6927 2.17279 44.401 1.95773 44.1859C1.74266 43.9709 1.45096 43.85 1.14681 43.85C0.842656 43.85 0.550961 43.9709 0.335893 44.1859C0.120824 44.401 1.87465e-07 44.6927 1.87465e-07 44.9968V48.2544C-8.5958e-05 48.4051 0.0295184 48.5542 0.0871204 48.6934C0.144722 48.8326 0.229192 48.959 0.335701 49.0655C0.442209 49.172 0.568666 49.2565 0.707842 49.3141C0.847018 49.3717 0.996183 49.4013 1.14681 49.4012Z" fill="black"/>
<path d="M61.7258 62.2553H3.76809C3.37719 62.2548 3.00246 62.0993 2.72605 61.8229C2.44965 61.5465 2.29414 61.1717 2.29362 60.7808V54.2276C2.29362 53.9235 2.17279 53.6318 1.95772 53.4167C1.74266 53.2017 1.45096 53.0808 1.14681 53.0808C0.842656 53.0808 0.550961 53.2017 0.335892 53.4167C0.120824 53.6318 0 53.9235 0 54.2276V60.7808C0.00104085 61.7799 0.398369 62.7377 1.1048 63.4441C1.81122 64.1506 2.76905 64.5479 3.76809 64.5489H29.4894V71.4298H22.8136C22.5095 71.4298 22.2178 71.5506 22.0027 71.7657C21.7876 71.9807 21.6668 72.2724 21.6668 72.5766C21.6668 72.8807 21.7876 73.1724 22.0027 73.3875C22.2178 73.6026 22.5095 73.7234 22.8136 73.7234H54.1857C54.4899 73.7234 54.7816 73.6026 54.9966 73.3875C55.2117 73.1724 55.3325 72.8807 55.3325 72.5766C55.3325 72.2724 55.2117 71.9807 54.9966 71.7657C54.7816 71.5506 54.4899 71.4298 54.1857 71.4298H47.5106V64.5489H61.7258C62.03 64.5489 62.3217 64.4281 62.5367 64.213C62.7518 63.998 62.8726 63.7063 62.8726 63.4021C62.8726 63.098 62.7518 62.8063 62.5367 62.5912C62.3217 62.3761 62.03 62.2553 61.7258 62.2553ZM45.217 71.4298H31.783V64.5489H45.217V71.4298Z" fill="black"/>
<path d="M73.2319 8.51915H57.3404V1.14681C57.3405 0.996183 57.3109 0.847018 57.2533 0.707842C57.1957 0.568666 57.1112 0.442209 57.0047 0.335701C56.8982 0.229192 56.7718 0.144722 56.6326 0.0871204C56.4934 0.0295184 56.3442 -8.5958e-05 56.1936 1.87465e-07H49.1489C48.8448 1.87465e-07 48.5531 0.120824 48.338 0.335892C48.123 0.550961 48.0021 0.842656 48.0021 1.14681C48.0021 1.45096 48.123 1.74266 48.338 1.95773C48.5531 2.17279 48.8448 2.29362 49.1489 2.29362H55.0468V20.9702H21.9532V2.29362H43.175C43.4792 2.29362 43.7709 2.17279 43.986 1.95773C44.201 1.74266 44.3219 1.45096 44.3219 1.14681C44.3219 0.842656 44.201 0.550961 43.986 0.335892C43.7709 0.120824 43.4792 1.87465e-07 43.175 1.87465e-07H20.8064C20.6558 -8.5958e-05 20.5066 0.0295184 20.3674 0.0871204C20.2282 0.144722 20.1018 0.229192 19.9953 0.335701C19.8888 0.442209 19.8043 0.568666 19.7467 0.707842C19.6891 0.847018 19.6595 0.996183 19.6596 1.14681V8.51915H3.76809C2.76905 8.52019 1.81122 8.91752 1.1048 9.62395C0.398369 10.3304 0.00104085 11.2882 0 12.2872V39.0243C0 39.3284 0.120824 39.6201 0.335892 39.8352C0.550961 40.0502 0.842656 40.1711 1.14681 40.1711C1.45096 40.1711 1.74266 40.0502 1.95772 39.8352C2.17279 39.6201 2.29362 39.3284 2.29362 39.0243V12.2872C2.29414 11.8963 2.44965 11.5216 2.72605 11.2452C3.00246 10.9688 3.37719 10.8133 3.76809 10.8128H19.6596V12.4511H5.07872C4.9281 12.451 4.77893 12.4806 4.63976 12.5382C4.50058 12.5958 4.37412 12.6803 4.26762 12.7868C4.16111 12.8933 4.07664 13.0197 4.01904 13.1589C3.96143 13.2981 3.93183 13.4472 3.93191 13.5979V54.2277C3.93183 54.3783 3.96143 54.5275 4.01904 54.6666C4.07664 54.8058 4.16111 54.9323 4.26762 55.0388C4.37412 55.1453 4.50058 55.2297 4.63976 55.2873C4.77893 55.345 4.9281 55.3746 5.07872 55.3745H71.9213C72.0719 55.3746 72.2211 55.345 72.3602 55.2873C72.4994 55.2297 72.6259 55.1453 72.7324 55.0388C72.8389 54.9323 72.9234 54.8058 72.981 54.6666C73.0386 54.5275 73.0682 54.3783 73.0681 54.2277V13.5979C73.0682 13.4472 73.0386 13.2981 72.981 13.1589C72.9234 13.0197 72.8389 12.8933 72.7324 12.7868C72.6259 12.6803 72.4994 12.5958 72.3602 12.5382C72.2211 12.4806 72.0719 12.451 71.9213 12.4511H57.3404V10.8128H73.2319C73.6228 10.8133 73.9975 10.9688 74.2739 11.2452C74.5503 11.5216 74.7059 11.8963 74.7064 12.2872V60.7809C74.7059 61.1717 74.5503 61.5465 74.2739 61.8229C73.9975 62.0993 73.6228 62.2548 73.2319 62.2553H67.6997C67.3956 62.2553 67.1039 62.3761 66.8888 62.5912C66.6737 62.8063 66.5529 63.098 66.5529 63.4021C66.5529 63.7063 66.6737 63.998 66.8888 64.213C67.1039 64.4281 67.3956 64.5489 67.6997 64.5489H73.2319C74.231 64.5479 75.1888 64.1506 75.8952 63.4441C76.6016 62.7377 76.999 61.7799 77 60.7809V12.2872C76.999 11.2882 76.6016 10.3304 75.8952 9.62395C75.1888 8.91752 74.231 8.52019 73.2319 8.51915ZM38.5 38.9915C38.9212 38.9915 39.333 39.1164 39.6832 39.3504C40.0335 39.5844 40.3065 39.9171 40.4677 40.3062C40.6289 40.6954 40.671 41.1236 40.5889 41.5368C40.5067 41.9499 40.3038 42.3294 40.006 42.6273C39.7081 42.9251 39.3286 43.128 38.9155 43.2101C38.5024 43.2923 38.0741 43.2501 37.685 43.0889C37.2958 42.9277 36.9632 42.6548 36.7291 42.3045C36.4951 41.9543 36.3702 41.5425 36.3702 41.1213C36.3709 40.5566 36.5955 40.0153 36.9948 39.6161C37.394 39.2168 37.9354 38.9922 38.5 38.9915ZM70.7745 14.7447V53.0809H6.22553V14.7447H19.6596V22.117C19.6595 22.2676 19.6891 22.4168 19.7467 22.556C19.8043 22.6952 19.8888 22.8216 19.9953 22.9281C20.1018 23.0346 20.2282 23.1191 20.3674 23.1767C20.5066 23.2343 20.6558 23.2639 20.8064 23.2638H28.5064V28.834H20.8064C20.6558 28.834 20.5066 28.8636 20.3674 28.9212C20.2282 28.9788 20.1018 29.0632 19.9953 29.1697C19.8888 29.2763 19.8043 29.4027 19.7467 29.5419C19.6891 29.6811 19.6595 29.8302 19.6596 29.9809V36.8538C18.6233 37.132 17.7234 37.7774 17.1276 38.6697C16.5318 39.5621 16.2807 40.6406 16.421 41.7044C16.5612 42.7681 17.0834 43.7446 17.8902 44.452C18.697 45.1594 19.7334 45.5494 20.8064 45.5494C21.8794 45.5494 22.9158 45.1594 23.7226 44.452C24.5293 43.7446 25.0515 42.7681 25.1918 41.7044C25.3321 40.6406 25.081 39.5621 24.4851 38.6697C23.8893 37.7774 22.9895 37.132 21.9532 36.8538V31.1277H29.6532C29.8038 31.1277 29.953 31.0981 30.0922 31.0405C30.2313 30.9829 30.3578 30.8985 30.4643 30.792C30.5708 30.6855 30.6553 30.559 30.7129 30.4198C30.7705 30.2806 30.8001 30.1315 30.8 29.9809V23.2638H37.3532V36.8538C36.3169 37.132 35.417 37.7774 34.8212 38.6697C34.2254 39.5621 33.9743 40.6406 34.1146 41.7044C34.2549 42.7681 34.777 43.7446 35.5838 44.452C36.3906 45.1594 37.427 45.5494 38.5 45.5494C39.573 45.5494 40.6094 45.1594 41.4162 44.452C42.223 43.7446 42.7451 42.7681 42.8854 41.7044C43.0257 40.6406 42.7746 39.5621 42.1788 38.6697C41.583 37.7774 40.6831 37.132 39.6468 36.8538V23.2638H46.2V29.9809C46.1999 30.1315 46.2295 30.2806 46.2871 30.4198C46.3447 30.559 46.4292 30.6855 46.5357 30.792C46.6422 30.8985 46.7687 30.9829 46.9078 31.0405C47.047 31.0981 47.1962 31.1277 47.3468 31.1277H55.0468V36.8538C54.0105 37.132 53.1107 37.7774 52.5149 38.6697C51.919 39.5621 51.6679 40.6406 51.8082 41.7044C51.9485 42.7681 52.4707 43.7446 53.2774 44.452C54.0842 45.1594 55.1206 45.5494 56.1936 45.5494C57.2666 45.5494 58.303 45.1594 59.1098 44.452C59.9166 43.7446 60.4388 42.7681 60.579 41.7044C60.7193 40.6406 60.4682 39.5621 59.8724 38.6697C59.2766 37.7774 58.3767 37.132 57.3404 36.8538V29.9809C57.3405 29.8302 57.3109 29.6811 57.2533 29.5419C57.1957 29.4027 57.1112 29.2763 57.0047 29.1697C56.8982 29.0632 56.7718 28.9788 56.6326 28.9212C56.4934 28.8636 56.3442 28.834 56.1936 28.834H48.4936V23.2638H56.1936C56.3442 23.2639 56.4934 23.2343 56.6326 23.1767C56.7718 23.1191 56.8982 23.0346 57.0047 22.9281C57.1112 22.8216 57.1957 22.6952 57.2533 22.556C57.3109 22.4168 57.3405 22.2676 57.3404 22.117V14.7447H70.7745ZM20.8064 38.9915C21.2276 38.9915 21.6394 39.1164 21.9896 39.3504C22.3399 39.5844 22.6129 39.9171 22.774 40.3062C22.9352 40.6954 22.9774 41.1236 22.8952 41.5368C22.8131 41.9499 22.6102 42.3294 22.3124 42.6273C22.0145 42.9251 21.635 43.128 21.2219 43.2101C20.8087 43.2923 20.3805 43.2501 19.9913 43.0889C19.6022 42.9277 19.2696 42.6548 19.0355 42.3045C18.8015 41.9543 18.6766 41.5425 18.6766 41.1213C18.6773 40.5566 18.9019 40.0153 19.3012 39.6161C19.7004 39.2168 20.2417 38.9922 20.8064 38.9915ZM56.1936 38.9915C56.6148 38.9915 57.0266 39.1164 57.3769 39.3504C57.7271 39.5844 58.0001 39.9171 58.1613 40.3062C58.3225 40.6954 58.3647 41.1236 58.2825 41.5368C58.2003 41.9499 57.9975 42.3294 57.6996 42.6273C57.4017 42.9251 57.0223 43.128 56.6091 43.2101C56.196 43.2923 55.7677 43.2501 55.3786 43.0889C54.9894 42.9277 54.6568 42.6548 54.4228 42.3045C54.1887 41.9543 54.0638 41.5425 54.0638 41.1213C54.0645 40.5566 54.2891 40.0153 54.6884 39.6161C55.0877 39.2168 55.629 38.9922 56.1936 38.9915Z" fill="black"/>
<path d="M33.7478 16.7106C33.8984 16.7107 34.0476 16.6811 34.1868 16.6235C34.3259 16.5659 34.4524 16.4814 34.5589 16.3749C34.6654 16.2684 34.7499 16.142 34.8075 16.0028C34.8651 15.8636 34.8947 15.7145 34.8946 15.5638V9.66596C34.8936 8.84072 34.5653 8.04958 33.9818 7.46605C33.3982 6.88252 32.6071 6.55423 31.7818 6.55319H29.8159C28.9907 6.55423 28.1995 6.88252 27.616 7.46605C27.0325 8.04958 26.7042 8.84072 26.7031 9.66596V15.5638C26.7031 15.868 26.8239 16.1597 27.039 16.3747C27.2541 16.5898 27.5458 16.7106 27.8499 16.7106C28.1541 16.7106 28.4458 16.5898 28.6609 16.3747C28.8759 16.1597 28.9967 15.868 28.9967 15.5638V12.7787H32.601V15.5638C32.6009 15.7145 32.6305 15.8636 32.6881 16.0028C32.7457 16.142 32.8302 16.2684 32.9367 16.3749C33.0432 16.4814 33.1697 16.5659 33.3088 16.6235C33.448 16.6811 33.5972 16.7107 33.7478 16.7106ZM28.9967 10.4851V9.66596C28.9967 9.44871 29.083 9.24035 29.2367 9.08673C29.3903 8.93311 29.5986 8.84681 29.8159 8.84681H31.7818C31.999 8.84698 32.2073 8.93334 32.3609 9.08692C32.5145 9.24051 32.6008 9.44876 32.601 9.66596V10.4851H28.9967Z" fill="black"/>
<path d="M49.1507 16.7106C49.3013 16.7107 49.4505 16.6811 49.5897 16.6235C49.7289 16.5659 49.8553 16.4814 49.9618 16.3749C50.0683 16.2684 50.1528 16.142 50.2104 16.0028C50.268 15.8636 50.2976 15.7145 50.2975 15.5638V7.7C50.2975 7.39585 50.1767 7.10415 49.9616 6.88908C49.7466 6.67402 49.4549 6.55319 49.1507 6.55319C48.8466 6.55319 48.5549 6.67402 48.3398 6.88908C48.1247 7.10415 48.0039 7.39585 48.0039 7.7V15.5638C48.0038 15.7145 48.0334 15.8636 48.091 16.0028C48.1486 16.142 48.2331 16.2684 48.3396 16.3749C48.4461 16.4814 48.5726 16.5659 48.7117 16.6235C48.8509 16.6811 49.0001 16.7107 49.1507 16.7106Z" fill="black"/>
<path d="M41.9395 6.55319H38.9906C38.8399 6.55311 38.6908 6.58271 38.5516 6.64031C38.4124 6.69791 38.286 6.78238 38.1794 6.88889C38.0729 6.9954 37.9885 7.12186 37.9309 7.26103C37.8733 7.40021 37.8437 7.54938 37.8438 7.7V15.5638C37.8438 15.868 37.9646 16.1597 38.1796 16.3747C38.3947 16.5898 38.6864 16.7106 38.9906 16.7106C39.2947 16.7106 39.5864 16.5898 39.8015 16.3747C40.0165 16.1597 40.1374 15.868 40.1374 15.5638V12.7787H41.9395C42.7651 12.7787 43.5568 12.4508 44.1406 11.867C44.7243 11.2833 45.0523 10.4915 45.0523 9.66596C45.0523 8.8404 44.7243 8.04866 44.1406 7.4649C43.5568 6.88114 42.7651 6.55319 41.9395 6.55319ZM41.9395 10.4851H40.1374V8.84681H41.9395C42.1567 8.84681 42.3651 8.93311 42.5187 9.08673C42.6723 9.24035 42.7586 9.44871 42.7586 9.66596C42.7586 9.88321 42.6723 10.0916 42.5187 10.2452C42.3651 10.3988 42.1567 10.4851 41.9395 10.4851Z" fill="black"/>
</svg>
