<svg width="93" height="94" viewBox="0 0 93 94" fill="none" xmlns="http://www.w3.org/2000/svg">
<path d="M51.4048 32.3823V23.8728H45.9646C45.5244 22.0057 44.7914 20.222 43.7932 18.5893L47.6443 14.6963L41.6916 8.67894L37.8405 12.574C36.2254 11.565 34.4608 10.824 32.6138 10.3791V4.87756H24.1958V10.3842C22.3506 10.8302 20.5872 11.5694 18.9712 12.574L15.118 8.67894L9.16528 14.6963L13.0185 18.5914C12.0246 20.225 11.2934 22.0076 10.8522 23.8728H5.40479V32.3823H10.8443C11.2859 34.2496 12.0199 36.0335 13.0185 37.6666L9.16816 41.5588L15.1208 47.5769L18.9712 43.684C20.5868 44.6927 22.3515 45.4337 24.1987 45.8789V51.3776H32.6138V45.8709C34.4589 45.4249 36.2224 44.6858 37.8384 43.6811L41.6916 47.5769L47.6443 41.5588L43.7911 37.6637C44.7849 36.0301 45.5161 34.2475 45.9574 32.3823H51.4048ZM28.4048 37.8628C26.4999 37.8628 24.6378 37.2918 23.0539 36.222C21.4701 35.1522 20.2356 33.6316 19.5067 31.8526C18.7777 30.0736 18.587 28.116 18.9586 26.2275C19.3302 24.3389 20.2475 22.6041 21.5945 21.2425C22.9414 19.8809 24.6575 18.9536 26.5258 18.578C28.3941 18.2023 30.3306 18.3951 32.0905 19.132C33.8504 19.8689 35.3546 21.1168 36.4129 22.7178C37.4712 24.3189 38.036 26.2013 38.036 28.1268C38.036 30.709 37.0213 33.1853 35.2151 35.0112C33.4089 36.837 30.9592 37.8628 28.4048 37.8628Z" fill="#76E2F8"/>
<path d="M88.3384 69.7174V61.2079H82.8982C82.458 59.3406 81.725 57.5566 80.7268 55.9236L84.5779 52.0307L78.6252 46.0133L74.7741 49.9062C73.1588 48.8975 71.3943 48.1565 69.5474 47.7113V42.2126H61.1294V47.7193C59.2842 48.1653 57.5208 48.9044 55.9048 49.9091L52.0516 46.0133L46.0989 52.0307L49.9521 55.9265C48.9582 57.5601 48.227 59.3427 47.7858 61.2079H42.3384V69.7174H47.7779C48.2187 71.5842 48.9517 73.3679 49.9492 75.001L46.0989 78.8939L52.0516 84.9113L55.9019 81.0183C57.5173 82.0274 59.2822 82.7684 61.1294 83.2133V88.7126H69.5474V83.206C71.3925 82.76 73.156 82.0209 74.772 81.0162L78.6252 84.9113L84.5779 78.8939L80.7247 74.9988C81.7185 73.3652 82.4497 71.5826 82.891 69.7174H88.3384ZM65.3384 75.1971C63.4335 75.1971 61.5714 74.6261 59.9875 73.5563C58.4037 72.4865 57.1692 70.966 56.4403 69.187C55.7113 67.408 55.5206 65.4504 55.8922 63.5618C56.2638 61.6732 57.1811 59.9384 58.5281 58.5768C59.875 57.2152 61.5911 56.288 63.4594 55.9123C65.3277 55.5367 67.2642 55.7295 69.0241 56.4664C70.784 57.2032 72.2882 58.4511 73.3465 60.0522C74.4048 61.6533 74.9696 63.5356 74.9696 65.4612C74.9696 68.0433 73.9549 70.5197 72.1487 72.3455C70.3425 74.1714 67.8927 75.1971 65.3384 75.1971Z" fill="#FF641A"/>
<path d="M77.5106 37.2009C79.861 37.2009 81.7663 35.2748 81.7663 32.8989C81.7663 30.523 79.861 28.5969 77.5106 28.5969C75.1602 28.5969 73.2549 30.523 73.2549 32.8989C73.2549 35.2748 75.1602 37.2009 77.5106 37.2009Z" fill="#76E2F8"/>
<path d="M16.2328 64.9934C18.5831 64.9934 20.4885 63.0673 20.4885 60.6914C20.4885 58.3155 18.5831 56.3894 16.2328 56.3894C13.8824 56.3894 11.9771 58.3155 11.9771 60.6914C11.9771 63.0673 13.8824 64.9934 16.2328 64.9934Z" fill="#FF641A"/>
<path d="M42.5807 48.4764L48.5334 42.4583C48.6503 42.3403 48.743 42.2002 48.8062 42.046C48.8695 41.8918 48.9021 41.7265 48.9021 41.5595C48.9021 41.3926 48.8695 41.2273 48.8062 41.073C48.743 40.9188 48.6503 40.7787 48.5334 40.6608L45.3623 37.4552C46.0141 36.2477 46.5367 34.9733 46.9212 33.6538H51.4033C51.7369 33.6538 52.0569 33.5198 52.2928 33.2814C52.5286 33.0429 52.6612 32.7195 52.6612 32.3823V23.8728C52.6612 23.5356 52.5286 23.2122 52.2928 22.9737C52.0569 22.7353 51.7369 22.6013 51.4033 22.6013H46.9313C46.5465 21.28 46.0221 20.0043 45.3673 18.7963L48.5334 15.5951C48.6503 15.4771 48.743 15.3369 48.8063 15.1826C48.8696 15.0284 48.9021 14.863 48.9021 14.696C48.9021 14.529 48.8696 14.3636 48.8063 14.2093C48.743 14.055 48.6503 13.9149 48.5334 13.7968L42.5807 7.77873C42.464 7.66058 42.3254 7.56685 42.1729 7.5029C42.0203 7.43895 41.8568 7.40603 41.6916 7.40603C41.5264 7.40603 41.3629 7.43895 41.2103 7.5029C41.0578 7.56685 40.9192 7.66058 40.8025 7.77873L37.6357 10.9807C36.4407 10.3188 35.1788 9.7887 33.8716 9.39969V4.87756C33.8717 4.71056 33.8392 4.54518 33.776 4.39087C33.7129 4.23657 33.6202 4.09636 33.5034 3.97828C33.3866 3.86019 33.2479 3.76654 33.0952 3.70267C32.9426 3.63881 32.779 3.60598 32.6138 3.60608H24.1951C24.0299 3.60598 23.8663 3.63881 23.7136 3.70267C23.561 3.76654 23.4223 3.86019 23.3054 3.97828C23.1886 4.09636 23.096 4.23657 23.0328 4.39087C22.9696 4.54518 22.9372 4.71056 22.9373 4.87756V9.40768C21.6322 9.79684 20.3718 10.3254 19.1775 10.9843L16.0071 7.77873C15.8903 7.66056 15.7517 7.56681 15.599 7.50285C15.4464 7.43889 15.2828 7.40597 15.1176 7.40597C14.9524 7.40597 14.7888 7.43889 14.6362 7.50285C14.4836 7.56681 14.3449 7.66056 14.2282 7.77873L8.27475 13.7968C8.15786 13.9149 8.06512 14.055 8.00185 14.2093C7.93857 14.3636 7.90601 14.529 7.90601 14.696C7.90601 14.863 7.93857 15.0284 8.00185 15.1826C8.06512 15.3369 8.15786 15.4771 8.27475 15.5951L11.4444 18.8C10.7926 20.0076 10.2698 21.2819 9.88475 22.6013H5.40479C5.23958 22.6012 5.07598 22.6341 4.92333 22.6979C4.77068 22.7618 4.63198 22.8554 4.51517 22.9735C4.39835 23.0916 4.3057 23.2318 4.24253 23.3861C4.17935 23.5404 4.14688 23.7058 4.14697 23.8728V32.3823C4.14688 32.5493 4.17935 32.7147 4.24253 32.869C4.3057 33.0233 4.39835 33.1635 4.51517 33.2816C4.63198 33.3997 4.77068 33.4933 4.92333 33.5572C5.07598 33.6211 5.23958 33.6539 5.40479 33.6538H9.87757C10.2626 34.9752 10.7872 36.2509 11.4423 37.4588L8.27475 40.6608C8.15788 40.7787 8.06516 40.9188 8.00189 41.073C7.93863 41.2273 7.90607 41.3926 7.90607 41.5595C7.90607 41.7265 7.93863 41.8918 8.00189 42.046C8.06516 42.2002 8.15788 42.3403 8.27475 42.4583L14.2267 48.4764C14.4628 48.7145 14.7827 48.8483 15.1162 48.8483C15.4497 48.8483 15.7696 48.7145 16.0056 48.4764L19.1724 45.2744C20.3677 45.9364 21.6299 46.4667 22.9373 46.8562V51.3783C22.9373 51.7155 23.0698 52.0389 23.3057 52.2774C23.5415 52.5158 23.8615 52.6498 24.1951 52.6498H32.6138C32.9474 52.6498 33.2673 52.5158 33.5032 52.2774C33.7391 52.0389 33.8716 51.7155 33.8716 51.3783V46.8474C35.1767 46.4583 36.437 45.9298 37.6314 45.2708L40.8025 48.4764C41.0384 48.7147 41.3582 48.8485 41.6916 48.8485C42.025 48.8485 42.3448 48.7147 42.5807 48.4764ZM38.7275 42.7823C38.5277 42.58 38.2663 42.4517 37.9855 42.4183C37.7046 42.3848 37.4209 42.448 37.18 42.5978C35.6772 43.5318 34.0372 44.2185 32.3213 44.6322C32.0466 44.6988 31.8022 44.8568 31.6271 45.0808C31.452 45.3048 31.3566 45.5818 31.356 45.8673V50.1032H25.4529V45.8789C25.4525 45.5932 25.3569 45.3159 25.1815 45.0918C25.0061 44.8677 24.7612 44.7099 24.4862 44.6438C22.7704 44.229 21.1313 43.5395 19.631 42.6014C19.3899 42.4511 19.1057 42.3874 18.8244 42.4207C18.543 42.4539 18.281 42.5821 18.0807 42.7845L15.1173 45.7779L10.9442 41.5581L13.9054 38.5639C14.1055 38.3615 14.2322 38.0967 14.2651 37.8125C14.298 37.5282 14.2351 37.2411 14.0866 36.9974C13.1586 35.4799 12.477 33.822 12.0676 32.0866C12.0022 31.8086 11.846 31.561 11.6244 31.3837C11.4027 31.2064 11.1284 31.1098 10.8457 31.1094H6.6626V25.1436H10.8522C11.1346 25.1431 11.4087 25.0466 11.6303 24.8696C11.852 24.6927 12.0083 24.4454 12.0741 24.1678C12.4829 22.4335 13.1622 20.7761 14.0866 19.2577C14.2345 19.0139 14.2969 18.7269 14.2637 18.4428C14.2306 18.1588 14.1039 17.8943 13.904 17.6919L10.9442 14.6956L15.1173 10.4772L18.0814 13.4735C18.2814 13.6757 18.5429 13.8038 18.8238 13.8373C19.1047 13.8708 19.3885 13.8076 19.6296 13.6581C21.1321 12.7241 22.7719 12.0374 24.4876 11.6237C24.7622 11.5571 25.0067 11.399 25.1817 11.175C25.3568 10.951 25.4523 10.674 25.4529 10.3885V6.14905H31.356V10.3769C31.3564 10.6627 31.452 10.9399 31.6274 11.164C31.8028 11.3881 32.0477 11.5459 32.3227 11.6121C34.0393 12.0258 35.6794 12.7146 37.1807 13.6523C37.4216 13.803 37.7058 13.867 37.9871 13.8337C38.2685 13.8005 38.5304 13.672 38.7303 13.4692L41.6916 10.4757L45.8654 14.6956L42.9041 17.6898C42.7041 17.8924 42.5774 18.1573 42.5446 18.4416C42.5117 18.7259 42.5746 19.0132 42.723 19.257C43.6509 20.7742 44.3323 22.4319 44.7413 24.1671C44.8067 24.4451 44.9628 24.6927 45.1845 24.87C45.4062 25.0472 45.6805 25.1439 45.9631 25.1443H50.1455V31.1108H45.9552C45.6727 31.1115 45.3986 31.2081 45.177 31.3852C44.9554 31.5623 44.7991 31.8096 44.7333 32.0873C44.3242 33.8217 43.6449 35.4794 42.7208 36.9982C42.5727 37.2416 42.5101 37.5285 42.5433 37.8124C42.5764 38.0962 42.7033 38.3605 42.9034 38.5625L45.8654 41.5595L41.6916 45.7779L38.7275 42.7823Z" fill="black"/>
<path d="M19.8827 23.4158C20.016 23.5143 20.1673 23.5853 20.3278 23.6248C20.4883 23.6642 20.6549 23.6712 20.8181 23.6455C20.9813 23.6198 21.1379 23.5619 21.2789 23.4749C21.4199 23.388 21.5426 23.2739 21.64 23.139C22.1877 22.3816 22.8556 21.7209 23.6166 21.1838C23.7592 21.0915 23.8819 20.971 23.9773 20.8296C24.0727 20.6882 24.1389 20.5288 24.172 20.3609C24.205 20.1931 24.2041 20.0202 24.1694 19.8526C24.1348 19.6851 24.067 19.5263 23.9701 19.3859C23.8733 19.2455 23.7494 19.1263 23.6059 19.0354C23.4624 18.9446 23.3022 18.884 23.135 18.8572C22.9677 18.8304 22.7968 18.8381 22.6326 18.8797C22.4683 18.9213 22.3141 18.996 22.1791 19.0993C21.1899 19.7976 20.3221 20.6569 19.611 21.6423C19.415 21.9141 19.3335 22.2534 19.3844 22.5858C19.4354 22.9182 19.6145 23.2166 19.8827 23.4158Z" fill="black"/>
<path d="M29.1366 17.1456C28.8037 17.1233 28.4756 17.2355 28.2246 17.4577C27.9735 17.6799 27.8201 17.9937 27.798 18.3303C27.7758 18.6668 27.8869 18.9985 28.1067 19.2522C28.3265 19.506 28.637 19.6612 28.9699 19.6835C30.5981 19.7948 32.1586 20.3847 33.4596 21.3806C34.7606 22.3765 35.7453 23.735 36.2926 25.2891C36.84 26.8432 36.9262 28.5251 36.5405 30.128C36.1549 31.7309 35.3143 33.185 34.122 34.3114C32.9298 35.4378 31.4379 36.1875 29.8297 36.4682C28.2216 36.7489 26.5674 36.5485 25.0705 35.8915C23.5736 35.2345 22.2992 34.1497 21.4041 32.7703C20.509 31.391 20.0322 29.7773 20.0322 28.1276C20.0322 27.7904 19.8997 27.467 19.6638 27.2285C19.4279 26.9901 19.108 26.8561 18.7744 26.8561C18.4408 26.8561 18.1209 26.9901 17.885 27.2285C17.6491 27.467 17.5166 27.7904 17.5166 28.1276C17.5166 30.273 18.1369 32.3716 19.3012 34.1654C20.4654 35.9592 22.1229 37.3699 24.0697 38.2241C26.0166 39.0783 28.168 39.3387 30.2593 38.9733C32.3506 38.608 34.2907 37.6327 35.841 36.1675C37.3913 34.7024 38.4843 32.8111 38.9854 30.7264C39.4865 28.6416 39.374 26.4543 38.6617 24.4333C37.9494 22.4124 36.6684 20.6459 34.9761 19.3512C33.2839 18.0564 31.2542 17.2898 29.1366 17.1456Z" fill="black"/>
<path d="M88.3384 59.9365H83.8649C83.4801 58.6151 82.9557 57.3395 82.3009 56.1315L85.4677 52.9296C85.5846 52.8116 85.6773 52.6715 85.7405 52.5173C85.8038 52.3631 85.8364 52.1978 85.8364 52.0308C85.8364 51.8638 85.8038 51.6985 85.7405 51.5443C85.6773 51.3901 85.5846 51.25 85.4677 51.132L79.515 45.1154C79.3983 44.9972 79.2596 44.9035 79.107 44.8395C78.9544 44.7755 78.7908 44.7426 78.6255 44.7426C78.4603 44.7426 78.2967 44.7755 78.1441 44.8395C77.9915 44.9035 77.8529 44.9972 77.7361 45.1154L74.5693 48.3159C73.3744 47.6541 72.1127 47.1238 70.8059 46.7342V42.212C70.8059 41.8748 70.6734 41.5514 70.4375 41.313C70.2016 41.0745 69.8817 40.9406 69.5481 40.9406H61.1294C60.7958 40.9406 60.4759 41.0745 60.24 41.313C60.0041 41.5514 59.8716 41.8748 59.8716 42.212V46.7429C58.5662 47.1319 57.3056 47.6604 56.1111 48.3195L52.9407 45.1154C52.824 44.9972 52.6854 44.9035 52.5328 44.8396C52.3803 44.7756 52.2167 44.7427 52.0516 44.7427C51.8864 44.7427 51.7229 44.7756 51.5703 44.8396C51.4178 44.9035 51.2792 44.9972 51.1625 45.1154L45.2091 51.132C44.9734 51.3705 44.841 51.6937 44.841 52.0308C44.841 52.3679 44.9734 52.6911 45.2091 52.9296L48.3809 56.1352C47.7288 57.3425 47.2062 58.6169 46.8219 59.9365H42.3384C42.0048 59.9365 41.6849 60.0705 41.449 60.3089C41.2131 60.5474 41.0806 60.8708 41.0806 61.208V69.7175C41.0806 70.0547 41.2131 70.3781 41.449 70.6166C41.6849 70.855 42.0048 70.989 42.3384 70.989H46.8119C47.1967 72.3104 47.7211 73.586 48.3759 74.794L45.2091 77.9952C44.9733 78.2338 44.8409 78.5572 44.8409 78.8944C44.8409 79.2315 44.9733 79.5549 45.2091 79.7935L51.1625 85.8116C51.2792 85.9297 51.4178 86.0235 51.5703 86.0874C51.7229 86.1514 51.8864 86.1843 52.0516 86.1843C52.2167 86.1843 52.3803 86.1514 52.5328 86.0874C52.6854 86.0235 52.824 85.9297 52.9407 85.8116L56.1075 82.6147C57.3024 83.2768 58.5644 83.8068 59.8716 84.1957V88.7178C59.8715 88.8848 59.9039 89.0502 59.9671 89.2045C60.0303 89.3588 60.1229 89.499 60.2398 89.6171C60.3566 89.7352 60.4953 89.8289 60.6479 89.8927C60.8006 89.9566 60.9642 89.9894 61.1294 89.9893H69.5474C69.7126 89.9894 69.8762 89.9566 70.0288 89.8927C70.1815 89.8289 70.3202 89.7352 70.437 89.6171C70.5538 89.499 70.6465 89.3588 70.7096 89.2045C70.7728 89.0502 70.8053 88.8848 70.8052 88.7178V84.1877C72.1106 83.7985 73.3712 83.2697 74.5657 82.6104L77.7361 85.8152C77.9733 86.0469 78.291 86.1751 78.6208 86.1723C78.9506 86.1695 79.2661 86.0358 79.4993 85.8001C79.7326 85.5644 79.8649 85.2455 79.8679 84.9122C79.8708 84.5788 79.7441 84.2576 79.515 84.0177L75.6618 80.1219C75.4616 79.9201 75.2001 79.7922 74.9193 79.7587C74.6385 79.7253 74.3548 79.7882 74.1136 79.9373C72.6108 80.8712 70.9708 81.5579 69.2548 81.9717C68.9802 82.0382 68.7356 82.1962 68.5605 82.4203C68.3855 82.6443 68.29 82.9214 68.2896 83.2069V87.442H62.3872V83.2141C62.3868 82.9284 62.2912 82.6511 62.1158 82.427C61.9404 82.2029 61.6955 82.0451 61.4205 81.979C59.7038 81.5652 58.0638 80.8765 56.5624 79.9388C56.3216 79.7882 56.0374 79.7243 55.7561 79.7575C55.4748 79.7908 55.2128 79.9192 55.0128 80.1219L52.0516 83.1153L47.8778 78.8947L50.839 75.9006C51.0394 75.6981 51.1663 75.4332 51.1992 75.1488C51.232 74.8644 51.169 74.577 51.0202 74.3334C50.0928 72.816 49.4117 71.1583 49.0026 69.4233C48.9372 69.1453 48.7811 68.8977 48.5594 68.7204C48.3377 68.5431 48.0634 68.4464 47.7808 68.446H43.5962V62.4795H47.7858C48.0683 62.4789 48.3424 62.3822 48.564 62.2051C48.7856 62.028 48.9419 61.7807 49.0077 61.503C49.4168 59.7686 50.0961 58.111 51.0202 56.5922C51.1683 56.3487 51.2309 56.0618 51.1977 55.7779C51.1646 55.4941 51.0377 55.2298 50.8376 55.0279L47.8778 52.0308L52.0516 47.8124L55.0157 50.8087C55.2153 51.0113 55.4768 51.1397 55.7577 51.1732C56.0385 51.2067 56.3224 51.1433 56.5632 50.9933C58.0659 50.0593 59.706 49.3726 61.4219 48.9589C61.6965 48.8922 61.941 48.7342 62.1161 48.5102C62.2911 48.2862 62.3866 48.0092 62.3872 47.7237V43.4879H68.2903V47.7157C68.2907 48.0015 68.3863 48.2788 68.5617 48.5029C68.7371 48.7269 68.982 48.8848 69.257 48.9509C70.9734 49.3651 72.6132 50.0541 74.1143 50.9918C74.3553 51.1425 74.6396 51.2064 74.921 51.1732C75.2025 51.1399 75.4645 51.0115 75.6647 50.8087L78.6259 47.8124L82.7997 52.0315L79.8377 55.0257C79.6375 55.2281 79.5107 55.4928 79.4779 55.7771C79.445 56.0614 79.508 56.3486 79.6566 56.5922C80.5841 58.1095 81.2652 59.7672 81.6741 61.5023C81.7394 61.7804 81.8955 62.0282 82.1172 62.2056C82.3389 62.383 82.6132 62.4798 82.896 62.4802H87.0784V68.4468H82.8888C82.6064 68.4472 82.3323 68.5437 82.1107 68.7207C81.889 68.8977 81.7328 69.1449 81.6669 69.4225C81.2577 71.1569 80.5784 72.8145 79.6544 74.3334C79.5066 74.5771 79.4442 74.864 79.4773 75.1479C79.5105 75.4318 79.6372 75.6961 79.837 75.8984L82.8011 78.8955L82.1392 79.5646C81.9101 79.8045 81.7834 80.1257 81.7863 80.459C81.7892 80.7924 81.9216 81.1113 82.1548 81.347C82.3881 81.5827 82.7036 81.7164 83.0334 81.7192C83.3632 81.722 83.6809 81.5938 83.9181 81.3621L85.4698 79.7942C85.5867 79.6762 85.6795 79.536 85.7428 79.3818C85.806 79.2275 85.8386 79.0621 85.8386 78.8951C85.8386 78.7281 85.806 78.5627 85.7428 78.4084C85.6795 78.2541 85.5867 78.114 85.4698 77.996L82.2994 74.7904C82.9513 73.583 83.4741 72.309 83.8591 70.9897H88.3405C88.5057 70.9898 88.6693 70.957 88.822 70.8931C88.9746 70.8293 89.1133 70.7356 89.2302 70.6175C89.347 70.4994 89.4396 70.3592 89.5028 70.2049C89.566 70.0506 89.5984 69.8852 89.5983 69.7182V61.208C89.5984 61.0408 89.5659 60.8753 89.5026 60.7208C89.4393 60.5664 89.3464 60.4261 89.2294 60.308C89.1123 60.1898 88.9734 60.0962 88.8205 60.0325C88.6676 59.9688 88.5038 59.9361 88.3384 59.9365Z" fill="black"/>
<path d="M65.3385 54.4561C63.185 54.4561 61.0799 55.1016 59.2893 56.311C57.4987 57.5205 56.1031 59.2395 55.279 61.2507C54.4549 63.2619 54.2393 65.475 54.6594 67.6101C55.0795 69.7451 56.1166 71.7063 57.6393 73.2457C59.1621 74.785 61.1022 75.8333 63.2143 76.258C65.3265 76.6827 67.5157 76.4647 69.5053 75.6316C71.4949 74.7985 73.1954 73.3878 74.3919 71.5777C75.5883 69.7677 76.2269 67.6397 76.2269 65.4628C76.2237 62.5446 75.0755 59.7469 73.0342 57.6835C70.9929 55.62 68.2253 54.4593 65.3385 54.4561ZM65.3385 73.9279C63.6826 73.9279 62.0638 73.4315 60.6869 72.5015C59.31 71.5715 58.2369 70.2497 57.6032 68.7031C56.9694 67.1566 56.8036 65.4548 57.1267 63.813C57.4498 62.1712 58.2472 60.6631 59.4181 59.4794C60.5891 58.2958 62.081 57.4897 63.7051 57.1631C65.3293 56.8365 67.0127 57.0041 68.5426 57.6447C70.0726 58.2853 71.3802 59.3702 72.3002 60.762C73.2202 62.1539 73.7113 63.7902 73.7113 65.4642C73.7084 67.7079 72.8253 69.8589 71.2557 71.4453C69.6861 73.0317 67.5581 73.924 65.3385 73.9265V73.9279Z" fill="black"/>
<path d="M56.0074 15.449C63.3155 17.6238 69.6269 22.3419 73.8245 28.7683C72.8178 29.6895 72.1813 30.9527 72.036 32.3175C71.8908 33.6824 72.247 35.0535 73.0368 36.1701C73.8267 37.2867 74.995 38.0707 76.3196 38.3731C77.6442 38.6754 79.0325 38.475 80.2203 37.8098C81.4082 37.1447 82.3127 36.0613 82.7617 34.7659C83.2107 33.4704 83.1729 32.0533 82.6555 30.7841C82.138 29.515 81.1771 28.4825 79.9555 27.8831C78.7339 27.2836 77.3369 27.1591 76.0304 27.5332C71.5083 20.5228 64.6605 15.3731 56.7183 13.0099C56.5588 12.9591 56.3909 12.941 56.2245 12.9566C56.058 12.9721 55.8963 13.0211 55.7487 13.1006C55.6012 13.1801 55.4708 13.2885 55.3652 13.4195C55.2596 13.5506 55.1809 13.7015 55.1337 13.8637C55.0865 14.0258 55.0717 14.1958 55.0903 14.3638C55.1088 14.5317 55.1603 14.6943 55.2418 14.8419C55.3232 14.9895 55.4329 15.1192 55.5645 15.2234C55.6961 15.3277 55.8462 15.4044 56.0074 15.449ZM80.5089 32.8989C80.5089 33.4984 80.333 34.0844 80.0035 34.5829C79.6741 35.0814 79.2057 35.4699 78.6578 35.6993C78.1099 35.9288 77.507 35.9888 76.9253 35.8718C76.3436 35.7549 75.8093 35.4662 75.3899 35.0422C74.9706 34.6183 74.685 34.0782 74.5693 33.4902C74.4536 32.9022 74.513 32.2927 74.7399 31.7389C74.9669 31.185 75.3512 30.7116 75.8443 30.3785C76.3375 30.0454 76.9172 29.8676 77.5103 29.8676C78.3053 29.8684 79.0676 30.188 79.6298 30.7563C80.192 31.3246 80.5081 32.0952 80.5089 32.8989Z" fill="black"/>
<path d="M37.7358 78.1412C30.4291 75.9657 24.1191 71.2476 19.9223 64.8219C20.929 63.9007 21.5656 62.6375 21.7108 61.2727C21.8561 59.9079 21.4999 58.5367 20.71 57.4201C19.9202 56.3035 18.7518 55.5195 17.4272 55.2171C16.1027 54.9148 14.7144 55.1152 13.5265 55.7804C12.3386 56.4455 11.4342 57.5289 10.9851 58.8244C10.5361 60.1198 10.5739 61.537 11.0914 62.8061C11.6088 64.0752 12.5698 65.1077 13.7914 65.7071C15.013 66.3066 16.4099 66.4311 17.7165 66.057C22.2376 73.0669 29.084 78.2165 37.025 80.5803C37.1405 80.6148 37.2603 80.6322 37.3807 80.6319C37.6828 80.6312 37.9746 80.5207 38.2027 80.3204C38.4308 80.1202 38.58 79.8437 38.623 79.5414C38.666 79.2391 38.6 78.9313 38.4369 78.6742C38.2739 78.4171 38.0248 78.2279 37.7351 78.1412H37.7358ZM13.2343 60.6914C13.2346 60.0919 13.4107 59.506 13.7404 59.0077C14.0701 58.5094 14.5385 58.1211 15.0864 57.8919C15.6344 57.6627 16.2373 57.6029 16.8188 57.72C17.4004 57.8371 17.9346 58.126 18.3538 58.5499C18.773 58.9739 19.0585 59.514 19.1741 60.102C19.2897 60.6899 19.2302 61.2993 19.0032 61.8531C18.7762 62.4069 18.3919 62.8803 17.8988 63.2133C17.4057 63.5463 16.826 63.724 16.233 63.724C15.4377 63.7233 14.6752 63.4035 14.113 62.8348C13.5507 62.2662 13.2347 61.4953 13.2343 60.6914Z" fill="black"/>
</svg>
