<svg width="84" height="84" viewBox="0 0 84 84" fill="none" xmlns="http://www.w3.org/2000/svg">
<g opacity="0.5">
<path d="M41.9204 76.1754C60.8796 76.1754 76.249 60.8059 76.249 41.8467C76.249 22.8875 60.8796 7.51807 41.9204 7.51807C22.9612 7.51807 7.59173 22.8875 7.59173 41.8467C7.59173 60.8059 22.9612 76.1754 41.9204 76.1754Z" fill="#33AEFF"/>
<path d="M68.6967 16.1826C68.7004 16.3936 68.6624 16.6032 68.585 16.7995C68.5076 16.9958 68.3923 17.175 68.2456 17.3267C68.099 17.4784 67.9239 17.5998 67.7304 17.6839C67.5368 17.7679 67.3286 17.813 67.1176 17.8166H38.6935C38.2793 17.7897 37.8909 17.6062 37.6071 17.3034C37.3232 17.0006 37.1653 16.6011 37.1653 16.186C37.1653 15.771 37.3232 15.3715 37.6071 15.0686C37.8909 14.7658 38.2793 14.5823 38.6935 14.5554H39.1741C39.1672 14.425 39.1672 14.2944 39.1741 14.164C39.1546 12.7795 39.6424 11.4356 40.5454 10.3859C41.4484 9.33619 42.7043 8.65311 44.0762 8.46549C44.1165 6.58803 44.8803 4.79865 46.2081 3.47078C47.536 2.14291 49.3254 1.37914 51.2028 1.33887C52.1481 1.34116 53.0828 1.53745 53.9491 1.91559C54.9612 2.37075 55.8573 3.04866 56.5706 3.89869C57.2839 4.74872 57.796 5.74891 58.0686 6.82458C58.7582 6.5102 59.5077 6.3486 60.2656 6.35085C61.0059 6.36336 61.7364 6.52159 62.4155 6.81649C63.0946 7.11139 63.709 7.53718 64.2235 8.06955C64.738 8.60192 65.1426 9.23043 65.4142 9.9192C65.6857 10.608 65.819 11.3435 65.8062 12.0837C65.8081 12.9366 65.6254 13.7798 65.2707 14.5554H67.0627C67.2777 14.5517 67.4913 14.5912 67.6907 14.6716C67.8902 14.752 68.0715 14.8716 68.2239 15.0233C68.3763 15.1751 68.4967 15.3559 68.5779 15.555C68.6591 15.7541 68.6995 15.9675 68.6967 16.1826Z" fill="white"/>
<path d="M68.6967 16.1825C68.7004 16.3935 68.6624 16.6031 68.585 16.7994C68.5076 16.9958 68.3923 17.1749 68.2457 17.3266C68.099 17.4784 67.9239 17.5998 67.7304 17.6838C67.5368 17.7679 67.3286 17.813 67.1176 17.8166H51.7864C55.7892 17.8166 57.5468 16.3748 57.588 13.9512C57.5941 13.4863 57.4781 13.0279 57.2515 12.6219C57.025 12.2159 56.696 11.8764 56.2972 11.6374C56.149 11.5403 56.044 11.3895 56.0043 11.2168C55.9647 11.044 55.9933 10.8626 56.0844 10.7105C58.3981 6.43318 53.9697 1.91553 53.9697 1.91553C54.9818 2.37069 55.8779 3.0486 56.5912 3.89863C57.3045 4.74866 57.8166 5.74885 58.0892 6.82452C58.7788 6.51014 59.5283 6.34854 60.2862 6.35079C61.069 6.35025 61.8426 6.51937 62.5537 6.8465C63.2649 7.17363 63.8967 7.65099 64.4056 8.24573C65.3302 9.31023 65.8375 10.6737 65.8337 12.0837C65.8356 12.9365 65.6529 13.7797 65.2982 14.5553H67.0901C67.3029 14.5553 67.5135 14.5975 67.7097 14.6796C67.906 14.7616 68.084 14.8818 68.2335 15.0331C68.383 15.1845 68.5009 15.3641 68.5804 15.5614C68.6599 15.7587 68.6994 15.9698 68.6967 16.1825Z" fill="#E9F2FF"/>
<path d="M68.6967 16.1829C68.7004 16.3939 68.6624 16.6035 68.585 16.7998C68.5076 16.9961 68.3923 17.1753 68.2457 17.327C68.099 17.4788 67.9239 17.6001 67.7304 17.6842C67.5368 17.7682 67.3286 17.8133 67.1176 17.8169H58.9268C59.6404 17.5865 60.2686 17.1473 60.73 16.5561C61.1914 15.965 61.4649 15.249 61.5152 14.5008C61.5353 14.3554 61.6015 14.2202 61.704 14.1152C61.8066 14.0102 61.9401 13.9408 62.085 13.9172C63.2659 13.7593 65.8818 12.8942 64.4331 8.24609C65.3576 9.31059 65.865 10.6741 65.8612 12.084C65.8631 12.9369 65.6804 13.7801 65.3256 14.5557H67.1176C67.5425 14.5629 67.9472 14.7382 68.2432 15.0432C68.5392 15.3481 68.7022 15.7579 68.6967 16.1829Z" fill="#B9D7FF"/>
<path d="M67.1176 18.5034H38.6935C38.1033 18.4925 37.5395 18.2573 37.1167 17.8454C36.6939 17.4335 36.4439 16.876 36.4177 16.2863C36.3914 15.6967 36.5909 15.1191 36.9754 14.6713C37.3599 14.2235 37.9006 13.9391 38.4875 13.8759C38.5314 12.4715 39.0397 11.1212 39.933 10.0366C40.8263 8.95205 42.054 8.19431 43.424 7.88208C43.5581 6.08996 44.3064 4.39898 45.5426 3.09461C46.7789 1.79023 48.4273 0.952344 50.2097 0.722388C51.992 0.492432 53.7991 0.884491 55.326 1.83238C56.8528 2.78028 58.0058 4.22594 58.5904 5.92535C59.1626 5.75235 59.7571 5.66444 60.3549 5.66445C62.0302 5.69336 63.6257 6.38531 64.7917 7.58864C65.9577 8.79197 66.5991 10.4085 66.5752 12.0839C66.5753 12.687 66.4945 13.2874 66.3349 13.869H67.1451C67.7378 13.9013 68.2956 14.1595 68.7038 14.5905C69.112 15.0215 69.3395 15.5926 69.3395 16.1862C69.3395 16.7798 69.112 17.3509 68.7038 17.7819C68.2956 18.2129 67.7378 18.4711 67.1451 18.5034H67.1176ZM38.6935 15.2421C38.457 15.2623 38.2367 15.3705 38.0762 15.5453C37.9157 15.7202 37.8266 15.9488 37.8266 16.1862C37.8266 16.4235 37.9157 16.6522 38.0762 16.827C38.2367 17.0018 38.457 17.11 38.6935 17.1302H67.1176C67.361 17.1213 67.5911 17.0168 67.7582 16.8395C67.9252 16.6622 68.0157 16.4263 68.0101 16.1827C68.0138 16.0623 67.9936 15.9422 67.9506 15.8296C67.9076 15.717 67.8428 15.614 67.7598 15.5265C67.6768 15.4391 67.5774 15.3689 67.4671 15.3201C67.3569 15.2713 67.2381 15.2448 67.1176 15.2421H65.3256C65.209 15.2424 65.0942 15.2129 64.992 15.1564C64.8899 15.0999 64.8039 15.0184 64.7421 14.9195C64.6754 14.8187 64.6365 14.7022 64.6293 14.5817C64.6221 14.4612 64.6467 14.3408 64.7009 14.2329C65.0156 13.5482 65.1773 12.8031 65.1746 12.0496C65.1985 10.7383 64.7019 9.47102 63.7934 8.52519C62.8848 7.57937 61.6385 7.03211 60.3274 7.00327C59.6646 7.00215 59.0092 7.1426 58.405 7.41521C58.3146 7.45704 58.2162 7.4787 58.1166 7.4787C58.017 7.4787 57.9186 7.45704 57.8283 7.41521C57.7376 7.3724 57.6575 7.31026 57.5934 7.23316C57.5294 7.15606 57.483 7.06588 57.4575 6.96894C57.0886 5.43331 56.1695 4.08624 54.8741 3.18279C53.5788 2.27935 51.9971 1.88224 50.4286 2.06667C48.8601 2.2511 47.4136 3.00427 46.3631 4.18355C45.3127 5.36283 44.7311 6.88636 44.7285 8.46567C44.7297 8.63434 44.6688 8.79757 44.5573 8.9242C44.4459 9.05083 44.2917 9.132 44.1243 9.15224C42.9248 9.32442 41.8296 9.9288 41.0444 10.8518C40.2593 11.7747 39.8383 12.9527 39.8607 14.1642V14.5075C39.8673 14.6016 39.8544 14.6961 39.8229 14.785C39.7913 14.874 39.7418 14.9554 39.6774 15.0244C39.613 15.0933 39.535 15.1482 39.4484 15.1857C39.3618 15.2232 39.2684 15.2424 39.1741 15.2421H38.6935Z" fill="#353166"/>
<path d="M47.2207 6.60522C47.1458 6.55481 47.0815 6.49011 47.0317 6.41482C46.9818 6.33954 46.9473 6.25516 46.93 6.16651C46.9128 6.07786 46.9132 5.98669 46.9313 5.89821C46.9494 5.80973 46.9847 5.72568 47.0353 5.65088C47.4927 4.96314 48.1118 4.39815 48.8384 4.00551C49.5651 3.61288 50.3769 3.40459 51.2028 3.39893C51.3849 3.39893 51.5596 3.47126 51.6883 3.60002C51.8171 3.72878 51.8894 3.90341 51.8894 4.0855C51.8894 4.26759 51.8171 4.44222 51.6883 4.57098C51.5596 4.69974 51.3849 4.77207 51.2028 4.77207C50.6009 4.77814 50.0097 4.93148 49.4807 5.21871C48.9517 5.50595 48.5011 5.91833 48.1682 6.41985C48.0665 6.56924 47.9099 6.67248 47.7325 6.70719C47.5552 6.74189 47.3713 6.70525 47.2207 6.60522Z" fill="#353166"/>
<path d="M32.3084 38.1528C32.312 38.3638 32.274 38.5734 32.1966 38.7697C32.1192 38.966 32.0039 39.1452 31.8573 39.2969C31.7106 39.4487 31.5355 39.57 31.342 39.6541C31.1484 39.7381 30.9402 39.7833 30.7292 39.7868H2.30512C1.89094 39.7599 1.50251 39.5765 1.21869 39.2736C0.934876 38.9708 0.776936 38.5713 0.776936 38.1562C0.776936 37.7412 0.934876 37.3417 1.21869 37.0388C1.50251 36.736 1.89094 36.5525 2.30512 36.5256H2.78572C2.77886 36.3953 2.77886 36.2646 2.78572 36.1343C2.76624 34.7497 3.254 33.4059 4.15702 32.3561C5.06004 31.3064 6.31592 30.6233 7.68785 30.4357C7.72812 28.5582 8.49189 26.7689 9.81976 25.441C11.1476 24.1131 12.937 23.3494 14.8145 23.3091C15.7597 23.3114 16.6944 23.5077 17.5608 23.8858C18.5838 24.335 19.4912 25.011 20.2144 25.8627C20.9377 26.7144 21.4577 27.7194 21.7351 28.8017C22.4248 28.4873 23.1742 28.3257 23.9322 28.3279C24.6724 28.3404 25.403 28.4987 26.0821 28.7936C26.7612 29.0885 27.3755 29.5143 27.89 30.0466C28.4046 30.579 28.8092 31.2075 29.0807 31.8963C29.3523 32.585 29.4855 33.3206 29.4728 34.0608C29.4747 34.9137 29.292 35.7569 28.9373 36.5325H30.7292C31.1529 36.5397 31.5566 36.714 31.8524 37.0175C32.1482 37.321 32.312 37.729 32.3084 38.1528Z" fill="white"/>
<path d="M32.3083 38.1531C32.312 38.3641 32.274 38.5737 32.1966 38.77C32.1192 38.9663 32.0039 39.1455 31.8573 39.2972C31.7106 39.449 31.5355 39.5703 31.342 39.6544C31.1484 39.7385 30.9402 39.7836 30.7292 39.7871H15.3981C19.4008 39.7871 21.1584 38.3453 21.1996 35.9217C21.2057 35.4569 21.0897 34.9985 20.8632 34.5925C20.6367 34.1865 20.3076 33.847 19.9088 33.608C19.7606 33.5108 19.6556 33.3601 19.616 33.1874C19.5763 33.0146 19.605 32.8332 19.696 32.6811C22.0372 28.4312 17.5814 23.9136 17.5814 23.9136C18.5975 24.3625 19.4989 25.0354 20.2183 25.8819C20.9376 26.7285 21.4561 27.7267 21.7351 28.802C22.4248 28.4876 23.1742 28.326 23.9322 28.3282C24.7149 28.3277 25.4885 28.4968 26.1997 28.8239C26.9108 29.1511 27.5426 29.6284 28.0516 30.2232C28.9761 31.2877 29.4835 32.6512 29.4797 34.0611C29.4816 34.914 29.2989 35.7572 28.9441 36.5328H30.7292C31.1529 36.54 31.5566 36.7143 31.8524 37.0178C32.1481 37.3213 32.312 37.7293 32.3083 38.1531Z" fill="#E9F2FF"/>
<path d="M32.3084 38.1531C32.312 38.3641 32.274 38.5737 32.1966 38.77C32.1192 38.9663 32.0039 39.1455 31.8573 39.2972C31.7106 39.449 31.5355 39.5703 31.342 39.6544C31.1484 39.7385 30.9402 39.7836 30.7292 39.7871H22.5384C23.2521 39.5567 23.8802 39.1175 24.3416 38.5264C24.803 37.9352 25.0766 37.2192 25.1268 36.471C25.1469 36.3256 25.2131 36.1904 25.3157 36.0854C25.4182 35.9804 25.5518 35.911 25.6967 35.8874C26.8776 35.7295 29.4934 34.8644 28.0447 30.2163C28.9693 31.2808 29.4766 32.6443 29.4728 34.0543C29.4747 34.9071 29.292 35.7503 28.9373 36.5259H30.7292C31.1541 36.5331 31.5589 36.7084 31.8548 37.0134C32.1508 37.3184 32.3139 37.7282 32.3084 38.1531Z" fill="#B9D7FF"/>
<path d="M30.7292 40.4736H2.30512C1.71496 40.4628 1.1511 40.2275 0.728309 39.8156C0.305514 39.4037 0.0555556 38.8462 0.0293092 38.2565C0.00306278 37.6669 0.202501 37.0894 0.587031 36.6415C0.971562 36.1937 1.51228 35.9093 2.09914 35.8461C2.143 34.4417 2.65137 33.0915 3.54464 32.0069C4.43791 30.9223 5.66564 30.1645 7.0356 29.8523C7.1697 28.0602 7.91802 26.3692 9.15427 25.0648C10.3905 23.7604 12.0389 22.9226 13.8213 22.6926C15.6037 22.4626 17.4108 22.8547 18.9376 23.8026C20.4644 24.7505 21.6174 26.1962 22.202 27.8956C22.7742 27.7226 23.3687 27.6347 23.9665 27.6347C25.6418 27.6636 27.2373 28.3555 28.4034 29.5589C29.5694 30.7622 30.2107 32.3787 30.1868 34.0541C30.1869 34.6572 30.1061 35.2576 29.9465 35.8392H30.7292C31.322 35.8715 31.8798 36.1297 32.288 36.5607C32.6962 36.9917 32.9237 37.5628 32.9237 38.1564C32.9237 38.75 32.6962 39.3211 32.288 39.7521C31.8798 40.1831 31.322 40.4413 30.7292 40.4736ZM2.30512 37.2124C2.06864 37.2325 1.84835 37.3407 1.68783 37.5156C1.5273 37.6904 1.43823 37.9191 1.43823 38.1564C1.43823 38.3937 1.5273 38.6224 1.68783 38.7972C1.84835 38.972 2.06864 39.0802 2.30512 39.1004H30.7292C30.9727 39.0915 31.2028 38.987 31.3698 38.8097C31.5368 38.6324 31.6274 38.3965 31.6218 38.153C31.6254 38.0325 31.6052 37.9124 31.5622 37.7998C31.5193 37.6872 31.4544 37.5842 31.3714 37.4967C31.2885 37.4093 31.189 37.3391 31.0788 37.2903C30.9685 37.2415 30.8498 37.215 30.7292 37.2124H28.9373C28.8206 37.2126 28.7058 37.1831 28.6037 37.1266C28.5016 37.0702 28.4155 36.9886 28.3537 36.8897C28.2871 36.789 28.2482 36.6725 28.2409 36.5519C28.2337 36.4314 28.2584 36.311 28.3125 36.2031C28.6272 35.5184 28.7889 34.7733 28.7862 34.0198C28.8102 32.7085 28.3135 31.4412 27.405 30.4954C26.4965 29.5496 25.2502 29.0023 23.939 28.9735C23.2762 28.9724 22.6208 29.1128 22.0166 29.3854C21.9262 29.4273 21.8278 29.4489 21.7283 29.4489C21.6287 29.4489 21.5303 29.4273 21.4399 29.3854C21.3493 29.3426 21.2691 29.2805 21.2051 29.2034C21.141 29.1263 21.0946 29.0361 21.0692 28.9392C20.7168 27.5412 19.9127 26.2988 18.7816 25.4049C17.6506 24.511 16.256 24.0156 14.8145 23.9958C13.1068 24.0223 11.4764 24.712 10.2681 25.919C9.05983 27.126 8.36841 28.7557 8.34009 30.4633C8.34131 30.632 8.28039 30.7952 8.16896 30.9219C8.05752 31.0485 7.90337 31.1297 7.73591 31.1499C6.54122 31.3215 5.44979 31.9219 4.66526 32.8391C3.88072 33.7563 3.45669 34.9276 3.47229 36.1344V36.4777C3.47889 36.5718 3.46603 36.6663 3.43449 36.7552C3.40296 36.8442 3.35344 36.9256 3.28901 36.9946C3.22459 37.0635 3.14665 37.1184 3.06005 37.1559C2.97346 37.1934 2.88007 37.2126 2.78572 37.2124H2.30512Z" fill="#353166"/>
<path d="M11.21 28.6922C11.075 28.6937 10.9429 28.6529 10.8324 28.5754C10.7574 28.525 10.6932 28.4603 10.6433 28.385C10.5934 28.3098 10.5589 28.2254 10.5417 28.1367C10.5244 28.0481 10.5249 27.9569 10.543 27.8684C10.561 27.7799 10.5964 27.6959 10.647 27.6211C11.1043 26.9334 11.7234 26.3684 12.4501 25.9757C13.1767 25.5831 13.9886 25.3748 14.8145 25.3691C14.9966 25.3691 15.1712 25.4415 15.3 25.5702C15.4287 25.699 15.501 25.8736 15.501 26.0557C15.501 26.2378 15.4287 26.4124 15.3 26.5412C15.1712 26.67 14.9966 26.7423 14.8145 26.7423C14.2126 26.7484 13.6213 26.9017 13.0923 27.1889C12.5633 27.4762 12.1127 27.8885 11.7798 28.3901C11.7168 28.4832 11.6319 28.5595 11.5326 28.6122C11.4332 28.6649 11.3224 28.6923 11.21 28.6922Z" fill="#353166"/>
<path d="M83.1147 45.019C83.1184 45.23 83.0804 45.4396 83.003 45.6359C82.9256 45.8323 82.8103 46.0114 82.6637 46.1631C82.517 46.3149 82.3419 46.4362 82.1484 46.5203C81.9548 46.6044 81.7466 46.6495 81.5356 46.653H53.1115C52.6973 46.6262 52.3089 46.4427 52.0251 46.1398C51.7413 45.837 51.5833 45.4375 51.5833 45.0224C51.5833 44.6074 51.7413 44.2079 52.0251 43.905C52.3089 43.6022 52.6973 43.4187 53.1115 43.3918H53.5921C53.5853 43.2615 53.5853 43.1308 53.5921 43.0005C53.5726 41.6159 54.0604 40.2721 54.9634 39.2223C55.8664 38.1726 57.1223 37.4895 58.4942 37.3019C58.5345 35.4245 59.2983 33.6351 60.6262 32.3072C61.954 30.9793 63.7434 30.2156 65.6209 30.1753C66.5661 30.1776 67.5008 30.3739 68.3672 30.752C69.3792 31.2072 70.2753 31.8851 70.9886 32.7351C71.7019 33.5851 72.214 34.5853 72.4866 35.661C73.1762 35.3466 73.9257 35.185 74.6836 35.1873C75.4239 35.1998 76.1544 35.358 76.8335 35.6529C77.5126 35.9478 78.127 36.3736 78.6415 36.906C79.156 37.4383 79.5606 38.0669 79.8322 38.7556C80.1038 39.4444 80.237 40.1799 80.2243 40.9202C80.2262 41.773 80.0435 42.6162 79.6887 43.3918H81.4807C81.6957 43.3881 81.9093 43.4276 82.1088 43.508C82.3082 43.5884 82.4895 43.708 82.6419 43.8597C82.7943 44.0115 82.9147 44.1923 82.9959 44.3914C83.0771 44.5906 83.1175 44.804 83.1147 45.019Z" fill="white"/>
<path d="M83.1147 45.0188C83.1184 45.2298 83.0804 45.4394 83.003 45.6358C82.9256 45.8321 82.8103 46.0112 82.6637 46.163C82.517 46.3147 82.3419 46.4361 82.1484 46.5201C81.9548 46.6042 81.7466 46.6493 81.5356 46.6529H66.2045C70.2072 46.6529 71.9648 45.2111 72.006 42.7875C72.0121 42.3226 71.8961 41.8642 71.6696 41.4582C71.4431 41.0522 71.114 40.7127 70.7152 40.4737C70.567 40.3766 70.462 40.2258 70.4224 40.0531C70.3827 39.8803 70.4114 39.6989 70.5024 39.5468C72.8436 35.2969 68.3878 30.7793 68.3878 30.7793C69.3998 31.2345 70.2959 31.9124 71.0092 32.7624C71.7225 33.6124 72.2346 34.6126 72.5072 35.6883C73.1969 35.3739 73.9463 35.2123 74.7042 35.2146C75.487 35.214 76.2606 35.3831 76.9718 35.7103C77.6829 36.0374 78.3147 36.5148 78.8237 37.1095C79.7482 38.174 80.2555 39.5375 80.2517 40.9474C80.2536 41.8003 80.0709 42.6435 79.7162 43.4191H81.5082C81.9331 43.4191 82.3407 43.5874 82.6418 43.8872C82.9429 44.187 83.1129 44.5939 83.1147 45.0188Z" fill="#E9F2FF"/>
<path d="M83.1148 45.0188C83.1184 45.2298 83.0804 45.4394 83.003 45.6358C82.9256 45.8321 82.8103 46.0112 82.6637 46.1629C82.517 46.3147 82.3419 46.4361 82.1484 46.5201C81.9548 46.6042 81.7466 46.6493 81.5356 46.6529H73.3448C74.0585 46.4224 74.6866 45.9832 75.148 45.3921C75.6094 44.8009 75.883 44.0849 75.9332 43.3367C75.9533 43.1913 76.0195 43.0562 76.1221 42.9511C76.2246 42.8461 76.3582 42.7767 76.5031 42.7531C77.684 42.5952 80.2998 41.7301 78.8511 37.082C79.7757 38.1465 80.283 39.51 80.2792 40.92C80.2811 41.7728 80.0984 42.616 79.7437 43.3916H81.5356C81.9605 43.3989 82.3653 43.5741 82.6612 43.8791C82.9572 44.1841 83.1203 44.5939 83.1148 45.0188Z" fill="#B9D7FF"/>
<path d="M81.5356 47.3393H53.1115C52.5214 47.3285 51.9575 47.0932 51.5347 46.6813C51.1119 46.2694 50.8619 45.7119 50.8357 45.1223C50.8095 44.5326 51.0089 43.9551 51.3934 43.5073C51.778 43.0595 52.3187 42.775 52.9055 42.7118C52.9494 41.3074 53.4578 39.9572 54.351 38.8726C55.2443 37.788 56.472 37.0303 57.842 36.718C57.9761 34.9259 58.7244 33.2349 59.9607 31.9305C61.1969 30.6262 62.8453 29.7883 64.6277 29.5583C66.4101 29.3284 68.2172 29.7204 69.744 30.6683C71.2708 31.6162 72.4238 33.0619 73.0084 34.7613C73.5806 34.5883 74.1751 34.5004 74.7729 34.5004C76.4482 34.5293 78.0437 35.2212 79.2098 36.4246C80.3758 37.6279 81.0171 39.2444 80.9932 40.9198C80.9933 41.5229 80.9125 42.1233 80.7529 42.7049H81.5631C82.1701 42.7122 82.7494 42.9598 83.1742 43.3935C83.5989 43.8272 83.8343 44.4117 83.8288 45.0187C83.823 45.3246 83.757 45.6264 83.6345 45.9068C83.5119 46.1872 83.3353 46.4407 83.1147 46.6527C82.9104 46.8664 82.6655 47.0371 82.3943 47.155C82.1232 47.2729 81.8313 47.3355 81.5356 47.3393ZM53.1115 44.0781C52.875 44.0983 52.6547 44.2065 52.4942 44.3813C52.3337 44.5561 52.2446 44.7848 52.2446 45.0221C52.2446 45.2595 52.3337 45.4881 52.4942 45.663C52.6547 45.8378 52.875 45.946 53.1115 45.9662H81.5356C81.7791 45.9572 82.0092 45.8528 82.1762 45.6755C82.3432 45.4982 82.4338 45.2622 82.4282 45.0187C82.4318 44.8982 82.4116 44.7782 82.3686 44.6655C82.3257 44.5529 82.2608 44.4499 82.1778 44.3625C82.0949 44.275 81.9954 44.2049 81.8852 44.156C81.7749 44.1072 81.6561 44.0807 81.5356 44.0781H79.7437C79.627 44.0783 79.5122 44.0488 79.4101 43.9923C79.308 43.9359 79.2219 43.8543 79.1601 43.7554C79.0934 43.6547 79.0545 43.5382 79.0473 43.4176C79.0401 43.2971 79.0648 43.1768 79.1189 43.0688C79.4336 42.3841 79.5953 41.6391 79.5926 40.8855C79.6166 39.5743 79.1199 38.307 78.2114 37.3611C77.3029 36.4153 76.0566 35.8681 74.7454 35.8392C74.0826 35.8381 73.4272 35.9785 72.823 36.2511C72.7326 36.293 72.6342 36.3146 72.5347 36.3146C72.4351 36.3146 72.3367 36.293 72.2463 36.2511C72.1557 36.2083 72.0755 36.1462 72.0115 36.0691C71.9474 35.992 71.901 35.9018 71.8755 35.8049C71.5067 34.2692 70.5875 32.9222 69.2922 32.0187C67.9968 31.1153 66.4151 30.7182 64.8466 30.9026C63.2781 31.087 61.8317 31.8402 60.7812 33.0195C59.7307 34.1988 59.1491 35.7223 59.1465 37.3016C59.1477 37.4703 59.0868 37.6335 58.9753 37.7601C58.8639 37.8868 58.7098 37.9679 58.5423 37.9882C57.3429 38.1604 56.2476 38.7647 55.4625 39.6877C54.6773 40.6107 54.2563 41.7886 54.2787 43.0002V43.3434C54.2853 43.4376 54.2724 43.532 54.2409 43.621C54.2094 43.7099 54.1598 43.7914 54.0954 43.8603C54.031 43.9292 53.953 43.9842 53.8664 44.0216C53.7799 44.0591 53.6865 44.0783 53.5921 44.0781H53.1115Z" fill="#353166"/>
<path d="M61.6388 35.4412C61.5638 35.3907 61.4996 35.326 61.4497 35.2508C61.3998 35.1755 61.3653 35.0911 61.3481 35.0025C61.3309 34.9138 61.3313 34.8226 61.3494 34.7341C61.3674 34.6457 61.4028 34.5616 61.4534 34.4868C61.9107 33.7991 62.5298 33.2341 63.2565 32.8415C63.9831 32.4488 64.795 32.2405 65.6209 32.2349C65.803 32.2349 65.9776 32.3072 66.1064 32.436C66.2351 32.5647 66.3074 32.7393 66.3074 32.9214C66.3074 33.1035 66.2351 33.2782 66.1064 33.4069C65.9776 33.5357 65.803 33.608 65.6209 33.608C65.019 33.6141 64.4277 33.7674 63.8987 34.0547C63.3697 34.3419 62.9191 34.7543 62.5862 35.2558C62.4845 35.4052 62.328 35.5084 62.1506 35.5431C61.9732 35.5778 61.7893 35.5412 61.6388 35.4412Z" fill="#353166"/>
<path d="M54.2787 30.8619H53.5921V30.1753C53.5921 29.9933 53.5198 29.8186 53.391 29.6899C53.2623 29.5611 53.0876 29.4888 52.9055 29.4888C52.7234 29.4888 52.5488 29.5611 52.4201 29.6899C52.2913 29.8186 52.219 29.9933 52.219 30.1753V30.8619H51.5324C51.3503 30.8619 51.1757 30.9342 51.0469 31.063C50.9182 31.1918 50.8458 31.3664 50.8458 31.5485C50.8458 31.7306 50.9182 31.9052 51.0469 32.034C51.1757 32.1627 51.3503 32.2351 51.5324 32.2351H52.219V32.9216C52.219 33.1037 52.2913 33.2784 52.4201 33.4071C52.5488 33.5359 52.7234 33.6082 52.9055 33.6082C53.0876 33.6082 53.2623 33.5359 53.391 33.4071C53.5198 33.2784 53.5921 33.1037 53.5921 32.9216V32.2351H54.2787C54.4608 32.2351 54.6354 32.1627 54.7642 32.034C54.8929 31.9052 54.9653 31.7306 54.9653 31.5485C54.9653 31.3664 54.8929 31.1918 54.7642 31.063C54.6354 30.9342 54.4608 30.8619 54.2787 30.8619Z" fill="white"/>
<path d="M53.5921 24.6822C53.9713 24.6822 54.2787 24.3748 54.2787 23.9957C54.2787 23.6165 53.9713 23.3091 53.5921 23.3091C53.2129 23.3091 52.9055 23.6165 52.9055 23.9957C52.9055 24.3748 53.2129 24.6822 53.5921 24.6822Z" fill="white"/>
<path d="M32.9949 13.0108C33.3741 13.0108 33.6815 12.7035 33.6815 12.3243C33.6815 11.9451 33.3741 11.6377 32.9949 11.6377C32.6157 11.6377 32.3083 11.9451 32.3083 12.3243C32.3083 12.7035 32.6157 13.0108 32.9949 13.0108Z" fill="white"/>
<path d="M20.6366 60.3844C21.0158 60.3844 21.3232 60.077 21.3232 59.6978C21.3232 59.3186 21.0158 59.0112 20.6366 59.0112C20.2574 59.0112 19.95 59.3186 19.95 59.6978C19.95 60.077 20.2574 60.3844 20.6366 60.3844Z" fill="white"/>
</g>
<path d="M24.0695 20.563H28.1889V23.3093H24.0695V20.563Z" fill="#8597A1"/>
<path d="M28.1889 23.9959H24.0695C23.8874 23.9959 23.7127 23.9236 23.584 23.7948C23.4552 23.6661 23.3829 23.4914 23.3829 23.3093V20.563C23.3829 20.3809 23.4552 20.2063 23.584 20.0776C23.7127 19.9488 23.8874 19.8765 24.0695 19.8765H28.1889C28.371 19.8765 28.5456 19.9488 28.6744 20.0776C28.8031 20.2063 28.8755 20.3809 28.8755 20.563V23.3093C28.8755 23.4914 28.8031 23.6661 28.6744 23.7948C28.5456 23.9236 28.371 23.9959 28.1889 23.9959ZM24.756 22.6228H27.5023V21.2496H24.756V22.6228Z" fill="#353166"/>
<path d="M28.1889 83.0413C28.0068 83.0413 27.8322 82.9689 27.7034 82.8402C27.5747 82.7114 27.5023 82.5368 27.5023 82.3547V12.3243C27.5023 12.1422 27.5747 11.9675 27.7034 11.8388C27.8322 11.71 28.0068 11.6377 28.1889 11.6377C28.371 11.6377 28.5456 11.71 28.6744 11.8388C28.8031 11.9675 28.8755 12.1422 28.8755 12.3243V82.3547C28.8755 82.5368 28.8031 82.7114 28.6744 82.8402C28.5456 82.9689 28.371 83.0413 28.1889 83.0413Z" fill="#353166"/>
<path d="M16.5172 30.175C21.0674 30.175 24.756 26.4863 24.756 21.9361C24.756 17.3859 21.0674 13.6973 16.5172 13.6973C11.967 13.6973 8.27829 17.3859 8.27829 21.9361C8.27829 26.4863 11.967 30.175 16.5172 30.175Z" fill="#90A4AE"/>
<path d="M16.5172 27.429C19.5506 27.429 22.0097 24.9699 22.0097 21.9364C22.0097 18.903 19.5506 16.4438 16.5172 16.4438C13.4837 16.4438 11.0246 18.903 11.0246 21.9364C11.0246 24.9699 13.4837 27.429 16.5172 27.429Z" fill="#FFDC7B"/>
<path d="M16.5172 25.3691C18.4131 25.3691 19.95 23.8322 19.95 21.9363C19.95 20.0404 18.4131 18.5034 16.5172 18.5034C14.6213 18.5034 13.0843 20.0404 13.0843 21.9363C13.0843 23.8322 14.6213 25.3691 16.5172 25.3691Z" fill="#FFF9E6"/>
<path d="M78.9953 82.3547H57.025C56.5673 82.3568 56.1163 82.2445 55.7131 82.0279C55.3098 81.8114 54.9671 81.4975 54.716 81.1148C54.465 80.7321 54.3136 80.2927 54.2756 79.8366C54.2376 79.3804 54.3141 78.922 54.4984 78.503L62.6755 58.9014C63.0255 58.0665 63.2052 57.1702 63.2041 56.265V45.2798H72.8161V56.265C72.815 57.1702 72.9948 58.0665 73.3448 58.9014L81.5013 78.503C81.6848 78.9204 81.7615 79.377 81.7245 79.8314C81.6875 80.2859 81.5379 80.724 81.2892 81.1062C81.0406 81.4883 80.7007 81.8026 80.3002 82.0206C79.8997 82.2386 79.4513 82.3534 78.9953 82.3547Z" fill="#E9F2FF"/>
<path d="M57.2653 78.503L65.4217 58.9014C65.7718 58.0665 65.9515 57.1702 65.9504 56.265V45.2798H63.2041V56.265C63.2052 57.1702 63.0255 58.0665 62.6755 58.9014L54.519 78.503C54.3354 78.9204 54.2587 79.377 54.2957 79.8314C54.3328 80.2859 54.4824 80.724 54.731 81.1062C54.9797 81.4883 55.3196 81.8026 55.7201 82.0206C56.1205 82.2386 56.569 82.3534 57.025 82.3547H59.7713C59.3153 82.3534 58.8668 82.2386 58.4664 82.0206C58.0659 81.8026 57.726 81.4883 57.4773 81.1062C57.2286 80.724 57.0791 80.2859 57.042 79.8314C57.005 79.377 57.0817 78.9204 57.2653 78.503Z" fill="white"/>
<path d="M81.5013 78.503L73.3448 58.9014C72.9948 58.0665 72.815 57.1702 72.8162 56.265V45.2798H68.6967V56.265C68.6956 57.1702 68.8753 58.0665 69.2254 58.9014L77.3819 78.503C77.5654 78.9204 77.6421 79.377 77.6051 79.8314C77.5681 80.2859 77.4185 80.724 77.1698 81.1062C76.9212 81.4883 76.5812 81.8026 76.1808 82.0206C75.7803 82.2386 75.3318 82.3534 74.8759 82.3547H78.9953C79.4513 82.3534 79.8997 82.2386 80.3002 82.0206C80.7007 81.8026 81.0406 81.4883 81.2892 81.1062C81.5379 80.724 81.6875 80.2859 81.7245 79.8314C81.7615 79.377 81.6848 78.9204 81.5013 78.503Z" fill="#B9D7FF"/>
<path d="M78.9953 82.3549H57.025C56.5673 82.357 56.1163 82.2447 55.7131 82.0281C55.3098 81.8116 54.9671 81.4977 54.716 81.115C54.465 80.7323 54.3136 80.2929 54.2756 79.8367C54.2376 79.3806 54.3141 78.9222 54.4984 78.5032L60.9178 63.1309H75.1024L81.5013 78.5032C81.6848 78.9206 81.7615 79.3771 81.7245 79.8316C81.6875 80.2861 81.5379 80.7241 81.2892 81.1063C81.0406 81.4885 80.7007 81.8028 80.3002 82.0208C79.8997 82.2387 79.4513 82.3536 78.9953 82.3549Z" fill="#FFDC7B"/>
<path d="M81.5013 78.5032L75.1024 63.1309H70.983L77.3819 78.5032C77.5654 78.9206 77.6421 79.3771 77.6051 79.8316C77.5681 80.2861 77.4185 80.7241 77.1698 81.1063C76.9212 81.4885 76.5813 81.8028 76.1808 82.0208C75.7803 82.2387 75.3318 82.3536 74.8759 82.3549H78.9953C79.4513 82.3536 79.8997 82.2387 80.3002 82.0208C80.7007 81.8028 81.0406 81.4885 81.2893 81.1063C81.5379 80.7241 81.6875 80.2861 81.7245 79.8316C81.7615 79.3771 81.6848 78.9206 81.5013 78.5032Z" fill="#FFB260"/>
<path d="M57.2653 78.5032L63.6641 63.1309H60.9178L54.519 78.5032C54.3354 78.9206 54.2587 79.3771 54.2957 79.8316C54.3328 80.2861 54.4824 80.7241 54.731 81.1063C54.9797 81.4885 55.3196 81.8028 55.7201 82.0208C56.1205 82.2387 56.569 82.3536 57.025 82.3549H59.7713C59.3153 82.3536 58.8668 82.2387 58.4664 82.0208C58.0659 81.8028 57.726 81.4885 57.4773 81.1063C57.2286 80.7241 57.0791 80.2861 57.042 79.8316C57.005 79.3771 57.0817 78.9206 57.2653 78.5032Z" fill="#FFF9E6"/>
<path d="M41.9204 83.041C41.7383 83.041 41.5636 82.9687 41.4349 82.8399C41.3061 82.7112 41.2338 82.5366 41.2338 82.3545V63.1304C41.2338 62.9483 41.3061 62.7737 41.4349 62.6449C41.5636 62.5162 41.7383 62.4438 41.9204 62.4438C42.1025 62.4438 42.2771 62.5162 42.4058 62.6449C42.5346 62.7737 42.6069 62.9483 42.6069 63.1304V82.3545C42.6069 82.5366 42.5346 82.7112 42.4058 82.8399C42.2771 82.9687 42.1025 83.041 41.9204 83.041Z" fill="#353166"/>
<path d="M38.4875 79.6084H45.3532C45.7174 79.6084 46.0667 79.7531 46.3242 80.0106C46.5817 80.2681 46.7264 80.6174 46.7264 80.9815V82.3547H37.1144V80.9815C37.1144 80.6174 37.259 80.2681 37.5165 80.0106C37.7741 79.7531 38.1233 79.6084 38.4875 79.6084Z" fill="#90A4AE"/>
<path d="M42.6069 79.6084H45.3532C45.7174 79.6084 46.0667 79.7531 46.3242 80.0106C46.5817 80.2681 46.7264 80.6174 46.7264 80.9815V82.3547H42.6069V79.6084Z" fill="#8597A1"/>
<path d="M38.4875 79.6084H39.8606V82.3547H37.1144V80.9815C37.1144 80.6174 37.259 80.2681 37.5165 80.0106C37.7741 79.7531 38.1233 79.6084 38.4875 79.6084Z" fill="#B2C6D1"/>
<path d="M44.6667 76.8622C44.6667 79.6085 41.9204 79.6085 41.9204 79.6085C41.9204 79.6085 39.1741 79.6085 39.1741 76.8622C39.1741 74.8024 41.9204 72.0562 41.9204 72.0562C41.9204 72.0562 44.6667 74.8024 44.6667 76.8622Z" fill="#FFB242"/>
<path d="M41.9204 72.0562V79.6085C41.9204 79.6085 39.1741 79.6085 39.1741 76.8622C39.1741 74.8024 41.9204 72.0562 41.9204 72.0562Z" fill="#FFDFB0"/>
<path d="M46.7264 34.9814V21.9365H37.1144V34.9814C33.1479 36.1383 29.7319 38.6871 27.4934 42.1599C25.2549 45.6327 24.3442 49.7964 24.9285 53.8866C25.5129 57.9767 27.5529 61.7189 30.6743 64.426C33.7956 67.1331 37.7886 68.6235 41.9204 68.6235C46.0521 68.6235 50.0451 67.1331 53.1665 64.426C56.2878 61.7189 58.3279 57.9767 58.9122 53.8866C59.4965 49.7964 58.5858 45.6327 56.3473 42.1599C54.1089 38.6871 50.6928 36.1383 46.7264 34.9814Z" fill="#E9F2FF"/>
<path d="M46.7264 34.9814V21.9365H42.6069V36.3546C45.9397 37.3262 48.8995 39.2856 51.0956 41.9741C53.2918 44.6626 54.6212 47.9539 54.9082 51.4135C55.1953 54.8731 54.4266 58.3384 52.7035 61.3521C50.9805 64.3659 48.3841 66.7863 45.2571 68.2939C49.0262 67.546 52.4353 65.5549 54.9386 62.6395C57.4418 59.7241 58.8944 56.0531 59.0637 52.2142C59.233 48.3753 58.1093 44.5907 55.8724 41.4662C53.6356 38.3418 50.415 36.0583 46.7264 34.9814Z" fill="#B9D7FF"/>
<path d="M27.5023 52.8323C27.5023 49.1185 28.7069 45.5048 30.9352 42.5337C33.1635 39.5626 36.2953 37.3944 39.8606 36.3546V21.9365H37.1143V34.9814C33.6763 35.984 30.6379 38.0369 28.4249 40.8525C26.2118 43.6682 24.9349 47.1055 24.7729 50.6831C24.6109 54.2607 25.5721 57.7994 27.5217 60.8034C29.4713 63.8075 32.3117 66.1265 35.6451 67.4357C33.1555 65.8976 31.1005 63.7485 29.6753 61.1925C28.2501 58.6366 27.5021 55.7587 27.5023 52.8323Z" fill="white"/>
<path d="M59.0847 51.4587C59.0854 54.1087 58.4725 56.723 57.294 59.0966C56.1154 61.4702 54.4033 63.5386 52.2917 65.1399C50.1801 66.7412 47.7264 67.8318 45.1229 68.3262C42.5194 68.8207 39.8367 68.7056 37.2851 67.9899C34.7335 67.2743 32.3822 65.9775 30.4156 64.2012C28.4489 62.4249 26.9203 60.2174 25.9494 57.7516C24.9785 55.2857 24.5918 52.6286 24.8195 49.9883C25.0473 47.3481 25.8833 44.7964 27.262 42.5332H56.5787C58.2248 45.2187 59.0924 48.3088 59.0847 51.4587Z" fill="#FF5948"/>
<path d="M56.5787 42.5332H51.5324C53.0537 44.5606 54.1072 46.8998 54.617 49.3827C55.1269 51.8656 55.0805 54.4307 54.4812 56.8935C53.8819 59.3564 52.7445 61.6559 51.1509 63.627C49.5572 65.5981 47.5468 67.1917 45.264 68.2934C47.9726 67.755 50.5113 66.571 52.6645 64.8418C54.8178 63.1127 56.522 60.8896 57.6326 58.3611C58.7432 55.8327 59.2273 53.0736 59.0438 50.3181C58.8603 47.5626 58.0147 44.8921 56.5787 42.5332Z" fill="#E84B3A"/>
<path d="M27.5023 52.8318C27.4969 49.1171 28.702 45.5017 30.9352 42.5332H27.262C25.9602 44.6719 25.142 47.0696 24.8649 49.558C24.5878 52.0464 24.8584 54.5653 25.6578 56.938C26.4572 59.3108 27.7661 61.4799 29.4926 63.2933C31.219 65.1066 33.3213 66.5203 35.652 67.4352C33.1611 65.8979 31.1047 63.7492 29.6783 61.1932C28.2519 58.6372 27.5029 55.7589 27.5023 52.8318Z" fill="#FFC8C2"/>
<path d="M46.7264 17.8169H37.1144C35.9768 17.8169 35.0546 18.7391 35.0546 19.8766C35.0546 21.0142 35.9768 21.9363 37.1144 21.9363H46.7264C47.8639 21.9363 48.7861 21.0142 48.7861 19.8766C48.7861 18.7391 47.8639 17.8169 46.7264 17.8169Z" fill="#E9F2FF"/>
<path d="M44.6667 17.8169H46.7264C47.2726 17.8169 47.7965 18.0339 48.1828 18.4202C48.5691 18.8064 48.7861 19.3303 48.7861 19.8766C48.7861 20.4229 48.5691 20.9468 48.1828 21.3331C47.7965 21.7193 47.2726 21.9363 46.7264 21.9363H44.6667V17.8169Z" fill="#B9D7FF"/>
<path d="M37.1144 17.8169H37.8009V21.9363H37.1144C36.5681 21.9363 36.0442 21.7193 35.6579 21.3331C35.2716 20.9468 35.0546 20.4229 35.0546 19.8766C35.0546 19.3303 35.2716 18.8064 35.6579 18.4202C36.0442 18.0339 36.5681 17.8169 37.1144 17.8169Z" fill="white"/>
<path d="M41.9204 69.3096C37.6674 69.3103 33.5539 67.7925 30.3206 65.0295C27.0873 62.2666 24.9468 58.44 24.2844 54.2389C23.622 50.0378 24.4814 45.7382 26.7076 42.1144C28.9339 38.4907 32.3809 35.7808 36.4278 34.4729V21.9361C36.4278 21.754 36.5001 21.5794 36.6289 21.4506C36.7576 21.3218 36.9323 21.2495 37.1144 21.2495H46.7264C46.9085 21.2495 47.0831 21.3218 47.2119 21.4506C47.3406 21.5794 47.413 21.754 47.413 21.9361V34.4729C51.4599 35.7808 54.9068 38.4907 57.1331 42.1144C59.3594 45.7382 60.2187 50.0378 59.5563 54.2389C58.894 58.44 56.7534 62.2666 53.5202 65.0295C50.2869 67.7925 46.1734 69.3103 41.9204 69.3096ZM37.8009 22.6227V34.981C37.807 35.1342 37.7617 35.285 37.6721 35.4094C37.5825 35.5339 37.4538 35.6247 37.3066 35.6675C33.4988 36.7781 30.2194 39.225 28.0705 42.5589C25.9215 45.8928 25.0473 49.8899 25.6082 53.8165C26.1692 57.7431 28.1277 61.3355 31.1241 63.9344C34.1206 66.5332 37.9539 67.9639 41.9204 67.9639C45.8868 67.9639 49.7202 66.5332 52.7166 63.9344C55.7131 61.3355 57.6716 57.7431 58.2325 53.8165C58.7935 49.8899 57.9192 45.8928 55.7703 42.5589C53.6213 39.225 50.3419 36.7781 46.5341 35.6675C46.3869 35.6247 46.2583 35.5339 46.1687 35.4094C46.0791 35.285 46.0337 35.1342 46.0398 34.981V22.6227H37.8009Z" fill="#353166"/>
<path d="M46.7264 22.623H37.1143C36.386 22.623 35.6875 22.3336 35.1724 21.8186C34.6574 21.3036 34.3681 20.605 34.3681 19.8767C34.3681 19.1483 34.6574 18.4498 35.1724 17.9347C35.6875 17.4197 36.386 17.1304 37.1143 17.1304H46.7264C47.4547 17.1304 48.1533 17.4197 48.6683 17.9347C49.1833 18.4498 49.4727 19.1483 49.4727 19.8767C49.4727 20.605 49.1833 21.3036 48.6683 21.8186C48.1533 22.3336 47.4547 22.623 46.7264 22.623ZM37.1143 18.5035C36.7502 18.5035 36.4009 18.6482 36.1434 18.9057C35.8859 19.1632 35.7412 19.5125 35.7412 19.8767C35.7412 20.2408 35.8859 20.5901 36.1434 20.8476C36.4009 21.1051 36.7502 21.2498 37.1143 21.2498H46.7264C47.0906 21.2498 47.4398 21.1051 47.6973 20.8476C47.9548 20.5901 48.0995 20.2408 48.0995 19.8767C48.0995 19.5125 47.9548 19.1632 47.6973 18.9057C47.4398 18.6482 47.0906 18.5035 46.7264 18.5035H37.1143Z" fill="#353166"/>
<path d="M72.8161 41.1602H63.2041C62.0666 41.1602 61.1444 42.0823 61.1444 43.2199C61.1444 44.3574 62.0666 45.2796 63.2041 45.2796H72.8161C73.9537 45.2796 74.8759 44.3574 74.8759 43.2199C74.8759 42.0823 73.9537 41.1602 72.8161 41.1602Z" fill="#E9F2FF"/>
<path d="M70.7564 41.1602H72.8162C73.3624 41.1602 73.8863 41.3772 74.2726 41.7634C74.6589 42.1497 74.8759 42.6736 74.8759 43.2199C74.8759 43.7661 74.6589 44.29 74.2726 44.6763C73.8863 45.0626 73.3624 45.2796 72.8162 45.2796H70.7564V41.1602Z" fill="#B9D7FF"/>
<path d="M63.2041 41.1602H63.8907V45.2796H63.2041C62.6579 45.2796 62.134 45.0626 61.7477 44.6763C61.3614 44.29 61.1444 43.7661 61.1444 43.2199C61.1444 42.6736 61.3614 42.1497 61.7477 41.7634C62.134 41.3772 62.6579 41.1602 63.2041 41.1602Z" fill="white"/>
<path d="M72.8162 45.9662H63.2041C62.4758 45.9662 61.7772 45.6769 61.2622 45.1618C60.7472 44.6468 60.4578 43.9483 60.4578 43.2199C60.4578 42.4916 60.7472 41.793 61.2622 41.278C61.7772 40.763 62.4758 40.4736 63.2041 40.4736H72.8162C73.5445 40.4736 74.243 40.763 74.7581 41.278C75.2731 41.793 75.5624 42.4916 75.5624 43.2199C75.5624 43.9483 75.2731 44.6468 74.7581 45.1618C74.243 45.6769 73.5445 45.9662 72.8162 45.9662ZM63.2041 41.8468C62.84 41.8468 62.4907 41.9914 62.2332 42.249C61.9757 42.5065 61.831 42.8557 61.831 43.2199C61.831 43.5841 61.9757 43.9334 62.2332 44.1909C62.4907 44.4484 62.84 44.5931 63.2041 44.5931H72.8162C73.1803 44.5931 73.5296 44.4484 73.7871 44.1909C74.0446 43.9334 74.1893 43.5841 74.1893 43.2199C74.1893 42.8557 74.0446 42.5065 73.7871 42.249C73.5296 41.9914 73.1803 41.8468 72.8162 41.8468H63.2041Z" fill="#353166"/>
<path d="M17.2037 39.7871H7.59172C6.45417 39.7871 5.532 40.7093 5.532 41.8468C5.532 42.9844 6.45417 43.9065 7.59172 43.9065H17.2037C18.3413 43.9065 19.2635 42.9844 19.2635 41.8468C19.2635 40.7093 18.3413 39.7871 17.2037 39.7871Z" fill="#E9F2FF"/>
<path d="M15.144 39.7871H17.2037C17.75 39.7871 18.2739 40.0041 18.6602 40.3904C19.0465 40.7767 19.2635 41.3006 19.2635 41.8468C19.2635 42.3931 19.0465 42.917 18.6602 43.3033C18.2739 43.6895 17.75 43.9065 17.2037 43.9065H15.144V39.7871Z" fill="#B9D7FF"/>
<path d="M7.59172 39.7871H8.27829V43.9065H7.59172C7.04545 43.9065 6.52155 43.6895 6.13528 43.3033C5.749 42.917 5.532 42.3931 5.532 41.8468C5.532 41.3006 5.749 40.7767 6.13528 40.3904C6.52155 40.0041 7.04545 39.7871 7.59172 39.7871Z" fill="white"/>
<path d="M17.2037 44.5932H7.59172C6.86336 44.5932 6.16483 44.3038 5.6498 43.7888C5.13477 43.2738 4.84543 42.5752 4.84543 41.8469C4.84543 41.1185 5.13477 40.42 5.6498 39.905C6.16483 39.3899 6.86336 39.1006 7.59172 39.1006H17.2037C17.9321 39.1006 18.6306 39.3899 19.1457 39.905C19.6607 40.42 19.95 41.1185 19.95 41.8469C19.95 42.5752 19.6607 43.2738 19.1457 43.7888C18.6306 44.3038 17.9321 44.5932 17.2037 44.5932ZM7.59172 40.4737C7.22754 40.4737 6.87827 40.6184 6.62076 40.8759C6.36324 41.1334 6.21857 41.4827 6.21857 41.8469C6.21857 42.2111 6.36324 42.5603 6.62076 42.8178C6.87827 43.0754 7.22754 43.22 7.59172 43.22H17.2037C17.5679 43.22 17.9172 43.0754 18.1747 42.8178C18.4322 42.5603 18.5769 42.2111 18.5769 41.8469C18.5769 41.4827 18.4322 41.1334 18.1747 40.8759C17.9172 40.6184 17.5679 40.4737 17.2037 40.4737H7.59172Z" fill="#353166"/>
<path d="M41.9204 69.3101C37.186 69.3101 32.6456 67.4294 29.2979 64.0817C25.9502 60.734 24.0695 56.1935 24.0695 51.4592C24.0623 48.1831 24.9655 44.9694 26.6784 42.1767C26.7395 42.0765 26.8251 41.9936 26.9273 41.9359C27.0295 41.8782 27.1447 41.8477 27.262 41.8472H56.5787C56.696 41.8477 56.8113 41.8782 56.9134 41.9359C57.0156 41.9936 57.1013 42.0765 57.1623 42.1767C58.8752 44.9694 59.7785 48.1831 59.7713 51.4592C59.7713 56.1935 57.8905 60.734 54.5429 64.0817C51.1952 67.4294 46.6547 69.3101 41.9204 69.3101ZM27.6534 43.2203C26.2059 45.7252 25.4434 48.5669 25.4426 51.4599C25.4418 54.3529 26.2026 57.1951 27.6486 59.7008C29.0946 62.2065 31.1749 64.2873 33.6801 65.734C36.1854 67.1808 39.0274 67.9424 41.9204 67.9424C44.8134 67.9424 47.6554 67.1808 50.1606 65.734C52.6659 64.2873 54.7461 62.2065 56.1921 59.7008C57.6381 57.1951 58.3989 54.3529 58.3981 51.4599C58.3973 48.5669 57.6348 45.7252 56.1873 43.2203H27.6534Z" fill="#353166"/>
<path d="M43.9801 45.2797C45.4968 45.2797 46.7264 44.0501 46.7264 42.5334C46.7264 41.0167 45.4968 39.7871 43.9801 39.7871C42.4634 39.7871 41.2338 41.0167 41.2338 42.5334C41.2338 44.0501 42.4634 45.2797 43.9801 45.2797Z" fill="#FFC8C2"/>
<path d="M43.9801 45.9663C43.3011 45.9663 42.6374 45.765 42.0729 45.3878C41.5084 45.0106 41.0684 44.4744 40.8085 43.8472C40.5487 43.2199 40.4807 42.5296 40.6132 41.8637C40.7456 41.1978 41.0726 40.5861 41.5527 40.1061C42.0328 39.626 42.6445 39.299 43.3104 39.1665C43.9763 39.0341 44.6665 39.1021 45.2938 39.3619C45.9211 39.6217 46.4572 40.0617 46.8344 40.6263C47.2116 41.1908 47.4129 41.8545 47.4129 42.5335C47.4129 43.4439 47.0513 44.3171 46.4075 44.9609C45.7637 45.6046 44.8905 45.9663 43.9801 45.9663ZM43.9801 40.4737C43.5727 40.4737 43.1745 40.5945 42.8358 40.8209C42.497 41.0472 42.233 41.3689 42.0772 41.7452C41.9213 42.1216 41.8805 42.5357 41.9599 42.9353C42.0394 43.3348 42.2356 43.7018 42.5236 43.9899C42.8117 44.278 43.1787 44.4741 43.5783 44.5536C43.9778 44.6331 44.3919 44.5923 44.7683 44.4364C45.1447 44.2805 45.4664 44.0165 45.6927 43.6778C45.919 43.3391 46.0398 42.9408 46.0398 42.5335C46.0398 41.9872 45.8228 41.4633 45.4365 41.077C45.0503 40.6907 44.5264 40.4737 43.9801 40.4737Z" fill="#353166"/>
<path d="M35.0546 51.4588C36.1922 51.4588 37.1144 50.5366 37.1144 49.3991C37.1144 48.2615 36.1922 47.3394 35.0546 47.3394C33.9171 47.3394 32.9949 48.2615 32.9949 49.3991C32.9949 50.5366 33.9171 51.4588 35.0546 51.4588Z" fill="#FFC8C2"/>
<path d="M35.0546 52.1454C34.5115 52.1454 33.9805 51.9844 33.5289 51.6826C33.0773 51.3808 32.7253 50.9519 32.5174 50.4501C32.3095 49.9483 32.2551 49.3961 32.3611 48.8633C32.4671 48.3306 32.7286 47.8413 33.1127 47.4572C33.4968 47.0731 33.9861 46.8116 34.5189 46.7056C35.0516 46.5996 35.6038 46.654 36.1056 46.8619C36.6074 47.0697 37.0363 47.4217 37.3381 47.8734C37.6399 48.325 37.8009 48.856 37.8009 49.3991C37.8009 50.1275 37.5116 50.826 36.9966 51.341C36.4815 51.8561 35.783 52.1454 35.0546 52.1454ZM35.0546 48.026C34.7831 48.026 34.5176 48.1065 34.2918 48.2574C34.0659 48.4083 33.8899 48.6227 33.786 48.8736C33.6821 49.1246 33.6549 49.4006 33.7079 49.667C33.7609 49.9334 33.8916 50.178 34.0837 50.3701C34.2757 50.5621 34.5204 50.6929 34.7867 50.7459C35.0531 50.7989 35.3292 50.7717 35.5801 50.6677C35.831 50.5638 36.0455 50.3878 36.1964 50.162C36.3472 49.9362 36.4278 49.6707 36.4278 49.3991C36.4278 49.0349 36.2831 48.6857 36.0256 48.4282C35.7681 48.1706 35.4188 48.026 35.0546 48.026Z" fill="#353166"/>
<path d="M41.2338 58.3245C42.3713 58.3245 43.2935 57.4023 43.2935 56.2648C43.2935 55.1272 42.3713 54.2051 41.2338 54.2051C40.0962 54.2051 39.1741 55.1272 39.1741 56.2648C39.1741 57.4023 40.0962 58.3245 41.2338 58.3245Z" fill="#FFC8C2"/>
<path d="M41.2338 59.0111C40.6906 59.0111 40.1597 58.8501 39.708 58.5483C39.2564 58.2465 38.9044 57.8176 38.6966 57.3158C38.4887 56.814 38.4343 56.2618 38.5403 55.7291C38.6462 55.1963 38.9078 54.707 39.2919 54.3229C39.676 53.9388 40.1653 53.6773 40.698 53.5713C41.2307 53.4654 41.7829 53.5197 42.2848 53.7276C42.7866 53.9355 43.2155 54.2875 43.5173 54.7391C43.819 55.1907 43.9801 55.7217 43.9801 56.2648C43.9801 56.9932 43.6907 57.6917 43.1757 58.2068C42.6607 58.7218 41.9622 59.0111 41.2338 59.0111ZM41.2338 54.8917C40.9622 54.8917 40.6967 54.9722 40.4709 55.1231C40.2451 55.274 40.0691 55.4885 39.9652 55.7394C39.8612 55.9903 39.8341 56.2664 39.887 56.5327C39.94 56.7991 40.0708 57.0438 40.2628 57.2358C40.4549 57.4278 40.6995 57.5586 40.9659 57.6116C41.2323 57.6646 41.5084 57.6374 41.7593 57.5335C42.0102 57.4295 42.2246 57.2535 42.3755 57.0277C42.5264 56.8019 42.6069 56.5364 42.6069 56.2648C42.6069 55.9007 42.4623 55.5514 42.2048 55.2939C41.9472 55.0364 41.598 54.8917 41.2338 54.8917Z" fill="#353166"/>
<path d="M59.0847 63.817H24.756C24.5739 63.817 24.3993 63.7447 24.2706 63.6159C24.1418 63.4871 24.0695 63.3125 24.0695 63.1304C24.0695 62.9483 24.1418 62.7737 24.2706 62.6449C24.3993 62.5162 24.5739 62.4438 24.756 62.4438H59.0847C59.2668 62.4438 59.4414 62.5162 59.5702 62.6449C59.6989 62.7737 59.7713 62.9483 59.7713 63.1304C59.7713 63.3125 59.6989 63.4871 59.5702 63.6159C59.4414 63.7447 59.2668 63.817 59.0847 63.817Z" fill="#353166"/>
<path d="M22.6963 83.0413H22.5521C22.4637 83.0226 22.3798 82.9865 22.3053 82.9353C22.2308 82.884 22.1672 82.8186 22.118 82.7426C22.0689 82.6667 22.0353 82.5819 22.0191 82.4929C22.0028 82.4039 22.0043 82.3127 22.0235 82.2243L26.1429 63.0002C26.1811 62.8182 26.2902 62.6587 26.4459 62.557C26.6017 62.4553 26.7916 62.4196 26.9737 62.4578C27.1557 62.4961 27.3152 62.6051 27.4169 62.7609C27.5186 62.9167 27.5543 63.1065 27.5161 63.2886L23.3966 82.5126C23.3599 82.6686 23.2698 82.8069 23.1419 82.9034C23.014 83 22.8564 83.0488 22.6963 83.0413Z" fill="#353166"/>
<path d="M61.1444 83.041C60.9847 83.0445 60.8288 82.9923 60.7035 82.8933C60.5782 82.7943 60.4913 82.6547 60.4578 82.4986L56.3384 63.2745C56.3173 63.1843 56.3148 63.0906 56.3309 62.9993C56.347 62.908 56.3815 62.8209 56.4321 62.7433C56.4828 62.6657 56.5487 62.5991 56.6258 62.5476C56.7029 62.4962 56.7897 62.4608 56.8808 62.4438C56.9692 62.4246 57.0604 62.4231 57.1494 62.4394C57.2384 62.4556 57.3232 62.4892 57.3991 62.5384C57.4751 62.5875 57.5405 62.6511 57.5918 62.7256C57.643 62.8001 57.6791 62.884 57.6978 62.9724L61.8173 82.1965C61.8364 82.2849 61.8379 82.3761 61.8217 82.4651C61.8054 82.5541 61.7718 82.6389 61.7227 82.7148C61.6735 82.7908 61.6099 82.8562 61.5354 82.9075C61.4609 82.9587 61.377 82.9948 61.2886 83.0135L61.1444 83.041Z" fill="#353166"/>
<path d="M46.7264 83.0413H37.1144C36.9323 83.0413 36.7576 82.969 36.6289 82.8402C36.5001 82.7115 36.4278 82.5368 36.4278 82.3547V80.9816C36.4278 80.4353 36.6448 79.9114 37.0311 79.5252C37.4173 79.1389 37.9412 78.9219 38.4875 78.9219H45.3532C45.8995 78.9219 46.4234 79.1389 46.8097 79.5252C47.1959 79.9114 47.4129 80.4353 47.4129 80.9816V82.3547C47.4129 82.5368 47.3406 82.7115 47.2119 82.8402C47.0831 82.969 46.9085 83.0413 46.7264 83.0413ZM37.8009 81.6682H46.0398V80.9816C46.0398 80.7995 45.9675 80.6249 45.8387 80.4961C45.71 80.3674 45.5353 80.295 45.3532 80.295H38.4875C38.3054 80.295 38.1308 80.3674 38.002 80.4961C37.8733 80.6249 37.8009 80.7995 37.8009 80.9816V81.6682Z" fill="#353166"/>
<path d="M41.9204 80.2947C41.4649 80.312 41.0108 80.2351 40.5864 80.0687C40.1621 79.9023 39.7767 79.6501 39.4544 79.3278C39.1321 79.0055 38.8798 78.6201 38.7135 78.1958C38.5471 77.7714 38.4702 77.3173 38.4875 76.8618C38.4875 74.5824 41.1308 71.8704 41.4329 71.5683C41.4967 71.504 41.5727 71.4529 41.6563 71.418C41.74 71.3832 41.8297 71.3652 41.9204 71.3652C42.011 71.3652 42.1007 71.3832 42.1844 71.418C42.2681 71.4529 42.344 71.504 42.4078 71.5683C42.7099 71.8704 45.3532 74.5824 45.3532 76.8618C45.3706 77.3173 45.2937 77.7714 45.1273 78.1958C44.9609 78.6201 44.7087 79.0055 44.3864 79.3278C44.0641 79.6501 43.6787 79.9023 43.2543 80.0687C42.83 80.2351 42.3758 80.312 41.9204 80.2947ZM41.9204 73.0651C41.0828 74.0194 39.8607 75.674 39.8607 76.8618C39.8607 77.4081 40.0777 77.932 40.4639 78.3182C40.8502 78.7045 41.3741 78.9215 41.9204 78.9215C42.4666 78.9215 42.9905 78.7045 43.3768 78.3182C43.7631 77.932 43.9801 77.4081 43.9801 76.8618C43.9801 75.674 42.758 74.0194 41.9204 73.0651Z" fill="#353166"/>
<path d="M83.1147 83.0411H52.9055C52.7234 83.0411 52.5488 82.9688 52.4201 82.84C52.2913 82.7113 52.219 82.5366 52.219 82.3545C52.219 82.1725 52.2913 81.9978 52.4201 81.8691C52.5488 81.7403 52.7234 81.668 52.9055 81.668H83.1147C83.2968 81.668 83.4715 81.7403 83.6002 81.8691C83.729 81.9978 83.8013 82.1725 83.8013 82.3545C83.8013 82.5366 83.729 82.7113 83.6002 82.84C83.4715 82.9688 83.2968 83.0411 83.1147 83.0411Z" fill="#353166"/>
<path d="M49.4727 83.0411H0.72599C0.5439 83.0411 0.369267 82.9688 0.24051 82.84C0.111752 82.7113 0.0394173 82.5366 0.0394173 82.3545C0.0394173 82.1725 0.111752 81.9978 0.24051 81.8691C0.369267 81.7403 0.5439 81.668 0.72599 81.668H49.4727C49.6548 81.668 49.8294 81.7403 49.9581 81.8691C50.0869 81.9978 50.1592 82.1725 50.1592 82.3545C50.1592 82.5366 50.0869 82.7113 49.9581 82.84C49.8294 82.9688 49.6548 83.0411 49.4727 83.0411Z" fill="#353166"/>
<path d="M7.59172 43.9067H17.2037V77.5488C17.2037 78.8234 16.6974 80.0459 15.7961 80.9472C14.8948 81.8485 13.6724 82.3548 12.3977 82.3548C11.1231 82.3548 9.90067 81.8485 8.99936 80.9472C8.09806 80.0459 7.59172 78.8234 7.59172 77.5488V43.9067Z" fill="#E9F2FF"/>
<path d="M10.338 77.5488V43.9067H7.59172V77.5488C7.59172 78.8234 8.09806 80.0459 8.99936 80.9472C9.90067 81.8485 11.1231 82.3548 12.3977 82.3548C12.8625 82.3527 13.3247 82.2857 13.7709 82.1557C12.7788 81.8599 11.9088 81.2518 11.2903 80.4217C10.6717 79.5916 10.3377 78.584 10.338 77.5488Z" fill="white"/>
<path d="M13.7709 43.9067V77.5488C13.7697 78.5209 13.4738 79.4698 12.9222 80.2702C12.3706 81.0706 11.5893 81.685 10.6813 82.0321C11.4086 82.3102 12.1927 82.4074 12.9659 82.3154C13.7391 82.2233 14.4784 81.9448 15.1201 81.5037C15.7618 81.0626 16.2868 80.4722 16.6497 79.7832C17.0127 79.0943 17.2028 78.3275 17.2037 77.5488V43.9067H13.7709Z" fill="#B9D7FF"/>
<path d="M12.3977 83.0414C10.941 83.0414 9.54395 82.4628 8.51389 81.4327C7.48383 80.4026 6.90515 79.0056 6.90515 77.5489V43.9068C6.90515 43.7247 6.97748 43.5501 7.10624 43.4213C7.235 43.2925 7.40963 43.2202 7.59172 43.2202H17.2037C17.3858 43.2202 17.5605 43.2925 17.6892 43.4213C17.818 43.5501 17.8903 43.7247 17.8903 43.9068V77.5489C17.8903 79.0056 17.3116 80.4026 16.2816 81.4327C15.2515 82.4628 13.8545 83.0414 12.3977 83.0414ZM8.27829 44.5934V77.5489C8.27829 78.6414 8.7123 79.6892 9.48485 80.4617C10.2574 81.2343 11.3052 81.6683 12.3977 81.6683C13.4903 81.6683 14.5381 81.2343 15.3106 80.4617C16.0832 79.6892 16.5172 78.6414 16.5172 77.5489V44.5934H8.27829Z" fill="#353166"/>
<path d="M17.2037 59.0112V77.5487C17.2037 78.8233 16.6974 80.0458 15.7961 80.9471C14.8948 81.8484 13.6724 82.3547 12.3977 82.3547C11.1231 82.3547 9.90067 81.8484 8.99936 80.9471C8.09806 80.0458 7.59172 78.8233 7.59172 77.5487V59.0112H17.2037Z" fill="#31DDF4"/>
<path d="M13.7709 59.0112V77.5487C13.7697 78.5208 13.4738 79.4697 12.9222 80.2701C12.3706 81.0705 11.5893 81.6849 10.6813 82.032C11.4086 82.3101 12.1927 82.4073 12.9659 82.3153C13.7391 82.2232 14.4784 81.9447 15.1201 81.5036C15.7618 81.0625 16.2868 80.4721 16.6497 79.7831C17.0127 79.0942 17.2028 78.3274 17.2037 77.5487V59.0112H13.7709Z" fill="#36C8E3"/>
<path d="M10.338 77.5487V59.0112H7.59172V77.5487C7.59172 78.8233 8.09806 80.0458 8.99936 80.9471C9.90067 81.8484 11.1231 82.3547 12.3977 82.3547C12.8627 82.356 13.3254 82.2889 13.7709 82.1556C12.7788 81.8598 11.9088 81.2517 11.2903 80.4216C10.6717 79.5915 10.3377 78.5839 10.338 77.5487Z" fill="#ADF4FF"/>
<path d="M12.3977 83.0413C10.941 83.0413 9.54395 82.4627 8.51389 81.4326C7.48383 80.4025 6.90515 79.0055 6.90515 77.5487V59.0113C6.90515 58.8292 6.97749 58.6546 7.10624 58.5258C7.235 58.397 7.40963 58.3247 7.59172 58.3247H17.2037C17.3858 58.3247 17.5605 58.397 17.6892 58.5258C17.818 58.6546 17.8903 58.8292 17.8903 59.0113V77.5487C17.8903 79.0055 17.3116 80.4025 16.2816 81.4326C15.2515 82.4627 13.8545 83.0413 12.3977 83.0413ZM8.2783 59.6979V77.5487C8.2783 78.6413 8.71231 79.6891 9.48485 80.4616C10.2574 81.2342 11.3052 81.6682 12.3977 81.6682C13.4903 81.6682 14.5381 81.2342 15.3106 80.4616C16.0832 79.6891 16.5172 78.6413 16.5172 77.5487V59.6979H8.2783Z" fill="#353166"/>
<path d="M11.7112 48.7125H10.338C10.1559 48.7125 9.98129 48.6402 9.85253 48.5114C9.72377 48.3827 9.65144 48.208 9.65144 48.0259C9.65144 47.8438 9.72377 47.6692 9.85253 47.5404C9.98129 47.4117 10.1559 47.3394 10.338 47.3394H11.7112C11.8932 47.3394 12.0679 47.4117 12.1966 47.5404C12.3254 47.6692 12.3977 47.8438 12.3977 48.0259C12.3977 48.208 12.3254 48.3827 12.1966 48.5114C12.0679 48.6402 11.8932 48.7125 11.7112 48.7125Z" fill="#353166"/>
<path d="M11.7112 51.4591H10.338C10.1559 51.4591 9.98129 51.3867 9.85253 51.258C9.72377 51.1292 9.65144 50.9546 9.65144 50.7725C9.65144 50.5904 9.72377 50.4158 9.85253 50.287C9.98129 50.1583 10.1559 50.0859 10.338 50.0859H11.7112C11.8932 50.0859 12.0679 50.1583 12.1966 50.287C12.3254 50.4158 12.3977 50.5904 12.3977 50.7725C12.3977 50.9546 12.3254 51.1292 12.1966 51.258C12.0679 51.3867 11.8932 51.4591 11.7112 51.4591Z" fill="#353166"/>
<path d="M11.7112 54.2052H10.338C10.1559 54.2052 9.98129 54.1328 9.85253 54.0041C9.72377 53.8753 9.65144 53.7007 9.65144 53.5186C9.65144 53.3365 9.72377 53.1619 9.85253 53.0331C9.98129 52.9044 10.1559 52.832 10.338 52.832H11.7112C11.8932 52.832 12.0679 52.9044 12.1966 53.0331C12.3254 53.1619 12.3977 53.3365 12.3977 53.5186C12.3977 53.7007 12.3254 53.8753 12.1966 54.0041C12.0679 54.1328 11.8932 54.2052 11.7112 54.2052Z" fill="#353166"/>
<path d="M11.7112 56.9518H10.338C10.1559 56.9518 9.98129 56.8794 9.85253 56.7507C9.72377 56.6219 9.65144 56.4473 9.65144 56.2652C9.65144 56.0831 9.72377 55.9085 9.85253 55.7797C9.98129 55.6509 10.1559 55.5786 10.338 55.5786H11.7112C11.8932 55.5786 12.0679 55.6509 12.1966 55.7797C12.3254 55.9085 12.3977 56.0831 12.3977 56.2652C12.3977 56.4473 12.3254 56.6219 12.1966 56.7507C12.0679 56.8794 11.8932 56.9518 11.7112 56.9518Z" fill="#353166"/>
<path d="M11.7112 59.6979H10.338C10.1559 59.6979 9.98129 59.6255 9.85253 59.4968C9.72377 59.368 9.65144 59.1934 9.65144 59.0113C9.65144 58.8292 9.72377 58.6546 9.85253 58.5258C9.98129 58.397 10.1559 58.3247 10.338 58.3247H11.7112C11.8932 58.3247 12.0679 58.397 12.1966 58.5258C12.3254 58.6546 12.3977 58.8292 12.3977 59.0113C12.3977 59.1934 12.3254 59.368 12.1966 59.4968C12.0679 59.6255 11.8932 59.6979 11.7112 59.6979Z" fill="#353166"/>
<path d="M11.7112 62.4439H10.338C10.1559 62.4439 9.98129 62.3716 9.85253 62.2429C9.72377 62.1141 9.65144 61.9395 9.65144 61.7574C9.65144 61.5753 9.72377 61.4007 9.85253 61.2719C9.98129 61.1431 10.1559 61.0708 10.338 61.0708H11.7112C11.8932 61.0708 12.0679 61.1431 12.1966 61.2719C12.3254 61.4007 12.3977 61.5753 12.3977 61.7574C12.3977 61.9395 12.3254 62.1141 12.1966 62.2429C12.0679 62.3716 11.8932 62.4439 11.7112 62.4439Z" fill="#353166"/>
<path d="M11.7112 65.1905H10.338C10.1559 65.1905 9.98129 65.1182 9.85253 64.9894C9.72377 64.8607 9.65144 64.686 9.65144 64.504C9.65144 64.3219 9.72377 64.1472 9.85253 64.0185C9.98129 63.8897 10.1559 63.8174 10.338 63.8174H11.7112C11.8932 63.8174 12.0679 63.8897 12.1966 64.0185C12.3254 64.1472 12.3977 64.3219 12.3977 64.504C12.3977 64.686 12.3254 64.8607 12.1966 64.9894C12.0679 65.1182 11.8932 65.1905 11.7112 65.1905Z" fill="#353166"/>
<path d="M11.7112 67.9366H10.338C10.1559 67.9366 9.98129 67.8643 9.85253 67.7355C9.72377 67.6068 9.65144 67.4321 9.65144 67.25C9.65144 67.068 9.72377 66.8933 9.85253 66.7646C9.98129 66.6358 10.1559 66.5635 10.338 66.5635H11.7112C11.8932 66.5635 12.0679 66.6358 12.1966 66.7646C12.3254 66.8933 12.3977 67.068 12.3977 67.25C12.3977 67.4321 12.3254 67.6068 12.1966 67.7355C12.0679 67.8643 11.8932 67.9366 11.7112 67.9366Z" fill="#353166"/>
<path d="M11.7112 70.6832H10.338C10.1559 70.6832 9.98129 70.6109 9.85253 70.4821C9.72377 70.3534 9.65144 70.1787 9.65144 69.9966C9.65144 69.8145 9.72377 69.6399 9.85253 69.5112C9.98129 69.3824 10.1559 69.3101 10.338 69.3101H11.7112C11.8932 69.3101 12.0679 69.3824 12.1966 69.5112C12.3254 69.6399 12.3977 69.8145 12.3977 69.9966C12.3977 70.1787 12.3254 70.3534 12.1966 70.4821C12.0679 70.6109 11.8932 70.6832 11.7112 70.6832Z" fill="#353166"/>
<path d="M11.7112 73.4293H10.338C10.1559 73.4293 9.98129 73.357 9.85253 73.2282C9.72377 73.0994 9.65144 72.9248 9.65144 72.7427C9.65144 72.5606 9.72377 72.386 9.85253 72.2572C9.98129 72.1285 10.1559 72.0562 10.338 72.0562H11.7112C11.8932 72.0562 12.0679 72.1285 12.1966 72.2572C12.3254 72.386 12.3977 72.5606 12.3977 72.7427C12.3977 72.9248 12.3254 73.0994 12.1966 73.2282C12.0679 73.357 11.8932 73.4293 11.7112 73.4293Z" fill="#353166"/>
<path d="M78.9953 83.0413H57.025C56.4477 83.0446 55.879 82.9022 55.3714 82.6274C54.8638 82.3526 54.4336 81.9542 54.1208 81.4691C53.8139 80.9906 53.6307 80.4433 53.5876 79.8765C53.5444 79.3097 53.6427 78.7411 53.8736 78.2216L62.0438 58.6405C62.3587 57.8882 62.5198 57.0805 62.5176 56.265V45.2798C62.5176 45.0977 62.5899 44.9231 62.7186 44.7944C62.8474 44.6656 63.022 44.5933 63.2041 44.5933H72.8162C72.9982 44.5933 73.1729 44.6656 73.3016 44.7944C73.4304 44.9231 73.5027 45.0977 73.5027 45.2798V56.265C73.5005 57.0805 73.6616 57.8882 73.9765 58.6405L82.1329 78.2353C82.3641 78.7515 82.462 79.3174 82.4176 79.8812C82.3732 80.445 82.188 80.9886 81.8789 81.4622C81.5687 81.9457 81.1422 82.3436 80.6384 82.6194C80.1347 82.8953 79.5697 83.0404 78.9953 83.0413ZM63.8907 45.9664V56.265C63.892 57.2616 63.696 58.2487 63.314 59.1692L55.1506 78.764C55.01 79.0764 54.9496 79.419 54.9748 79.7606C54.9999 80.1023 55.1099 80.4323 55.2948 80.7207C55.4809 81.0108 55.7368 81.2495 56.0391 81.4151C56.3414 81.5806 56.6803 81.6676 57.025 81.6682H78.9953C79.3434 81.6711 79.6866 81.5857 79.9928 81.42C80.2989 81.2543 80.5581 81.0137 80.7461 80.7207C80.9332 80.4372 81.0453 80.1108 81.0717 79.7722C81.0981 79.4335 81.038 79.0937 80.8971 78.7846L72.7269 59.1692C72.3379 58.2501 72.1348 57.263 72.1296 56.265V45.9664H63.8907Z" fill="#353166"/>
<path d="M78.9953 83.041H57.025C56.4477 83.0443 55.879 82.9019 55.3714 82.6271C54.8638 82.3523 54.4336 81.9539 54.1208 81.4688C53.8139 80.9903 53.6307 80.443 53.5876 79.8762C53.5444 79.3094 53.6427 78.7407 53.8736 78.2213L60.2656 62.8695C60.3171 62.7441 60.4046 62.6368 60.517 62.5611C60.6294 62.4853 60.7617 62.4445 60.8972 62.4438H75.0818C75.2174 62.4445 75.3497 62.4853 75.4621 62.5611C75.5745 62.6368 75.662 62.7441 75.7135 62.8695L82.1329 78.235C82.3641 78.7512 82.462 79.3171 82.4176 79.8809C82.3732 80.4447 82.188 80.9883 81.8789 81.4619C81.5687 81.9454 81.1422 82.3432 80.6384 82.6191C80.1347 82.895 79.5697 83.0401 78.9953 83.041ZM61.3778 63.817L55.1506 78.7637C55.01 79.0761 54.9496 79.4187 54.9748 79.7603C54.9999 80.102 55.1099 80.432 55.2948 80.7204C55.4809 81.0105 55.7368 81.2492 56.0391 81.4147C56.3414 81.5803 56.6803 81.6673 57.025 81.6679H78.9953C79.3434 81.6708 79.6866 81.5854 79.9928 81.4197C80.2989 81.254 80.5581 81.0134 80.7461 80.7204C80.9332 80.4369 81.0453 80.1105 81.0717 79.7719C81.0981 79.4332 81.038 79.0934 80.8971 78.7843L74.6424 63.817H61.3778Z" fill="#353166"/>
<path d="M68.0101 49.399H66.637C66.4549 49.399 66.2803 49.3267 66.1515 49.1979C66.0228 49.0692 65.9504 48.8945 65.9504 48.7125C65.9504 48.5304 66.0228 48.3557 66.1515 48.227C66.2803 48.0982 66.4549 48.0259 66.637 48.0259H68.0101C68.1922 48.0259 68.3669 48.0982 68.4956 48.227C68.6244 48.3557 68.6967 48.5304 68.6967 48.7125C68.6967 48.8945 68.6244 49.0692 68.4956 49.1979C68.3669 49.3267 68.1922 49.399 68.0101 49.399Z" fill="#353166"/>
<path d="M68.0101 52.1456H66.637C66.4549 52.1456 66.2803 52.0733 66.1515 51.9445C66.0228 51.8158 65.9504 51.6411 65.9504 51.459C65.9504 51.2769 66.0228 51.1023 66.1515 50.9736C66.2803 50.8448 66.4549 50.7725 66.637 50.7725H68.0101C68.1922 50.7725 68.3669 50.8448 68.4956 50.9736C68.6244 51.1023 68.6967 51.2769 68.6967 51.459C68.6967 51.6411 68.6244 51.8158 68.4956 51.9445C68.3669 52.0733 68.1922 52.1456 68.0101 52.1456Z" fill="#353166"/>
<path d="M68.0101 54.8917H66.637C66.4549 54.8917 66.2803 54.8194 66.1515 54.6906C66.0228 54.5619 65.9504 54.3872 65.9504 54.2051C65.9504 54.023 66.0228 53.8484 66.1515 53.7196C66.2803 53.5909 66.4549 53.5186 66.637 53.5186H68.0101C68.1922 53.5186 68.3669 53.5909 68.4956 53.7196C68.6244 53.8484 68.6967 54.023 68.6967 54.2051C68.6967 54.3872 68.6244 54.5619 68.4956 54.6906C68.3669 54.8194 68.1922 54.8917 68.0101 54.8917Z" fill="#353166"/>
<path d="M68.0101 57.6378H66.637C66.4549 57.6378 66.2803 57.5655 66.1515 57.4367C66.0228 57.3079 65.9504 57.1333 65.9504 56.9512C65.9504 56.7691 66.0228 56.5945 66.1515 56.4657C66.2803 56.337 66.4549 56.2646 66.637 56.2646H68.0101C68.1922 56.2646 68.3669 56.337 68.4956 56.4657C68.6244 56.5945 68.6967 56.7691 68.6967 56.9512C68.6967 57.1333 68.6244 57.3079 68.4956 57.4367C68.3669 57.5655 68.1922 57.6378 68.0101 57.6378Z" fill="#353166"/>
<path d="M59.8056 16.3135L71.443 27.9303C72.1034 28.6069 72.6797 29.3607 73.1594 30.1754C73.6392 30.9629 74.2159 31.6872 74.8759 32.3312C75.0067 32.4591 75.1106 32.6118 75.1815 32.7804C75.2525 32.949 75.289 33.1301 75.289 33.313C75.289 33.4959 75.2525 33.677 75.1815 33.8456C75.1106 34.0142 75.0067 34.1669 74.8759 34.2948C74.7483 34.4225 74.5969 34.5238 74.4302 34.5929C74.2635 34.662 74.0848 34.6975 73.9044 34.6975C73.7239 34.6975 73.5452 34.662 73.3785 34.5929C73.2118 34.5238 73.0604 34.4225 72.9329 34.2948C72.2812 33.6407 71.55 33.071 70.7564 32.599H70.7221C69.9183 32.1105 69.1761 31.5273 68.5113 30.862L56.8945 19.2245L59.8056 16.3135Z" fill="#E9F2FF"/>
<path d="M56.8945 19.2244L68.5113 30.8618C69.1879 31.5221 69.9418 32.0984 70.7564 32.5782H70.7908C71.5662 33.0604 72.2788 33.6369 72.9123 34.2946C73.0401 34.4254 73.1929 34.5293 73.3615 34.6003C73.5301 34.6712 73.7111 34.7078 73.8941 34.7078C74.077 34.7078 74.2581 34.6712 74.4267 34.6003C74.5953 34.5293 74.748 34.4254 74.8759 34.2946L58.3981 17.8169L56.8945 19.2244Z" fill="white"/>
<path d="M57.8483 14.3716L54.9358 17.2841C54.3997 17.8202 54.3997 18.6895 54.9358 19.2257C55.472 19.7619 56.3413 19.7619 56.8775 19.2257L59.7899 16.3133C60.3261 15.7771 60.3261 14.9078 59.7899 14.3716C59.2537 13.8355 58.3844 13.8355 57.8483 14.3716Z" fill="#E9F2FF"/>
<path d="M56.3986 15.8359L57.8551 14.3795C58.1126 14.122 58.4618 13.9773 58.826 13.9773C59.1902 13.9773 59.5395 14.122 59.797 14.3795C60.0545 14.637 60.1992 14.9863 60.1992 15.3505C60.1992 15.7146 60.0545 16.0639 59.797 16.3214L58.3405 17.7779L56.3986 15.8359Z" fill="#B9D7FF"/>
<path d="M54.1963 10.7385C54.4908 10.9481 54.7271 11.2293 54.8829 11.5555C55.2535 12.4111 55.7691 13.1961 56.407 13.8761L57.382 14.8579L55.4458 16.7941L54.622 15.977C53.9627 15.29 53.1678 14.7475 52.2876 14.3842C51.9996 14.2795 51.7407 14.1077 51.5324 13.883C51.3172 13.6684 51.1523 13.4088 51.0493 13.1228C50.9463 12.8369 50.9079 12.5317 50.9367 12.2292C50.9656 11.9266 51.0611 11.6343 51.2163 11.373C51.3715 11.1117 51.5826 10.888 51.8345 10.7179C52.1827 10.4787 52.5961 10.3524 53.0186 10.356C53.4411 10.3597 53.8522 10.4932 54.1963 10.7385Z" fill="#FF5948"/>
<path d="M73.8872 35.3655C73.3411 35.365 72.8176 35.1477 72.4317 34.7613C71.8227 34.158 71.1453 33.628 70.4131 33.1822C69.5428 32.6691 68.742 32.046 68.0307 31.3285L56.4071 19.7116C56.3427 19.6478 56.2916 19.5719 56.2568 19.4882C56.2219 19.4046 56.204 19.3148 56.204 19.2242C56.204 19.1335 56.2219 19.0438 56.2568 18.9601C56.2916 18.8765 56.3427 18.8005 56.4071 18.7367L59.3181 15.8256C59.3819 15.7613 59.4579 15.7102 59.5415 15.6754C59.6252 15.6405 59.715 15.6226 59.8056 15.6226C59.8962 15.6226 59.986 15.6405 60.0696 15.6754C60.1533 15.7102 60.2292 15.7613 60.2931 15.8256L71.9099 27.4287C72.6168 28.129 73.2328 28.9156 73.743 29.7699C74.1894 30.5198 74.7267 31.2116 75.3427 31.8297C75.6328 32.1173 75.8307 32.4848 75.9114 32.8853C75.9921 33.2857 75.9519 33.7012 75.7959 34.0787C75.6398 34.4563 75.3751 34.7789 75.0352 35.0056C74.6953 35.2323 74.2957 35.3528 73.8872 35.3518V35.3655ZM57.8626 19.2242L68.9988 30.3604C69.6168 30.9843 70.3085 31.5307 71.0585 31.9876C71.9038 32.4885 72.6833 33.0927 73.3791 33.7864C73.5078 33.9143 73.6818 33.986 73.8632 33.986C74.0446 33.986 74.2186 33.9143 74.3472 33.7864C74.4751 33.6578 74.5469 33.4837 74.5469 33.3024C74.5469 33.121 74.4751 32.947 74.3472 32.8183C73.6661 32.1318 73.0692 31.3666 72.569 30.5389C72.1106 29.7656 71.557 29.0529 70.9212 28.4174L59.8056 17.2812L57.8626 19.2242Z" fill="#353166"/>
<path d="M55.9196 20.3158C55.5111 20.3168 55.1115 20.1963 54.7716 19.9696C54.4317 19.7429 54.167 19.4203 54.0109 19.0427C53.8549 18.6652 53.8147 18.2497 53.8954 17.8493C53.976 17.4488 54.174 17.0813 54.464 16.7936L57.3751 13.8826C57.7692 13.5093 58.2913 13.3013 58.8341 13.3013C59.3769 13.3013 59.899 13.5093 60.2931 13.8826C60.6788 14.2688 60.8954 14.7923 60.8954 15.3381C60.8954 15.8839 60.6788 16.4075 60.2931 16.7936L57.3751 19.7116C56.9892 20.098 56.4657 20.3153 55.9196 20.3158ZM58.8375 14.6515C58.7467 14.6519 58.6568 14.6703 58.5731 14.7057C58.4895 14.741 58.4136 14.7926 58.3501 14.8575L55.439 17.7686C55.3111 17.8972 55.2393 18.0712 55.2393 18.2526C55.2393 18.434 55.3111 18.608 55.439 18.7366C55.5676 18.8645 55.7416 18.9363 55.923 18.9363C56.1044 18.9363 56.2784 18.8645 56.4071 18.7366L59.3181 15.8256C59.4145 15.73 59.4804 15.6079 59.5075 15.4748C59.5345 15.3418 59.5215 15.2037 59.47 15.078C59.4186 14.9523 59.331 14.8447 59.2185 14.7688C59.1059 14.6929 58.9733 14.6521 58.8375 14.6515Z" fill="#353166"/>
<path d="M55.439 17.4804C55.3486 17.4809 55.259 17.4636 55.1754 17.4294C55.0917 17.3953 55.0157 17.3449 54.9515 17.2813L54.1345 16.4437C53.5602 15.8148 52.8578 15.3161 52.0748 14.9813C51.5111 14.7701 51.0324 14.3795 50.7123 13.8697C50.3923 13.3598 50.2486 12.7589 50.3034 12.1595C50.3466 11.679 50.5156 11.2185 50.7933 10.8241C51.0711 10.4298 51.4478 10.1155 51.8855 9.913C52.3233 9.71047 52.8067 9.62681 53.2871 9.67044C53.7674 9.71407 54.2278 9.88344 54.622 10.1615C55.0095 10.4393 55.3211 10.81 55.5282 11.2394C55.8594 12.025 56.324 12.7474 56.9014 13.3747L57.8626 14.3839C57.9905 14.5126 58.0622 14.6866 58.0622 14.868C58.0622 15.0494 57.9905 15.2234 57.8626 15.352L55.9196 17.295C55.7895 17.4168 55.6172 17.4833 55.439 17.4804ZM53.0085 11.0541C52.7364 11.0509 52.4701 11.1325 52.2464 11.2875C52.0738 11.4033 51.9297 11.5568 51.8251 11.7364C51.7204 11.916 51.6579 12.117 51.6422 12.3242C51.6218 12.5245 51.647 12.7267 51.716 12.9158C51.785 13.1048 51.8959 13.2758 52.0404 13.4159C52.1761 13.5593 52.3429 13.6697 52.5279 13.7386C53.5074 14.1331 54.3868 14.7405 55.1026 15.5168L55.439 15.8463L56.407 14.8783L55.9127 14.3839C55.2236 13.6393 54.6705 12.7795 54.2787 11.8436C54.1706 11.6249 54.0102 11.4363 53.8118 11.2944C53.5756 11.1325 53.2948 11.0485 53.0085 11.0541Z" fill="#353166"/>
<path d="M16.5172 30.8616C14.7519 30.8616 13.0262 30.3382 11.5585 29.3574C10.0907 28.3767 8.94668 26.9827 8.27113 25.3518C7.59558 23.7209 7.41883 21.9263 7.76322 20.1949C8.10761 18.4636 8.95768 16.8732 10.2059 15.6249C11.4542 14.3767 13.0445 13.5266 14.7759 13.1822C16.5073 12.8379 18.3019 13.0146 19.9328 13.6902C21.5637 14.3657 22.9577 15.5097 23.9384 16.9775C24.9191 18.4453 25.4426 20.1709 25.4426 21.9362C25.4426 24.3034 24.5023 26.5736 22.8284 28.2474C21.1546 29.9213 18.8843 30.8616 16.5172 30.8616ZM16.5172 14.3839C15.0235 14.3839 13.5633 14.8268 12.3213 15.6567C11.0794 16.4865 10.1114 17.666 9.53975 19.0461C8.96814 20.4261 8.81858 21.9446 9.10998 23.4096C9.40139 24.8746 10.1207 26.2203 11.1769 27.2765C12.2331 28.3327 13.5788 29.052 15.0438 29.3434C16.5088 29.6348 18.0273 29.4852 19.4073 28.9136C20.7873 28.342 21.9668 27.374 22.7967 26.132C23.6265 24.8901 24.0695 23.4299 24.0695 21.9362C24.0695 20.9444 23.8741 19.9623 23.4946 19.0461C23.115 18.1298 22.5588 17.2972 21.8575 16.5959C21.1562 15.8946 20.3236 15.3383 19.4073 14.9588C18.491 14.5792 17.509 14.3839 16.5172 14.3839Z" fill="#353166"/>
<path d="M16.5172 28.1156C15.295 28.1156 14.1004 27.7532 13.0842 27.0743C12.0681 26.3953 11.2761 25.4302 10.8084 24.3011C10.3407 23.172 10.2183 21.9296 10.4567 20.731C10.6952 19.5324 11.2837 18.4313 12.1478 17.5672C13.012 16.703 14.113 16.1145 15.3117 15.8761C16.5103 15.6376 17.7527 15.76 18.8818 16.2277C20.0109 16.6954 20.976 17.4874 21.655 18.5035C22.3339 19.5197 22.6963 20.7144 22.6963 21.9365C22.6963 23.5753 22.0453 25.147 20.8865 26.3058C19.7277 27.4646 18.156 28.1156 16.5172 28.1156ZM16.5172 17.1305C15.5666 17.1305 14.6374 17.4123 13.8471 17.9404C13.0567 18.4685 12.4407 19.2191 12.077 20.0973C11.7132 20.9755 11.6181 21.9418 11.8035 22.8741C11.9889 23.8064 12.4467 24.6627 13.1188 25.3348C13.7909 26.007 14.6473 26.4647 15.5796 26.6501C16.5118 26.8356 17.4782 26.7404 18.3563 26.3767C19.2345 26.0129 19.9851 25.3969 20.5132 24.6066C21.0413 23.8162 21.3232 22.887 21.3232 21.9365C21.3232 20.6619 20.8168 19.4394 19.9155 18.5381C19.0142 17.6368 17.7918 17.1305 16.5172 17.1305Z" fill="#353166"/>
</svg>
