<svg width="65" height="94" viewBox="0 0 65 94" fill="none" xmlns="http://www.w3.org/2000/svg">
<path d="M63.4129 71.0073L60.776 92.5655H47.064L48.7875 86.9303L52.5251 74.7133L53.6582 71.0073H63.4129Z" fill="#50DD5A"/>
<path d="M51.6499 88.7566L53.3735 83.1214L57.0795 71.0073H53.6582L52.5251 74.7133L48.7875 86.9303L47.064 92.5655H60.776L61.2419 88.7566H51.6499Z" fill="#49C160"/>
<path d="M22.5403 72.9554C23.4308 72.1705 24.579 71.7383 25.7677 71.7404H32.3409C33.5189 71.7398 34.6816 71.4742 35.7422 70.9634L36.4186 70.6358C38.2277 69.7639 40.2428 69.4057 42.2428 69.6005C44.2427 69.7954 46.1501 70.5358 47.7555 71.7404L49.3931 73.1915C50.2691 73.9681 51.3415 74.491 52.4944 74.7037L52.5249 74.7132L48.7874 86.9301L43.439 83.5592C42.621 83.1036 41.6591 82.9769 40.7505 83.205L30.8734 85.0161C28.3449 85.4727 25.736 85.1061 23.4327 83.9706L6.34424 72.2774C6.86931 71.408 7.71018 70.7736 8.69225 70.5058C9.67432 70.2381 10.7221 70.3576 11.6181 70.8396L12.4875 71.3081L19.7391 75.2064L20.9429 75.8387C21.1216 74.7213 21.6867 73.7014 22.5403 72.9554Z" fill="#FFD39F"/>
<path d="M45.3498 79.7506C44.5318 79.295 43.57 79.1683 42.6613 79.3964L32.7842 81.2075C30.2557 81.6641 27.6468 81.2975 25.3435 80.162L12.0979 71.0985L11.6181 70.8398C10.7221 70.3579 9.67432 70.2383 8.69225 70.5061C7.71018 70.7738 6.86931 71.4083 6.34424 72.2777L23.4327 83.9709C25.736 85.1064 28.3449 85.473 30.8734 85.0164L40.7505 83.2053C41.6591 82.9771 42.621 83.1039 43.439 83.5595L48.7874 86.9303L50.0732 82.7275L45.3498 79.7506Z" fill="#EFC597"/>
<path d="M44.2224 38.651C46.3582 41.5537 47.4515 45.0885 47.326 48.686C47.2005 52.2834 45.8636 55.734 43.5306 58.4819C41.7302 60.6026 39.4876 62.3068 36.9589 63.4757C34.4303 64.6446 31.6764 65.2502 28.889 65.2502C26.1016 65.2502 23.3477 64.6446 20.819 63.4757C18.2904 62.3068 16.0478 60.6026 14.2473 58.4819C11.9147 55.7338 10.5781 52.2833 10.4526 48.6859C10.3271 45.0886 11.4201 41.5539 13.5556 38.651L17.9065 32.7378C19.3097 33.1244 20.65 33.7093 21.8868 34.4746C23.071 35.1851 24.3872 35.6496 25.7562 35.8401C27.1445 36.0304 28.5456 36.1119 29.9466 36.0839H37.9377C38.5897 36.0837 39.2202 35.8515 39.7156 35.429C40.211 35.0065 40.5386 34.4215 40.6396 33.7795L44.2224 38.651Z" fill="#EDB740"/>
<path d="M27.3747 11.7834C27.0236 10.297 26.5553 8.84071 25.9741 7.42793C25.3305 5.8589 24.5512 4.34869 23.6448 2.91443L22.5308 1.15283L39.8332 1.33375C37.6825 4.80853 36.2524 8.67773 35.6275 12.7127L35.5969 12.9089L35.3657 14.4058L35.3676 14.48L29.4556 14.5886C28.376 14.5886 27.4683 13.5945 27.3518 12.5242V11.7891L27.3747 11.7834Z" fill="#EDB740"/>
<path d="M18.069 58.4819C15.7364 55.7338 14.3997 52.2833 14.2742 48.6859C14.1487 45.0886 15.2418 41.5539 17.3773 38.651L20.8725 33.9006C19.9274 33.4108 18.9333 33.021 17.9065 32.7378L13.5556 38.651C11.4201 41.5539 10.3271 45.0886 10.4526 48.6859C10.5781 52.2833 11.9147 55.7338 14.2473 58.4819C16.0438 60.6071 18.2854 62.3144 20.8148 63.4837C23.3442 64.653 26.0998 65.256 28.888 65.2502C29.5259 65.2502 30.1628 65.2185 30.7988 65.155C25.8441 64.6724 21.2753 62.2774 18.069 58.4819Z" fill="#CC9A40"/>
<path d="M31.1734 12.5242C31.1734 12.5242 30.3766 8.83911 29.7957 7.42793C29.1522 5.8589 28.3728 4.34869 27.4664 2.91443L26.3772 1.19302L22.5308 1.15283L23.6448 2.91443C24.5512 4.34869 25.3305 5.8589 25.9741 7.42793C26.5553 8.84071 27.0236 10.297 27.3747 11.7834L27.3518 11.7891V12.5242C27.4683 13.5945 28.376 14.5886 29.4556 14.5886L32.8219 14.5267C31.9523 14.2972 31.2731 13.4396 31.1734 12.5242Z" fill="#CC9A40"/>
<path d="M11.561 32.1855V35.3621H1.74316V10.3208H11.561V13.9106V32.1855Z" fill="#5FA8ED"/>
<path d="M5.5648 16.2076C5.5648 15.6565 5.78446 15.128 6.17546 14.7383C6.56645 14.3486 7.09675 14.1297 7.6497 14.1297H11.561V10.3208H1.74316V35.3621H5.5648V16.2076Z" fill="#4689D3"/>
<path d="M17.9069 32.7376C16.5783 32.3706 15.2059 32.1849 13.8273 32.1853H11.561V13.9104H14.0183C15.482 13.9104 16.8273 13.3543 18.0387 12.5983C19.0438 11.9717 18.6559 7.43345 23.2151 7.43345H25.9591L25.9743 7.42773C26.5353 8.79124 26.9911 10.1954 27.3379 11.628C27.3503 11.6796 27.352 12.523 27.352 12.523C27.4686 13.5933 28.3762 14.5874 29.4559 14.5874L35.3679 14.4789L39.3673 14.4046C39.7043 14.4046 40.038 14.4708 40.3493 14.5993C40.6607 14.7278 40.9436 14.9162 41.1819 15.1537C41.4202 15.3912 41.6092 15.6732 41.7382 15.9835C41.8671 16.2938 41.9335 16.6264 41.9335 16.9623C41.9335 17.2981 41.8671 17.6307 41.7382 17.941C41.6092 18.2513 41.4202 18.5333 41.1819 18.7708C40.9436 19.0083 40.6607 19.1967 40.3493 19.3252C40.038 19.4537 39.7043 19.5199 39.3673 19.5199H39.1055V19.5313C39.8558 19.5313 40.5753 19.8284 41.1059 20.3571C41.6364 20.8859 41.9345 21.6031 41.9345 22.3508C41.9345 23.0986 41.6364 23.8158 41.1059 24.3445C40.5753 24.8733 39.8558 25.1703 39.1055 25.1703H39.1896C39.9171 25.1703 40.6147 25.4584 41.1292 25.9711C41.6436 26.4837 41.9326 27.1791 41.9326 27.9042C41.9326 28.6292 41.6436 29.3246 41.1292 29.8372C40.6147 30.3499 39.9171 30.638 39.1896 30.638H37.938C38.6623 30.6383 39.3568 30.925 39.8691 31.4353C40.3814 31.9455 40.6697 32.6375 40.6705 33.3594C40.67 33.4996 40.6598 33.6396 40.6399 33.7784C40.539 34.4204 40.2113 35.0053 39.7159 35.4278C39.2205 35.8503 38.59 36.0826 37.938 36.0827H29.9469C28.5459 36.1108 27.1448 36.0293 25.7565 35.839C24.3875 35.6485 23.0713 35.184 21.8871 34.4735C20.6503 33.7084 19.31 33.1239 17.9069 32.7376Z" fill="#F9B691"/>
<path d="M42.243 7.43359V7.53834C42.243 10.5035 40.7678 12.9088 37.7927 12.9088H35.5972L35.6277 12.7127C35.9046 10.9175 36.3426 9.15068 36.9367 7.43359H42.243Z" fill="#F9B691"/>
<path d="M36.9367 7.43359C36.57 8.49474 35.9841 10.8079 35.9692 10.8758L41.4474 10.8616C41.9981 9.84165 42.2723 8.6962 42.243 7.53834V7.43359H36.9367Z" fill="#E5A889"/>
<path d="M27.0895 10.6736C26.7825 9.57065 26.4101 8.48677 25.9743 7.42773L25.9591 7.43345H23.2151C18.6559 7.43345 19.0438 11.9717 18.0387 12.5983C16.8273 13.3543 15.482 13.9104 14.0183 13.9104H11.561V17.3384H14.0183C15.482 17.3384 16.8273 16.7823 18.0387 16.0262C19.0438 15.3997 18.6559 10.8614 23.2151 10.8614H25.9591L25.9743 10.8557" fill="#E5A889"/>
<path d="M27.3668 14.2521L27.375 15.2115L27.3521 15.2172V15.9524C27.4686 17.0226 28.3763 18.0168 29.4559 18.0168L35.3679 17.9082L39.3673 17.8339C39.7044 17.8334 40.0383 17.8992 40.3499 18.0276C40.6614 18.1561 40.9444 18.3446 41.1826 18.5824C41.2128 18.6125 41.2399 18.6452 41.2686 18.6776C41.6021 18.311 41.8216 17.8558 41.9005 17.3672C41.9793 16.8786 41.9141 16.3778 41.7127 15.9254C41.5114 15.4731 41.1825 15.0888 40.7661 14.8192C40.3498 14.5497 39.8638 14.4064 39.3673 14.4069L35.3679 14.4812L29.4559 14.5897C29.0562 14.5852 28.668 14.4554 28.3464 14.2188" fill="#E5A889"/>
<path d="M27.2257 71.7405H25.7677C24.579 71.7384 23.4308 72.1706 22.5404 72.9555L17.8799 70.4512L17.9372 70.3445C18.6354 69.6489 19.5447 69.2026 20.5237 69.0752C21.5027 68.9478 22.4965 69.1463 23.3506 69.6399L27.2257 71.7405Z" fill="#EFC69A"/>
<path d="M17.8801 70.4513L22.5406 72.9556C21.687 73.7016 21.1219 74.7215 20.9432 75.8389L19.7394 75.2066L12.4878 71.3083L12.4935 71.2987C13.3056 69.8742 15.2279 69.0744 16.6935 69.8152L17.8801 70.4513Z" fill="#EFC69A"/>
<path d="M64.2713 70.2503C64.1637 70.1292 64.0316 70.0323 63.8836 69.9659C63.7356 69.8995 63.5752 69.8652 63.4129 69.8652H53.6586C53.4129 69.8652 53.1737 69.9438 52.9762 70.0895C52.7787 70.2353 52.6334 70.4404 52.5618 70.6746L51.7556 73.3103C51.1679 73.0843 50.6257 72.7549 50.1547 72.3379L48.5185 70.8862C48.495 70.8654 48.4707 70.8454 48.4457 70.8268C46.6741 69.4913 44.5662 68.6706 42.3555 68.4555C40.1447 68.2403 37.9174 68.6392 35.9201 69.6079L35.2423 69.9345C34.3369 70.3695 33.345 70.5961 32.34 70.5975H27.5171L23.9104 68.6424C22.9483 68.0924 21.8447 67.8378 20.738 67.9106C19.6313 67.9834 18.5709 68.3804 17.6897 69.0516L17.238 68.809C17.2294 68.8044 17.221 68.8001 17.2124 68.7959C15.5882 67.9754 13.4901 68.4658 12.1703 69.8382L12.1627 69.8342C11.0079 69.2111 9.65646 69.0561 8.38983 69.4013C7.1232 69.7465 6.039 70.5654 5.36301 71.6874C5.21229 71.9369 5.16285 72.2343 5.22478 72.5189C5.28672 72.8036 5.45537 73.0539 5.69626 73.2187L22.7836 84.9119C22.8283 84.9425 22.8752 84.9699 22.9238 84.9938C25.4506 86.2338 28.3092 86.6356 31.0815 86.1407L40.9585 84.328C40.9828 84.3238 41.0067 84.3185 41.0306 84.3126C41.646 84.1573 42.2976 84.2397 42.8546 84.5434L47.4362 87.4301L45.9674 92.2322C45.9151 92.403 45.9037 92.5836 45.9342 92.7596C45.9646 92.9355 46.036 93.1019 46.1426 93.2454C46.2492 93.389 46.3881 93.5055 46.5481 93.5859C46.7081 93.6662 46.8848 93.7081 47.064 93.7081H60.7751C61.0551 93.7081 61.3254 93.606 61.5351 93.421C61.7447 93.236 61.8792 92.9809 61.9131 92.7039L64.551 71.1458C64.5706 70.9853 64.5558 70.8225 64.5076 70.6681C64.4594 70.5137 64.3788 70.3713 64.2713 70.2503ZM22.7754 70.6279L22.8025 70.6432L23.52 71.0319C23.1405 71.1843 22.7774 71.3747 22.4366 71.6003L20.0899 70.3407C20.5328 70.199 21.0006 70.1514 21.4631 70.2008C21.9257 70.2503 22.3727 70.3958 22.7754 70.6279ZM16.1654 70.8287L20.7436 73.2873C20.5541 73.5712 20.3893 73.8706 20.2508 74.1824L14.3441 71.0073C14.928 70.6601 15.6289 70.5643 16.1649 70.8287H16.1654ZM44.0512 82.5938C44.034 82.5828 44.0162 82.5721 43.9983 82.5622C42.9379 81.9688 41.6911 81.7986 40.5097 82.0861L30.6689 83.8917C28.409 84.295 26.0789 83.9759 24.0118 82.9799L8.0565 72.0614C8.48625 71.7423 8.9986 71.5523 9.53312 71.5139C10.0676 71.4754 10.602 71.5902 11.0733 71.8445L19.2033 76.2157L19.7383 76.4966C19.7383 76.5347 19.7356 76.5711 19.7356 76.6088C19.7356 76.9119 19.8564 77.2025 20.0714 77.4168C20.2864 77.6311 20.578 77.7515 20.8821 77.7515C20.8993 77.7515 20.9167 77.7515 20.9341 77.7503L26.5399 77.4976C28.1568 77.4248 29.777 77.4993 31.3804 77.7204C31.5295 77.741 31.6812 77.7321 31.8269 77.6942C31.9726 77.6564 32.1094 77.5903 32.2295 77.4997C32.3495 77.4092 32.4505 77.2959 32.5267 77.1665C32.6028 77.037 32.6527 76.8939 32.6733 76.7453C32.694 76.5966 32.685 76.4454 32.647 76.3002C32.609 76.155 32.5427 76.0186 32.4519 75.899C32.361 75.7793 32.2474 75.6787 32.1175 75.6028C31.9876 75.5269 31.844 75.4772 31.6949 75.4566C29.953 75.2167 28.1929 75.1357 26.4363 75.2146L22.2291 75.405C22.4821 74.6696 22.9591 74.0313 23.5936 73.5791C24.2281 73.1269 24.9884 72.8833 25.7685 72.8824H32.3405C33.6913 72.8806 35.0243 72.5761 36.2411 71.9915L36.9189 71.6649C38.5301 70.8835 40.3263 70.5597 42.1101 70.7292C43.8939 70.8986 45.5964 71.5547 47.0305 72.6253L48.6307 74.0449C49.3493 74.6806 50.1828 75.174 51.0868 75.4987L48.1302 85.1635L44.0512 82.5938ZM59.7598 91.4228H48.6121L54.5076 72.15H62.118L59.7598 91.4228Z" fill="#284268"/>
<path d="M12.7081 35.3617V33.3279H13.8275C14.5327 33.3284 15.2369 33.3815 15.9341 33.4866L12.6307 37.9761C10.3338 41.0822 9.1572 44.8706 9.29171 48.7268C9.42622 52.583 10.864 56.2809 13.3717 59.2205C15.2782 61.47 17.6546 63.2774 20.3348 64.5163C23.015 65.7552 25.9343 66.3958 28.8887 66.3932C31.8432 66.3957 34.7625 65.7551 37.4427 64.5161C40.1228 63.2772 42.4992 61.4699 44.4057 59.2205C46.9135 56.2809 48.3512 52.583 48.4857 48.7268C48.6202 44.8706 47.4436 41.0822 45.1468 37.9761L41.8118 33.4435C41.8118 33.4155 41.816 33.3885 41.816 33.3605C41.8165 32.6038 41.5926 31.8637 41.1724 31.2334C41.6846 30.932 42.1203 30.5173 42.4459 30.0212C42.7715 29.5252 42.9783 28.9612 43.0504 28.3728C43.1224 27.7844 43.0577 27.1874 42.8613 26.6279C42.6649 26.0684 42.342 25.5614 41.9177 25.1461C42.6532 24.4129 43.07 23.4208 43.0781 22.3839C43.0861 21.3471 42.6848 20.3487 41.9607 19.6042C42.4239 19.1536 42.7606 18.5899 42.9374 17.9692C43.1141 17.3485 43.1247 16.6926 42.9681 16.0666C42.8115 15.4406 42.4931 14.8663 42.0447 14.4011C41.5963 13.9358 41.0334 13.5956 40.4121 13.4145C42.2597 12.4135 43.3888 10.2973 43.3888 7.53834V7.43359C43.3888 7.13054 43.268 6.8399 43.053 6.62561C42.838 6.41132 42.5464 6.29093 42.2423 6.29093H38.5882C39.2056 4.78 39.9481 3.3229 40.808 1.93474C40.9147 1.76251 40.9736 1.56514 40.9786 1.36281C40.9836 1.16047 40.9346 0.960442 40.8366 0.783174C40.7386 0.605906 40.5951 0.457761 40.4208 0.353891C40.2465 0.250021 40.0477 0.194153 39.8446 0.192001L22.5421 0.0103185C22.3361 0.00813512 22.1332 0.0613481 21.9549 0.164358C21.7767 0.267369 21.6295 0.416368 21.529 0.595678C21.4285 0.774989 21.3784 0.977982 21.3839 1.1833C21.3893 1.38861 21.4503 1.58866 21.5602 1.76239L22.6742 3.52456C23.2382 4.41744 23.7516 5.34107 24.212 6.29112H23.2148C19.1732 6.29112 18.1753 9.27708 17.6392 10.8808C17.5551 11.1555 17.4544 11.4249 17.3376 11.6875C16.1459 12.4142 15.0592 12.7677 14.0186 12.7677H12.7081V10.3213C12.7081 10.0182 12.5873 9.72759 12.3723 9.5133C12.1573 9.29901 11.8657 9.17862 11.5616 9.17862H1.74268C1.43861 9.17862 1.147 9.29901 0.931992 9.5133C0.716983 9.72759 0.596191 10.0182 0.596191 10.3213V35.3617C0.596191 35.6647 0.716983 35.9554 0.931992 36.1696C1.147 36.3839 1.43861 36.5043 1.74268 36.5043H11.5616C11.8657 36.5043 12.1573 36.3839 12.3723 36.1696C12.5873 35.9554 12.7081 35.6647 12.7081 35.3617ZM43.2975 39.3276C45.2884 42.0202 46.3083 45.3042 46.1916 48.647C46.075 51.9897 44.8288 55.1952 42.655 57.7435C40.9622 59.7375 38.8535 61.3397 36.476 62.4387C34.0985 63.5377 31.5092 64.1071 28.8884 64.1071C26.2676 64.1071 23.6782 63.5377 21.3007 62.4387C18.9232 61.3397 16.8146 59.7375 15.1217 57.7435C12.9479 55.1952 11.7016 51.9897 11.5851 48.6469C11.4685 45.3042 12.4884 42.0202 14.4794 39.3276L18.3485 34.0693C19.3236 34.3974 20.2598 34.8307 21.1406 35.3613C18.3189 37.7361 18.4832 41.4208 19.0587 43.2372C19.1515 43.5247 19.3547 43.764 19.6239 43.9026C19.8931 44.0413 20.2064 44.068 20.4954 43.9771C20.7843 43.8862 21.0254 43.6849 21.1659 43.4173C21.3065 43.1498 21.335 42.8376 21.2453 42.5492C21.0389 41.7756 20.9733 40.9714 21.0517 40.1747C21.1107 39.397 21.372 38.6479 21.8097 38.0014C22.2475 37.3548 22.8466 36.833 23.5482 36.4874C25.5809 37.1509 27.739 37.2255 29.9458 37.2255H32.6173L32.8902 37.7163C33.9142 39.5555 34.3841 41.6502 34.2434 43.749L34.2203 44.0988C34.2104 44.2485 34.2301 44.3987 34.2784 44.5409C34.3267 44.683 34.4027 44.8142 34.5019 44.9271C34.6011 45.04 34.7216 45.1323 34.8566 45.1987C34.9916 45.2652 35.1384 45.3045 35.2887 45.3144C35.3143 45.3161 35.3399 45.3169 35.3651 45.3169C35.6557 45.3166 35.9354 45.2063 36.1476 45.0083C36.3598 44.8103 36.4886 44.5394 36.5079 44.2504L36.5313 43.9005C36.6818 41.647 36.2501 39.3926 35.2772 37.3527C35.9393 37.6041 37.946 38.6931 38.3261 42.716C38.3528 42.9991 38.4844 43.262 38.6953 43.4535C38.9061 43.645 39.181 43.7513 39.4663 43.7516C39.5022 43.7516 39.5387 43.7499 39.5752 43.7465C39.8779 43.7181 40.1569 43.571 40.3508 43.3375C40.5447 43.1041 40.6376 42.8035 40.6091 42.5017C40.3684 39.9546 39.574 38.2686 38.6792 37.1535C39.5019 36.9924 40.2499 36.5695 40.8109 35.9484L43.2975 39.3276ZM41.0173 8.57625C40.8145 9.90783 40.1152 11.7656 37.7924 11.7656H36.9583C37.1663 10.6882 37.4348 9.62339 37.7626 8.57606L41.0173 8.57625ZM25.5488 2.32744C25.5907 2.35164 25.634 2.3732 25.6786 2.392C27.4921 3.14139 28.9489 5.48727 28.6764 7.21896C28.6531 7.36723 28.6593 7.51863 28.6947 7.6645C28.7301 7.81038 28.794 7.94788 28.8827 8.06914C28.9715 8.19041 29.0833 8.29307 29.2118 8.37125C29.3404 8.44944 29.4831 8.50163 29.6319 8.52483C29.6911 8.53406 29.7509 8.53871 29.8109 8.53873C30.084 8.53838 30.348 8.44089 30.5553 8.26381C30.7627 8.08673 30.8999 7.8417 30.9421 7.57281C31.2161 5.83063 30.5355 3.87383 29.2988 2.36667L32.9227 2.40476C32.5365 3.52361 32.1979 5.08867 32.491 6.71048C32.5449 7.00873 32.7155 7.27343 32.9652 7.44635C33.2149 7.61926 33.5233 7.68623 33.8226 7.63251C34.1218 7.57879 34.3874 7.4088 34.5609 7.15992C34.7344 6.91104 34.8016 6.60366 34.7477 6.30541C34.4699 4.76758 35.0244 3.21243 35.3748 2.43047L37.8621 2.45656C36.1735 5.60259 35.0345 9.01216 34.4939 12.5392L34.368 13.3548L29.4477 13.4459C29.3267 13.4353 29.209 13.4006 29.1018 13.3438C28.9945 13.287 28.8999 13.2093 28.8234 13.1153C28.1334 9.27974 26.7064 5.61319 24.6209 2.31715L25.5488 2.32744ZM12.7081 15.0532H14.0186C15.5281 15.0532 17.0428 14.5674 18.6466 13.5678C19.2926 13.1654 19.5345 12.4413 19.8148 11.603C20.4072 9.8307 20.9976 8.57606 23.2148 8.57606H25.1974C25.5984 9.63484 25.9347 10.7169 26.2042 11.8163V12.5234C26.2042 12.5648 26.2065 12.6062 26.2111 12.6473C26.3972 14.3476 27.8529 15.731 29.4559 15.731H29.4771L39.3751 15.5478C39.7517 15.549 40.1123 15.6992 40.3777 15.9655C40.6431 16.2317 40.7915 16.5921 40.7903 16.9674C40.7891 17.3426 40.6383 17.7021 40.3712 17.9666C40.1041 18.2311 39.7425 18.379 39.366 18.3778H37.0044C36.9506 18.3782 36.897 18.3824 36.8439 18.3902H35.3265C35.0224 18.3902 34.7308 18.5105 34.5158 18.7248C34.3008 18.9391 34.18 19.2298 34.18 19.5328C34.18 19.8359 34.3008 20.1265 34.5158 20.3408C34.7308 20.5551 35.0224 20.6755 35.3265 20.6755H39.1046C39.5506 20.6755 39.9785 20.8521 40.2939 21.1665C40.6093 21.4808 40.7866 21.9072 40.7866 22.3518C40.7866 22.7964 40.6093 23.2228 40.2939 23.5372C39.9785 23.8516 39.5506 24.0282 39.1046 24.0282H35.3265C35.0224 24.0282 34.7308 24.1486 34.5158 24.3629C34.3008 24.5772 34.18 24.8678 34.18 25.1709C34.18 25.4739 34.3008 25.7646 34.5158 25.9789C34.7308 26.1931 35.0224 26.3135 35.3265 26.3135H39.1892C39.6096 26.3181 40.0113 26.4878 40.3069 26.7857C40.6026 27.0836 40.7684 27.4857 40.7684 27.9048C40.7684 28.3238 40.6026 28.7259 40.3069 29.0238C40.0113 29.3218 39.6096 29.4914 39.1892 29.496H33.6192C33.3151 29.496 33.0235 29.6164 32.8085 29.8307C32.5935 30.045 32.4727 30.3356 32.4727 30.6387C32.4727 30.9417 32.5935 31.2324 32.8085 31.4467C33.0235 31.6609 33.3151 31.7813 33.6192 31.7813H37.9376C38.3549 31.7859 38.7536 31.9543 39.0471 32.2501C39.3406 32.5458 39.5052 32.945 39.5052 33.361C39.5052 33.7769 39.3406 34.1761 39.0471 34.4718C38.7536 34.7676 38.3549 34.936 37.9376 34.9406H29.9458C27.1388 34.9406 24.6404 34.8324 22.4909 33.5033C19.8897 31.8942 16.889 31.0419 13.8275 31.0426H12.7081V15.0532ZM10.4151 34.219H2.88917V11.4639H10.4151V34.219Z" fill="#284268"/>
<path d="M29.4572 48.8868C29.8413 48.8871 30.2096 49.0394 30.4812 49.31C30.7528 49.5807 30.9056 49.9477 30.906 50.3305C30.906 50.6336 31.0268 50.9242 31.2418 51.1385C31.4568 51.3528 31.7484 51.4732 32.0525 51.4732C32.3565 51.4732 32.6481 51.3528 32.8632 51.1385C33.0782 50.9242 33.1989 50.6336 33.1989 50.3305C33.1976 49.5419 32.9458 48.7739 32.4796 48.1366C32.0134 47.4993 31.3567 47.0256 30.6037 46.7832V46.3238C30.6037 46.0208 30.4829 45.7301 30.2679 45.5158C30.0529 45.3015 29.7613 45.1812 29.4572 45.1812C29.1531 45.1812 28.8615 45.3015 28.6465 45.5158C28.4315 45.7301 28.3107 46.0208 28.3107 46.3238V46.7832C27.4617 47.0553 26.7382 47.6207 26.2706 48.3775C25.803 49.1343 25.6221 50.0327 25.7604 50.9107C25.8987 51.7888 26.3472 52.5887 27.025 53.1662C27.7029 53.7438 28.5654 54.061 29.4572 54.0607C29.8413 54.0582 30.2106 54.2079 30.484 54.4768C30.7574 54.7457 30.9124 55.1118 30.9149 55.4946C30.9175 55.8774 30.7673 56.2455 30.4975 56.518C30.2277 56.7905 29.8604 56.9449 29.4763 56.9475C29.47 56.9475 29.4641 56.9475 29.4572 56.9475C29.4503 56.9475 29.4451 56.9475 29.4381 56.9475C29.0573 56.9423 28.6939 56.7881 28.4263 56.5181C28.1586 56.2481 28.0083 55.884 28.0078 55.5045C28.0078 55.2014 27.887 54.9108 27.672 54.6965C27.457 54.4822 27.1654 54.3618 26.8613 54.3618C26.5573 54.3618 26.2657 54.4822 26.0506 54.6965C25.8356 54.9108 25.7148 55.2014 25.7148 55.5045C25.716 56.2933 25.9677 57.0615 26.4339 57.699C26.9001 58.3365 27.5568 58.8105 28.3099 59.053V59.6299C28.3099 59.9329 28.4307 60.2236 28.6457 60.4378C28.8607 60.6521 29.1523 60.7725 29.4564 60.7725C29.7605 60.7725 30.0521 60.6521 30.2671 60.4378C30.4821 60.2236 30.6029 59.9329 30.6029 59.6299V59.053C31.4519 58.7809 32.1754 58.2155 32.643 57.4587C33.1106 56.7019 33.2915 55.8035 33.1532 54.9254C33.0149 54.0474 32.5664 53.2475 31.8886 52.6699C31.2107 52.0924 30.3482 51.7751 29.4564 51.7754C29.0751 51.7711 28.7109 51.617 28.4427 51.3467C28.1746 51.0764 28.0243 50.7117 28.0243 50.3316C28.0243 49.9515 28.1746 49.5867 28.4427 49.3164C28.7109 49.0461 29.0751 48.8921 29.4564 48.8877L29.4572 48.8868Z" fill="#284268"/>
</svg>
