<svg width="93" height="93" viewBox="0 0 93 93" fill="none" xmlns="http://www.w3.org/2000/svg">
<path d="M78.2215 40.8132C67.8853 33.1561 52.5391 21.7877 48.1367 18.5264H45.6892L15.6045 40.8132V78.1253H66.7705L78.2215 66.7212V40.8132Z" fill="white"/>
<path d="M69.9443 19.488V9.13477H81.4601V27.9179L69.9443 19.488Z" fill="#EF3C3C"/>
<path d="M2.64941 35.1158C2.64941 35.1158 8.64445 41.0984 11.4458 43.8939L46.9131 17.6198C46.9131 17.6198 71.0853 35.5265 82.3804 43.8939L91.1768 35.1158L46.9131 2.3252L2.64941 35.1158Z" fill="#FF5D5D"/>
<path d="M16.6843 90.4898H4.44875C3.45498 90.4898 2.64941 89.6875 2.64941 88.6978V62.1767C2.64941 61.187 3.45498 60.3848 4.44875 60.3848H16.6843C17.678 60.3848 18.4836 61.187 18.4836 62.1767V88.6978C18.4836 89.6875 17.678 90.4898 16.6843 90.4898Z" fill="#FEA02C"/>
<path d="M81.7845 63.6171C79.7863 61.4942 76.4699 61.2979 74.2334 63.1702L59.9099 75.1606L51.7352 80.1091L53.3436 76.9943C53.3934 75.6121 52.7473 74.2334 51.5005 73.4057L39.4631 65.4137C37.6919 64.2376 35.6108 63.6101 33.482 63.6101H18.4834V86.7291L29.2026 90.4896H54.8957C57.4464 90.4896 59.9144 89.5891 61.8615 87.948L81.3249 71.5437C83.7272 69.5193 83.9367 65.9036 81.7845 63.6171Z" fill="#FFCDAC"/>
<path d="M81.3066 45.3318C81.6273 45.5694 82.0046 45.686 82.3801 45.686C82.844 45.686 83.3055 45.5079 83.6542 45.1599L92.4507 36.3818C92.8199 36.0134 93.0099 35.5036 92.9716 34.9844C92.9332 34.4655 92.6704 33.9886 92.2511 33.6781L83.2598 27.0174V9.13463C83.2598 8.14493 82.4541 7.34267 81.4605 7.34267H69.9447C68.9511 7.34267 68.1454 8.14493 68.1454 9.13463V15.8206L47.9872 0.887474C47.3497 0.415113 46.4767 0.415113 45.8392 0.887474L30.0833 12.5596C29.286 13.1502 29.1203 14.2729 29.7135 15.0669C30.3067 15.8611 31.434 16.026 32.2311 15.4352L46.9132 4.55867L88.4335 35.3168L82.2061 41.5314L47.9872 16.1821C47.3497 15.7097 46.4767 15.7097 45.8392 16.1821L11.6204 41.5314L5.3931 35.3168L21.5283 23.3639C22.3256 22.7733 22.4913 21.6506 21.8981 20.8566C21.3048 20.0624 20.1777 19.8977 19.3804 20.4883L1.57545 33.6781C1.1562 33.9886 0.893316 34.4655 0.85499 34.9844C0.816484 35.5034 1.00667 36.0134 1.3759 36.3818L10.1723 45.1599C10.8034 45.7896 11.8029 45.8629 12.5199 45.3318L13.8054 44.3793V58.5928H4.44881C2.4645 58.5928 0.850132 60.2006 0.850132 62.1768V88.6978C0.850132 90.674 2.4645 92.2817 4.44881 92.2817H16.6843C18.4817 92.2817 19.9712 90.9612 20.2366 89.2442L28.6051 92.18C28.7971 92.2473 28.9992 92.2817 29.2028 92.2817H54.896C57.8686 92.2817 60.7551 91.2286 63.0241 89.3162L82.4875 72.912C84.0294 71.6125 84.9429 69.7908 85.0592 67.7824C85.1756 65.7739 84.4789 63.8596 83.0975 62.392C82.2241 61.4641 81.1603 60.8154 80.021 60.4489V44.3793L81.3066 45.3318ZM71.7441 10.9266H79.6611V24.3514L71.7441 18.4865V10.9266ZM16.6843 88.6978H4.44881V62.1768H8.76722V75.4373C8.76722 76.427 9.57296 77.2292 10.5666 77.2292C11.5602 77.2292 12.3659 76.427 12.3659 75.4373V62.1768H16.6843V63.6078C16.6843 63.6087 16.6843 63.6094 16.6843 63.6103C16.6843 63.6112 16.6843 63.6119 16.6843 63.6128L16.6863 86.6483C16.6843 86.6897 16.6854 86.731 16.6863 86.772L16.6866 88.6978C16.6866 88.6978 16.6859 88.6978 16.6843 88.6978ZM76.4223 60.2205C75.2258 60.4437 74.0702 60.9665 73.0757 61.7988L58.7523 73.7892C57.9915 74.4259 57.8933 75.5563 58.5326 76.3139C59.1723 77.0716 60.3071 77.1692 61.0679 76.5325L75.3913 64.5421C76.8961 63.2826 79.1278 63.4146 80.4717 64.8428C81.1722 65.5869 81.5253 66.5574 81.4664 67.5756C81.4074 68.5938 80.9444 69.5174 80.1626 70.1763L60.6992 86.5804C59.0792 87.9459 57.0183 88.6978 54.8958 88.6978H29.5105L20.283 85.4606V65.4023H33.482C35.2616 65.4023 36.9846 65.9218 38.4651 66.9048L50.5025 74.8968C51.0398 75.2536 51.398 75.7987 51.5112 76.432C51.6244 77.0653 51.4772 77.7002 51.0965 78.2197C50.4307 79.128 49.2077 79.4362 48.1889 78.951L37.8908 74.0521C36.9936 73.6254 35.9198 74.0035 35.4915 74.8967C35.0631 75.7896 35.4428 76.8594 36.3396 77.2859L46.6377 82.1847C47.4589 82.5756 48.3323 82.763 49.1962 82.763C51.0472 82.763 52.8535 81.9013 54.0035 80.332C54.9677 79.016 55.3409 77.4077 55.0543 75.8036C54.7675 74.1996 53.8599 72.8185 52.4987 71.9146L40.4613 63.9227C38.3877 62.5461 35.9743 61.8184 33.4822 61.8184H20.2648C20.1075 60.2491 18.9301 58.9749 17.4042 58.665V41.7134L46.9134 19.8531L76.4225 41.7134V60.2205H76.4223Z" fill="black"/>
<path d="M25.9654 19.6357C26.4386 19.6357 26.9008 19.4439 27.2373 19.1106C27.572 18.7773 27.7647 18.315 27.7647 17.8437C27.7647 17.3724 27.5722 16.9101 27.2373 16.5768C26.9028 16.2435 26.4386 16.0518 25.9654 16.0518C25.4901 16.0518 25.0259 16.2435 24.6914 16.5768C24.3567 16.9101 24.166 17.3724 24.166 17.8437C24.166 18.315 24.3567 18.7773 24.6914 19.1106C25.0279 19.4439 25.4903 19.6357 25.9654 19.6357Z" fill="black"/>
<path d="M40.0508 59.4056C40.3304 59.5628 40.634 59.6375 40.9338 59.6375C41.5616 59.6375 42.1715 59.3096 42.5022 58.7261L54.4761 37.603C54.9646 36.7413 54.6593 35.6482 53.7938 35.1616C52.9285 34.6749 51.8309 34.979 51.3424 35.8411L39.3685 56.9643C38.88 57.826 39.1854 58.9191 40.0508 59.4056Z" fill="black"/>
<path d="M48.7207 54.8129C48.7207 58.1725 51.4651 60.9056 54.8385 60.9056C58.2119 60.9056 60.9562 58.1725 60.9562 54.8129C60.9562 51.4533 58.2119 48.7202 54.8385 48.7202C51.4651 48.7202 48.7207 51.4533 48.7207 54.8129ZM54.8385 52.3041C56.2275 52.3041 57.3575 53.4295 57.3575 54.8129C57.3575 56.1963 56.2275 57.3216 54.8385 57.3216C53.4494 57.3216 52.3194 56.1963 52.3194 54.8129C52.3194 53.4295 53.4494 52.3041 54.8385 52.3041Z" fill="black"/>
<path d="M45.1232 37.4496C45.1232 34.09 42.3788 31.3569 39.0054 31.3569C35.632 31.3569 32.8877 34.09 32.8877 37.4496C32.8877 40.8092 35.632 43.5423 39.0054 43.5423C42.3788 43.5423 45.1232 40.8092 45.1232 37.4496ZM39.0054 39.9584C37.6164 39.9584 36.4864 38.833 36.4864 37.4496C36.4864 36.0662 37.6164 34.9409 39.0054 34.9409C40.3945 34.9409 41.5245 36.0662 41.5245 37.4496C41.5245 38.833 40.3945 39.9584 39.0054 39.9584Z" fill="black"/>
<path d="M10.6563 80.7236C10.183 80.7236 9.71882 80.9154 9.38414 81.2487C9.04766 81.582 8.85693 82.0443 8.85693 82.5156C8.85693 82.9869 9.04766 83.4492 9.38414 83.7825C9.71882 84.1158 10.183 84.3076 10.6563 84.3076C11.1295 84.3076 11.5937 84.1158 11.9282 83.7825C12.2629 83.4492 12.4556 82.9869 12.4556 82.5156C12.4556 82.0443 12.2631 81.582 11.9282 81.2487C11.5937 80.9154 11.1295 80.7236 10.6563 80.7236Z" fill="black"/>
</svg>
