<svg width="74" height="74" viewBox="0 0 74 74" fill="none" xmlns="http://www.w3.org/2000/svg">
<path d="M69.9935 48.8294H60.53V40.5489C60.53 39.8983 59.9977 39.366 59.3471 39.366H55.7983V37.355C55.7983 36.4442 56.4016 35.6398 57.2652 35.3795L62.8959 33.6879L67.3319 32.3512C67.533 32.2921 67.7341 32.2684 67.9352 32.2684C69.0708 32.2684 69.9935 33.1911 69.9935 34.3267V48.8294Z" fill="#E6E9ED"/>
<path d="M46.3345 48.8294V40.5489C46.3345 39.8983 46.8668 39.366 47.5174 39.366H55.7979H59.3467C59.9973 39.366 60.5296 39.8983 60.5296 40.5489V48.8294H46.3345Z" fill="#CF9E76"/>
<path d="M46.3345 40.5488V48.8293H43.9687H27.4077V40.5488V35.8171C27.4077 35.1665 27.94 34.6342 28.5906 34.6342H32.1394H36.8711H41.6028H45.1516C45.8022 34.6342 46.3345 35.1665 46.3345 35.8171V40.5488Z" fill="#ECC19C"/>
<path d="M13.2129 48.8294H3.74951V34.3267C3.74951 33.1911 4.67219 32.2684 5.8078 32.2684C6.0089 32.2684 6.21 32.2921 6.4111 32.3512L10.8471 33.6879L16.4778 35.3795C17.3413 35.6398 17.9446 36.4442 17.9446 37.355V39.366H14.3958C13.7452 39.366 13.2129 39.8983 13.2129 40.5489V48.8294Z" fill="#AAB2BD"/>
<path d="M13.2124 48.8294V40.5489C13.2124 39.8983 13.7447 39.366 14.3953 39.366H17.9441H26.2246C26.8752 39.366 27.4075 39.8983 27.4075 40.5489V48.8294H25.0417H13.2124Z" fill="#CCD1D9"/>
<path d="M25.0417 51.1952V48.8293H27.4075H43.9685V51.1952C43.9685 52.4964 45.0331 53.5611 46.3343 53.5611H58.1636C59.4648 53.5611 60.5295 54.6257 60.5295 55.9269C60.5295 56.5775 60.2692 57.169 59.8315 57.5948C59.4057 58.0325 58.8142 58.2928 58.1636 58.2928H51.066C49.7648 58.2928 48.7002 59.3574 48.7002 60.6586C48.7002 61.3092 48.4399 61.9007 48.0023 62.3265C47.5764 62.7642 46.9849 63.0245 46.3343 63.0245H41.6026C40.3014 63.0245 39.2368 64.0891 39.2368 65.3903C39.2368 66.0409 39.497 66.6324 39.9347 67.0582C40.3606 67.4959 40.952 67.7562 41.6026 67.7562C42.2532 67.7562 42.8447 68.0164 43.2706 68.4541C43.7082 68.8799 43.9685 69.4714 43.9685 70.122V71.8491C41.65 72.2749 39.2723 72.4879 36.8709 72.4879C34.4696 72.4879 32.0919 72.2749 29.7734 71.8491V70.122C29.7734 69.4714 29.5131 68.8799 29.0754 68.4541C28.6496 68.0164 28.0581 67.7562 27.4075 67.7562C26.7569 67.7562 26.1654 67.4959 25.7396 67.0582C25.3019 66.6324 25.0417 66.0409 25.0417 65.3903C25.0417 64.0891 26.1063 63.0245 27.4075 63.0245H29.7734C30.424 63.0245 31.0154 62.7642 31.4413 62.3265C31.879 61.9007 32.1392 61.3092 32.1392 60.6586C32.1392 59.3574 31.0746 58.2928 29.7734 58.2928H15.5783C14.9276 58.2928 14.3362 58.0325 13.9103 57.5948C13.4726 57.169 13.2124 56.5775 13.2124 55.9269C13.2124 54.6257 14.277 53.5611 15.5783 53.5611H22.6758C23.977 53.5611 25.0417 52.4964 25.0417 51.1952Z" fill="#69D6F4"/>
<path d="M46.3344 48.8293H60.5295H69.9929H70.4779C71.5189 48.8293 72.3587 49.6692 72.3587 50.7102C72.3587 51.0296 72.2759 51.3372 72.1222 51.6211L72.0157 51.8103C66.1011 62.4685 55.7268 69.7553 43.9685 71.8491V70.122C43.9685 69.4714 43.7083 68.8799 43.2706 68.4541C42.8447 68.0164 42.2533 67.7562 41.6027 67.7562C40.9521 67.7562 40.3606 67.4959 39.9347 67.0582C39.4971 66.6324 39.2368 66.0409 39.2368 65.3903C39.2368 64.0891 40.3014 63.0245 41.6027 63.0245H46.3344C46.985 63.0245 47.5764 62.7642 48.0023 62.3265C48.44 61.9007 48.7002 61.3092 48.7002 60.6586C48.7002 59.3574 49.7649 58.2928 51.0661 58.2928H58.1636C58.8142 58.2928 59.4057 58.0325 59.8316 57.5948C60.2692 57.169 60.5295 56.5775 60.5295 55.9269C60.5295 54.6257 59.4649 53.5611 58.1636 53.5611H46.3344C45.0332 53.5611 43.9685 52.4964 43.9685 51.1952V48.8293H46.3344Z" fill="#B4DD7F"/>
<path d="M29.7735 71.8491C18.0152 69.7553 7.64098 62.4685 1.72635 51.8103L1.61989 51.6211C1.46611 51.3372 1.3833 51.0296 1.3833 50.7102C1.3833 49.6692 2.22318 48.8293 3.26415 48.8293H3.74915H13.2126H25.0418V51.1952C25.0418 52.4964 23.9772 53.5611 22.676 53.5611H15.5784C14.2772 53.5611 13.2126 54.6257 13.2126 55.9269C13.2126 56.5775 13.4728 57.169 13.9105 57.5948C14.3363 58.0325 14.9278 58.2928 15.5784 58.2928H29.7735C31.0748 58.2928 32.1394 59.3574 32.1394 60.6586C32.1394 61.3092 31.8791 61.9007 31.4415 62.3265C31.0156 62.7642 30.4241 63.0245 29.7735 63.0245H27.4077C26.1065 63.0245 25.0418 64.0891 25.0418 65.3903C25.0418 66.0409 25.3021 66.6324 25.7398 67.0582C26.1656 67.4959 26.7571 67.7562 27.4077 67.7562C28.0583 67.7562 28.6498 68.0164 29.0756 68.4541C29.5133 68.8799 29.7735 69.4714 29.7735 70.122V71.8491Z" fill="#B4DD7F"/>
<path d="M72.3589 10.9756V11.2004C72.3589 13.3533 71.6255 15.4352 70.2888 17.115L62.8955 26.3537L55.5022 17.115C54.1655 15.4352 53.4321 13.3533 53.4321 11.2004V10.9756C53.4321 5.74708 57.667 1.51221 62.8955 1.51221C65.5098 1.51221 67.8757 2.57684 69.5909 4.28025C71.2943 5.9955 72.3589 8.36135 72.3589 10.9756Z" fill="#FF826E"/>
<path d="M46.3345 10.9756V11.2004C46.3345 13.3533 45.6011 15.4352 44.2644 17.115L36.8711 26.3537L29.4778 17.115C28.1411 15.4352 27.4077 13.3533 27.4077 11.2004V10.9756C27.4077 5.74708 31.6426 1.51221 36.8711 1.51221C39.4854 1.51221 41.8512 2.57684 43.5665 4.28025C45.2699 5.9955 46.3345 8.36135 46.3345 10.9756Z" fill="#FF826E"/>
<path d="M20.3101 10.9756V11.2004C20.3101 13.3533 19.5767 15.4352 18.24 17.115L10.8467 26.3537L3.45342 17.115C2.11672 15.4352 1.3833 13.3533 1.3833 11.2004V10.9756C1.3833 5.74708 5.61818 1.51221 10.8467 1.51221C13.461 1.51221 15.8268 2.57684 17.5421 4.28025C19.2455 5.9955 20.3101 8.36135 20.3101 10.9756Z" fill="#FF826E"/>
<path d="M62.8953 15.7074C65.5085 15.7074 67.627 13.589 67.627 10.9757C67.627 8.36247 65.5085 6.24402 62.8953 6.24402C60.282 6.24402 58.1636 8.36247 58.1636 10.9757C58.1636 13.589 60.282 15.7074 62.8953 15.7074Z" fill="#FFEAA7"/>
<path d="M36.8714 15.7074C39.4846 15.7074 41.6031 13.589 41.6031 10.9757C41.6031 8.36247 39.4846 6.24402 36.8714 6.24402C34.2581 6.24402 32.1396 8.36247 32.1396 10.9757C32.1396 13.589 34.2581 15.7074 36.8714 15.7074Z" fill="#FFEAA7"/>
<path d="M10.8469 15.7074C13.4602 15.7074 15.5786 13.589 15.5786 10.9757C15.5786 8.36247 13.4602 6.24402 10.8469 6.24402C8.23369 6.24402 6.11523 8.36247 6.11523 10.9757C6.11523 13.589 8.23369 15.7074 10.8469 15.7074Z" fill="#FFEAA7"/>
<path d="M36.8712 16.8904C40.1325 16.8904 42.7858 14.2371 42.7858 10.9758C42.7858 7.71446 40.1325 5.06116 36.8712 5.06116C33.6098 5.06116 30.9565 7.71446 30.9565 10.9758C30.9565 14.2371 33.6098 16.8904 36.8712 16.8904ZM36.8712 7.42701C38.8277 7.42701 40.42 9.01923 40.42 10.9758C40.42 12.9323 38.8277 14.5246 36.8712 14.5246C34.9146 14.5246 33.3224 12.9323 33.3224 10.9758C33.3224 9.01923 34.9146 7.42701 36.8712 7.42701Z" fill="black"/>
<path d="M36.8714 28.2476L45.185 17.8556C46.6897 15.9759 47.5178 13.6136 47.5178 11.2052V10.9757C47.5178 5.106 42.7411 0.329346 36.8714 0.329346C31.0018 0.329346 26.2251 5.106 26.2251 10.9757V11.2052C26.2251 13.6136 27.0531 15.9759 28.5578 17.8556L36.8714 28.2476ZM28.591 10.9757C28.591 6.40959 32.3053 2.6952 36.8714 2.6952C41.4375 2.6952 45.1519 6.40959 45.1519 10.9757V11.2052C45.1519 13.0777 44.5072 14.916 43.3373 16.3781L36.8714 24.4599L30.4056 16.3769C29.2356 14.916 28.591 13.0777 28.591 11.2052V10.9757Z" fill="black"/>
<path d="M62.8961 5.06116C59.6347 5.06116 56.9814 7.71446 56.9814 10.9758C56.9814 14.2371 59.6347 16.8904 62.8961 16.8904C66.1574 16.8904 68.8107 14.2371 68.8107 10.9758C68.8107 7.71446 66.1574 5.06116 62.8961 5.06116ZM62.8961 14.5246C60.9395 14.5246 59.3473 12.9323 59.3473 10.9758C59.3473 9.01923 60.9395 7.42701 62.8961 7.42701C64.8526 7.42701 66.4449 9.01923 66.4449 10.9758C66.4449 12.9323 64.8526 14.5246 62.8961 14.5246Z" fill="black"/>
<path d="M62.8958 0.329346C57.0262 0.329346 52.2495 5.106 52.2495 10.9757V11.2052C52.2495 13.6136 53.0776 15.9759 54.5822 17.8556L62.8958 28.2476L71.2095 17.8556C72.7141 15.9759 73.5422 13.6136 73.5422 11.2052V10.9757C73.5422 5.106 68.7655 0.329346 62.8958 0.329346ZM71.1763 11.2052C71.1763 13.0777 70.5316 14.916 69.3617 16.3781L62.8958 24.4599L56.43 16.3769C55.2601 14.916 54.6154 13.0777 54.6154 11.2052V10.9757C54.6154 6.40959 58.3298 2.6952 62.8958 2.6952C67.4619 2.6952 71.1763 6.40959 71.1763 10.9757V11.2052Z" fill="black"/>
<path d="M10.8468 16.8904C14.1081 16.8904 16.7614 14.2371 16.7614 10.9758C16.7614 7.71446 14.1081 5.06116 10.8468 5.06116C7.58543 5.06116 4.93213 7.71446 4.93213 10.9758C4.93213 14.2371 7.58543 16.8904 10.8468 16.8904ZM10.8468 7.42701C12.8033 7.42701 14.3955 9.01923 14.3955 10.9758C14.3955 12.9323 12.8033 14.5246 10.8468 14.5246C8.8902 14.5246 7.29798 12.9323 7.29798 10.9758C7.29798 9.01923 8.8902 7.42701 10.8468 7.42701Z" fill="black"/>
<path d="M10.847 28.2477L19.1606 17.8557C20.6653 15.976 21.4934 13.6137 21.4934 11.2053V10.9758C21.4934 5.10612 16.7167 0.329468 10.847 0.329468C4.97734 0.329468 0.200684 5.10612 0.200684 10.9758V11.2053C0.200684 13.6137 1.02873 15.976 2.53341 17.8557L10.847 28.2477ZM2.56654 10.9758C2.56654 6.40971 6.28092 2.69532 10.847 2.69532C15.4131 2.69532 19.1275 6.40971 19.1275 10.9758V11.2053C19.1275 13.0779 18.4828 14.9161 17.3129 16.3782L10.847 24.46L4.38115 16.377C3.21123 14.9161 2.56654 13.0779 2.56654 11.2053V10.9758Z" fill="black"/>
<path d="M71.1763 47.734V34.3314C71.1763 32.848 70.1708 31.6083 68.8104 31.2215V26.3538H66.4446V31.3883L64.0787 32.0981V29.9025H61.7129V32.8078L56.9279 34.2439C55.5451 34.6591 54.6153 35.9083 54.6153 37.3526V38.183H47.5177V35.8172C47.5177 34.5124 46.4566 33.4513 45.1519 33.4513H42.786V31.0855H40.4202V33.4513H38.0543V28.7196H35.6885V33.4513H33.3226V31.0855H30.9568V33.4513H28.5909C27.2861 33.4513 26.2251 34.5124 26.2251 35.8172V38.183H19.1275V37.3526C19.1275 35.9083 18.1977 34.6591 16.8137 34.2427L12.0299 32.8078V29.9025H9.66409V32.0981L7.29824 31.3883V26.3538H4.93239V31.2227C3.57202 31.6095 2.56654 32.8492 2.56654 34.3326V47.734C1.21327 48.051 0.200684 49.2611 0.200684 50.709C0.200684 51.2272 0.333171 51.7417 0.586318 52.196L0.689232 52.3817C7.98552 65.5134 21.8494 73.6708 36.8714 73.6708C51.8934 73.6708 65.7573 65.5134 73.0536 52.3817L73.1577 52.1948C73.4096 51.7405 73.5421 51.2272 73.5421 50.7078C73.5421 49.2599 72.5295 48.051 71.1763 47.734ZM56.9811 37.3526C56.9811 36.9611 57.2331 36.6216 57.6081 36.5092L67.6783 33.488C68.2272 33.3259 68.8104 33.7612 68.8104 34.3314V47.6464H61.7129V40.5489C61.7129 39.2441 60.6518 38.183 59.347 38.183H56.9811V37.3526ZM59.347 40.5489V47.6464H47.5177V40.5489H59.347ZM28.5909 35.8172H45.1519V40.5489V47.6464H28.5909V40.5489V35.8172ZM26.2251 47.6464H14.3958V40.5489H26.2251V47.6464ZM6.06563 33.4892L16.1335 36.5092C16.5097 36.6216 16.7617 36.9611 16.7617 37.3526V38.183H14.3958C13.091 38.183 12.0299 39.2441 12.0299 40.5489V47.6464H4.93239V34.3314C4.93239 33.7612 5.51439 33.3212 6.06563 33.4892ZM2.75699 51.2319L2.65407 51.0462C2.59611 50.9432 2.56654 50.8261 2.56654 50.7078C2.56654 50.3246 2.87883 50.0123 3.2621 50.0123H23.8592V51.1952C23.8592 51.847 23.3281 52.3781 22.6763 52.3781H15.5787C13.6222 52.3781 12.0299 53.9704 12.0299 55.9269C12.0299 57.8835 13.6222 59.4757 15.5787 59.4757H29.7738C30.4256 59.4757 30.9568 60.0068 30.9568 60.6586C30.9568 61.3104 30.4256 61.8415 29.7738 61.8415H27.408C25.4514 61.8415 23.8592 63.4338 23.8592 65.3903C23.8592 67.3469 25.4514 68.9391 27.408 68.9391C28.0598 68.9391 28.5909 69.4702 28.5909 70.122V70.4024C17.7553 68.046 8.26706 61.1495 2.75699 51.2319ZM30.9568 70.8377V70.122C30.9568 68.1655 29.3645 66.5733 27.408 66.5733C26.7562 66.5733 26.2251 66.0421 26.2251 65.3903C26.2251 64.7385 26.7562 64.2074 27.408 64.2074H29.7738C31.7304 64.2074 33.3226 62.6152 33.3226 60.6586C33.3226 58.7021 31.7304 57.1098 29.7738 57.1098H15.5787C14.9269 57.1098 14.3958 56.5787 14.3958 55.9269C14.3958 55.2751 14.9269 54.744 15.5787 54.744H22.6763C24.6328 54.744 26.2251 53.1518 26.2251 51.1952V50.0123H42.786V51.1952C42.786 53.1518 44.3783 54.744 46.3348 54.744H58.1641C58.8159 54.744 59.347 55.2751 59.347 55.9269C59.347 56.5787 58.8159 57.1098 58.1641 57.1098H51.0665C49.11 57.1098 47.5177 58.7021 47.5177 60.6586C47.5177 61.3104 46.9866 61.8415 46.3348 61.8415H41.6031C39.6465 61.8415 38.0543 63.4338 38.0543 65.3903C38.0543 67.3469 39.6465 68.9391 41.6031 68.9391C42.2549 68.9391 42.786 69.4702 42.786 70.122V70.8377C40.8448 71.1358 38.8705 71.305 36.8714 71.305C34.8723 71.305 32.8979 71.1358 30.9568 70.8377ZM71.0887 51.0462L70.9858 51.2319C65.4757 61.1495 55.9875 68.046 45.1519 70.4024V70.122C45.1519 68.1655 43.5597 66.5733 41.6031 66.5733C40.9513 66.5733 40.4202 66.0421 40.4202 65.3903C40.4202 64.7385 40.9513 64.2074 41.6031 64.2074H46.3348C48.2914 64.2074 49.8836 62.6152 49.8836 60.6586C49.8836 60.0068 50.4147 59.4757 51.0665 59.4757H58.1641C60.1206 59.4757 61.7129 57.8835 61.7129 55.9269C61.7129 53.9704 60.1206 52.3781 58.1641 52.3781H46.3348C45.683 52.3781 45.1519 51.847 45.1519 51.1952V50.0123H70.4807C70.864 50.0123 71.1763 50.3246 71.1763 50.7078C71.1763 50.8261 71.1467 50.9432 71.0887 51.0462Z" fill="black"/>
<path d="M16.7612 42.9147H19.1271V45.2805H16.7612V42.9147Z" fill="black"/>
<path d="M21.4932 42.9147H23.859V45.2805H21.4932V42.9147Z" fill="black"/>
<path d="M30.9565 38.183H33.3224V40.5488H30.9565V38.183Z" fill="black"/>
<path d="M35.6885 38.183H38.0543V40.5488H35.6885V38.183Z" fill="black"/>
<path d="M30.9565 42.9147H33.3224V45.2805H30.9565V42.9147Z" fill="black"/>
<path d="M35.6885 42.9147H38.0543V45.2805H35.6885V42.9147Z" fill="black"/>
<path d="M40.4204 38.183H42.7863V40.5488H40.4204V38.183Z" fill="black"/>
<path d="M40.4204 42.9147H42.7863V45.2805H40.4204V42.9147Z" fill="black"/>
<path d="M7.29785 42.9147H9.6637V45.2805H7.29785V42.9147Z" fill="black"/>
<path d="M7.29785 38.183H9.6637V40.5488H7.29785V38.183Z" fill="black"/>
<path d="M54.6152 42.9147H56.9811V45.2805H54.6152V42.9147Z" fill="black"/>
<path d="M49.8838 42.9147H52.2496V45.2805H49.8838V42.9147Z" fill="black"/>
<path d="M64.0786 42.9147H66.4445V45.2805H64.0786V42.9147Z" fill="black"/>
<path d="M64.0786 38.183H66.4445V40.5488H64.0786V38.183Z" fill="black"/>
</svg>
