<svg width="83" height="79" viewBox="0 0 83 79" fill="none" xmlns="http://www.w3.org/2000/svg">
<path fill-rule="evenodd" clip-rule="evenodd" d="M9.51082 50.3165C8.69632 50.7833 7.64683 50.742 6.86091 50.1292C5.71299 49.2353 4.24911 48.0969 3.10277 47.203C2.0644 46.3949 1.87864 44.8992 2.6852 43.8608C5.82889 39.8233 13.1975 30.3604 16.3412 26.3229C17.1494 25.2845 18.645 25.0987 19.6834 25.9053C20.8313 26.7992 22.2936 27.9392 23.4415 28.8315C24.2179 29.4364 24.518 30.4255 24.2814 31.3194L37.1038 38.1355L42.4719 32.7674C43.2833 31.9561 44.3724 31.483 45.5188 31.4449C50.6281 31.275 64.9446 30.7955 64.9446 30.7955C64.9731 29.8111 65.6114 28.9093 66.6021 28.5933C67.9882 28.1503 69.7538 27.5867 71.1399 27.1437C72.3926 26.7436 73.7326 27.4343 74.1327 28.6886C75.6887 33.5629 79.3373 44.9881 80.8948 49.8624C81.2949 51.1151 80.6027 52.4552 79.35 52.8553C77.9639 53.2983 76.1983 53.8619 74.8123 54.3049C74.0105 54.5605 73.1721 54.37 72.5688 53.8699L67.0404 57.9519L67.3865 58.1869C68.8901 59.0681 69.4029 61.0035 68.5312 62.515C67.6548 64.0329 65.7114 64.5536 64.1936 63.6772L61.4611 62.099C62.9647 62.9802 63.4775 64.9156 62.6059 66.4271C61.7294 67.945 59.7861 68.4658 58.2682 67.5894L55.5357 66.0112C57.0393 66.8923 57.5521 68.8278 56.6805 70.3393C55.804 71.8572 53.8591 72.3779 52.3428 71.5015L50.9853 70.7172C52.4889 71.5984 53.0017 73.5338 52.1301 75.0453C51.2536 76.5632 49.3087 77.0839 47.7924 76.2075L35.6797 69.6328L35.6828 69.6312L31.9152 72.5796C30.5354 73.6449 28.5508 73.3972 27.4743 72.0239C26.3947 70.6425 26.6376 68.6452 28.0173 67.5655L27.3759 68.0673C25.9961 69.1326 24.0115 68.8865 22.935 67.5116C21.8554 66.1302 22.0983 64.1329 23.478 63.0532L22.8366 63.555C21.4568 64.6203 19.4722 64.3742 18.3957 62.9993C17.3161 61.6195 17.559 59.6222 18.9387 58.5409L19.5484 58.0646C18.1687 59.13 16.1824 58.8839 15.106 57.5089C14.4312 56.6452 14.2724 55.5401 14.5884 54.5684L9.51082 50.3165Z" fill="#FFDFCF"/>
<path fill-rule="evenodd" clip-rule="evenodd" d="M6.86091 50.1292C7.89769 50.9373 9.39492 50.7516 10.2031 49.7132C13.3468 45.6756 20.7138 36.2128 23.8575 32.1736C24.6656 31.1368 24.4799 29.6396 23.4415 28.8315C22.2936 27.9392 20.8313 26.7992 19.6834 25.9053C18.645 25.0987 17.1494 25.2845 16.3412 26.3229C13.1975 30.3604 5.82889 39.8233 2.6852 43.8608C1.87864 44.8992 2.0644 46.3949 3.10277 47.203C4.24911 48.0969 5.71299 49.2353 6.86091 50.1292Z" fill="#F37C7C"/>
<path d="M41.5844 23.8159C47.7225 23.8159 52.6985 18.84 52.6985 12.7018C52.6985 6.5637 47.7225 1.58777 41.5844 1.58777C35.4463 1.58777 30.4703 6.5637 30.4703 12.7018C30.4703 18.84 35.4463 23.8159 41.5844 23.8159Z" fill="#C8EFFE"/>
<path fill-rule="evenodd" clip-rule="evenodd" d="M18.9387 58.5409L19.5484 58.0646C18.1687 59.13 16.1825 58.8839 15.106 57.5089C14.0263 56.1276 14.2693 54.1302 15.6506 53.0506L20.6678 49.1241C22.0475 48.0588 24.0337 48.3049 25.1086 49.6799C26.1899 51.0596 25.9454 53.0569 24.5656 54.1382L25.2071 53.6365C26.5868 52.5711 28.573 52.8172 29.6479 54.1922C30.7292 55.5719 30.4847 57.5692 29.1049 58.6505L28.4952 59.1268C29.875 58.0614 31.8612 58.3075 32.9377 59.6825C34.0173 61.0622 33.7744 63.0596 32.3931 64.1408L31.785 64.6171C33.1647 63.5518 35.151 63.7979 36.2259 65.1728C37.3071 66.5542 37.0626 68.5515 35.6829 69.6312L31.9152 72.5796C30.5355 73.6449 28.5508 73.3972 27.4743 72.0239C26.3947 70.6426 26.6376 68.6452 28.0173 67.5655L27.3759 68.0673C25.9962 69.1326 24.0115 68.8865 22.935 67.5116C21.8554 66.1302 22.0983 64.1329 23.478 63.0532L22.8366 63.555C21.4569 64.6203 19.4722 64.3742 18.3957 62.9993C17.3161 61.6195 17.559 59.6222 18.9387 58.5409Z" fill="#FFBF9F"/>
<path fill-rule="evenodd" clip-rule="evenodd" d="M64.9445 30.7955C64.9731 29.8111 65.6113 28.9093 66.6021 28.5933C67.9882 28.1503 69.7537 27.5867 71.1398 27.1437C72.3925 26.7436 73.7325 27.4343 74.1326 28.6886C75.6886 33.5629 79.3372 44.9881 80.8948 49.8624C81.2949 51.1151 80.6026 52.4552 79.3499 52.8553C77.9638 53.2983 76.1983 53.8619 74.8122 54.3049C74.0104 54.5605 73.1721 54.37 72.5687 53.8698L67.0403 57.9519L42.7974 41.4221L36.2258 47.9937C34.9858 49.2194 32.9852 49.2146 31.75 47.9794C30.5116 46.741 30.5116 44.7277 31.75 43.4893C31.75 43.4893 39.3933 35.846 42.4719 32.7674C43.2832 31.9561 44.3724 31.483 45.5187 31.4449C50.628 31.275 64.9445 30.7955 64.9445 30.7955Z" fill="#FFBF9F"/>
<path fill-rule="evenodd" clip-rule="evenodd" d="M79.3501 52.8553C80.6028 52.4552 81.295 51.1151 80.8949 49.8624C79.3374 44.9881 75.6888 33.5629 74.1328 28.6886C73.7327 27.4343 72.3927 26.7436 71.14 27.1437C69.7539 27.5867 67.9883 28.1503 66.6022 28.5933C65.3495 28.9934 64.6573 30.3334 65.0574 31.5862C66.6149 36.4605 70.2619 47.8857 71.8195 52.76C72.2196 54.0127 73.5596 54.705 74.8124 54.3049C76.1984 53.8619 77.964 53.2983 79.3501 52.8553Z" fill="#91DEB6"/>
<path d="M6.38008 40.6981C7.25696 40.6981 7.9678 39.9873 7.9678 39.1104C7.9678 38.2336 7.25696 37.5227 6.38008 37.5227C5.50321 37.5227 4.79236 38.2336 4.79236 39.1104C4.79236 39.9873 5.50321 40.6981 6.38008 40.6981Z" fill="black"/>
<path fill-rule="evenodd" clip-rule="evenodd" d="M72.6928 55.7529C73.4993 56.0561 74.4107 56.1006 75.295 55.818L79.8327 54.3684C81.9206 53.7016 83.0733 51.4676 82.4064 49.3798C80.8505 44.5055 77.2019 33.0802 75.6443 28.2043C74.9775 26.1165 72.7452 24.9638 70.6557 25.6306L66.1196 27.0802C64.9955 27.439 64.1445 28.2504 63.6999 29.2474L45.4649 29.8587C43.9169 29.9111 42.4451 30.5494 41.3495 31.6449L36.8118 36.181L25.9359 30.4017C25.8518 29.3284 25.3342 28.2932 24.4181 27.5788L20.6583 24.6526C18.9293 23.3062 16.435 23.6174 15.0886 25.3464C12.1894 29.0712 8.05817 34.3758 8.05817 34.3758C7.51994 35.0665 7.64537 36.0651 8.33602 36.6034C9.02827 37.1416 10.0269 37.0178 10.5652 36.3271C10.5652 36.3271 14.6949 31.0225 17.594 27.2977C17.8639 26.9516 18.3625 26.8897 18.7086 27.158L22.4668 30.0842C22.8129 30.3541 22.8748 30.8526 22.6049 31.1988L8.95047 48.7383C8.68056 49.0845 8.18202 49.1464 7.83589 48.8765L4.07775 45.9503C3.73163 45.682 3.66971 45.1818 3.93803 44.8373L4.74301 43.8037C5.28125 43.1114 5.1574 42.1144 4.46516 41.5761C3.7745 41.0379 2.77582 41.1617 2.23758 41.8524L1.43261 42.886C0.0862186 44.615 0.397412 47.1093 2.12644 48.4557L5.88458 51.3819C6.85944 52.1408 8.07723 52.3742 9.19498 52.1234L12.8594 55.1908C12.7721 56.3356 13.0944 57.5137 13.8565 58.4869C14.4837 59.2887 15.3188 59.8349 16.2254 60.1096C15.965 61.4242 16.2556 62.8405 17.1447 63.9773C18.0354 65.1141 19.3405 65.7381 20.679 65.8C20.7266 66.7463 21.0569 67.6878 21.684 68.4896C22.5747 69.6264 23.8798 70.2488 25.2183 70.3107C25.2659 71.2586 25.5962 72.1985 26.2233 73.0019C27.838 75.0644 30.8166 75.4343 32.887 73.8355L35.8386 71.5253L47.0225 77.5968C49.2945 78.8924 52.1953 78.108 53.5051 75.8392C53.9291 75.104 54.1355 74.3023 54.1418 73.51C55.7105 73.4385 57.2125 72.5923 58.0555 71.1332C58.3652 70.5965 58.5589 70.0249 58.643 69.4454C60.6689 69.9805 62.8822 69.1215 63.9809 67.221C64.2905 66.6844 64.4842 66.1128 64.5684 65.5333C66.5943 66.0683 68.8076 65.2094 69.9063 63.3089C70.8923 61.6005 70.6986 59.5333 69.5792 58.0503L72.6928 55.7529ZM70.3985 53.4983C70.3652 53.4158 70.335 53.33 70.3064 53.2427C68.933 48.9416 65.4416 38.0053 65.4416 38.0053C65.1749 37.1702 65.6353 36.2763 66.4705 36.0096C67.3056 35.7444 68.1995 36.2048 68.4662 37.04L73.3326 52.2774C73.466 52.6949 73.9121 52.9252 74.3297 52.7918L78.8674 51.3438C79.285 51.2104 79.5152 50.7627 79.3818 50.3451L72.6197 29.1712C72.4864 28.7537 72.0402 28.5234 71.6226 28.6568L67.0849 30.1048C66.6674 30.2382 66.4371 30.6859 66.5705 31.1035L67.0071 32.4689C67.2739 33.3041 66.8118 34.198 65.9767 34.4647C65.1416 34.7314 64.2477 34.2694 63.9809 33.4359L63.6586 32.4261L45.5713 33.0326C44.8282 33.0564 44.1201 33.3644 43.5946 33.8899L32.8727 44.6118C32.2535 45.2311 32.2535 46.2377 32.8727 46.8569C33.4903 47.4729 34.489 47.4761 35.1098 46.8664L42.977 38.9977C43.5962 38.3784 44.6028 38.3784 45.222 38.9977C45.8237 39.5994 45.8412 40.5663 45.2744 41.1887L47.2876 42.5621C48.0116 43.0559 48.199 44.0434 47.7052 44.7674C47.2114 45.4914 46.2223 45.6788 45.4983 45.185L42.9912 43.475L37.3421 49.1241C35.4813 50.9611 32.4789 50.9548 30.6276 49.1019C28.7684 47.2443 28.7684 44.2244 30.6276 42.3668L34.4636 38.5293L24.8864 33.439L11.8401 50.1959L14.2265 52.1948C14.3646 52.0567 14.5139 51.9249 14.671 51.801L19.6978 47.8667C21.7666 46.2694 24.7451 46.6394 26.3598 48.7018C26.987 49.5036 27.3172 50.4451 27.3649 51.3914C28.7033 51.4533 30.0084 52.0757 30.8991 53.2141C31.7883 54.3509 32.0804 55.7672 31.8184 57.0818C32.725 57.3549 33.5602 57.9011 34.1873 58.7045C35.078 59.8413 35.3686 61.2575 35.1066 62.5722C36.0148 62.8468 36.8483 63.393 37.4771 64.1948C38.6123 65.6444 38.7727 67.5497 38.055 69.1167L48.5499 74.8119C48.561 74.8183 48.5737 74.8262 48.5864 74.8326C49.3437 75.2708 50.317 75.0104 50.7552 74.2514C51.1902 73.4957 50.9346 72.5304 50.1852 72.089L40.5477 66.5256C39.7888 66.0874 39.5284 65.1157 39.9666 64.3568C40.4048 63.5978 41.3765 63.3374 42.1355 63.7757L53.1368 70.1265C53.8957 70.5648 54.8674 70.3044 55.3056 69.5454C55.7406 68.7913 55.4866 67.8259 54.7372 67.3845L45.0982 61.8196C44.3392 61.3814 44.0788 60.4097 44.517 59.6507C44.9553 58.8918 45.9269 58.6314 46.6859 59.0696L59.0622 66.2144C59.8211 66.6526 60.7928 66.3922 61.231 65.6333C61.666 64.8791 61.412 63.9154 60.6642 63.4724L51.0235 57.9074C50.2646 57.4692 50.0042 56.4975 50.4424 55.7386C50.8806 54.9797 51.8523 54.7193 52.6112 55.1575L64.9875 62.3022C65.7465 62.7405 66.7182 62.4801 67.1564 61.7211C67.593 60.9654 67.3358 59.9969 66.5832 59.5571C66.553 59.538 66.5213 59.519 66.4911 59.4983L49.7407 48.0778C49.0167 47.5841 48.8293 46.5949 49.3231 45.8709C49.8169 45.1469 50.8044 44.9595 51.5284 45.4533C51.5284 45.4533 63.1585 53.3824 67.004 56.0053L70.3985 53.4983ZM30.9436 71.3237C30.2529 71.8556 29.2622 71.7317 28.724 71.0442C28.1841 70.3552 28.3064 69.3565 28.9971 68.8151L32.7568 65.8714C33.4474 65.3411 34.4382 65.465 34.9764 66.1525C35.5162 66.8415 35.394 67.8402 34.7049 68.3801L30.9436 71.3237ZM26.4043 66.813C25.7136 67.3433 24.7229 67.2194 24.1847 66.5319C23.6448 65.8429 23.7671 64.8442 24.4578 64.3044L29.4686 60.3811C30.1577 59.8508 31.15 59.9746 31.6867 60.6605C32.2265 61.3512 32.1058 62.3499 31.4152 62.8897L26.4043 66.813ZM21.865 62.3007C21.1743 62.831 20.1836 62.7071 19.6454 62.0212C19.1055 61.3306 19.2278 60.3319 19.9169 59.7921L26.1789 54.8908C26.8695 54.3605 27.8602 54.4843 28.3985 55.1702C28.9383 55.8609 28.8161 56.8595 28.127 57.3994L21.865 62.3007ZM18.5752 56.8103C17.8862 57.3406 16.8938 57.2168 16.3572 56.5293C15.8174 55.8402 15.938 54.8415 16.6287 54.3017L21.6396 50.3784C22.3302 49.8482 23.3209 49.972 23.8592 50.6579C24.399 51.3485 24.2768 52.3472 23.5877 52.887L18.5752 56.8103Z" fill="black"/>
<path fill-rule="evenodd" clip-rule="evenodd" d="M41.5845 0C34.5747 0 28.8827 5.69198 28.8827 12.7018C28.8827 19.7116 34.5747 25.4036 41.5845 25.4036C48.5943 25.4036 54.2862 19.7116 54.2862 12.7018C54.2862 5.69198 48.5943 0 41.5845 0ZM47.1082 20.461C45.5506 21.574 43.6437 22.2281 41.5845 22.2281C39.5315 22.2281 37.6279 21.5771 36.0719 20.4689L41.594 14.9468L47.1082 20.461ZM33.8253 7.17809L39.349 12.7018L33.8253 18.2255C32.7123 16.6679 32.0581 14.7611 32.0581 12.7018C32.0581 10.6425 32.7123 8.73565 33.8253 7.17809ZM49.3532 7.18921C50.4598 8.74518 51.1108 10.6473 51.1108 12.7018C51.1108 14.7547 50.4598 16.6584 49.3532 18.2144L43.839 12.7018L49.3532 7.18921ZM47.1082 4.94258L41.594 10.4567L36.0719 4.93305C37.6279 3.82641 39.5315 3.17544 41.5845 3.17544C43.6437 3.17544 45.5506 3.82959 47.1082 4.94258Z" fill="black"/>
</svg>
