<svg width="90" height="90" viewBox="0 0 90 90" fill="none" xmlns="http://www.w3.org/2000/svg">
<mask id="mask0_179_386" style="mask-type:luminance" maskUnits="userSpaceOnUse" x="0" y="0" width="90" height="90">
<path d="M0.598816 0.982788H89.3611V89.7451H0.598816V0.982788Z" fill="white"/>
</mask>
<g mask="url(#mask0_179_386)">
<path fill-rule="evenodd" clip-rule="evenodd" d="M72.863 88.4448C75.7918 88.4448 78.1871 86.0547 78.1871 83.1324V35.5113C76.3299 35.8629 13.5397 35.8486 11.7728 35.5113V83.1324C11.7728 86.0547 14.1683 88.4448 17.0923 88.4448H72.863Z" fill="#F9F7F8"/>
<path fill-rule="evenodd" clip-rule="evenodd" d="M72.9867 47.4047V86.0404C72.9867 86.9054 72.7773 87.7226 72.4058 88.4448H72.8629C75.7917 88.4448 78.1871 86.0547 78.1871 83.1324V48.1982V35.5113C78.149 35.5161 78.0919 35.5208 78.011 35.5303C77.4205 35.5778 75.6249 35.6207 72.9867 35.6539V47.4047Z" fill="#DDDAEC"/>
<path fill-rule="evenodd" clip-rule="evenodd" d="M14.9873 26.9825L32.3504 28.7168L30.1742 18.7907H19.6068C17.0637 18.7907 14.9873 20.8624 14.9873 23.3997V26.9825Z" fill="#FFD772"/>
<path fill-rule="evenodd" clip-rule="evenodd" d="M59.7858 18.7905L57.6047 28.7168L74.9727 26.9823V23.3996C74.9727 20.8622 72.8914 18.7905 70.3532 18.7905H59.7858Z" fill="#FFD772"/>
<path fill-rule="evenodd" clip-rule="evenodd" d="M52.9139 40.4196C52.9139 44.7769 56.4809 48.3359 60.8431 48.3359C65.2099 48.3359 68.7769 44.7769 68.7769 40.4196C68.7769 44.7769 72.3487 48.3359 76.7109 48.3359C77.2155 48.3359 77.7062 48.2884 78.1871 48.1981C81.8492 47.5043 84.6447 44.2732 84.6447 40.4196V32.8502C84.6447 28.4265 81.0968 26.9818 78.1871 26.9818H74.9726H59.3429C56.4902 31.9522 51.1281 35.2974 44.9799 35.2974C38.8319 35.2974 33.4647 31.9522 30.6171 26.9818H14.9873H11.7727C8.85832 26.9818 5.31511 28.4265 5.31511 32.8502V40.4196C5.31511 44.2732 8.10592 47.5043 11.7727 48.1981C12.2491 48.2884 12.7443 48.3359 13.2444 48.3359C17.6113 48.3359 21.1783 44.7769 21.1783 40.4196C21.1783 44.7769 24.7499 48.3359 29.1123 48.3359C33.4744 48.3359 37.0461 44.7769 37.0461 40.4196C37.0461 44.7769 40.6177 48.3359 44.9799 48.3359C49.3421 48.3359 52.9139 44.7769 52.9139 40.4196Z" fill="#EB5468"/>
<path fill-rule="evenodd" clip-rule="evenodd" d="M30.6123 26.982C33.4648 31.9521 38.832 35.2974 44.98 35.2974C51.128 35.2974 56.4903 31.9521 59.343 26.982C60.7287 24.5682 61.5241 21.7694 61.5241 18.7902C61.5241 9.67157 54.114 2.2828 44.98 2.2828C35.8413 2.2828 28.4359 9.67157 28.4359 18.7902C28.4359 21.7694 29.2264 24.5682 30.6123 26.982Z" fill="#F9F7F8"/>
<path fill-rule="evenodd" clip-rule="evenodd" d="M73.2677 27.1529C75.6964 27.6472 78.011 29.2721 78.011 32.8502V37.811V40.4196C78.011 43.5936 76.1156 46.3497 73.3964 47.6088C74.4059 48.0745 75.5298 48.3359 76.7108 48.3359C77.2156 48.3359 77.7062 48.2884 78.1871 48.1981C81.8493 47.5043 84.6448 44.2732 84.6448 40.4196V32.8502C84.6448 28.4265 81.0969 26.9818 78.1871 26.9818H74.9726L73.2677 27.1529Z" fill="#E5384F"/>
<path fill-rule="evenodd" clip-rule="evenodd" d="M44.5037 2.28797C51.6519 4.10794 56.9428 10.5796 56.9428 18.282C56.9428 21.2661 56.1475 24.0649 54.7617 26.4787C51.9852 31.3159 46.823 34.6134 40.8749 34.7845C42.1846 35.1172 43.5608 35.2979 44.98 35.2979C50.409 35.2979 55.2284 32.6844 58.2428 28.6549C58.6429 28.1228 59.0096 27.562 59.343 26.9823C60.7287 24.5685 61.5241 21.7697 61.5241 18.7905C61.5241 9.67206 54.114 2.28329 44.98 2.28329C44.818 2.28329 44.661 2.28329 44.5037 2.28797Z" fill="#DDDAEC"/>
<path fill-rule="evenodd" clip-rule="evenodd" d="M67.0958 55.1975H54.7663C52.8519 55.1975 51.2852 56.7609 51.2852 58.671V88.1646H70.5771V58.671C70.5771 56.7609 69.0103 55.1975 67.0958 55.1975Z" fill="#B1E4F9"/>
<path fill-rule="evenodd" clip-rule="evenodd" d="M43.2799 77.554V58.4665C43.2799 56.5517 41.7083 54.9836 39.7892 54.9836H21.945C20.0259 54.9836 18.459 56.5517 18.459 58.4665V77.554C18.459 79.4688 20.0259 81.0322 21.945 81.0322H39.7892C41.7083 81.0322 43.2799 79.4688 43.2799 77.554Z" fill="#B1E4F9"/>
<path fill-rule="evenodd" clip-rule="evenodd" d="M51.29 58.4666H59.9762H61.8907H63.1051C65.0195 58.4666 66.5862 60.03 66.5862 61.9401V74.5225V88.1646H70.5771V58.671C70.5771 56.7609 69.0102 55.1975 67.0957 55.1975H54.7665C52.9187 55.1975 51.3996 56.6515 51.29 58.4666Z" fill="#75CEF8"/>
<path fill-rule="evenodd" clip-rule="evenodd" d="M27.4121 70.6499L34.3269 65.3708L31.4981 61.6787C30.0408 59.7781 27.2978 59.4123 25.3929 60.8661C23.4928 62.3154 23.126 65.0572 24.5784 66.9531L27.4121 70.6499Z" fill="#EB5468"/>
<path fill-rule="evenodd" clip-rule="evenodd" d="M34.3268 65.3709L27.412 70.65L30.2408 74.3421C31.6934 76.238 34.4411 76.6038 36.3413 75.1547C38.246 73.7053 38.6129 70.9636 37.1556 69.0677L34.3268 65.3709Z" fill="#F9F7F8"/>
<path fill-rule="evenodd" clip-rule="evenodd" d="M28.7264 63.4366L31.5599 67.1286L31.7313 67.3521L34.3268 65.3705L31.498 61.6785C30.0409 59.778 27.2977 59.412 25.3928 60.866C25.2548 60.9705 25.1262 61.0797 25.0071 61.1987C26.6691 60.7377 27.6216 61.9875 28.7264 63.4366Z" fill="#E5384F"/>
<path fill-rule="evenodd" clip-rule="evenodd" d="M34.3268 65.3708L31.7314 67.3524L34.3887 70.8209C35.7364 72.5838 36.4269 74.3752 34.8698 75.8862C35.3888 75.7437 35.8888 75.5014 36.3413 75.1546C38.246 73.7053 38.6129 70.9636 37.1556 69.0677L34.3268 65.3708Z" fill="#DDDAEC"/>
<path d="M44.98 35.2974C54.0901 35.2974 61.5241 27.88 61.5241 18.79C61.5241 9.69532 54.0901 2.2828 44.98 2.2828C35.865 2.2828 28.4359 9.69532 28.4359 18.79C28.4359 27.88 35.865 35.2974 44.98 35.2974Z" stroke="black" stroke-width="2" stroke-miterlimit="10" stroke-linecap="round" stroke-linejoin="round"/>
<path fill-rule="evenodd" clip-rule="evenodd" d="M39.7891 61.9495V81.0322C41.7083 81.0322 43.2798 79.469 43.2798 77.554V58.4667C43.2798 56.5517 41.7083 54.9836 39.7891 54.9836H21.945C20.0258 54.9836 18.459 56.5517 18.459 58.4667H35.6461C37.565 58.4667 39.7938 60.0347 39.7891 61.9495Z" fill="#75CEF8"/>
<path d="M25.3928 60.8664C27.2977 59.4124 30.0409 59.7783 31.498 61.6789C33.3171 64.0547 35.3365 66.6872 37.1556 69.0677C38.6129 70.9636 38.2462 73.7053 36.3413 75.1547C34.441 76.6038 31.6934 76.238 30.2408 74.3421L24.5785 66.9532C23.1261 65.0573 23.4928 62.3157 25.3928 60.8664Z" stroke="black" stroke-width="2" stroke-miterlimit="10" stroke-linecap="round" stroke-linejoin="round"/>
<path d="M27.4121 70.6499L34.3269 65.3708" stroke="black" stroke-width="2" stroke-miterlimit="10" stroke-linecap="round" stroke-linejoin="round"/>
<path fill-rule="evenodd" clip-rule="evenodd" d="M41.8131 21.945V26.9105C41.8131 27.1671 42.0225 27.3809 42.2798 27.3809H47.6754C47.9325 27.3809 48.1468 27.1671 48.1468 26.9105V21.945H53.1187C53.3758 21.945 53.5901 21.736 53.5901 21.4794V16.0957C53.5901 15.8392 53.3758 15.6301 53.1187 15.6301H48.1468V10.6646C48.1468 10.408 47.9325 10.1989 47.6754 10.1989H42.2798C42.0225 10.1989 41.8131 10.408 41.8131 10.6646V15.6301H36.8365C36.5794 15.6301 36.3698 15.8392 36.3698 16.0957V21.4794C36.3698 21.736 36.5794 21.945 36.8365 21.945H41.8131Z" fill="#EB5468"/>
<path fill-rule="evenodd" clip-rule="evenodd" d="M53.1187 15.6306H48.1468V10.6651C48.1468 10.4085 47.9325 10.1994 47.6754 10.1994H43.5798C45.1991 12.7463 46.1371 15.7731 46.1371 19.0138C46.1371 21.9979 45.3419 24.7965 43.956 27.2104C43.9228 27.2674 43.8895 27.3245 43.856 27.3813H47.6754C47.9325 27.3813 48.1468 27.1676 48.1468 26.911V21.9455H53.1187C53.3758 21.9455 53.5901 21.7364 53.5901 21.4799V16.0962C53.5901 15.8396 53.3758 15.6306 53.1187 15.6306Z" fill="#E5384F"/>
<path d="M42.2798 10.1989H47.6754C47.9325 10.1989 48.1468 10.408 48.1468 10.6646V15.6301H53.1187C53.3758 15.6301 53.5901 15.8392 53.5901 16.0957V21.4794C53.5901 21.736 53.3758 21.945 53.1187 21.945H48.1468V26.9105C48.1468 27.1671 47.9325 27.3809 47.6754 27.3809H42.2798C42.0227 27.3809 41.8131 27.1671 41.8131 26.9105V21.945H36.8365C36.5794 21.945 36.3698 21.736 36.3698 21.4794V16.0957C36.3698 15.8392 36.5794 15.6301 36.8365 15.6301H41.8131V10.6646C41.8131 10.408 42.0227 10.1989 42.2798 10.1989Z" stroke="black" stroke-width="2" stroke-miterlimit="10" stroke-linecap="round" stroke-linejoin="round"/>
<path d="M70.5771 88.4448V58.671C70.5771 56.7608 69.0151 55.1974 67.0957 55.1974H54.7664C52.852 55.1974 51.2851 56.7608 51.2851 58.671V88.4448" stroke="black" stroke-width="2" stroke-miterlimit="10" stroke-linecap="round" stroke-linejoin="round"/>
<path d="M56.534 71.5146H56.4999" stroke="black" stroke-width="2" stroke-miterlimit="10" stroke-linecap="round" stroke-linejoin="round"/>
<path fill-rule="evenodd" clip-rule="evenodd" d="M70.577 88.4448H84.2256V65.6653H70.577V88.4448Z" fill="#FFD772"/>
<path d="M11.7728 57.8678V48.1982M11.7728 74.0899V63.6696M70.577 88.4448H20.4402M78.1872 59.5737V65.6653M78.1872 48.1982V53.7672" stroke="black" stroke-width="2" stroke-miterlimit="10" stroke-linecap="round" stroke-linejoin="round"/>
<path fill-rule="evenodd" clip-rule="evenodd" d="M14.373 72.2178C18.54 72.2178 21.9497 75.6201 21.9497 79.7777V88.4448H6.79147V79.7777C6.79147 75.6201 10.206 72.2178 14.373 72.2178Z" fill="#A7E9A6"/>
<path fill-rule="evenodd" clip-rule="evenodd" d="M17.1066 79.6733V88.3356H6.7914V88.4448H18.2352H21.9498V79.83V79.7778C21.9498 77.7108 21.1116 75.834 19.7497 74.4655C18.3733 73.078 16.4684 72.218 14.373 72.218C13.6634 72.218 12.9777 72.3176 12.3252 72.4983C12.2538 72.522 12.1823 72.5411 12.1109 72.5649C12.1823 72.5886 12.2538 72.617 12.3252 72.6455C15.1207 73.7623 17.1066 76.4945 17.1066 79.6733Z" fill="#7FDBAE"/>
<path d="M14.373 72.2178C18.54 72.2178 21.9497 75.6201 21.9497 79.7777V88.4448H6.79147V79.7777C6.79147 75.6201 10.206 72.2178 14.373 72.2178Z" stroke="black" stroke-width="2" stroke-miterlimit="10" stroke-linecap="round" stroke-linejoin="round"/>
<path d="M18.459 73.4153V58.4665C18.459 56.5517 20.0259 54.9836 21.945 54.9836H39.7892C41.7083 54.9836 43.2799 56.5517 43.2799 58.4665V77.554C43.2799 79.4688 41.7083 81.0322 39.7892 81.0322H21.9497" stroke="black" stroke-width="2" stroke-miterlimit="10" stroke-linecap="round" stroke-linejoin="round"/>
<path d="M76.0869 71.5146H78.7158" stroke="black" stroke-width="2" stroke-miterlimit="10" stroke-linecap="round" stroke-linejoin="round"/>
<path d="M76.0869 77.2261H78.7158" stroke="black" stroke-width="2" stroke-miterlimit="10" stroke-linecap="round" stroke-linejoin="round"/>
<path d="M76.0869 82.9424H78.7158" stroke="black" stroke-width="2" stroke-miterlimit="10" stroke-linecap="round" stroke-linejoin="round"/>
<path fill-rule="evenodd" clip-rule="evenodd" d="M80.8207 88.4448H84.2258V65.6653H80.8207V88.4448Z" fill="#FBBA58"/>
<path d="M70.577 88.4448H84.2256V65.6653H70.577V88.4448Z" stroke="black" stroke-width="2" stroke-miterlimit="10" stroke-linecap="round" stroke-linejoin="round"/>
<path fill-rule="evenodd" clip-rule="evenodd" d="M62.9908 18.7906C65.5339 18.7906 67.6102 20.8623 67.6102 23.3997V26.9824H74.9727V23.3997C74.9727 20.8623 72.8914 18.7906 70.3532 18.7906H62.9908Z" fill="#FBBA58"/>
<path d="M61.524 18.7906H70.3533C72.8915 18.7906 74.9726 20.8623 74.9726 23.3997V26.9824M14.9873 26.9824V23.3997C14.9873 20.8623 17.0636 18.7906 19.6067 18.7906H28.436" stroke="black" stroke-width="2" stroke-miterlimit="10" stroke-linecap="round" stroke-linejoin="round"/>
<path d="M59.3429 26.982H78.1871C81.0968 26.982 84.6447 28.4267 84.6447 32.8504V40.4198C84.6447 44.7771 81.0731 48.3359 76.7109 48.3359C72.3487 48.3359 68.7769 44.7771 68.7769 40.4198C68.7769 44.7771 65.2099 48.3359 60.843 48.3359C56.4809 48.3359 52.9139 44.7771 52.9139 40.4198C52.9139 44.7771 49.3421 48.3359 44.9799 48.3359C40.6177 48.3359 37.0461 44.7771 37.0461 40.4198C37.0461 44.7771 33.4744 48.3359 29.1123 48.3359C24.7499 48.3359 21.1783 44.7771 21.1783 40.4198C21.1783 44.7771 17.6113 48.3359 13.2491 48.3359H13.2444C8.88207 48.3359 5.31511 44.7771 5.31511 40.4198V32.8504C5.31511 28.4267 8.85832 26.982 11.7727 26.982H30.6171" stroke="black" stroke-width="2" stroke-miterlimit="10" stroke-linecap="round" stroke-linejoin="round"/>
</g>
</svg>
