<svg width="83" height="83" viewBox="0 0 83 83" fill="none" xmlns="http://www.w3.org/2000/svg">
<path d="M2.0791 16.751H81.2088V24.1546H2.0791V16.751Z" fill="#DEE1E6"/>
<path d="M20.9502 4.41219V16.7517H62.3374V4.41219C62.3374 3.04919 61.2303 1.94434 59.8646 1.94434H23.423C22.0573 1.94434 20.9502 3.04919 20.9502 4.41219Z" fill="#FF7E7E"/>
<path d="M5.86865 24.1548H77.4217V81.0738H5.86865V24.1548Z" fill="#4DABF4"/>
<path d="M77.4232 24.1504V81.0743H5.87256V74.1629C58.5557 69.1431 65.2321 35.4511 65.9864 24.1504H77.4232Z" fill="#1D7BD5"/>
<path d="M30.6616 52.7144V81.0826H52.6259V52.7144C52.6259 52.1078 52.1342 51.6162 51.5278 51.6162H31.7598C31.1532 51.6162 30.6616 52.1079 30.6616 52.7144Z" fill="#FBC41A"/>
<path d="M52.6206 54.7021V81.087H30.6621V68.7477C40.4172 65.0879 47.4895 60.0927 52.6206 54.7021Z" fill="#F59F02"/>
<path d="M33.7543 8.3637C33.7543 10.2617 32.5396 10.874 30.6494 10.874H29.379V12.9745H28.1699V5.81201H30.629C32.5442 5.81214 33.7543 6.43306 33.7543 8.3637ZM32.5144 8.26615C32.5144 7.15289 31.7301 6.90858 30.6086 6.90858H29.3791V9.77752H30.7829C31.9376 9.77752 32.5144 9.42119 32.5144 8.26615Z" fill="black"/>
<path d="M38.4884 13.0462C36.3721 13.0462 34.7178 11.4907 34.7178 9.3422C34.7178 7.18876 36.3765 5.63818 38.4884 5.63818C40.6054 5.63818 42.2591 7.19383 42.2591 9.3422C42.2592 11.4876 40.6071 13.0462 38.4884 13.0462ZM38.4884 6.74476C37.0364 6.74476 35.9576 7.91477 35.9576 9.3422C35.9576 10.7733 37.041 11.9396 38.4884 11.9396C39.9333 11.9396 41.0192 10.7753 41.0192 9.3422C41.0192 7.91378 39.9387 6.74476 38.4884 6.74476Z" fill="black"/>
<path d="M45.9524 6.75502C45.3202 6.75502 44.7483 6.99377 44.7483 7.621C44.7483 8.36828 45.5005 8.5363 46.5261 8.78383C47.8432 9.10319 48.7446 9.60233 48.7446 10.951C48.7446 12.3108 47.584 13.057 46.183 13.057C45.0623 13.057 44.0688 12.6708 43.2012 11.8992L43.9596 10.987C44.6834 11.6157 45.4351 11.9296 46.2135 11.9296C46.8593 11.9296 47.4843 11.6554 47.4843 11.0128C47.4843 10.317 46.7703 10.1201 46.0497 9.94716C44.5786 9.59392 43.4881 9.21942 43.4881 7.70829C43.4881 6.30645 44.673 5.63867 45.9984 5.63867C46.8697 5.63867 47.8399 5.92527 48.5296 6.49921L47.8838 7.41105C47.4183 6.9913 46.5888 6.75502 45.9524 6.75502Z" fill="black"/>
<path d="M52.9458 6.91945V12.975H51.7367V6.91945H49.5645V5.8125H55.118V6.91945H52.9458Z" fill="black"/>
<path d="M70.0811 30.2563H13.2066C12.5238 30.2563 11.9702 30.81 11.9702 31.4927V38.9112C11.9702 39.594 12.5238 40.1476 13.2066 40.1476H70.0811C70.764 40.1476 71.3175 39.594 71.3175 38.9112V31.4927C71.3175 30.81 70.764 30.2563 70.0811 30.2563Z" fill="white"/>
<path d="M71.3151 31.4946V38.913C71.3151 39.593 70.7587 40.1494 70.0787 40.1494H13.2042C12.5242 40.1494 11.9678 39.593 11.9678 38.913V35.7029C47.7987 36.5684 64.2997 33.5496 68.1095 30.2583H70.0787C70.7587 30.2582 71.3151 30.8147 71.3151 31.4946Z" fill="#DEE1E6"/>
<path d="M59.46 45.7144H71.3171V70.1741H59.46V45.7144Z" fill="white"/>
<path d="M71.3146 45.7129V70.1689H59.4575V67.3623C67.8651 64.6175 66.5545 50.8563 66.6781 45.7129H71.3146Z" fill="#DEE1E6"/>
<path d="M11.9707 45.7139H23.8278V70.1736H11.9707V45.7139Z" fill="white"/>
<path d="M23.8263 45.7129V70.1689H11.9692V67.3623C20.3768 64.6175 19.0662 50.8563 19.1898 45.7129H23.8263Z" fill="#DEE1E6"/>
<path d="M81.2084 15.5148H63.574V4.4119C63.574 2.36949 61.9102 0.70752 59.8648 0.70752H23.4229C21.3776 0.70752 19.7137 2.36949 19.7137 4.4119V15.5148H2.07869C1.39595 15.5148 0.842285 16.0685 0.842285 16.7512V24.1551C0.842285 24.8379 1.39595 25.3915 2.07869 25.3915H4.63124V81.0737C4.63124 81.7564 5.1849 82.3101 5.86764 82.3101C45.3169 82.3207 37.5783 82.3202 77.4202 82.3101C78.103 82.3101 78.6566 81.7564 78.6566 81.0737V25.3915H81.2084C81.8912 25.3915 82.4448 24.8379 82.4448 24.1551V16.7512C82.4448 16.0685 81.8912 15.5148 81.2084 15.5148ZM22.1865 4.4119C22.1865 3.73275 22.7413 3.18032 23.4229 3.18032H59.8648C60.5464 3.18032 61.1012 3.73275 61.1012 4.4119V15.5148H22.1865V4.4119ZM51.3893 52.8525V79.8372H42.88V67.6206H44.3566C45.0393 67.6206 45.593 67.0669 45.593 66.3842C45.593 65.7015 45.0393 65.1478 44.3566 65.1478H42.88V52.8527L51.3893 52.8525ZM40.4072 65.1478H38.9268C38.2441 65.1478 37.6904 65.7015 37.6904 66.3842C37.6904 67.0669 38.2441 67.6206 38.9268 67.6206H40.4072V79.8374H31.8979V52.8525H40.4072V65.1478ZM76.1837 79.8372H53.8621V52.7143C53.8621 51.4272 52.8146 50.3797 51.5275 50.3797H31.7596C30.4725 50.3797 29.4251 51.4272 29.4251 52.7143V79.8372H7.10392V25.3915H76.1837V79.8372ZM79.972 22.9187C46.9384 22.9187 36.3087 22.9187 3.31509 22.9187V17.9876H79.972V22.9187Z" fill="black"/>
<path d="M13.2062 41.384H70.0807C71.4445 41.384 72.5535 40.275 72.5535 38.9112V31.4928C72.5535 30.1291 71.4445 29.02 70.0807 29.02H13.2062C11.8425 29.02 10.7334 30.1291 10.7334 31.4928V38.9112C10.7334 40.275 11.8425 41.384 13.2062 41.384ZM70.0826 38.9112H42.8799V31.4928H70.0807L70.0826 38.9112ZM13.2062 31.4928H40.4071V38.9112H13.2062V31.4928Z" fill="black"/>
<path d="M71.3169 44.4775H59.46C58.7773 44.4775 58.2236 45.0312 58.2236 45.7139V70.1739C58.2236 70.8567 58.7773 71.4103 59.46 71.4103H71.3169C71.9996 71.4103 72.5533 70.8567 72.5533 70.1739V45.7139C72.5533 45.0312 71.9996 44.4775 71.3169 44.4775ZM70.0805 68.9375H60.6964V46.9503H70.0805V68.9375Z" fill="black"/>
<path d="M11.9698 71.4103H23.8266C24.5094 71.4103 25.0631 70.8567 25.0631 70.1739V45.7139C25.0631 45.0312 24.5094 44.4775 23.8266 44.4775H11.9698C11.2871 44.4775 10.7334 45.0312 10.7334 45.7139V70.1739C10.7334 70.8568 11.2869 71.4103 11.9698 71.4103ZM13.2062 46.9503H22.5902V68.9375H13.2062V46.9503Z" fill="black"/>
</svg>
