<svg width="77" height="86" viewBox="0 0 77 86" fill="none" xmlns="http://www.w3.org/2000/svg">
<path d="M75.5758 15.6852L61.3165 1.42593H25.6684C24.5339 1.42593 23.4458 1.87663 22.6436 2.67887C21.8413 3.48111 21.3906 4.56917 21.3906 5.70371V79.8519C21.3906 80.9864 21.8413 82.0745 22.6436 82.8767C23.4458 83.6789 24.5339 84.1296 25.6684 84.1296H71.298C72.4326 84.1296 73.5206 83.6789 74.3229 82.8767C75.1251 82.0745 75.5758 80.9864 75.5758 79.8519V15.6852Z" fill="#EEDC9A"/>
<path d="M61.3164 1.42593V11.4074C61.3164 12.542 61.7671 13.63 62.5693 14.4323C63.3716 15.2345 64.4596 15.6852 65.5942 15.6852H75.5757L61.3164 1.42593Z" fill="#EEBE33"/>
<path d="M34.2227 71.2963H42.7782V79.8519H34.2227V71.2963Z" fill="#E44042"/>
<path d="M48.4805 64.1667H57.036V79.8519H48.4805V64.1667Z" fill="#2D80B3"/>
<path d="M62.7422 58.463H71.2977V79.8518H62.7422V58.463Z" fill="#A2C32A"/>
<path d="M15.685 79.8519C23.5602 79.8519 29.9443 73.4678 29.9443 65.5926C29.9443 57.7174 23.5602 51.3333 15.685 51.3333C7.80987 51.3333 1.42578 57.7174 1.42578 65.5926C1.42578 73.4678 7.80987 79.8519 15.685 79.8519Z" fill="#8ACCE7"/>
<path d="M76.5843 14.6768L62.325 0.417577C62.0576 0.150211 61.6949 1.04775e-05 61.3167 0H25.6685C24.1564 0.0017299 22.7066 0.60321 21.6373 1.67249C20.5681 2.74176 19.9666 4.19152 19.9648 5.7037V47.0556H22.8167V5.7037C22.8176 4.94761 23.1183 4.22273 23.6529 3.6881C24.1876 3.15346 24.9125 2.85272 25.6685 2.85185H59.8908V11.4074C59.8925 12.9196 60.494 14.3693 61.5633 15.4386C62.6325 16.5079 64.0823 17.1094 65.5945 17.1111H74.15V79.8519C74.1492 80.6079 73.8484 81.3328 73.3138 81.8675C72.7791 82.4021 72.0543 82.7028 71.2982 82.7037H25.6685C24.9672 82.7043 24.2903 82.4458 23.7678 81.9779L21.8656 84.1028C22.9109 85.0391 24.2652 85.5565 25.6685 85.5556H71.2982C72.8104 85.5538 74.2601 84.9523 75.3294 83.8831C76.3987 82.8138 77.0002 81.364 77.0019 79.8519V15.6852C77.0019 15.307 76.8517 14.9443 76.5843 14.6768ZM62.7426 11.4074V4.86838L72.1335 14.2593H65.5945C64.8384 14.2584 64.1135 13.9577 63.5789 13.423C63.0442 12.8884 62.7435 12.1635 62.7426 11.4074Z" fill="black"/>
<path d="M25.668 5.7037H31.3717V8.55556H25.668V5.7037Z" fill="black"/>
<path d="M34.2227 5.7037H44.2041V8.55556H34.2227V5.7037Z" fill="black"/>
<path d="M25.668 11.4074H34.2235V14.2593H25.668V11.4074Z" fill="black"/>
<path d="M25.668 19.963H35.6495V22.8148H25.668V19.963Z" fill="black"/>
<path d="M38.5 19.963H49.9074V22.8148H38.5V19.963Z" fill="black"/>
<path d="M25.668 25.6667H38.5013V28.5185H25.668V25.6667Z" fill="black"/>
<path d="M32.7969 31.3704H47.0561V34.2222H32.7969V31.3704Z" fill="black"/>
<path d="M49.9062 31.3704H62.7396V34.2222H49.9062V31.3704Z" fill="black"/>
<path d="M65.5938 31.3704H71.2975V34.2222H65.5938V31.3704Z" fill="black"/>
<path d="M25.668 37.0741H39.9272V39.9259H25.668V37.0741Z" fill="black"/>
<path d="M42.7773 37.0741H55.6107V39.9259H42.7773V37.0741Z" fill="black"/>
<path d="M58.4648 37.0741H71.2982V39.9259H58.4648V37.0741Z" fill="black"/>
<path d="M25.668 42.7778H47.0569V45.6296H25.668V42.7778Z" fill="black"/>
<path d="M49.9062 42.7778H62.7396V45.6296H49.9062V42.7778Z" fill="black"/>
<path d="M65.5938 42.7778H71.2975V45.6296H65.5938V42.7778Z" fill="black"/>
<path d="M34.2228 69.8704C33.8446 69.8704 33.4819 70.0206 33.2145 70.288C32.9471 70.5554 32.7969 70.9181 32.7969 71.2963V79.8518C32.7969 80.23 32.9471 80.5927 33.2145 80.8601C33.4819 81.1275 33.8446 81.2778 34.2228 81.2778H42.7784C43.1565 81.2778 43.5192 81.1275 43.7866 80.8601C44.054 80.5927 44.2043 80.23 44.2043 79.8518V71.2963C44.2043 70.9181 44.054 70.5554 43.7866 70.288C43.5192 70.0206 43.1565 69.8704 42.7784 69.8704H34.2228ZM41.3524 78.4259H35.6487V72.7222H41.3524V78.4259Z" fill="black"/>
<path d="M47.0547 79.8519C47.0547 80.23 47.2049 80.5927 47.4724 80.8601C47.7398 81.1275 48.1024 81.2778 48.4806 81.2778H57.0362C57.4143 81.2778 57.777 81.1275 58.0444 80.8601C58.3118 80.5927 58.4621 80.23 58.4621 79.8519V64.1667C58.4621 63.7885 58.3118 63.4258 58.0444 63.1584C57.777 62.891 57.4143 62.7408 57.0362 62.7408H48.4806C48.1024 62.7408 47.7398 62.891 47.4724 63.1584C47.2049 63.4258 47.0547 63.7885 47.0547 64.1667V79.8519ZM49.9065 65.5926H55.6102V78.4259H49.9065V65.5926Z" fill="black"/>
<path d="M62.7423 81.2778H71.2979C71.6761 81.2778 72.0387 81.1275 72.3061 80.8601C72.5736 80.5927 72.7238 80.23 72.7238 79.8519V58.463C72.7238 58.0848 72.5736 57.7221 72.3061 57.4547C72.0387 57.1873 71.6761 57.0371 71.2979 57.037H62.7423C62.3642 57.0371 62.0015 57.1873 61.7341 57.4547C61.4667 57.7221 61.3164 58.0848 61.3164 58.463V79.8519C61.3164 80.23 61.4667 80.5927 61.7341 80.8601C62.0015 81.1275 62.3642 81.2778 62.7423 81.2778ZM64.1683 59.8889H69.872V78.4259H64.1683V59.8889Z" fill="black"/>
<path d="M2.85186 65.5926C2.85582 62.2952 4.12738 59.1255 6.40338 56.7396C8.67938 54.3536 11.7856 52.9341 15.0791 52.7747L13.2509 54.6028L15.2676 56.6195L19.5454 52.3417C19.8128 52.0742 19.963 51.7115 19.963 51.3333C19.963 50.9551 19.8128 50.5924 19.5454 50.325L15.2676 46.0472L13.2509 48.0639L15.1063 49.9192C11.7053 50.0451 8.43756 51.2736 5.79598 53.4194C3.15441 55.5652 1.28234 58.5118 0.462248 61.8148C-0.357848 65.1178 -0.0814869 68.598 1.24963 71.7301C2.58075 74.8623 4.89442 77.4766 7.84155 79.1786L9.26957 76.71C7.32138 75.5796 5.70358 73.9582 4.57751 72.0075C3.45144 70.0568 2.85644 67.845 2.85186 65.5926Z" fill="black"/>
<path d="M31.3693 65.5926C31.3639 62.8402 30.637 60.1373 29.261 57.7534C27.8851 55.3696 25.9083 53.3881 23.5277 52.0066L22.0997 54.4752C24.5016 55.8618 26.3897 57.9891 27.4813 60.5386C28.573 63.0881 28.8094 65.9226 28.1553 68.6177C27.5011 71.3129 25.9915 73.7236 23.8526 75.4889C21.7136 77.2543 19.0604 78.2793 16.2901 78.4105L18.1183 76.5824L16.1016 74.5657L11.8239 78.8435C11.5565 79.111 11.4062 79.4737 11.4062 79.8519C11.4062 80.2301 11.5565 80.5928 11.8239 80.8602L16.1016 85.138L18.1183 83.1213L16.263 81.266C20.3182 81.1117 24.1563 79.3934 26.9725 76.4715C29.7887 73.5495 31.3644 69.6508 31.3693 65.5926Z" fill="black"/>
<path d="M16.6929 66.6009C16.9603 66.3335 17.1105 65.9708 17.1105 65.5926V58.463H14.2586V65.002L10.3984 68.862L12.4151 70.8787L16.6929 66.6009Z" fill="black"/>
</svg>
