<svg width="69" height="68" viewBox="0 0 69 68" fill="none" xmlns="http://www.w3.org/2000/svg">
<path d="M34.3973 48.7259C42.548 48.7259 49.1555 42.1184 49.1555 33.9677C49.1555 25.817 42.548 19.2096 34.3973 19.2096C26.2466 19.2096 19.6392 25.817 19.6392 33.9677C19.6392 42.1184 26.2466 48.7259 34.3973 48.7259Z" fill="#4CAF50"/>
<path d="M37.9112 39.5898C37.4474 39.5898 36.9835 39.438 36.5928 39.126L33.079 36.3149C32.5786 35.9157 32.289 35.3113 32.289 34.6704V27.6427C32.289 26.4789 33.2336 25.5344 34.3974 25.5344C35.5611 25.5344 36.5057 26.4789 36.5057 27.6427V33.6584L39.2296 35.837C40.1376 36.5651 40.2866 37.8891 39.5585 38.7999C39.1424 39.3199 38.5296 39.5898 37.9112 39.5898Z" fill="black"/>
<path d="M34.3973 50.834C25.0955 50.834 17.5309 43.2694 17.5309 33.9675C17.5309 24.6657 25.0955 17.1011 34.3973 17.1011C43.6991 17.1011 51.2637 24.6657 51.2637 33.9675C51.2637 43.2694 43.6991 50.834 34.3973 50.834ZM34.3973 21.3177C27.423 21.3177 21.7475 26.9932 21.7475 33.9675C21.7475 40.9418 27.423 46.6173 34.3973 46.6173C41.3716 46.6173 47.0471 40.9418 47.0471 33.9675C47.0471 26.9932 41.3716 21.3177 34.3973 21.3177Z" fill="black"/>
<path d="M8.53544 67.7005C7.3829 67.7005 6.44119 66.7729 6.42714 65.6147L6.28658 52.9649C6.28096 52.4027 6.50022 51.8601 6.89658 51.4582C7.29295 51.0562 7.83267 50.8341 8.39489 50.8341H21.0447C22.2085 50.8341 23.153 51.7786 23.153 52.9424C23.153 54.1062 22.2085 55.0507 21.0447 55.0507H10.5285L10.6437 65.5698C10.6578 66.7335 9.72452 67.6893 8.55793 67.7005C8.55231 67.7005 8.54387 67.7005 8.53544 67.7005Z" fill="black"/>
<path d="M60.3997 17.1012H47.7499C46.5861 17.1012 45.6416 16.1567 45.6416 14.9929C45.6416 13.8291 46.5861 12.8846 47.7499 12.8846H58.2914V2.34305C58.2914 1.17926 59.2359 0.234741 60.3997 0.234741C61.5635 0.234741 62.508 1.17926 62.508 2.34305V14.9929C62.508 16.1567 61.5635 17.1012 60.3997 17.1012Z" fill="black"/>
<path d="M4.12211 45.2119C3.21695 45.2119 2.37925 44.6244 2.10376 43.7108C1.15081 40.5427 0.664494 37.265 0.664494 33.9676C0.664494 15.3667 15.7965 0.234741 34.3974 0.234741C44.7674 0.234741 54.3785 4.88144 60.7624 12.9858C61.4849 13.8994 61.3246 15.2262 60.411 15.9458C59.4918 16.6683 58.1678 16.508 57.451 15.5944C51.8738 8.51335 43.4715 4.45135 34.3974 4.45135C18.1213 4.45135 4.8811 17.6915 4.8811 33.9676C4.8811 36.8518 5.30557 39.7191 6.14046 42.4964C6.47779 43.6096 5.84811 44.7874 4.73212 45.1248C4.52972 45.1838 4.32451 45.2119 4.12211 45.2119Z" fill="black"/>
<path d="M34.3974 67.7006C24.0273 67.7006 14.4163 63.0539 8.03231 54.9495C7.30986 54.0359 7.47009 52.7091 8.38369 51.9895C9.3001 51.2727 10.6297 51.4273 11.3438 52.3409C16.9209 59.422 25.3232 63.484 34.3974 63.484C50.6735 63.484 63.9136 50.2438 63.9136 33.9677C63.9136 31.0835 63.4892 28.2162 62.6543 25.4389C62.3169 24.3257 62.9466 23.1479 64.0626 22.8105C65.1786 22.476 66.3536 23.1057 66.691 24.2217C67.6439 27.3926 68.1302 30.6703 68.1302 33.9677C68.1302 52.5686 52.9982 67.7006 34.3974 67.7006Z" fill="black"/>
</svg>
