<svg width="92" height="72" viewBox="0 0 92 72" fill="none" xmlns="http://www.w3.org/2000/svg">
<path d="M91.5501 62.9446C91.0358 61.8017 90.0501 61.116 88.9215 61.116H87.3072V16.0441C87.3072 13.0155 84.8357 10.5297 81.7928 10.5297H75.4928C71.7213 4.61538 65.1355 0.686768 57.6212 0.686768C50.1068 0.686768 43.521 4.61538 39.7495 10.5297H10.5349C7.49205 10.5297 5.00631 13.0155 5.00631 16.0441V61.1017H3.39201C2.26343 61.1017 1.30627 61.7874 0.791982 62.916C0.17769 64.2731 0.406264 65.8875 1.34913 66.9446L4.29202 70.2304C5.26346 71.3161 6.57776 71.9304 7.89206 71.9304H84.4643C85.7786 71.9304 87.05 71.3304 88.0786 70.2161L90.9929 66.9446C91.9215 65.9017 92.1501 64.3017 91.5501 62.9446ZM81.7785 13.3012C83.3071 13.3012 84.5214 14.5298 84.5214 16.0441V18.387H78.4785C78.1928 16.6012 77.6785 14.9012 76.9642 13.3012H81.7785ZM57.6069 3.45823C67.7641 3.45823 76.0356 11.7155 76.0356 21.8584C76.0356 23.4156 75.8213 24.9585 75.4356 26.4728H63.5641C63.4355 24.787 62.6212 23.3013 61.3926 22.287L65.7212 16.3584C66.1784 15.7298 66.0355 14.8726 65.4212 14.4155C64.8069 13.9726 63.9355 14.1012 63.4926 14.7155L58.864 21.0441C58.464 20.9584 58.0497 20.9013 57.6212 20.9013C54.464 20.9013 51.8925 23.3727 51.6497 26.4585H39.7781C39.3924 24.9442 39.1924 23.4013 39.1924 21.8441C39.2067 11.7155 47.4639 3.45823 57.6069 3.45823ZM60.7926 26.4728H54.4211C54.6497 24.9013 55.9926 23.687 57.6212 23.687C59.2497 23.687 60.5926 24.9013 60.7926 26.4728ZM7.79206 16.0441C7.79206 14.5298 9.03493 13.3012 10.5492 13.3012H38.2638C37.5495 14.9012 37.0495 16.6012 36.7495 18.387H7.79206V16.0441ZM7.79206 21.1584H36.4781C36.4638 21.387 36.4352 21.6156 36.4352 21.8441C36.4352 24.0013 36.7638 26.1728 37.4209 28.2585C37.6067 28.8442 38.1352 29.2299 38.7495 29.2299H76.4928C77.1071 29.2299 77.6357 28.8442 77.8071 28.2585C78.4785 26.1728 78.8071 24.0013 78.8071 21.8441C78.8071 21.6156 78.7785 21.387 78.7642 21.1584H84.5214V61.1017H57.0211C56.6211 61.1017 56.2354 61.2874 55.964 61.5874L54.0497 63.8303H38.2781L36.3781 61.6017C36.1209 61.2874 35.7209 61.1017 35.3209 61.1017H7.79206V21.1584ZM88.9215 65.1017L86.0215 68.3732C85.5357 68.9018 84.9786 69.1732 84.45 69.1732H7.87777C7.34919 69.1732 6.77776 68.8875 6.3349 68.3875L3.39201 65.116C3.23486 64.9446 3.17772 64.6589 3.22058 64.3731C3.26344 64.0874 3.37772 63.916 3.37772 63.8874H6.36347H6.37776H6.40633H34.6638L36.5495 66.116C36.8066 66.4303 37.2067 66.616 37.6067 66.616H54.6783C55.0925 66.616 55.4783 66.4303 55.7497 66.1303L57.6497 63.8874H88.8929C88.9358 63.9017 89.0643 64.0732 89.1072 64.3589C89.1215 64.5732 89.0929 64.9017 88.9215 65.1017Z" fill="#2A2F64"/>
<path d="M60.7924 26.4728H54.4209C54.6495 24.9013 55.9923 23.687 57.6209 23.687C59.2495 23.687 60.5924 24.9013 60.7924 26.4728Z" fill="#FFDC7C"/>
<path d="M57.6069 3.45825C47.4496 3.45825 39.1924 11.7155 39.1924 21.8584C39.1924 23.4156 39.3924 24.9585 39.7781 26.4728H51.6497C51.8782 23.387 54.464 20.9156 57.6211 20.9156C58.0497 20.9156 58.464 20.9727 58.864 21.0584L63.4926 14.7298C63.9355 14.1012 64.8069 13.9869 65.4212 14.4298C66.0498 14.8869 66.1784 15.7441 65.7212 16.3727L61.3926 22.3013C62.6212 23.3156 63.4498 24.8013 63.5641 26.4871H75.4356C75.8213 24.9728 76.0356 23.4299 76.0356 21.8727C76.0356 11.7155 67.7641 3.45825 57.6069 3.45825ZM43.8781 22.9727H41.821C41.0638 22.9727 40.4353 22.3442 40.4353 21.587C40.4353 20.8156 41.0638 20.2013 41.821 20.2013H43.8781C44.6496 20.2013 45.2639 20.8156 45.2639 21.587C45.2639 22.3584 44.6639 22.9727 43.8781 22.9727ZM48.6068 12.8441C48.3496 13.0726 48.021 13.1726 47.7068 13.1726C47.321 13.1726 46.9353 13.0012 46.6496 12.6869L45.3924 11.2155C44.8924 10.6298 44.9639 9.75832 45.5496 9.25831C46.1353 8.75831 47.0067 8.82974 47.5068 9.41546L48.7639 10.8869C49.2639 11.4726 49.1925 12.3583 48.6068 12.8441ZM58.9926 7.74401C58.9926 8.51545 58.3783 9.12974 57.6069 9.12974C56.8497 9.12974 56.2211 8.51545 56.2211 7.74401V5.67256C56.2211 4.91541 56.8497 4.28683 57.6069 4.28683C58.3783 4.28683 58.9926 4.91541 58.9926 5.67256V7.74401ZM68.5784 12.7012C68.307 13.0155 67.907 13.1869 67.5213 13.1869C67.207 13.1869 66.8784 13.0726 66.6212 12.8583C66.0355 12.3583 65.9641 11.4869 66.4641 10.9012L67.7213 9.42974C68.2213 8.84402 69.0927 8.77259 69.6784 9.2726C70.2641 9.7726 70.3356 10.644 69.8356 11.2298L68.5784 12.7012ZM73.4213 22.9727H71.3499C70.5927 22.9727 69.9641 22.3442 69.9641 21.587C69.9641 20.8156 70.5927 20.2013 71.3499 20.2013H73.4213C74.1785 20.2013 74.807 20.8156 74.807 21.587C74.807 22.3584 74.1785 22.9727 73.4213 22.9727Z" fill="#B6D9E7"/>
<path d="M76.0354 21.8584C76.0354 23.4156 75.8211 24.9585 75.4354 26.4728H63.5638C63.521 25.9728 63.421 25.4871 63.2781 25.0299H73.2068C73.3925 24.3442 73.5211 23.6585 73.6068 22.9727C74.2925 22.8727 74.7925 22.287 74.7925 21.6013C74.7925 20.9156 74.3211 20.387 73.6925 20.2441H73.6782C73.4782 16.787 72.0925 13.6298 69.8925 11.144C70.3068 10.5583 70.221 9.75832 69.6639 9.28689C69.1496 8.85831 68.4353 8.84402 67.921 9.24403C65.4496 7.24401 62.3495 5.94399 58.9781 5.67256C58.9781 4.91541 58.3638 4.28683 57.5923 4.28683C56.8352 4.28683 56.2066 4.91541 56.2066 5.67256C52.8209 5.94399 49.7351 7.25829 47.2779 9.24403C46.7637 8.84402 46.0494 8.85831 45.5351 9.28689C44.9922 9.75832 44.8922 10.5583 45.3065 11.1298C43.1208 13.6298 41.7207 16.787 41.5207 20.2441H41.5065C40.8779 20.387 40.4064 20.9299 40.4064 21.6013C40.4064 22.287 40.9207 22.8585 41.5779 22.9585C41.6636 23.6442 41.8065 24.3442 41.9779 25.0299H51.9066C51.7494 25.4871 51.6637 25.9728 51.6208 26.4728H39.7493C39.3636 24.9585 39.1636 23.4156 39.1636 21.8584C39.2064 11.7155 47.4637 3.45825 57.6066 3.45825C67.7639 3.45825 76.0354 11.7155 76.0354 21.8584Z" fill="#A0C3D8"/>
<path d="M89.0927 64.3589C89.1212 64.5875 89.0926 64.916 88.9069 65.1018C88.9069 65.1018 88.9069 65.116 88.8926 65.116L86.0069 68.3732C85.5355 68.9018 84.9783 69.1732 84.4497 69.1732H7.87751C7.34893 69.1732 6.7775 68.8875 6.33464 68.3875L3.39175 65.116C3.2346 64.9446 3.17746 64.6589 3.22032 64.3732C3.26318 64.0875 3.37746 63.916 3.37746 63.8875H6.36321H6.37749H6.40607H34.6635L36.5492 66.116C36.8064 66.4303 37.2064 66.6161 37.6064 66.6161H54.678C55.0923 66.6161 55.478 66.4303 55.7494 66.1303L57.6495 63.8875H88.8926C88.9355 63.9017 89.0498 64.0589 89.0927 64.3589Z" fill="#53BE9E"/>
<path d="M38.2637 13.3013C37.5494 14.9013 37.0494 16.6013 36.7494 18.387H7.79199V16.0442C7.79199 14.5299 9.03486 13.3013 10.5492 13.3013H38.2637Z" fill="#53BE9E"/>
<path d="M84.5211 16.0442V18.387H78.4782C78.1924 16.6013 77.6782 14.9013 76.9639 13.3013H81.7639C83.3068 13.3013 84.5211 14.5441 84.5211 16.0442Z" fill="#53BE9E"/>
<path d="M89.0927 64.3589C89.1212 64.5875 89.0926 64.916 88.9069 65.1018C88.9069 65.1018 88.9069 65.116 88.8926 65.116L86.0069 68.3732C85.5355 68.9018 84.9783 69.1732 84.4497 69.1732H7.87751C7.34893 69.1732 6.7775 68.8875 6.33464 68.3875L3.39175 65.116C3.2346 64.9446 3.17746 64.6589 3.22032 64.3732C3.26318 64.0875 3.37746 63.916 3.37746 63.8875H5.89178L7.80608 65.9018C8.23466 66.3589 8.77752 66.6161 9.29181 66.6161H83.0069C83.5212 66.6161 84.0497 66.3732 84.5212 65.8875L86.3926 63.8875H88.8784C88.9355 63.9017 89.0498 64.0589 89.0927 64.3589Z" fill="#3BA37F"/>
<path d="M38.2637 13.3013C37.8923 14.1298 37.578 14.9727 37.3209 15.8584H12.7206C11.292 15.8584 10.1349 16.987 10.1349 18.3585V18.387H7.79199V16.0442C7.79199 14.5299 9.03486 13.3013 10.5492 13.3013H38.2637Z" fill="#3BA37F"/>
<path d="M84.5215 16.0442V18.387H82.1786V18.3585C82.1786 16.987 81.0357 15.8584 79.6071 15.8584H77.9214C77.6642 14.9727 77.3357 14.1298 76.9785 13.3013H81.7786C83.3072 13.3013 84.5215 14.5441 84.5215 16.0442Z" fill="#3BA37F"/>
<path d="M78.7642 21.1584C78.7785 21.387 78.807 21.6156 78.807 21.8442C78.807 24.0013 78.4785 26.1728 77.807 28.2585C77.6213 28.8442 77.107 29.23 76.4927 29.23H38.7495C38.1352 29.23 37.6066 28.8442 37.4209 28.2585C36.7637 26.1728 36.4352 24.0013 36.4352 21.8442C36.4352 21.6156 36.4637 21.387 36.478 21.1584H7.79199V61.1017H35.3351C35.7351 61.1017 36.1209 61.2874 36.3923 61.6017L38.2923 63.8303H54.0639L55.9782 61.5874C56.2354 61.2874 56.6354 61.1017 57.0354 61.1017H84.5499V21.1584H78.7642ZM45.3495 56.416H12.6063C11.8492 56.416 11.2206 55.7874 11.2206 55.0302C11.2206 54.2731 11.8492 53.6445 12.6063 53.6445H13.8492V47.2873C13.8492 46.5159 14.4778 45.9016 15.2349 45.9016C16.0064 45.9016 16.6207 46.5159 16.6207 47.2873V53.6445H20.7207V41.2729C20.7207 40.5158 21.3493 39.8872 22.1064 39.8872C22.8636 39.8872 23.4922 40.5158 23.4922 41.2729V53.6445H27.5922V43.1301C27.5922 42.3587 28.2208 41.7444 28.9779 41.7444C29.7351 41.7444 30.3637 42.3587 30.3637 43.1301V53.6445H34.4637V37.2158C34.4637 36.4443 35.078 35.83 35.8494 35.83C36.6066 35.83 37.2352 36.4443 37.2352 37.2158V53.6445H41.3352V45.7873C41.3352 45.0301 41.9495 44.4016 42.7209 44.4016C43.4781 44.4016 44.1067 45.0301 44.1067 45.7873V53.6445H45.3495C46.1067 53.6445 46.7353 54.2731 46.7353 55.0302C46.7353 55.7874 46.1067 56.416 45.3495 56.416Z" fill="#ECECEC"/>
<path d="M7.79199 21.1584H10.1349V61.1017H7.79199V21.1584Z" fill="#D5D6D5"/>
<path d="M82.1787 21.1584H84.5216V61.1017H82.1787V21.1584Z" fill="#D5D6D5"/>
<path d="M58.9926 5.6583V7.74404C58.9926 8.51548 58.3784 9.12977 57.6069 9.12977C56.8498 9.12977 56.2212 8.51548 56.2212 7.74404V5.67259C56.2212 4.91544 56.8498 4.28686 57.6069 4.28686C58.3926 4.27257 58.9926 4.90115 58.9926 5.6583Z" fill="#2A2F64"/>
<path d="M48.6065 12.8441C48.3493 13.0727 48.0208 13.1727 47.7065 13.1727C47.3208 13.1727 46.935 13.0013 46.6493 12.687L45.3922 11.2155C44.8922 10.6298 44.9636 9.75838 45.5493 9.25837C46.135 8.75837 47.0065 8.82979 47.5065 9.41552L48.7636 10.887C49.2636 11.4727 49.1922 12.3584 48.6065 12.8441Z" fill="#2A2F64"/>
<path d="M45.2642 21.5871C45.2642 22.3443 44.6499 22.9729 43.8784 22.9729H41.8213C41.0641 22.9729 40.4355 22.3443 40.4355 21.5871C40.4355 20.8157 41.0641 20.2014 41.8213 20.2014H43.8784C44.6642 20.2014 45.2642 20.8157 45.2642 21.5871Z" fill="#2A2F64"/>
<path d="M74.8068 21.5869C74.8068 22.3441 74.1782 22.9726 73.421 22.9726H71.3496C70.5924 22.9726 69.9639 22.3441 69.9639 21.5869C69.9639 20.8155 70.5924 20.2012 71.3496 20.2012H73.421C74.1782 20.2012 74.8068 20.8155 74.8068 21.5869Z" fill="#2A2F64"/>
<path d="M69.8354 11.2297L68.5782 12.7011C68.3068 13.0154 67.9068 13.1869 67.5211 13.1869C67.2068 13.1869 66.8782 13.0726 66.6211 12.8583C66.0354 12.3583 65.9639 11.4868 66.4639 10.9011L67.7211 9.42968C68.2211 8.84396 69.0925 8.77253 69.6783 9.27253C70.2783 9.77254 70.3354 10.644 69.8354 11.2297Z" fill="#2A2F64"/>
<path d="M46.7354 55.0303C46.7354 55.7874 46.1068 56.416 45.3496 56.416H12.6064C11.8493 56.416 11.2207 55.7874 11.2207 55.0303C11.2207 54.2731 11.8493 53.6446 12.6064 53.6446H13.8493V47.2873C13.8493 46.5159 14.4779 45.9016 15.235 45.9016C16.0065 45.9016 16.6208 46.5159 16.6208 47.2873V53.6446H20.7208V41.273C20.7208 40.5158 21.3494 39.8873 22.1065 39.8873C22.8637 39.8873 23.4923 40.5158 23.4923 41.273V53.6446H27.5923V43.1302C27.5923 42.3587 28.2209 41.7444 28.978 41.7444C29.7352 41.7444 30.3638 42.3587 30.3638 43.1302V53.6446H34.4638V37.2158C34.4638 36.4444 35.0781 35.8301 35.8495 35.8301C36.6067 35.8301 37.2353 36.4444 37.2353 37.2158V53.6446H41.3353V45.7873C41.3353 45.0302 41.9496 44.4016 42.721 44.4016C43.4782 44.4016 44.1068 45.0302 44.1068 45.7873V53.6446H45.3496C46.1068 53.6446 46.7354 54.2731 46.7354 55.0303Z" fill="#2A2F64"/>
</svg>
