<svg width="75" height="74" viewBox="0 0 75 74" fill="none" xmlns="http://www.w3.org/2000/svg">
<path d="M63.8495 26.2554C69.1226 26.2554 73.3973 21.9807 73.3973 16.7077C73.3973 11.4346 69.1226 7.15991 63.8495 7.15991C58.5764 7.15991 54.3018 11.4346 54.3018 16.7077C54.3018 21.9807 58.5764 26.2554 63.8495 26.2554Z" fill="#82ACE6"/>
<path d="M65.043 17.9011H62.6561C61.7065 17.9011 60.7958 18.2783 60.1244 18.9498C59.4529 19.6213 59.0757 20.5319 59.0757 21.4815V24.9677C60.5253 25.8111 62.1725 26.2554 63.8496 26.2554C65.5267 26.2554 67.1738 25.8111 68.6234 24.9677V21.4815C68.6234 20.5319 68.2462 19.6213 67.5748 18.9498C66.9033 18.2783 65.9926 17.9011 65.043 17.9011Z" fill="#CCDBF0"/>
<path d="M63.8496 17.9012C65.4975 17.9012 66.8333 16.5653 66.8333 14.9175C66.8333 13.2697 65.4975 11.9338 63.8496 11.9338C62.2018 11.9338 60.866 13.2697 60.866 14.9175C60.866 16.5653 62.2018 17.9012 63.8496 17.9012Z" fill="#CCDBF0"/>
<path d="M11.3368 26.2554C16.6099 26.2554 20.8846 21.9807 20.8846 16.7077C20.8846 11.4346 16.6099 7.15991 11.3368 7.15991C6.06374 7.15991 1.78906 11.4346 1.78906 16.7077C1.78906 21.9807 6.06374 26.2554 11.3368 26.2554Z" fill="#E6CC81"/>
<path d="M45.353 12.1336C45.5361 11.2138 45.5361 10.2669 45.353 9.34711L47.1405 8.34887C46.6889 6.66368 45.7801 5.13621 44.5145 3.93535L43.478 4.51418C43.2692 4.63455 43.0313 4.69522 42.7903 4.68957C42.5493 4.68392 42.3145 4.61216 42.1115 4.48214C41.7393 4.23133 41.3466 4.01248 40.9375 3.82792C40.723 3.72793 40.5417 3.56828 40.4155 3.36805C40.2892 3.16782 40.2232 2.93548 40.2255 2.69877V1.5433C38.5017 1.07383 36.6836 1.07544 34.9607 1.54797V2.69872C34.9629 2.93543 34.897 3.16777 34.7707 3.368C34.6444 3.56823 34.4632 3.72788 34.2486 3.82788C33.8396 4.01242 33.4468 4.23127 33.0747 4.48209C32.8717 4.6121 32.6369 4.68385 32.3959 4.6895C32.1549 4.69515 31.917 4.63449 31.7082 4.51413L30.6769 3.93826C29.4098 5.13761 28.4991 6.66402 28.0454 8.34871L29.8332 9.34711C29.65 10.2669 29.65 11.2138 29.8332 12.1336L28.0456 13.1317C28.4972 14.8169 29.4061 16.3444 30.6717 17.5452L31.7082 16.9665C31.9171 16.8462 32.155 16.7855 32.396 16.7912C32.6369 16.7968 32.8717 16.8685 33.0747 16.9985C33.4469 17.2493 33.8396 17.4682 34.2486 17.6527C34.4632 17.7527 34.6444 17.9123 34.7706 18.1125C34.8969 18.3127 34.9629 18.5451 34.9607 18.7818V19.9373C36.6844 20.4066 38.5025 20.405 40.2254 19.9326V18.7818C40.2232 18.5451 40.2892 18.3127 40.4154 18.1125C40.5417 17.9123 40.7229 17.7527 40.9375 17.6527C41.3466 17.4682 41.7393 17.2493 42.1115 16.9985C42.3145 16.8685 42.5493 16.7968 42.7903 16.7911C43.0313 16.7855 43.2692 16.8462 43.478 16.9665L44.5093 17.5424C45.7764 16.3431 46.6872 14.8166 47.1409 13.1319L45.353 12.1336ZM37.5932 14.3207C36.885 14.3207 36.1928 14.1107 35.604 13.7173C35.0152 13.3239 34.5563 12.7647 34.2853 12.1105C34.0143 11.4562 33.9434 10.7363 34.0816 10.0418C34.2197 9.34728 34.5607 8.70932 35.0614 8.20859C35.5622 7.70786 36.2001 7.36686 36.8947 7.22871C37.5892 7.09056 38.3091 7.16146 38.9633 7.43245C39.6176 7.70345 40.1767 8.16236 40.5702 8.75115C40.9636 9.33994 41.1736 10.0322 41.1736 10.7403C41.1736 11.6899 40.7963 12.6006 40.1249 13.272C39.4534 13.9435 38.5427 14.3207 37.5932 14.3207Z" fill="#526273"/>
<path d="M37.5932 45.3509C41.548 45.3509 44.754 42.1449 44.754 38.1901C44.754 34.2353 41.548 31.0293 37.5932 31.0293C33.6384 31.0293 30.4324 34.2353 30.4324 38.1901C30.4324 42.1449 33.6384 45.3509 37.5932 45.3509Z" fill="#D9736B"/>
<path d="M41.1737 54.4732H39.9803V38.0384C39.9803 37.4054 39.7288 36.7982 39.2812 36.3506C38.8335 35.903 38.2264 35.6515 37.5933 35.6515C36.9603 35.6515 36.3531 35.903 35.9055 36.3506C35.4579 36.7982 35.2064 37.4054 35.2064 38.0384V46.119H32.8195C32.1864 46.119 31.5793 46.3704 31.1316 46.8181C30.684 47.2657 30.4325 47.8728 30.4325 48.5059H28.0456C27.4125 48.5059 26.8054 48.7574 26.3578 49.205C25.9101 49.6527 25.6586 50.2598 25.6586 50.8928H24.4652C23.5156 50.8928 22.6049 51.2701 21.9334 51.9415C21.262 52.613 20.8848 53.5237 20.8848 54.4732V66.092C20.8848 66.3276 20.9545 66.558 21.0853 66.754L22.8709 69.4324C23.1322 69.8245 23.2717 70.2852 23.2717 70.7565V73.9942H39.9803V69.8368L43.2111 66.6059C43.3219 66.4951 43.4098 66.3635 43.4698 66.2187C43.5298 66.0739 43.5607 65.9187 43.5607 65.762V56.8602C43.5607 56.2271 43.3092 55.62 42.8616 55.1724C42.4139 54.7247 41.8068 54.4732 41.1737 54.4732Z" fill="#FFDBAC"/>
<path d="M39.1363 68.9931C39.0255 69.1039 38.9375 69.2354 38.8775 69.3802C38.8175 69.525 38.7866 69.6801 38.7867 69.8369V73.9942H41.1736V70.3311L44.0547 67.45C44.5008 67.0013 44.752 66.395 44.754 65.7623V56.8602C44.753 55.911 44.3754 55.0009 43.7042 54.3297C43.033 53.6584 42.1229 53.2809 41.1736 53.2798V38.0387C41.1736 37.0891 40.7964 36.1784 40.1249 35.5069C39.4535 34.8355 38.5428 34.4583 37.5932 34.4583C36.6436 34.4583 35.7329 34.8355 35.0615 35.5069C34.39 36.1784 34.0128 37.0891 34.0128 38.0387V44.9256H32.8193C32.079 44.9265 31.3571 45.1564 30.7527 45.5837C30.1482 46.011 29.6907 46.6149 29.4429 47.3125H28.0454C27.3052 47.3134 26.5833 47.5433 25.9788 47.9706C25.3743 48.398 24.9168 49.0019 24.669 49.6994H24.465C23.1993 49.7007 21.9858 50.2041 21.0908 51.0991C20.1958 51.9941 19.6924 53.2076 19.6912 54.4733V66.0922C19.6908 66.5635 19.8303 67.0243 20.0921 67.4162L21.8776 70.0945C22.0088 70.2903 22.0786 70.5208 22.0781 70.7565V73.9942H24.465V70.7565C24.4659 70.0495 24.2566 69.3582 23.8636 68.7705L22.0781 66.0922V54.4733C22.0789 53.8405 22.3307 53.2339 22.7781 52.7864C23.2256 52.339 23.8322 52.0872 24.465 52.0864V56.0922H26.852V50.8929C26.8522 50.5765 26.978 50.273 27.2018 50.0492C27.4255 49.8255 27.729 49.6997 28.0454 49.6994H29.2389V54.4733H31.6259V48.506C31.6261 48.1895 31.7519 47.8861 31.9756 47.6623C32.1994 47.4385 32.5029 47.3127 32.8193 47.3125H34.0128V52.0864H36.3997V38.0387C36.3997 37.7221 36.5255 37.4186 36.7493 37.1947C36.9731 36.9709 37.2767 36.8452 37.5932 36.8452C37.9097 36.8452 38.2133 36.9709 38.4371 37.1947C38.6609 37.4186 38.7867 37.7221 38.7867 38.0387V63.3754H41.1736V55.6668C41.4901 55.667 41.7935 55.7928 42.0173 56.0166C42.241 56.2403 42.3669 56.5438 42.3671 56.8602V65.7623L39.1363 68.9931Z" fill="black"/>
<path d="M45.9476 37.8114C45.9474 36.508 45.6422 35.2229 45.0565 34.0585C44.4708 32.8942 43.6209 31.8831 42.5746 31.106C41.5283 30.3289 40.3147 29.8074 39.0308 29.5831C37.7469 29.3588 36.4284 29.4381 35.1806 29.8145C33.9328 30.1909 32.7904 30.854 31.8447 31.7508C30.899 32.6476 30.1762 33.7532 29.7342 34.9793C29.2922 36.2054 29.1431 37.5179 29.299 38.8118C29.4548 40.1058 29.9113 41.3453 30.6318 42.4314L32.6201 41.1097C32.0332 40.2238 31.6935 39.1971 31.6362 38.136C31.5789 37.0748 31.8061 36.0175 32.2942 35.0736C32.7824 34.1296 33.5139 33.3331 34.4129 32.7665C35.312 32.1999 36.3461 31.8837 37.4084 31.8506C38.4706 31.8176 39.5224 32.0688 40.455 32.5784C41.3876 33.0879 42.1671 33.8373 42.7131 34.7491C43.259 35.6609 43.5516 36.702 43.5604 37.7647C43.5693 38.8273 43.2941 39.8731 42.7634 40.7939L44.8287 41.9897C45.5621 40.7194 45.9481 39.2782 45.9476 37.8114Z" fill="black"/>
<path d="M63.8496 27.4489C65.974 27.4489 68.0507 26.8189 69.8171 25.6387C71.5835 24.4584 72.9602 22.7808 73.7732 20.8181C74.5862 18.8554 74.7989 16.6957 74.3844 14.6121C73.97 12.5286 72.947 10.6147 71.4448 9.11247C69.9426 7.61028 68.0287 6.58728 65.9451 6.17283C63.8615 5.75837 61.7018 5.97108 59.7391 6.78406C57.7764 7.59704 56.0989 8.97377 54.9186 10.7402C53.7384 12.5065 53.1084 14.5832 53.1084 16.7077C53.1115 19.5554 54.2442 22.2857 56.2579 24.2994C58.2716 26.3131 61.0018 27.4458 63.8496 27.4489ZM60.2692 24.2442V21.4815C60.27 20.8487 60.5218 20.2421 60.9692 19.7946C61.4167 19.3472 62.0233 19.0954 62.6561 19.0946H65.0431C65.6759 19.0954 66.2825 19.3472 66.73 19.7946C67.1775 20.2421 67.4292 20.8487 67.43 21.4815V24.2442C66.3132 24.7824 65.0894 25.0619 63.8496 25.0619C62.6099 25.0619 61.386 24.7824 60.2692 24.2442ZM63.8496 16.7077C63.4955 16.7077 63.1494 16.6027 62.855 16.406C62.5606 16.2092 62.3312 15.9296 62.1957 15.6025C62.0602 15.2754 62.0247 14.9155 62.0938 14.5682C62.1629 14.2209 62.3334 13.902 62.5838 13.6516C62.8341 13.4012 63.1531 13.2307 63.5004 13.1616C63.8476 13.0926 64.2076 13.128 64.5347 13.2635C64.8618 13.399 65.1414 13.6285 65.3381 13.9229C65.5348 14.2173 65.6398 14.5634 65.6398 14.9175C65.6393 15.3921 65.4505 15.8471 65.1149 16.1827C64.7793 16.5184 64.3243 16.7071 63.8496 16.7077ZM63.8496 8.35337C65.494 8.35175 67.1023 8.83595 68.4725 9.74518C69.8427 10.6544 70.9138 11.9481 71.5513 13.464C72.1887 14.9798 72.3642 16.6502 72.0557 18.2654C71.7471 19.8806 70.9683 21.3687 69.817 22.5429V21.4815C69.814 20.6185 69.5763 19.7726 69.1295 19.0342C68.6826 18.2959 68.0434 17.693 67.2803 17.2901C67.7155 16.6636 67.9708 15.9298 68.0186 15.1685C68.0663 14.4071 67.9047 13.6472 67.5512 12.9712C67.1977 12.2952 66.6658 11.729 66.0133 11.3338C65.3608 10.9387 64.6125 10.7298 63.8496 10.7298C63.0868 10.7298 62.3385 10.9387 61.686 11.3338C61.0334 11.729 60.5016 12.2952 60.1481 12.9712C59.7946 13.6472 59.6329 14.4071 59.6807 15.1685C59.7284 15.9298 59.9838 16.6636 60.419 17.2901C59.6558 17.693 59.0166 18.2959 58.5698 19.0342C58.1229 19.7726 57.8853 20.6185 57.8823 21.4815V22.5429C56.7309 21.3687 55.9521 19.8806 55.6436 18.2654C55.335 16.6502 55.5105 14.9798 56.148 13.464C56.7855 11.9481 57.8565 10.6544 59.2267 9.74518C60.5969 8.83595 62.2052 8.35175 63.8496 8.35337Z" fill="black"/>
<path d="M11.3369 27.4489C13.4613 27.4489 15.538 26.8189 17.3044 25.6387C19.0708 24.4584 20.4475 22.7808 21.2605 20.8181C22.0735 18.8554 22.2862 16.6957 21.8718 14.6121C21.4573 12.5286 20.4343 10.6147 18.9321 9.11247C17.4299 7.61028 15.516 6.58728 13.4324 6.17283C11.3488 5.75837 9.18914 5.97108 7.22644 6.78406C5.26373 7.59704 3.58619 8.97377 2.40592 10.7402C1.22566 12.5065 0.595703 14.5832 0.595703 16.7077C0.598812 19.5554 1.73147 22.2857 3.74517 24.2994C5.75886 26.3131 8.48913 27.4458 11.3369 27.4489ZM11.3369 8.35337C12.9892 8.35337 14.6045 8.84334 15.9783 9.76132C17.3522 10.6793 18.423 11.9841 19.0553 13.5106C19.6876 15.0372 19.853 16.7169 19.5307 18.3375C19.2083 19.9581 18.4127 21.4467 17.2443 22.615C16.0759 23.7834 14.5873 24.5791 12.9668 24.9014C11.3462 25.2238 9.66642 25.0583 8.13988 24.426C6.61333 23.7937 5.30857 22.7229 4.39059 21.349C3.47261 19.9752 2.98264 18.36 2.98264 16.7077C2.98532 14.4928 3.86636 12.3694 5.43251 10.8032C6.99866 9.23709 9.12205 8.35605 11.3369 8.35337Z" fill="black"/>
<path d="M11.337 20.2881C11.0206 20.2879 10.7171 20.1621 10.4933 19.9383C10.2696 19.7145 10.1438 19.4111 10.1435 19.0946H7.75661C7.75888 19.8326 7.98954 20.5519 8.41692 21.1535C8.8443 21.7552 9.44744 22.2099 10.1435 22.455V23.8685H12.5305V22.455C13.3265 22.1751 13.9978 21.6224 14.4252 20.8949C14.8527 20.1674 15.0088 19.312 14.8658 18.4804C14.7228 17.6488 14.29 16.8947 13.644 16.3518C12.9981 15.8088 12.1808 15.5121 11.337 15.5142C11.101 15.5142 10.8702 15.4442 10.674 15.3131C10.4777 15.1819 10.3247 14.9955 10.2344 14.7775C10.1441 14.5594 10.1204 14.3194 10.1665 14.0879C10.2125 13.8564 10.3262 13.6438 10.4931 13.4768C10.66 13.3099 10.8727 13.1963 11.1042 13.1502C11.3357 13.1042 11.5757 13.1278 11.7937 13.2181C12.0118 13.3085 12.1982 13.4614 12.3293 13.6577C12.4605 13.854 12.5305 14.0847 12.5305 14.3208H14.9174C14.915 13.5828 14.6843 12.8637 14.2569 12.2621C13.8295 11.6604 13.2265 11.2058 12.5305 10.9606V9.54688H10.1435V10.96C9.34749 11.2399 8.67625 11.7926 8.24879 12.5202C7.82133 13.2477 7.66526 14.1031 7.80825 14.9347C7.95124 15.7664 8.38406 16.5205 9.02997 17.0635C9.67589 17.6065 10.4932 17.9032 11.337 17.9012C11.6535 17.9012 11.9571 18.0269 12.1809 18.2507C12.4047 18.4745 12.5305 18.7781 12.5305 19.0946C12.5305 19.4112 12.4047 19.7147 12.1809 19.9385C11.9571 20.1624 11.6535 20.2881 11.337 20.2881Z" fill="black"/>
<path d="M41.4194 19.9326L41.4288 18.7403C41.8982 18.5278 42.3492 18.2767 42.7773 17.9898L42.8961 18.0084L43.9276 18.5842C44.1499 18.7086 44.4062 18.7585 44.659 18.7266C44.9117 18.6947 45.1476 18.5827 45.332 18.407C46.7577 17.0559 47.7825 15.3373 48.2936 13.4408C48.3623 13.1842 48.3435 12.912 48.24 12.6673C48.1366 12.4227 47.9544 12.2195 47.7225 12.09L46.649 11.4898C46.6723 11.238 46.684 10.9882 46.684 10.7404C46.684 10.4921 46.6723 10.2423 46.649 9.99096L47.7225 9.39073C47.9541 9.26124 48.136 9.05825 48.2394 8.81384C48.3429 8.56943 48.3619 8.29752 48.2936 8.04108C47.7849 6.14328 46.7616 4.423 45.3367 3.07028C45.1516 2.89523 44.9156 2.78369 44.6629 2.75183C44.4101 2.71998 44.1538 2.76947 43.9311 2.89312L42.895 3.47239L43.4777 4.51428L42.7773 3.49098C42.3385 3.20382 41.8853 2.93929 41.4194 2.69845V1.54347C41.4194 1.28076 41.3327 1.0254 41.1728 0.816989C41.0128 0.608579 40.7886 0.458764 40.5348 0.390778C39.5293 0.123631 38.4925 -0.00767969 37.4521 0.000346863C36.5058 0.0154302 35.565 0.148148 34.6514 0.395445C34.3976 0.463272 34.1732 0.613043 34.0133 0.821486C33.8533 1.02993 33.7667 1.28537 33.7668 1.54812L33.7551 2.7404C33.2866 2.95318 32.8363 3.20422 32.409 3.49097L32.2901 3.47233L31.2586 2.89656C31.0362 2.77277 30.78 2.72319 30.5274 2.75506C30.2748 2.78692 30.039 2.89855 29.8542 3.07372C28.4286 4.42483 27.4038 6.14337 26.8927 8.03988C26.824 8.29648 26.8428 8.56869 26.9462 8.81337C27.0497 9.05805 27.2318 9.26122 27.4638 9.39069L28.5372 9.99092C28.5139 10.2427 28.5023 10.4925 28.5022 10.7403C28.5022 10.9886 28.5139 11.2384 28.5372 11.4898L27.4638 12.09C27.2321 12.2195 27.0502 12.4225 26.9468 12.6669C26.8434 12.9113 26.8243 13.1832 26.8927 13.4396C27.4007 15.3374 28.4236 17.0578 29.8484 18.4104C30.0329 18.586 30.2688 18.6979 30.5215 18.7298C30.7742 18.7617 31.0305 18.7118 31.2528 18.5876L32.2901 18.0083L32.409 17.9897C32.8476 18.2772 33.3008 18.5417 33.7668 18.7822V19.9372C33.7668 20.1999 33.8535 20.4553 34.0135 20.6637C34.1734 20.8721 34.3977 21.0219 34.6514 21.0899C35.6087 21.3482 36.5958 21.4798 37.5874 21.4815C37.6363 21.4815 37.6852 21.4803 37.733 21.4803C38.6798 21.4653 39.6209 21.3326 40.5349 21.0852C40.7887 21.0174 41.013 20.8676 41.173 20.6592C41.3329 20.4508 41.4196 20.1953 41.4194 19.9326ZM39.0325 18.7823V18.9722C38.5931 19.0474 38.1485 19.0879 37.7027 19.0934C37.1838 19.1043 36.665 19.0649 36.1537 18.9757V18.7823C36.1558 18.3162 36.0238 17.8593 35.7733 17.4662C35.5228 17.0732 35.1645 16.7605 34.7412 16.5655C34.3935 16.4091 34.0598 16.2235 33.7435 16.0107C33.3572 15.7579 32.9088 15.6161 32.4473 15.6009C31.9859 15.5857 31.5291 15.6976 31.1269 15.9245L30.8985 16.0527C30.2987 15.3513 29.8209 14.5543 29.4848 13.6949L30.4148 13.1751C30.6336 13.0527 30.8084 12.8646 30.9144 12.6375C31.0204 12.4103 31.0524 12.1556 31.0057 11.9093C30.8503 11.1377 30.8503 10.3429 31.0057 9.57132C31.0524 9.32504 31.0204 9.07033 30.9144 8.84321C30.8083 8.61609 30.6336 8.42804 30.4148 8.30566L29.4848 7.78585C29.8229 6.92746 30.3024 6.13171 30.9032 5.43155L31.1258 5.55625C31.5272 5.78376 31.9835 5.89628 32.4447 5.88148C32.9058 5.86668 33.354 5.72512 33.74 5.47234C34.0571 5.25888 34.3916 5.07252 34.74 4.91523C35.1637 4.72052 35.5223 4.40791 35.773 4.01479C36.0237 3.62167 36.1559 3.16467 36.1538 2.69841V2.50843C36.5928 2.43332 37.0371 2.3928 37.4824 2.38725C38.0017 2.37652 38.5208 2.41594 39.0325 2.50496V2.69843C39.0307 3.16446 39.1629 3.62119 39.4134 4.01421C39.6638 4.40722 40.0219 4.71998 40.4451 4.91521C40.7925 5.07211 41.1262 5.25768 41.4428 5.46998C41.8292 5.7231 42.2778 5.86503 42.7395 5.88024C43.2012 5.89545 43.6582 5.78336 44.0605 5.55623L44.2877 5.42919C44.8877 6.12995 45.3657 6.92658 45.7016 7.7858L44.7715 8.30561C44.5527 8.428 44.378 8.61606 44.2719 8.84319C44.1659 9.07033 44.1339 9.32505 44.1806 9.57135C44.336 10.3429 44.336 11.1378 44.1806 11.9094C44.1339 12.1556 44.1659 12.4103 44.2719 12.6375C44.3779 12.8646 44.5527 13.0526 44.7714 13.175L45.7015 13.6948C45.3633 14.5532 44.8839 15.349 44.2831 16.0491L44.0605 15.9244C43.6588 15.6978 43.2026 15.5858 42.7416 15.6006C42.2807 15.6154 41.8326 15.7564 41.4463 16.0083C41.1286 16.2216 40.7937 16.4079 40.4451 16.5654C40.0219 16.7607 39.6638 17.0734 39.4133 17.4665C39.1629 17.8595 39.0307 18.3162 39.0325 18.7823Z" fill="black"/>
<path d="M37.5932 5.96643C36.649 5.96643 35.7261 6.24641 34.941 6.77097C34.1559 7.29553 33.5441 8.04111 33.1827 8.91342C32.8214 9.78573 32.7269 10.7456 32.9111 11.6716C33.0953 12.5977 33.5499 13.4483 34.2176 14.1159C34.8852 14.7836 35.7358 15.2383 36.6619 15.4225C37.5879 15.6067 38.5478 15.5121 39.4201 15.1508C40.2924 14.7895 41.038 14.1776 41.5625 13.3925C42.0871 12.6075 42.3671 11.6845 42.3671 10.7403C42.3658 9.47458 41.8625 8.26106 40.9675 7.36606C40.0725 6.47106 38.8589 5.96769 37.5932 5.96643ZM37.5932 13.1272C37.1211 13.1272 36.6596 12.9873 36.2671 12.725C35.8746 12.4627 35.5686 12.0899 35.388 11.6537C35.2073 11.2176 35.16 10.7377 35.2521 10.2746C35.3442 9.81162 35.5716 9.38631 35.9054 9.05249C36.2392 8.71867 36.6645 8.49133 37.1275 8.39923C37.5906 8.30713 38.0705 8.3544 38.5067 8.53506C38.9428 8.71572 39.3156 9.02166 39.5779 9.41419C39.8402 9.80672 39.9802 10.2682 39.9802 10.7403C39.9793 11.3731 39.7276 11.9798 39.2801 12.4272C38.8327 12.8747 38.226 13.1264 37.5932 13.1272Z" fill="black"/>
<path d="M38.7866 22.675H36.3997V28.6424H38.7866V22.675Z" fill="black"/>
<path d="M53.3747 22.902L44.0542 29.6514L45.4541 31.5845L54.7746 24.8351L53.3747 22.902Z" fill="black"/>
<path d="M21.812 22.9019L20.4121 24.8351L29.7326 31.5845L31.1325 29.6513L21.812 22.9019Z" fill="black"/>
</svg>
