<svg width="81" height="69" viewBox="0 0 81 69" fill="none" xmlns="http://www.w3.org/2000/svg">
<path d="M69.0957 37.3753V51.7503H11.5956V17.2503H55.9454C55.1591 15.4634 54.7379 13.5099 54.7308 11.5002H8.72059C7.13215 11.5002 5.84558 12.7868 5.84558 14.3753V57.5003H74.8457V31.6253C74.8457 34.7964 72.2669 37.3753 69.0957 37.3753Z" fill="#505050"/>
<path d="M11.5957 51.7503H69.0958V37.3753C65.9247 37.3753 63.3458 34.7964 63.3458 31.6253V24.6404C59.926 23.1325 57.3557 20.4588 55.9455 17.2502H11.5957V51.7503Z" fill="#F0F0F0"/>
<path d="M14.4706 11.5002H8.72059C7.13215 11.5002 5.84558 12.7868 5.84558 14.3753V57.5003H11.5956V14.3753C11.5956 12.7868 12.8822 11.5002 14.4706 11.5002Z" fill="#3C3C3C"/>
<path d="M77.7207 69.0003H2.97059C1.38215 69.0003 0.0955811 67.7137 0.0955811 66.1253V60.3753C0.0955811 58.7868 1.38215 57.5002 2.97059 57.5002H77.7207C79.3092 57.5002 80.5957 58.7868 80.5957 60.3753V66.1253C80.5957 67.7137 79.3092 69.0003 77.7207 69.0003Z" fill="#505050"/>
<path d="M5.84559 66.1253V60.3753C5.84559 58.7868 7.13216 57.5002 8.7206 57.5002H2.97059C1.38215 57.5002 0.0955811 58.7868 0.0955811 60.3753V66.1253C0.0955811 67.7137 1.38215 69.0003 2.97059 69.0003H8.7206C7.13216 69.0003 5.84559 67.7137 5.84559 66.1253Z" fill="#3C3C3C"/>
<path d="M47.5334 60.3753H33.1583C31.5699 60.3753 30.2833 59.0887 30.2833 57.5002H50.4084C50.4084 59.0887 49.1218 60.3753 47.5334 60.3753Z" fill="#F0F0F0"/>
<path d="M80.5959 11.5001C80.5959 4.39166 74.1459 -1.21029 66.7801 0.22578C62.229 1.11416 58.5935 4.82866 57.7828 9.39417C56.7966 14.9544 59.8111 19.944 64.4255 21.9968C65.4907 22.4711 66.2209 23.4745 66.2209 24.6389V28.7502H71.9709V24.6375C71.9709 23.4731 72.7012 22.4711 73.7649 21.9982C77.7885 20.2085 80.5959 16.1878 80.5959 11.5001Z" fill="#FAB400"/>
<path d="M67.3005 21.9965C62.6861 19.9452 59.6717 14.9557 60.6578 9.39396C61.4671 4.82845 65.1025 1.11394 69.6537 0.225562C69.9555 0.166624 70.2545 0.137874 70.5521 0.101937C69.3417 -0.0518763 68.0753 -0.0274388 66.7787 0.225562C62.2275 1.1125 58.5921 4.82845 57.7828 9.39396C56.7966 14.9542 59.8111 19.9438 64.4255 21.9965C65.4907 22.4709 66.2209 23.4743 66.2209 24.6401V28.7499H69.0959V24.6401C69.0959 23.4743 68.3657 22.4709 67.3005 21.9965Z" fill="#DC9600"/>
<path d="M71.9707 28.7502H66.2207V31.6253C66.2207 33.2137 67.5073 34.5003 69.0957 34.5003C70.6841 34.5003 71.9707 33.2137 71.9707 31.6253V28.7502Z" fill="#F0F0F0"/>
<path d="M67.6582 31.6253V28.7502H66.2207V31.6253C66.2207 33.2123 67.5073 34.5003 69.0957 34.5003C69.3458 34.5003 69.583 34.4586 69.8145 34.3982C68.5768 34.0776 67.6582 32.9636 67.6582 31.6253Z" fill="#D2D2D2"/>
<path d="M66.2207 25.8752H71.9707V28.7503H66.2207V25.8752Z" fill="#505050"/>
<path d="M66.2207 25.8752H69.0957V28.7503H66.2207V25.8752Z" fill="#3C3C3C"/>
<path d="M74.8457 12.6503V10.3503H73.5448C73.4355 9.92907 73.2702 9.53231 73.0546 9.16719L73.9746 8.24719L72.3488 6.62137L71.4288 7.54137C71.0637 7.32575 70.6669 7.16043 70.2457 7.05118V5.75024H67.9457V7.05118C67.5245 7.16043 67.1278 7.32575 66.7626 7.54137L65.8426 6.62137L64.2168 8.24719L65.1368 9.16719C64.9212 9.53231 64.7559 9.92907 64.6466 10.3503H63.3457V12.6503H64.6466C64.7559 13.0714 64.9212 13.4682 65.1368 13.8333L64.2168 14.7533L65.8426 16.3791L66.7626 15.4591C67.1278 15.6748 67.5245 15.8401 67.9457 15.9493V17.2503H70.2457V15.9493C70.6669 15.8401 71.0637 15.6748 71.4288 15.4591L72.3488 16.3791L73.9746 14.7533L73.0546 13.8333C73.2702 13.4682 73.4355 13.0714 73.5448 12.6503H74.8457ZM69.0957 13.8003C67.8278 13.8003 66.7957 12.7681 66.7957 11.5003C66.7957 10.2324 67.8278 9.20025 69.0957 9.20025C70.3636 9.20025 71.3957 10.2324 71.3957 11.5003C71.3957 12.7681 70.3636 13.8003 69.0957 13.8003Z" fill="#F0F0F0"/>
<path d="M28.8457 23.0002C22.4948 23.0002 17.3457 28.1494 17.3457 34.5003H28.8457V23.0002Z" fill="#FA6450"/>
<path d="M17.3457 34.5C17.3457 40.8509 22.4948 46 28.8457 46V34.5H17.3457Z" fill="#FAB400"/>
<path d="M28.8458 23.0002C35.1967 23.0002 40.3458 28.1494 40.3458 34.5003H28.8458V23.0002Z" fill="#64C8F0"/>
<path d="M31.7208 37.375V45.6234C35.7573 44.5826 38.9285 41.4115 39.9692 37.375H31.7208Z" fill="#3CC8B4"/>
<path d="M43.2206 30.9062H57.5956V32.3438H43.2206V30.9062Z" fill="#505050"/>
<path d="M43.2206 25.1565H57.5956V26.594H43.2206V25.1565Z" fill="#505050"/>
<path d="M43.2206 37.375H46.0956V46H43.2206V37.375Z" fill="#FA6450"/>
<path d="M48.9706 40.25H51.8456V46H48.9706V40.25Z" fill="#FAB400"/>
<path d="M54.7207 34.5H57.5957V46H54.7207V34.5Z" fill="#64C8F0"/>
</svg>
