<svg width="52" height="90" viewBox="0 0 52 90" fill="none" xmlns="http://www.w3.org/2000/svg">
<path d="M31.6511 80.3984V77.3413C31.6511 77.3413 29.325 75.0318 29.325 71.6091L33.2627 41.6026C33.3458 40.805 33.7446 40.074 34.3427 39.5423L34.3926 39.5091C35.9211 38.1467 38.3635 38.346 39.6096 39.9245L50.4426 51.7543C50.8247 52.2527 51.0407 52.8841 51.0407 53.5155V80.3984" fill="#EFCDB1"/>
<path d="M51.8715 80.3986H50.21V53.5156C50.21 53.0836 50.0604 52.6516 49.7946 52.3027L38.9783 40.4729V40.4397C38.4965 39.8582 37.8152 39.4926 37.0676 39.4428C36.3033 39.3763 35.539 39.6255 34.9575 40.124L34.9076 40.1738C34.459 40.556 34.1766 41.1043 34.1101 41.6858L30.1558 71.6757C30.1724 74.6498 32.216 76.7267 32.2326 76.7433L32.4819 76.9925V80.3986H30.8204V77.6571C30.1724 76.9094 28.4943 74.683 28.4943 71.6093V71.5096L32.432 41.4864C32.5483 40.4895 33.0301 39.5757 33.7778 38.9277L33.8277 38.8779C34.7581 38.0804 35.971 37.6816 37.1839 37.7813C38.3802 37.8976 39.4601 38.4625 40.2244 39.3929L51.0573 51.2228L51.0906 51.256C51.589 51.904 51.8549 52.7015 51.8549 53.5156L51.8715 80.3986Z" fill="black"/>
<path d="M40.4736 7.39233V65.4781L3.93741 67.2227C2.40884 67.2891 1.09626 66.1593 1.01319 64.6972V7.39233H40.4736Z" fill="#73C9DF"/>
<path d="M34.8412 73.5198H6.64564C3.07343 73.5198 0.182436 70.6288 0.165821 67.0566V6.56165H41.3044V67.3224C41.3044 67.3723 41.2878 67.4387 41.2878 67.4886C41.2878 67.5384 41.2545 67.8707 41.2379 68.0369C41.2213 68.1033 41.2047 68.1698 41.2047 68.2362L41.1548 68.4522C41.1382 68.5519 41.105 68.635 41.0884 68.7347L41.0385 68.8842C41.0385 68.9008 41.0385 68.9341 41.0219 68.9507V68.9839C41.0053 69.067 40.9721 69.1667 40.9388 69.2498C40.9222 69.3162 40.889 69.3993 40.8558 69.4657L40.8225 69.5654L40.673 69.8977C40.6398 69.931 40.6232 69.9642 40.6065 70.014C40.4072 70.3962 40.1746 70.7617 39.8921 71.1106L39.7758 71.2602H39.7592L39.6096 71.4263L39.4435 71.5925L39.3272 71.7088L39.1278 71.8915C39.078 71.9414 39.0281 71.9912 38.9617 72.0244H38.945V72.4564H38.3801L38.0811 72.6392L37.9814 72.689L37.8651 72.7555L37.782 72.7887L37.6159 72.8718C37.1839 73.0712 36.7519 73.2207 36.2867 73.3204L36.1371 73.3536H36.1205L35.9544 73.3869H35.6719C35.4061 73.4533 35.1236 73.4866 34.8412 73.5198ZM1.82731 8.22314V67.0566C1.84393 69.715 3.98725 71.8583 6.64564 71.8583H34.8412L35.4559 71.8251H35.9045C36.2534 71.742 36.5857 71.6257 36.9014 71.4762L37.0177 71.4263L37.0676 71.3931L37.1673 71.3432H37.1839L37.2503 71.31L37.4829 71.1771L37.6325 71.0608L37.7488 70.9777C37.7986 70.9445 37.8485 70.9112 37.8817 70.8614L38.0146 70.7617L38.1642 70.6288L38.2472 70.5457L38.3635 70.4294V70.3962L38.4632 70.2965H38.4798L38.5629 70.1968C38.7623 69.931 38.9451 69.6651 39.0946 69.3661L39.1278 69.2996H39.1444L39.2441 69.067L39.2773 68.9839L39.3438 68.8344C39.3604 68.7679 39.3937 68.7015 39.4103 68.635L39.4435 68.5519C39.4435 68.5187 39.4601 68.4855 39.4601 68.4522L39.51 68.2362C39.5266 68.1864 39.5432 68.1366 39.5432 68.0867C39.5598 68.0369 39.5598 67.987 39.5764 67.9372C39.593 67.8043 39.6096 67.6547 39.6096 67.5218C39.6263 67.4886 39.6263 67.4387 39.6263 67.4055V8.22314H1.82731Z" fill="black"/>
<path d="M36.5525 45.4073L4.86784 45.0916V12.8752H36.5525V45.4073Z" fill="white"/>
<path d="M17.6281 19.3386H11.3144V25.6523H17.6281V19.3386ZM16.1992 24.2234H12.7433V20.7841H16.1992V24.2234Z" fill="black"/>
<path d="M24.2242 38.5618H30.5379V32.2482H24.2242V38.5618ZM25.6531 33.6771H29.109V37.133H25.6531V33.6771Z" fill="black"/>
<path d="M30.5379 19.3386H24.2242V25.6523H30.5379V19.3386ZM29.109 24.2234H25.6531V20.7841H29.109V24.2234Z" fill="black"/>
<path d="M11.3144 38.5618H17.6281V32.2482H11.3144V38.5618ZM12.7433 33.6771H16.1992V37.133H12.7433V33.6771Z" fill="black"/>
<path d="M21.6323 21.0332V24.4559H20.2034V25.8848H18.7745V26.7654H20.2034V28.1278H18.7911H15.9168V26.6989H14.4879V28.1278H13.0424V29.5567H11.6135V31.0022H13.0424H15.9168H18.7911V29.5567H20.22V28.1942H21.6323V26.7654V25.8848H23.0612V22.4621V21.0332H21.6323Z" fill="black"/>
<path d="M24.5067 28.1943H21.6323V31.0023H18.7912V33.86H20.2034V36.7012H21.6323V38.1467H23.0612V36.7012V33.8434H21.6489V32.4976H23.0612L23.0778 29.6398H24.5067V28.1943Z" fill="black"/>
<path d="M28.81 31.0687V29.6398H30.2388V28.1943H28.81H25.9356V29.5069H27.3811V31.0687H28.81Z" fill="black"/>
<path d="M18.7579 36.7013H20.1868V38.1302H18.7579V36.7013Z" fill="black"/>
<path d="M9.61971 26.7654H11.0486V28.1943H9.61971V26.7654Z" fill="black"/>
<path d="M30.2388 26.7654H31.6677V28.1943H30.2388V26.7654Z" fill="black"/>
<path d="M18.7745 19.0394H20.2034V20.4683H18.7745V19.0394Z" fill="black"/>
<path d="M24.5067 26.7654H25.9356V28.1943H24.5067V26.7654Z" fill="black"/>
<path d="M20.2034 39.7915H21.6323V41.2204H20.2034V39.7915Z" fill="black"/>
<path d="M6.9281 25.9514H8.39021V16.3314H18.1266V14.8693H6.9281V25.9514Z" fill="black"/>
<path d="M23.7922 14.8029V16.265H33.4123V26.0179H34.8744V14.8029H23.7922Z" fill="black"/>
<path d="M34.8744 31.9161H33.4123V41.5362H23.6593V42.9983H34.8744V31.9161Z" fill="black"/>
<path d="M18.0103 43.0648V41.6027H8.39021V31.8663H6.9281V43.0648H18.0103Z" fill="black"/>
<path d="M0.996567 21.9474H40.4736V23.6089H0.996567V21.9474Z" fill="black"/>
<path d="M40.4736 62.3878V67.0566C40.4736 70.1636 37.9482 72.6891 34.8412 72.6891H6.64564C3.53865 72.6891 1.01318 70.1636 0.996567 67.0566V62.3878H40.4736Z" fill="#565656"/>
<path d="M34.8412 73.5198H6.64564C3.07343 73.5198 0.182436 70.6288 0.165821 67.0565V61.557H41.3044V67.0565C41.3044 70.6288 38.4134 73.5198 34.8412 73.5198ZM1.82731 63.2185V67.0565C1.84393 69.7149 3.98725 71.8583 6.64564 71.8583H34.8412C37.4829 71.8416 39.6263 69.6983 39.6429 67.0565V63.2185H1.82731Z" fill="black"/>
<path d="M17.6613 66.8906H24.7061V68.5521H17.6613V66.8906Z" fill="black"/>
<path d="M40.4736 7.27627V7.39258H0.996567V7.27627C0.996567 4.15267 3.52204 1.6272 6.64564 1.6272H34.8412C37.9482 1.64381 40.4736 4.16928 40.4736 7.27627Z" fill="#565656"/>
<path d="M41.3043 8.22326H0.165771V7.27621C0.182386 3.704 3.07338 0.813002 6.64559 0.796387H34.8411C38.4133 0.813002 41.3043 3.704 41.3043 7.27621V8.22326ZM1.87711 6.56177H39.593C39.2441 4.20245 37.217 2.45788 34.8411 2.45788H6.64559C4.25304 2.45788 2.22602 4.20245 1.87711 6.56177Z" fill="black"/>
<path d="M40.4238 75.6797C40.4238 75.6797 36.1704 72.1906 35.3562 67.8541C34.675 64.2819 35.9544 60.7429 35.9544 60.7429L30.2554 54.5455C29.0093 53.2496 29.0259 51.2059 30.2887 49.9432C31.5514 48.6805 33.595 48.6639 34.8744 49.8934L45.8901 60.7429" fill="#EFCDB1"/>
<path d="M39.9087 76.3279C39.726 76.1784 35.3895 72.5895 34.5255 68.0038C33.9772 65.0131 34.675 62.0889 35.0073 60.9591L29.6573 55.1106C28.0457 53.5156 28.0457 50.9071 29.6407 49.2954C31.2357 47.6838 33.8443 47.6838 35.4559 49.2954L46.4716 60.145L45.3086 61.3246L34.2929 50.4917C33.3292 49.5446 31.784 49.5446 30.837 50.5083C29.8899 51.472 29.8899 53.0171 30.8536 53.9642H30.8702L36.9014 60.5437L36.7353 61.0089C36.7187 61.0422 35.539 64.3818 36.1704 67.6881C36.918 71.6757 40.9056 74.9821 40.9555 75.0153L39.9087 76.3279Z" fill="black"/>
<path d="M31.6511 80.3982H51.0573V88.5395H31.6511V80.3982Z" fill="#E87B1E"/>
<path d="M51.8715 89.3702H30.8204V79.5674H51.8715V89.3702ZM32.4819 87.7087H50.21V81.2289H32.4819V87.7087Z" fill="black"/>
</svg>
