<svg width="77" height="89" viewBox="0 0 77 89" fill="none" xmlns="http://www.w3.org/2000/svg">
<path d="M66.2133 1.31549H8.33203V73.2286H66.2133V1.31549Z" fill="#D4E157"/>
<path d="M62.1926 32.5366C62.4111 31.8142 62.53 31.0488 62.53 30.2561C62.53 25.904 58.9892 22.3632 54.637 22.3632C50.2849 22.3632 46.7441 25.904 46.7441 30.2561C46.7441 31.049 46.8628 31.8142 47.0814 32.5366C39.1975 35.5793 33.5893 43.237 33.5893 52.1808V64.0448L30.0814 65.7988V69.7207H8.33203V73.2286H30.0814H66.2133V69.7207V34.6118C64.9599 33.7833 63.6133 33.0852 62.1926 32.5366Z" fill="#C0CA33"/>
<path d="M18.856 12.7164C18.856 9.33127 16.102 6.57746 12.7171 6.57746H8.33203V67.9668H12.7171C16.1022 67.9668 18.856 65.2129 18.856 61.8279C18.856 58.443 16.102 55.689 12.7171 55.689C16.1022 55.689 18.856 52.935 18.856 49.5501C18.856 46.165 16.102 43.4112 12.7171 43.4112C16.1022 43.4112 18.856 40.6572 18.856 37.2723C18.856 33.8874 16.102 31.1334 12.7171 31.1334C16.1022 31.1334 18.856 28.3794 18.856 24.9945C18.856 21.6096 16.102 18.8556 12.7171 18.8556C16.102 18.8553 18.856 16.1013 18.856 12.7164Z" fill="#C0CA33"/>
<path d="M72.1773 66.2128V52.1809C72.1773 42.494 64.3245 34.6412 54.6375 34.6412C44.9506 34.6412 37.0978 42.494 37.0978 52.1809V66.2128L33.5898 67.9668V76.7367H75.6854V67.9668L72.1773 66.2128Z" fill="#FF9017"/>
<path d="M65.1611 76.7366C65.1611 82.5487 60.4495 87.2605 54.6372 87.2605C48.8249 87.2605 44.1133 82.5488 44.1133 76.7366H65.1611Z" fill="#FDD844"/>
<path d="M54.635 34.6412C57.0568 34.6412 59.0201 32.6779 59.0201 30.2561C59.0201 27.8344 57.0568 25.8711 54.635 25.8711C52.2132 25.8711 50.25 27.8344 50.25 30.2561C50.25 32.6779 52.2132 34.6412 54.635 34.6412Z" fill="#B0BEC5"/>
<path d="M72.1773 66.2128V52.1809C72.1773 42.494 64.3245 34.6412 54.6375 34.6412C44.9506 34.6412 37.0978 42.494 37.0978 52.1809V66.2128L33.5898 67.9668V76.7367H75.6854V67.9668L72.1773 66.2128Z" fill="#FF9017"/>
<path d="M12.7173 15.3473H3.94739C2.49436 15.3473 1.31641 14.1694 1.31641 12.7164C1.31641 11.2633 2.49436 10.0854 3.94739 10.0854H12.7173C14.1703 10.0854 15.3483 11.2633 15.3483 12.7164C15.3483 14.1694 14.1703 15.3473 12.7173 15.3473Z" fill="#B0BEC5"/>
<path d="M12.7173 27.6251H3.94739C2.49436 27.6251 1.31641 26.4472 1.31641 24.9942C1.31641 23.5411 2.49436 22.3632 3.94739 22.3632H12.7173C14.1703 22.3632 15.3483 23.5411 15.3483 24.9942C15.3483 26.4472 14.1703 27.6251 12.7173 27.6251Z" fill="#B0BEC5"/>
<path d="M12.7173 39.903H3.94739C2.49436 39.903 1.31641 38.725 1.31641 37.272C1.31641 35.8189 2.49436 34.641 3.94739 34.641H12.7173C14.1703 34.641 15.3483 35.8189 15.3483 37.272C15.3483 38.725 14.1703 39.903 12.7173 39.903Z" fill="#B0BEC5"/>
<path d="M12.7173 52.1809H3.94739C2.49436 52.1809 1.31641 51.003 1.31641 49.5499C1.31641 48.0969 2.49436 46.919 3.94739 46.919H12.7173C14.1703 46.919 15.3483 48.0969 15.3483 49.5499C15.3483 51.003 14.1703 52.1809 12.7173 52.1809Z" fill="#B0BEC5"/>
<path d="M12.7173 64.4587H3.94739C2.49436 64.4587 1.31641 63.2808 1.31641 61.8278C1.31641 60.3747 2.49436 59.1968 3.94739 59.1968H12.7173C14.1703 59.1968 15.3483 60.3747 15.3483 61.8278C15.3483 63.2808 14.1703 64.4587 12.7173 64.4587Z" fill="#B0BEC5"/>
<path d="M65.161 76.7366H44.1133C44.1133 77.9669 44.3264 79.1471 44.7146 80.2445H64.56C64.9478 79.1471 65.161 77.9671 65.161 76.7366Z" fill="#FDAB08"/>
<path d="M75.6854 73.2286H33.5898V76.7366H75.6854V73.2286Z" fill="#FF7043"/>
<path d="M54.635 31.1331C52.837 31.1331 51.2928 30.0504 50.6159 28.5021C50.381 29.0393 50.25 29.6321 50.25 30.2561C50.25 32.6778 52.2132 34.6412 54.635 34.6412C57.0567 34.6412 59.0201 32.678 59.0201 30.2561C59.0201 29.6323 58.8891 29.0394 58.6542 28.5021C57.9772 30.0506 56.433 31.1331 54.635 31.1331Z" fill="#90A4AE"/>
<path d="M60.0745 10.5239H54.8125V13.1549H60.0745V10.5239Z" fill="black"/>
<path d="M52.1799 10.5239H46.918V13.1549H52.1799V10.5239Z" fill="black"/>
<path d="M44.2898 10.5239H28.5039V13.1549H44.2898V10.5239Z" fill="black"/>
<path d="M43.4104 17.5398H38.1484V20.1708H43.4104V17.5398Z" fill="black"/>
<path d="M60.0748 17.5398H46.043V20.1708H60.0748V17.5398Z" fill="black"/>
<path d="M35.5201 17.5398H21.4883V20.1708H35.5201V17.5398Z" fill="black"/>
<path d="M46.0432 24.5558H39.0273V27.1868H46.0432V24.5558Z" fill="black"/>
<path d="M36.3946 24.5558H32.8867V27.1868H36.3946V24.5558Z" fill="black"/>
<path d="M30.2582 24.5558H21.4883V27.1868H30.2582V24.5558Z" fill="black"/>
<path d="M26.7502 31.5716H21.4883V34.2026H26.7502V31.5716Z" fill="black"/>
<path d="M40.7798 31.5716H29.3789V34.2026H40.7798V31.5716Z" fill="black"/>
<path d="M30.2582 38.5876H21.4883V41.2186H30.2582V38.5876Z" fill="black"/>
<path d="M35.5177 38.5876H32.8867V41.2186H35.5177V38.5876Z" fill="black"/>
<path d="M32.0122 45.6035H21.4883V48.2345H32.0122V45.6035Z" fill="black"/>
<path d="M32.0122 52.6193H21.4883V55.2503H32.0122V52.6193Z" fill="black"/>
<path d="M32.0122 59.6353H21.4883V62.2663H32.0122V59.6353Z" fill="black"/>
<path d="M77.0002 67.1537L73.4922 65.3997V52.1808C73.4922 43.306 67.3286 35.8449 59.0575 33.85C59.8569 32.8686 60.3373 31.6176 60.3373 30.256C60.3373 27.1127 57.78 24.5554 54.6368 24.5554C51.4937 24.5554 48.9363 27.1126 48.9363 30.256C48.9363 31.6176 49.4167 32.8686 50.2161 33.85C41.945 35.8449 35.7814 43.3059 35.7814 52.1808V65.3997L32.2734 67.1537V78.052H42.8723C43.529 83.9633 48.5536 88.576 54.6368 88.576C60.72 88.576 65.7446 83.9633 66.4013 78.052H77.0002V67.1537ZM51.5674 30.2561C51.5674 28.5637 52.9445 27.1866 54.637 27.1866C56.3294 27.1866 57.7065 28.5637 57.7065 30.2561C57.7065 31.9486 56.3294 33.3257 54.637 33.3257C52.9445 33.3257 51.5674 31.9486 51.5674 30.2561ZM54.6368 85.945C50.0059 85.945 46.1643 82.5084 45.5239 78.052H63.7496C63.1093 82.5085 59.2677 85.945 54.6368 85.945ZM74.3692 75.4211H34.9046V68.7796L38.4125 67.0256V52.1808C38.4125 43.2346 45.6906 35.9565 54.6368 35.9565C63.583 35.9565 70.8611 43.2346 70.8611 52.1808V67.0256L74.369 68.7796L74.3692 75.4211Z" fill="black"/>
<path d="M23.0646 79.4552H20.4336V82.0862H23.0646V79.4552Z" fill="black"/>
<path d="M28.3263 79.4552H25.6953V82.0862H28.3263V79.4552Z" fill="black"/>
<path d="M17.8029 79.4552H15.1719V82.0862H17.8029V79.4552Z" fill="black"/>
<path d="M33.588 84.7172H30.957V87.3482H33.588V84.7172Z" fill="black"/>
<path d="M28.3263 84.7172H25.6953V87.3482H28.3263V84.7172Z" fill="black"/>
<path d="M23.0646 84.7172H20.4336V87.3482H23.0646V84.7172Z" fill="black"/>
<path d="M9.647 65.7742H12.7165C14.8927 65.7742 16.663 64.0038 16.663 61.8278C16.663 59.6518 14.8927 57.8813 12.7165 57.8813H9.647V53.4963H12.7165C14.8927 53.4963 16.663 51.7258 16.663 49.5498C16.663 47.3738 14.8927 45.6033 12.7165 45.6033H9.647V41.2183H12.7165C14.8927 41.2183 16.663 39.4478 16.663 37.2718C16.663 35.0958 14.8927 33.3253 12.7165 33.3253H9.647V28.9403H12.7165C14.8927 28.9403 16.663 27.1698 16.663 24.9938C16.663 22.8178 14.8927 21.0473 12.7165 21.0473H9.647V16.6628H12.7165C14.8927 16.6628 16.663 14.8924 16.663 12.7164C16.663 10.5404 14.8927 8.76989 12.7165 8.76989H9.647V2.63098H64.8973V33.5677H67.5283V0H7.01601V8.76989H3.94648C1.77031 8.76989 0 10.5404 0 12.7164C0 14.8924 1.77031 16.6628 3.94648 16.6628H7.01601V21.0479H3.94648C1.77031 21.0479 0 22.8183 0 24.9943C0 27.1703 1.77031 28.9408 3.94648 28.9408H7.01601V33.3258H3.94648C1.77031 33.3258 0 35.0963 0 37.2723C0 39.4483 1.77031 41.2188 3.94648 41.2188H7.01601V45.6038H3.94648C1.77031 45.6038 0 47.3743 0 49.5503C0 51.7263 1.77031 53.4968 3.94648 53.4968H7.01601V57.8818H3.94648C1.77031 57.8818 0 59.6523 0 61.8283C0 64.0043 1.77031 65.7748 3.94648 65.7748H7.01601V74.5446H29.2038V71.9137H9.647V65.7742ZM2.63098 12.7164C2.63098 11.991 3.22109 11.4009 3.94648 11.4009H12.7164C13.4418 11.4009 14.0319 11.991 14.0319 12.7164C14.0319 13.4418 13.4418 14.0319 12.7164 14.0319H3.94648C3.22109 14.0319 2.63098 13.4418 2.63098 12.7164ZM2.63098 24.9942C2.63098 24.2688 3.22109 23.6787 3.94648 23.6787H12.7164C13.4418 23.6787 14.0319 24.2688 14.0319 24.9942C14.0319 25.7196 13.4418 26.3097 12.7164 26.3097H3.94648C3.22109 26.3097 2.63098 25.7197 2.63098 24.9942ZM2.63098 37.2721C2.63098 36.5468 3.22109 35.9567 3.94648 35.9567H12.7164C13.4418 35.9567 14.0319 36.5468 14.0319 37.2721C14.0319 37.9975 13.4418 38.5876 12.7164 38.5876H3.94648C3.22109 38.5876 2.63098 37.9975 2.63098 37.2721ZM2.63098 49.55C2.63098 48.8246 3.22109 48.2345 3.94648 48.2345H12.7164C13.4418 48.2345 14.0319 48.8246 14.0319 49.55C14.0319 50.2753 13.4418 50.8654 12.7164 50.8654H3.94648C3.22109 50.8654 2.63098 50.2753 2.63098 49.55ZM2.63098 61.8278C2.63098 61.1024 3.22109 60.5123 3.94648 60.5123H12.7164C13.4418 60.5123 14.0319 61.1024 14.0319 61.8278C14.0319 62.5532 13.4418 63.1433 12.7164 63.1433H3.94648C3.22109 63.1433 2.63098 62.5532 2.63098 61.8278Z" fill="black"/>
<path d="M54.6361 83.314C53.0159 83.314 51.4584 82.7177 50.25 81.6345L52.0061 79.6753C52.731 80.3251 53.665 80.683 54.6361 80.683C55.6071 80.683 56.5411 80.3253 57.266 79.6753L59.0221 81.6345C57.8137 82.7177 56.2562 83.314 54.6361 83.314Z" fill="white"/>
<path d="M67.7897 72.7903H59.0198V70.1593H67.7897V72.7903ZM56.3888 72.7903H53.7578V70.1593H56.3888V72.7903Z" fill="white"/>
<path d="M67.7936 72.7903H59.0237V70.1593H67.7936V72.7903ZM56.3927 72.7903H53.7617V70.1593H56.3927V72.7903Z" fill="white"/>
<path d="M67.7901 67.5283H52.0044V64.8973H67.7901V67.5283ZM49.3732 67.5283H46.7423V64.8973H49.3732V67.5283ZM44.1115 67.5283H41.4805V64.8973H44.1115V67.5283Z" fill="white"/>
<path d="M67.794 67.5283H52.0083V64.8973H67.794V67.5283ZM49.3772 67.5283H46.7462V64.8973H49.3772V67.5283ZM44.1154 67.5283H41.4844V64.8973H44.1154V67.5283Z" fill="white"/>
<path d="M65.3462 49.8314C64.2525 44.8409 59.7486 41.2185 54.6371 41.2185C54.6368 41.2185 54.6363 41.2185 54.6359 41.2185C53.3555 41.2185 52.1013 41.4382 50.9076 41.8717L50.0097 39.3987C51.492 38.8605 53.0483 38.5877 54.6359 38.5877C54.6364 38.5877 54.637 38.5877 54.6375 38.5877C60.9753 38.5877 66.5599 43.0794 67.9164 49.2685L65.3462 49.8314ZM46.9639 44.36L45.1211 42.4819C45.8136 41.8025 46.5798 41.1958 47.3988 40.6785L48.8036 42.9033C48.1422 43.3209 47.5232 43.8109 46.9639 44.36Z" fill="white"/>
<path d="M56.567 7.89296H47.7971V5.26198H56.567V7.89296ZM45.1661 7.89296H42.5352V5.26198H45.1661V7.89296Z" fill="white"/>
</svg>
