<svg width="68" height="74" viewBox="0 0 68 74" fill="none" xmlns="http://www.w3.org/2000/svg">
<path d="M40.9841 3.38831H43.9658V8.85503H40.9841V3.38831Z" fill="#A3A3CC"/>
<path fill-rule="evenodd" clip-rule="evenodd" d="M47.4158 11.1094L52.523 13.2279L55.0674 11.5216L61.224 17.6784L59.5178 20.2226L61.6363 25.3299L64.6394 25.9221V34.6288L61.6363 35.2209L59.5178 40.3281L61.224 42.8724L55.0674 49.0291L52.523 47.3229L47.4158 49.4414L46.8237 52.4446H38.117L37.5249 49.4414L32.4177 47.3229L29.8733 49.0291L23.7166 42.8724L25.4229 40.3281L23.3043 35.2209L20.3013 34.6288V25.9221L23.3043 25.3299L25.4229 20.2226L23.7166 17.6784L29.8733 11.5216L32.4177 13.2279L37.5249 11.1094L38.117 8.1062H46.8237L47.4158 11.1094Z" fill="#F89B00"/>
<path fill-rule="evenodd" clip-rule="evenodd" d="M47.4158 11.1094L53.1288 13.4792L55.4609 11.9153L61.224 17.6784L59.5178 20.2226L61.6363 25.3299L64.6394 25.9221V34.6288L61.6363 35.2209L59.5178 40.3281L61.224 42.8724L55.4611 48.6357L53.1288 47.0716L47.4158 49.4414L46.8237 52.4445H39.1987L38.5647 49.2289L33.0109 46.925L30.8025 48.406L25.2688 42.8724L26.975 40.3281L24.8566 35.2209L21.8534 34.6288V25.9221L24.8566 25.3299L26.975 20.2226L25.2688 17.6784L30.8025 12.1447L33.0109 13.6257L38.5647 11.322L39.1987 8.1062H46.8237L47.4158 11.1094Z" fill="#F9AC00"/>
<path d="M42.4704 45.4427C50.8471 45.4427 57.6377 38.652 57.6377 30.2753C57.6377 21.8986 50.8471 15.1079 42.4704 15.1079C34.0936 15.1079 27.303 21.8986 27.303 30.2753C27.303 38.652 34.0936 45.4427 42.4704 45.4427Z" fill="#D3D3F2"/>
<path fill-rule="evenodd" clip-rule="evenodd" d="M41.9728 45.4337C33.8265 45.1711 27.3029 38.4856 27.3029 30.2753C27.3029 22.0651 33.8265 15.3796 41.9728 15.1169C50.1191 15.3796 56.6426 22.0652 56.6426 30.2753C56.6426 38.4854 50.119 45.1711 41.9728 45.4337Z" fill="#E9E9FF"/>
<path fill-rule="evenodd" clip-rule="evenodd" d="M42.475 31.7341C43.2913 31.7341 43.9571 31.0683 43.9571 30.2518C43.9571 29.4353 43.2913 28.7697 42.475 28.7697C41.6586 28.7697 40.9928 29.4355 40.9928 30.2518C40.9928 31.0682 41.6586 31.7341 42.475 31.7341Z" fill="#F9AC00"/>
<path d="M46.8737 0.878906H38.0761C37.6786 0.878906 37.3563 1.2012 37.3563 1.59878V3.56292C37.3563 3.96049 37.6786 4.28279 38.0761 4.28279H46.8737C47.2712 4.28279 47.5935 3.96049 47.5935 3.56292V1.59878C47.5935 1.2012 47.2712 0.878906 46.8737 0.878906Z" fill="#5D689E"/>
<path fill-rule="evenodd" clip-rule="evenodd" d="M43.7104 47.9481C43.6082 46.1469 42.1833 44.4024 38.9911 44.3181C33.9084 44.1838 32.1099 44.0287 27.0012 43.4038C23.7389 43.0046 21.046 45.0295 18.5711 47.192C14.3897 50.8456 11.9356 52.4135 7.16064 55.2469L17.8538 67.4847C23.1279 61.9593 26.3017 61.465 31.642 61.5678C36.6612 61.6641 37.2622 62.0349 42.1558 59.9342L63.7808 49.8027C69.2513 47.2397 65.5137 41.9 61.0791 43.8746C55.7246 46.2578 46.7923 49.0162 43.45 49.5598C43.6509 49.094 43.7452 48.5599 43.7104 47.9481Z" fill="#FDD7AD"/>
<path fill-rule="evenodd" clip-rule="evenodd" d="M43.7104 47.948C43.629 46.5167 42.7125 45.1213 40.7378 44.5663C41.3136 45.2433 41.6133 46.1271 41.6574 46.9C41.6979 47.5958 41.5088 48.1279 41.0632 48.5719C38.9695 50.6592 32.3857 50.2625 29.2231 50.0708C28.6869 50.0383 28.2247 50.0113 27.8384 49.9953C27.1513 49.9696 26.5732 50.5052 26.546 51.1937C26.5204 51.8809 27.0565 52.4611 27.7444 52.4862C28.1011 52.5003 28.5525 52.5271 29.0733 52.5586C34.328 52.8764 40.1595 52.9933 42.8236 50.337C43.064 50.0965 43.2736 49.8388 43.4499 49.5598C43.6508 49.0941 43.7453 48.5599 43.7105 47.9482L43.7104 47.948ZM15.188 64.5703L16.7145 63.0541C21.6334 58.4677 25.9958 58.5976 30.7194 58.6909C34.8418 58.7641 36.7027 59.4498 40.8376 57.6777L63.2241 47.3469C64.8248 46.597 65.5451 45.5289 65.1017 44.559C64.9571 44.2426 64.6212 43.8897 64.1633 43.6144C66.8125 44.4162 67.8719 47.8856 63.7806 49.8024L42.1556 59.934C37.262 62.0347 36.6612 61.6639 31.6418 61.5676C26.3015 61.4647 23.1277 61.9591 17.8536 67.4844L15.1879 64.5702L15.188 64.5703Z" fill="#E6B17C"/>
<path fill-rule="evenodd" clip-rule="evenodd" d="M1.5962 60.2975L12.1543 72.3808C12.8799 73.2113 14.1534 73.2971 14.9839 72.5714L18.2042 69.7577C19.0347 69.032 19.1204 67.7588 18.3948 66.9281L7.83671 54.8448C7.11109 54.0143 5.83765 53.9286 5.0073 54.6542L1.78696 57.468C0.956462 58.1936 0.870731 59.467 1.59635 60.2975H1.5962Z" fill="#2A92FA"/>
<path fill-rule="evenodd" clip-rule="evenodd" d="M9.92883 69.8337L12.1543 72.3807C12.8799 73.2112 14.1533 73.2969 14.9838 72.5713L18.2042 69.7575C19.0347 69.0319 19.1204 67.7586 18.3948 66.9279L15.8021 63.9608L9.92898 69.8338L9.92883 69.8337Z" fill="#0E82F5"/>
<path fill-rule="evenodd" clip-rule="evenodd" d="M65.5666 45.6761C65.0073 44.4523 63.2808 43.6952 61.358 44.5508C56.1614 46.8634 47.594 49.5353 43.9413 50.2148C43.7644 50.5269 43.5408 50.8187 43.2698 51.0863C40.546 53.7999 33.6367 53.3815 29.9236 53.1565C29.4001 53.1255 28.9479 53.0975 28.5855 53.0846C28.1793 53.0681 27.8621 52.7265 27.878 52.3195C27.8938 51.9132 28.2361 51.5933 28.6424 51.6112C29.0207 51.6257 29.4808 51.6537 30.0129 51.6861C33.2465 51.8824 39.9761 52.29 42.2317 50.0438C42.7775 49.4988 43.0213 48.8257 42.9737 47.9858C42.8953 46.6175 41.8053 45.1283 38.9757 45.0529C33.7554 44.9134 31.9205 44.7437 26.9296 44.1325C23.919 43.7615 21.4023 45.7115 19.082 47.7385C15.3285 51.0158 12.9521 52.6351 8.97284 55.026L18.4304 65.8512C23.4249 61.0149 26.7893 60.7143 31.6652 60.8086C32.349 60.8223 32.9544 60.841 33.4901 60.8575C36.874 60.9603 37.7857 60.9883 41.8512 59.2446L63.4441 49.1335C65.3237 48.2526 66.137 46.9282 65.5668 45.6762L65.5666 45.6761ZM17.8356 67.4078C18.0564 67.6608 18.1663 67.988 18.1433 68.3266C18.1204 68.666 17.9679 68.9752 17.7148 69.1973L14.4957 72.0095C14.2426 72.2303 13.916 72.3409 13.5761 72.3172C13.2367 72.2935 12.9282 72.1418 12.7067 71.8887L2.15255 59.8103C1.93041 59.5565 1.82111 59.2308 1.84409 58.8907C1.86707 58.552 2.01953 58.2421 2.2726 58.0214L5.49176 55.2085C5.72333 55.0064 6.01528 54.8973 6.323 54.8973C6.35246 54.8973 6.38192 54.8988 6.41138 54.9002C6.75077 54.924 7.05922 55.0757 7.28076 55.3287L17.8356 67.4081V67.4078ZM39.0151 43.58C38.2097 43.5592 37.485 43.5375 36.8177 43.5116C31.4939 41.2395 28.0598 36.0494 28.0598 30.2518C28.0598 22.3035 34.5269 15.8372 42.4759 15.8372C50.425 15.8372 56.8891 22.3035 56.8891 30.2518C56.8891 38.1398 50.5199 44.5687 42.6521 44.6643C41.8007 44.0452 40.612 43.6224 39.0151 43.58ZM24.7097 42.7624L24.6902 42.7417L26.0572 40.7031C26.1945 40.4982 26.2204 40.2394 26.1256 40.0107L24.0094 34.9097C23.9151 34.6811 23.7139 34.5164 23.4716 34.469L21.0664 33.9951V26.5077L23.4716 26.0331C23.7139 25.9856 23.9153 25.8209 24.0094 25.5923L26.1256 20.4914C26.2204 20.2635 26.1947 20.0039 26.0572 19.7989L24.6902 17.7604L29.9839 12.466L32.0224 13.833C32.2273 13.9702 32.487 13.9969 32.7149 13.9026L37.8164 11.7857C38.0443 11.6916 38.2097 11.4895 38.2564 11.2479L38.731 8.84128H46.2185L46.6931 11.2479C46.7398 11.4895 46.9052 11.6916 47.1331 11.7857L52.234 13.9026C52.4627 13.9968 52.7224 13.9702 52.9265 13.833L54.9651 12.466L60.2594 17.7604L58.8925 19.7989C58.7559 20.0038 58.7292 20.2633 58.8248 20.4914L60.9403 25.5923C61.0345 25.8209 61.2365 25.9856 61.4773 26.0331L63.8847 26.5077V33.9951L61.4773 34.469C61.2365 34.5164 61.0344 34.6811 60.9403 34.9097L58.8248 40.0107C58.7292 40.2393 58.7559 40.4981 58.8925 40.7031L60.2594 42.7417L59.0881 43.9143C54.3467 45.8436 47.9041 47.8532 44.4332 48.6119C44.4539 48.3818 44.4583 48.1459 44.4439 47.9021C44.4094 47.3025 44.2418 46.6661 43.9132 46.0737C52.0018 45.3445 58.3625 38.5273 58.3625 30.2518C58.3625 21.4902 51.2361 14.3638 42.4759 14.3638C33.7158 14.3638 26.5872 21.4902 26.5872 30.2518C26.5872 35.564 29.2038 40.4112 33.457 43.3356C31.5702 43.2004 29.8051 42.9997 27.1085 42.6698C26.273 42.5684 25.4748 42.6109 24.7097 42.7624ZM41.7201 7.3681H43.2294V5.01906H41.7201V7.3681ZM38.0932 3.54573H46.8562V1.61517H38.0932V3.54573ZM64.0687 50.4663L42.465 60.5832C42.4578 60.5861 42.4506 60.5889 42.4435 60.5932C38.0667 62.47 36.9033 62.4346 33.4454 62.3304C32.914 62.3139 32.3114 62.2944 31.6362 62.2815C26.6891 62.1836 23.8251 62.6309 19.334 67.0257C19.5469 67.4549 19.6461 67.933 19.613 68.4256C19.5634 69.1576 19.2332 69.8249 18.684 70.3052L15.4648 73.1181C14.9629 73.5575 14.3301 73.7934 13.6665 73.7934C13.6039 73.7934 13.5407 73.7913 13.4774 73.7876C12.7454 73.7372 12.0774 73.4073 11.597 72.8578L1.04291 60.7785C0.562554 60.2292 0.325249 59.5238 0.374153 58.7918C0.423795 58.0599 0.753754 57.3919 1.3032 56.9123L4.52236 54.0986C5.07239 53.6183 5.77709 53.3824 6.51051 53.4298C7.02814 53.4651 7.51218 53.6434 7.92271 53.9375C12.0004 51.4956 14.3531 49.9108 18.1123 46.6292C19.5978 45.3313 21.2531 43.9967 23.1277 43.2396C22.9667 42.9965 22.9615 42.6751 23.1291 42.4248L24.6139 40.2108L22.7998 35.837L20.1867 35.3221C19.8416 35.2538 19.5928 34.9518 19.5928 34.6002V25.9012C19.5928 25.5496 19.8416 25.2476 20.1867 25.18L22.7998 24.6645L24.6139 20.2912L23.1291 18.0765C22.9335 17.7852 22.9717 17.3947 23.2205 17.146L29.3704 10.996C29.6192 10.7472 30.0089 10.7091 30.3016 10.9047L32.5156 12.3895L36.8881 10.5761L37.4037 7.96306C37.472 7.61719 37.7733 7.36766 38.1256 7.36766H40.2468V5.01862H38.0753C37.2727 5.01862 36.6206 4.3643 36.6206 3.56179V1.59853C36.6206 0.79543 37.2727 0.141846 38.0753 0.141846H46.8743C47.6768 0.141846 48.3296 0.79543 48.3296 1.59853V3.56223C48.3296 4.36474 47.6768 5.01906 46.8743 5.01906H44.7027V7.3681H46.8239C47.1762 7.3681 47.4782 7.61764 47.5458 7.9635L48.0614 10.5765L52.4347 12.39L54.6486 10.9052C54.9406 10.7095 55.331 10.7477 55.5798 10.9965L61.7298 17.1464C61.9786 17.3952 62.0168 17.7857 61.8211 18.0769L60.3363 20.2916L62.149 24.6649L64.7628 25.1805C65.1087 25.2481 65.3582 25.55 65.3582 25.9017V34.6007C65.3582 34.9523 65.1087 35.2542 64.7628 35.3226L62.149 35.8374L60.3363 40.2113L61.8211 42.4253C61.9016 42.546 61.9405 42.6826 61.9434 42.82C64.2163 42.3454 66.1735 43.4607 66.9062 45.0649C67.6691 46.7352 67.0874 49.0542 64.0688 50.4664L64.0687 50.4663ZM41.7287 30.2518C41.7287 30.6631 42.063 30.9975 42.4758 30.9975C42.8863 30.9975 43.2207 30.6631 43.2207 30.2518C43.2207 29.8406 42.8863 29.5047 42.4758 29.5047C42.063 29.5047 41.7287 29.8398 41.7287 30.2518ZM40.2553 30.2518C40.2553 31.4741 41.2513 32.4701 42.4758 32.4701C43.7003 32.4701 44.694 31.4741 44.694 30.2518C44.694 29.2854 44.0734 28.465 43.212 28.1601V22.3783C43.212 21.972 42.8819 21.6421 42.4758 21.6421C42.0673 21.6421 41.7388 21.972 41.7388 22.3783V28.1601C40.8759 28.465 40.2555 29.2854 40.2555 30.2518H40.2553ZM36.4638 18.3674C36.2609 18.0158 35.8116 17.895 35.4578 18.0977C35.1062 18.3011 34.9854 18.752 35.1888 19.1043L35.7483 20.0729C35.8849 20.3087 36.1323 20.4417 36.3861 20.4417C36.5112 20.4417 36.6379 20.4087 36.7542 20.3424C37.1059 20.139 37.2266 19.6888 37.024 19.3365L36.4638 18.3674ZM32.2961 23.5243L31.3276 22.9649C30.976 22.7614 30.5251 22.8822 30.3224 23.2346C30.1182 23.5862 30.239 24.0371 30.5914 24.2405L31.5599 24.8C31.6757 24.8669 31.8029 24.8991 31.9273 24.8991C32.1818 24.8991 32.4291 24.7661 32.5658 24.5303C32.7694 24.1787 32.6486 23.7278 32.2961 23.5243ZM31.0334 30.2517C31.0334 29.8439 30.7035 29.5153 30.2965 29.5153H29.1784C28.7714 29.5153 28.4421 29.8439 28.4421 30.2517C28.4421 30.6594 28.7714 30.9879 29.1784 30.9879H30.2965C30.7035 30.9879 31.0334 30.6585 31.0334 30.2517ZM31.5597 35.702L30.592 36.2614C30.2389 36.4648 30.1181 36.9157 30.3222 37.268C30.4582 37.5031 30.7063 37.6361 30.9601 37.6361C31.0851 37.6361 31.2117 37.6037 31.3274 37.5376L32.296 36.9775C32.6483 36.774 32.7691 36.324 32.5657 35.9716C32.3622 35.6193 31.9121 35.4985 31.5597 35.702ZM36.7541 40.1594C36.4017 39.956 35.9508 40.0775 35.7482 40.4292L35.1887 41.3984C34.9853 41.75 35.1061 42.2009 35.4577 42.4043C35.5742 42.4705 35.7007 42.5029 35.8258 42.5029C36.0811 42.5029 36.3284 42.3706 36.4636 42.1348L37.0238 41.1655C37.2265 40.8139 37.1057 40.363 36.7541 40.1596V40.1594ZM42.4755 41.6932C42.8818 41.6932 43.2117 42.0225 43.2117 42.4295V43.5477C43.2117 43.954 42.8816 44.2841 42.4755 44.2841C42.067 44.2841 41.7385 43.9541 41.7385 43.5477V42.4295C41.7385 42.0225 42.0672 41.6932 42.4755 41.6932ZM48.4852 42.1346C48.6204 42.3705 48.8685 42.5027 49.123 42.5027C49.2481 42.5027 49.3746 42.4703 49.4911 42.4042C49.8435 42.2008 49.9642 41.7499 49.7607 41.3983L49.2005 40.429C48.9976 40.0774 48.5484 39.9559 48.1945 40.1593C47.8429 40.3629 47.7221 40.8136 47.9248 41.1652L48.485 42.1345L48.4852 42.1346ZM52.6521 36.9777L53.6213 37.5377C53.7364 37.6039 53.8629 37.6363 53.988 37.6363C54.2433 37.6363 54.4906 37.5033 54.6273 37.2682C54.8309 36.9158 54.7099 36.4649 54.3585 36.2615L53.3892 35.7022C53.0369 35.4986 52.586 35.6194 52.3825 35.9718C52.1797 36.3241 52.3003 36.7743 52.6521 36.9777ZM53.9161 30.2518C53.9161 30.6588 54.2461 30.988 54.6525 30.988H55.7707C56.1777 30.988 56.507 30.6587 56.507 30.2518C56.507 29.845 56.1777 29.5155 55.7707 29.5155H54.6525C54.2462 29.5155 53.9161 29.8441 53.9161 30.2518ZM53.0217 24.8993C53.1475 24.8993 53.274 24.8669 53.3891 24.8001L54.3583 24.2407C54.7099 24.0372 54.8307 23.5863 54.6271 23.2347C54.4243 22.8824 53.9736 22.7616 53.6212 22.965L52.6519 23.5245C52.3003 23.7279 52.1795 24.1788 52.3822 24.5304C52.5195 24.7662 52.767 24.8993 53.0217 24.8993ZM48.1947 20.3427C48.3112 20.4089 48.4377 20.442 48.5628 20.442C48.8181 20.442 49.0654 20.309 49.2006 20.0732L49.7608 19.1046C49.9644 18.7523 49.8435 18.3014 49.4913 18.098C49.1389 17.8951 48.6888 18.0159 48.4853 18.3677L47.9251 19.3369C47.7223 19.6893 47.8432 20.1395 48.1948 20.3429L48.1947 20.3427ZM41.7384 18.0734C41.7384 18.4796 42.067 18.8096 42.4754 18.8096C42.8816 18.8096 43.2116 18.4796 43.2116 18.0734V16.9552C43.2116 16.5482 42.8815 16.2182 42.4754 16.2182C42.0669 16.2182 41.7384 16.5482 41.7384 16.9552V18.0734Z" fill="black"/>
</svg>
