<svg width="81" height="80" viewBox="0 0 81 80" fill="none" xmlns="http://www.w3.org/2000/svg">
<path d="M40.6244 79.9731C62.6391 79.9731 80.4855 62.1267 80.4855 40.112C80.4855 18.0974 62.6391 0.250977 40.6244 0.250977C18.6098 0.250977 0.763367 18.0974 0.763367 40.112C0.763367 62.1267 18.6098 79.9731 40.6244 79.9731Z" fill="#428DC5"/>
<path d="M74.8191 43.5176C73.0975 60.7902 58.866 73.7983 41.999 74.4512C41.7172 74.4632 41.4354 74.4718 41.1536 74.4752H40.2361C39.2379 74.4632 38.2322 74.4071 37.2191 74.3068C36.9785 74.2828 36.7397 74.257 36.5009 74.2278C34.6408 74.0044 32.802 73.6297 31.0028 73.1076C29.1121 72.5589 27.2725 71.8472 25.5047 70.9805C25.0408 70.7514 24.5827 70.5132 24.1302 70.2658C18.2117 67.0268 13.3774 62.1175 10.2299 56.15C7.08233 50.1824 5.76074 43.4204 6.42984 36.7069C8.31121 17.8227 25.1456 4.03795 44.0298 5.91761C62.914 7.79727 76.6987 24.6334 74.8191 43.5176Z" fill="#FBB540"/>
<path d="M41.9989 55.2324V74.4757H40.2361C39.2379 74.4637 38.2322 74.4075 37.219 74.3073C36.9785 74.2833 36.7397 74.2575 36.5009 74.2283V55.2324H41.9989Z" fill="#DA922A"/>
<path d="M50.2461 23.6182V27.0545C50.2463 27.5058 50.1575 27.9527 49.9848 28.3697C49.8122 28.7866 49.5591 29.1655 49.24 29.4846C48.9208 29.8037 48.542 30.0568 48.125 30.2295C47.708 30.4021 47.2611 30.4909 46.8098 30.4908H43.3735V38.7379L43.5264 40.1124L44.6587 50.301C44.7174 50.8281 44.6225 51.3609 44.3855 51.8354L41.999 56.6067L36.5009 60.7302V74.228C34.6408 74.0046 32.8021 73.6299 31.0028 73.1078C29.1121 72.5591 27.2725 71.8474 25.5048 70.9807C25.0409 70.7516 24.5827 70.5134 24.1302 70.2659V40.1124L29.6283 34.6143V24.9927L35.1264 19.4946H41.999L46.1226 23.6182H50.2461Z" fill="#EA9D2D"/>
<path d="M63.9912 79.9738C73.1008 79.9738 80.4855 72.5891 80.4855 63.4796C80.4855 54.3701 73.1008 46.9854 63.9912 46.9854C54.8817 46.9854 47.497 54.3701 47.497 63.4796C47.497 72.5891 54.8817 79.9738 63.9912 79.9738Z" fill="#E4E4E2"/>
<path d="M37.8754 23.6182H40.6245V26.3672H37.8754V23.6182Z" fill="#744630"/>
<path d="M43.5264 40.1119H37.8754C37.604 40.1115 37.3388 40.0314 37.1125 39.8816L30.575 35.5227L32.1007 33.2358L38.2912 37.3628H43.3734V38.7374L43.5264 40.1119Z" fill="#DC4D41"/>
<path d="M74.9874 60.7305H68.1148V53.8579H61.2422V60.7305H54.3696V67.6031H61.2422V74.4757H68.1148V67.6031H74.9874V60.7305Z" fill="#85BC94"/>
<path d="M31.0028 63.479V73.1075C29.112 72.5588 27.2724 71.8471 25.5047 70.9804V67.6026L31.0028 63.479Z" fill="#DA922A"/>
<path d="M28.1034 41.9485L26.8792 40.1123H21.3811L20.0066 34.6143L18.0537 36.9107C16.7379 38.4337 15.975 40.3565 15.8889 42.3674C15.8853 42.472 15.8835 42.5769 15.8835 42.6822V46.9849L10.4294 56.5287C14.0898 63.2407 19.876 68.5467 26.8792 71.6132V68.9773L25.5047 66.2282V62.1047L27.2149 59.5393C27.8923 58.5232 28.2537 57.3294 28.2537 56.1083V51.1085C29.3473 51.1085 30.3962 50.674 31.1695 49.9007C31.9428 49.1274 32.3773 48.0786 32.3773 46.9849V44.2359C31.5316 44.2358 30.6991 44.027 29.9536 43.628C29.208 43.229 28.5725 42.6521 28.1034 41.9485Z" fill="#E4E4E2"/>
<path d="M22.7557 44.2363H25.5047V46.9854H22.7557V44.2363Z" fill="#6FBBC6"/>
<path d="M36.5009 27.7412V29.2137C36.5026 30.6704 36.0164 32.0858 35.1199 33.234C34.2233 34.3821 32.968 35.197 31.5543 35.5485C31.5391 35.5533 31.5236 35.5573 31.5079 35.5605L27.9153 36.3268L29.6283 34.6138V33.1499L30.91 32.8768C31.7235 32.669 32.4446 32.196 32.9592 31.5326C33.4739 30.8693 33.7528 30.0533 33.7518 29.2137V27.7412H36.5009Z" fill="#DA922A"/>
</svg>
