<svg width="95" height="95" viewBox="0 0 95 95" fill="none" xmlns="http://www.w3.org/2000/svg">
<mask id="mask0_564_90" style="mask-type:luminance" maskUnits="userSpaceOnUse" x="0" y="0" width="95" height="95">
<path d="M0.51709 0.94043H94.5767V95H0.51709V0.94043Z" fill="white"/>
</mask>
<g mask="url(#mask0_564_90)">
<path d="M22.6146 22.3852C22.6146 25.4289 20.1407 31.5707 17.0891 31.5707C14.0375 31.5707 11.5635 25.4289 11.5635 22.3852C11.5635 19.3413 14.0375 16.8739 17.0891 16.8739C20.1407 16.8739 22.6146 19.3413 22.6146 22.3852Z" fill="#FFD0C7"/>
<path d="M22.6146 22.3852C22.6146 25.4289 20.1407 31.5707 17.0891 31.5707C14.0375 31.5707 11.5635 25.4289 11.5635 22.3852C11.5635 19.3413 14.0375 16.8739 17.0891 16.8739C20.1407 16.8739 22.6146 19.3413 22.6146 22.3852Z" stroke="black" stroke-width="2" stroke-miterlimit="10" stroke-linecap="round" stroke-linejoin="round"/>
<path d="M20.7728 78.3495C18.7384 78.3495 17.089 76.7045 17.089 74.6753C17.089 76.7045 15.4398 78.3495 13.4053 78.3495C11.3708 78.3495 9.72168 76.7045 9.72168 74.6753V51.6443H24.4565V74.6753C24.4565 76.7045 22.8072 78.3495 20.7728 78.3495Z" fill="#A0C8FF"/>
<path d="M17.089 74.6753C17.089 76.7045 18.7384 78.3495 20.7728 78.3495C22.8072 78.3495 24.4565 76.7045 24.4565 74.6753V51.6443H9.72168V74.6753C9.72168 76.7045 11.3708 78.3495 13.4053 78.3495C15.4398 78.3495 17.089 76.7045 17.089 74.6753ZM17.089 74.6753V58.9927" stroke="black" stroke-width="2" stroke-miterlimit="10" stroke-linecap="round" stroke-linejoin="round"/>
<path d="M28.1399 55.3185H28.1397C26.1053 55.3185 24.4562 53.6735 24.4562 51.6443H9.72133C9.72133 53.6735 8.07217 55.3185 6.03758 55.3185C4.00317 55.3185 2.354 53.6735 2.354 51.6443V38.919C2.354 34.8605 5.65252 31.5706 9.72133 31.5706H24.4562C28.5252 31.5706 31.8235 34.8605 31.8235 38.919V51.6443C31.8235 53.6735 30.1743 55.3185 28.1399 55.3185Z" fill="#DFEDFF"/>
<path d="M24.4562 51.6443C24.4562 53.6735 26.1053 55.3185 28.1397 55.3185H28.1399C30.1743 55.3185 31.8235 53.6735 31.8235 51.6443V38.919C31.8235 34.8605 28.5252 31.5706 24.4562 31.5706H9.72133C5.65252 31.5706 2.354 34.8605 2.354 38.919V51.6443C2.354 53.6735 4.00317 55.3185 6.03758 55.3185C8.07216 55.3185 9.72133 53.6735 9.72133 51.6443M24.4562 51.6443V42.5932M24.4562 51.6443H9.72133M9.72133 51.6443V42.5932" stroke="black" stroke-width="2" stroke-miterlimit="10" stroke-linecap="round" stroke-linejoin="round"/>
<path d="M42.9197 20.4136C42.9197 23.4573 40.4457 29.5991 37.3941 29.5991C34.3425 29.5991 31.8687 23.4573 31.8687 20.4136C31.8687 17.3699 34.3425 14.9023 37.3941 14.9023C40.4457 14.9023 42.9197 17.3699 42.9197 20.4136Z" fill="#FFD0C7"/>
<path d="M42.9197 20.4136C42.9197 23.4573 40.4457 29.5991 37.3941 29.5991C34.3425 29.5991 31.8687 23.4573 31.8687 20.4136C31.8687 17.3699 34.3425 14.9023 37.3941 14.9023C40.4457 14.9023 42.9197 17.3699 42.9197 20.4136Z" stroke="black" stroke-width="2" stroke-miterlimit="10" stroke-linecap="round" stroke-linejoin="round"/>
<path d="M41.0779 81.0378C39.0435 81.0378 37.3942 79.3929 37.3942 77.3636C37.3942 79.3929 35.745 81.0378 33.7104 81.0378C31.676 81.0378 30.0269 79.3929 30.0269 77.3636V51.6442H44.7617V77.3636C44.7617 79.3929 43.1123 81.0378 41.0779 81.0378Z" fill="#A0C8FF"/>
<path d="M37.3942 77.3636C37.3942 79.3929 39.0435 81.0378 41.0779 81.0378C43.1123 81.0378 44.7617 79.3929 44.7617 77.3636V51.6442H30.0269V77.3636C30.0269 79.3929 31.676 81.0378 33.7104 81.0378C35.745 81.0378 37.3942 79.3929 37.3942 77.3636ZM37.3942 77.3636V58.9926" stroke="black" stroke-width="2" stroke-miterlimit="10" stroke-linecap="round" stroke-linejoin="round"/>
<path d="M48.4454 55.3185C46.411 55.3185 44.7616 53.6735 44.7616 51.6443H30.0268C30.0268 53.6735 28.3776 55.3185 26.3431 55.3185C24.3086 55.3185 22.6597 53.6735 22.6597 51.6443V36.9475C22.6597 32.8891 25.958 29.5991 30.0268 29.5991H44.7616C48.8306 29.5991 52.1292 32.8891 52.1292 36.9475V51.6443C52.1292 53.6735 50.4798 55.3185 48.4454 55.3185Z" fill="#9DE3D1"/>
<path d="M44.7616 51.6443C44.7616 53.6735 46.411 55.3185 48.4454 55.3185C50.4798 55.3185 52.1292 53.6735 52.1292 51.6443V36.9475C52.1292 32.8891 48.8306 29.5991 44.7616 29.5991H30.0268C25.958 29.5991 22.6597 32.8891 22.6597 36.9475V51.6443C22.6597 53.6735 24.3086 55.3185 26.3431 55.3185C28.3776 55.3185 30.0268 53.6735 30.0268 51.6443M44.7616 51.6443V40.6217M44.7616 51.6443H30.0268M30.0268 51.6443V40.6217" stroke="black" stroke-width="2" stroke-miterlimit="10" stroke-linecap="round" stroke-linejoin="round"/>
<path d="M63.2249 18.5765C63.2249 21.6202 60.7511 27.762 57.6995 27.762C54.6479 27.762 52.1738 21.6202 52.1738 18.5765C52.1738 15.5327 54.6479 13.0652 57.6995 13.0652C60.7511 13.0652 63.2249 15.5327 63.2249 18.5765Z" fill="#FFD0C7"/>
<path d="M63.2249 18.5765C63.2249 21.6202 60.7511 27.762 57.6995 27.762C54.6479 27.762 52.1738 21.6202 52.1738 18.5765C52.1738 15.5327 54.6479 13.0652 57.6995 13.0652C60.7511 13.0652 63.2249 15.5327 63.2249 18.5765Z" stroke="black" stroke-width="2" stroke-miterlimit="10" stroke-linecap="round" stroke-linejoin="round"/>
<path d="M61.3831 82.875C59.3487 82.875 57.6994 81.2301 57.6994 79.2008C57.6994 81.2301 56.0502 82.875 54.0156 82.875C51.9812 82.875 50.332 81.2301 50.332 79.2008V51.6443H65.0669V79.2008C65.0669 81.2301 63.4175 82.875 61.3831 82.875Z" fill="#A0C8FF"/>
<path d="M57.6994 79.2008C57.6994 81.2301 59.3487 82.875 61.3831 82.875C63.4175 82.875 65.0669 81.2301 65.0669 79.2008V51.6443H50.332V79.2008C50.332 81.2301 51.9812 82.875 54.0156 82.875C56.0502 82.875 57.6994 81.2301 57.6994 79.2008ZM57.6994 79.2008V58.9927" stroke="black" stroke-width="2" stroke-miterlimit="10" stroke-linecap="round" stroke-linejoin="round"/>
<path d="M68.7508 55.3185C66.7164 55.3185 65.067 53.6735 65.067 51.6443H50.3322C50.3322 53.6735 48.683 55.3185 46.6484 55.3185C44.614 55.3185 42.9648 53.6735 42.9648 51.6443V35.1104C42.9648 31.052 46.2634 27.762 50.3322 27.762H65.067C69.136 27.762 72.4343 31.052 72.4343 35.1104V51.6443C72.4343 53.6735 70.7852 55.3185 68.7508 55.3185Z" fill="#FF7B79"/>
<path d="M65.067 51.6443C65.067 53.6735 66.7164 55.3185 68.7508 55.3185C70.7852 55.3185 72.4343 53.6735 72.4343 51.6443V35.1104C72.4343 31.052 69.136 27.762 65.067 27.762H50.3322C46.2634 27.762 42.9648 31.052 42.9648 35.1104V51.6443C42.9648 53.6735 44.614 55.3185 46.6484 55.3185C48.683 55.3185 50.3322 53.6735 50.3322 51.6443M65.067 51.6443V38.7846M65.067 51.6443H50.3322M50.3322 51.6443V38.7846" stroke="black" stroke-width="2" stroke-miterlimit="10" stroke-linecap="round" stroke-linejoin="round"/>
<path d="M83.5301 16.7394C83.5301 19.7831 81.0561 25.9249 78.0045 25.9249C74.9528 25.9249 72.479 19.7831 72.479 16.7394C72.479 13.6957 74.9528 11.2281 78.0045 11.2281C81.0561 11.2281 83.5301 13.6957 83.5301 16.7394Z" fill="#FFD0C7"/>
<path d="M83.5301 16.7394C83.5301 19.7831 81.0561 25.9249 78.0045 25.9249C74.9528 25.9249 72.479 19.7831 72.479 16.7394C72.479 13.6957 74.9528 11.2281 78.0045 11.2281C81.0561 11.2281 83.5301 13.6957 83.5301 16.7394Z" stroke="black" stroke-width="2" stroke-miterlimit="10" stroke-linecap="round" stroke-linejoin="round"/>
<path d="M81.6883 84.7122C79.6539 84.7122 78.0045 83.0672 78.0045 81.038C78.0045 83.0672 76.3554 84.7122 74.3208 84.7122C72.2864 84.7122 70.6372 83.0672 70.6372 81.038V51.6443H85.372V81.038C85.372 83.0672 83.7227 84.7122 81.6883 84.7122Z" fill="#A0C8FF"/>
<path d="M78.0045 81.038C78.0045 83.0672 79.6539 84.7122 81.6883 84.7122C83.7227 84.7122 85.372 83.0672 85.372 81.038V51.6443H70.6372V81.038C70.6372 83.0672 72.2864 84.7122 74.3208 84.7122C76.3554 84.7122 78.0045 83.0672 78.0045 81.038ZM78.0045 81.038V58.9927" stroke="black" stroke-width="2" stroke-miterlimit="10" stroke-linecap="round" stroke-linejoin="round"/>
<path d="M92.7395 33.2733C92.7395 29.2149 89.441 25.9249 85.372 25.9249H70.6372C66.5684 25.9249 63.27 29.2149 63.27 33.2733V51.6443C63.27 53.6735 64.919 55.3185 66.9536 55.3185H66.9538C68.9882 55.3185 70.6372 53.6735 70.6372 51.6443H85.372C85.372 53.6735 87.0213 55.3185 89.0558 55.3185C91.0902 55.3185 92.7395 53.6735 92.7395 51.6443V33.2733Z" fill="#FFDA8F"/>
<path d="M70.6372 51.6443C70.6372 53.6735 68.9882 55.3185 66.9538 55.3185H66.9536C64.919 55.3185 63.27 53.6735 63.27 51.6443V33.2733C63.27 29.2149 66.5684 25.9249 70.6372 25.9249H85.372C89.441 25.9249 92.7395 29.2149 92.7395 33.2733V51.6443C92.7395 53.6735 91.0902 55.3185 89.0558 55.3185C87.0213 55.3185 85.372 53.6735 85.372 51.6443M70.6372 51.6443V36.9475M70.6372 51.6443H85.372M85.372 51.6443V36.9475" stroke="black" stroke-width="2" stroke-miterlimit="10" stroke-linecap="round" stroke-linejoin="round"/>
</g>
</svg>
